<?xml version="1.0" encoding="UTF-8"?>
<svg version="1.1" xmlns="http://www.w3.org/2000/svg" width="992" height="1291">
<path d="M0 0 C0.67628637 -0.00282738 1.35257275 -0.00565475 2.04935265 -0.00856781 C5.64594258 -0.02344747 9.24249375 -0.03274108 12.83911133 -0.03710938 C15.73279797 -0.04144184 18.62617763 -0.05514354 21.51977539 -0.078125 C48.497156 -0.28763117 75.11993817 1.27915087 101.73046875 6.015625 C103.24722664 6.27835746 104.76399114 6.54105174 106.28076172 6.80371094 C151.84966017 14.78932154 195.54767795 28.46498613 237.41796875 48.203125 C239.03348633 48.96447754 239.03348633 48.96447754 240.68164062 49.74121094 C263.21399937 60.46607238 284.96311872 72.88718554 305.41796875 87.203125 C306.25545654 87.78489502 306.25545654 87.78489502 307.10986328 88.37841797 C324.54022337 100.50883907 341.1771704 113.59605052 356.87744141 127.89770508 C358.48339524 129.35503951 360.0958783 130.8052394 361.71728516 132.24536133 C367.88246793 137.72630175 373.78659369 143.41991423 379.60546875 149.265625 C380.45560547 150.11189453 381.30574219 150.95816406 382.18164062 151.83007812 C387.13636068 156.79245025 391.86561282 161.87105628 396.41796875 167.203125 C397.36726185 168.28623353 398.31772953 169.36831405 399.26953125 170.44921875 C407.0705461 179.39347379 414.30989366 188.70263029 421.41796875 198.203125 C421.90152832 198.8439502 422.38508789 199.48477539 422.88330078 200.14501953 C430.21185702 209.86326733 436.96544176 219.88352673 443.41796875 230.203125 C443.99345459 231.12230713 443.99345459 231.12230713 444.58056641 232.06005859 C486.78787 299.92314708 514.33493332 381.51887041 514.62109375 461.98046875 C514.62679382 463.26707901 514.6324939 464.55368927 514.6383667 465.87928772 C514.64878448 468.59457785 514.65468379 471.30983928 514.65820312 474.02514648 C514.66253846 476.73850313 514.67625371 479.45153292 514.69921875 482.16479492 C514.8912373 506.72666764 513.42228243 530.95574132 509.16796875 555.203125 C508.95817383 556.42128906 508.74837891 557.63945313 508.53222656 558.89453125 C495.4352306 632.60056916 465.35722229 701.9548575 420.37036133 761.78320312 C417.0478282 766.2282944 413.97886759 770.82314751 410.91430664 775.44897461 C407.85021554 780.06800841 404.7459684 784.65990296 401.64453125 789.25390625 C401.03146622 790.16236801 400.41840118 791.07082977 399.78675842 792.00682068 C397.23266151 795.79124388 394.67791859 799.5752307 392.12304688 803.35913086 C385.80552368 812.71659836 379.49083321 822.07530066 373.23855591 831.47651672 C366.54800725 841.52660925 359.76972219 851.51815201 353.01318359 861.52392578 C346.73132083 870.82781266 340.4524698 880.13302868 334.23580933 889.4806366 C327.59640949 899.45387742 320.86975674 909.36889305 314.1640625 919.29760742 C307.89266773 928.58441056 301.62555635 937.87350974 295.41796875 947.203125 C288.59051196 957.46436482 281.69117509 967.67686964 274.79296875 977.890625 C265.07530325 992.26814727 265.07530325 992.26814727 255.42578125 1006.69140625 C248.34408545 1017.33970893 241.16968926 1027.92583984 234.01318359 1038.52392578 C225.1850427 1051.59303818 225.1850427 1051.59303818 216.41796875 1064.703125 C209.33888837 1075.34752786 202.16706146 1085.92973136 195.01318359 1096.52392578 C186.1850427 1109.59303818 186.1850427 1109.59303818 177.41796875 1122.703125 C170.33888837 1133.34752786 163.16706146 1143.92973136 156.01318359 1154.52392578 C147.18418417 1167.59442009 147.18418417 1167.59442009 138.41796875 1180.70703125 C134.45866236 1186.66252227 130.45865157 1192.58987367 126.44921875 1198.51171875 C125.20572798 1200.34960857 123.96223841 1202.18749921 122.71875 1204.02539062 C120.81826654 1206.83402424 118.91697322 1209.64209251 117.01318359 1212.44848633 C103.31744009 1232.52777586 103.31744009 1232.52777586 90.98046875 1253.453125 C80.1539954 1272.05245101 61.48656867 1283.43722051 41.29296875 1289.640625 C17.64769425 1295.5338662 -7.87023341 1291.7083536 -28.765625 1279.59375 C-45.10359851 1269.6231683 -55.14060064 1254.82488538 -65.14453125 1238.953125 C-66.37232066 1237.01427531 -67.60018748 1235.07547464 -68.828125 1233.13671875 C-69.44929199 1232.15429199 -70.07045898 1231.17186523 -70.71044922 1230.15966797 C-73.11585954 1226.35983508 -75.53210665 1222.56696579 -77.94897461 1218.77441406 C-83.3339112 1210.32422888 -88.69808743 1201.86124575 -94.04345703 1193.38598633 C-97.87433817 1187.31524994 -101.72540057 1181.25752994 -105.58203125 1175.203125 C-110.41974755 1167.60854418 -115.23946196 1160.00297417 -120.04296875 1152.38671875 C-123.87405484 1146.31576487 -127.72524294 1140.25777739 -131.58203125 1134.203125 C-135.43753485 1128.15048943 -139.28797479 1122.09485498 -143.11694336 1116.02539062 C-144.1038709 1114.46104222 -145.09168187 1112.89725085 -146.08032227 1111.33398438 C-148.54028724 1107.44399273 -150.99091016 1103.54881085 -153.421875 1099.640625 C-161.96543464 1085.98146863 -170.98187749 1072.65444917 -180.01480103 1059.3164978 C-191.07035163 1042.98950217 -201.96674274 1026.56300373 -212.77563477 1010.07177734 C-218.68037071 1001.06991692 -224.65239314 992.12667563 -230.77587891 983.2722168 C-236.23305482 975.37593839 -241.58829286 967.40965172 -246.95703125 959.453125 C-247.57908447 958.53160645 -248.2011377 957.61008789 -248.84204102 956.66064453 C-258.96197504 941.66065628 -268.95331021 926.57965988 -278.88656616 911.45559692 C-289.10200825 895.90682332 -299.45904888 880.45854533 -309.8828125 865.04882812 C-319.20939497 851.25868186 -328.46230796 837.42087711 -337.6706543 823.55151367 C-342.89704327 815.68474577 -348.15289306 807.83802392 -353.45703125 800.0234375 C-354.24219116 798.85784302 -354.24219116 798.85784302 -355.04321289 797.66870117 C-359.14828484 791.64561602 -363.71282726 786.18415116 -368.5390625 780.734375 C-373.73578863 774.80106501 -378.39763801 768.43038867 -383.13037109 762.12646484 C-384.38792673 760.4602988 -385.66489877 758.8088212 -386.9453125 757.16015625 C-442.66986043 684.9321773 -477.46007397 587.83129073 -477.78515625 496.42578125 C-477.79085632 495.13917099 -477.7965564 493.85256073 -477.8024292 492.52696228 C-477.81284698 489.81167215 -477.81874629 487.09641072 -477.82226562 484.38110352 C-477.82660096 481.66774687 -477.84031621 478.95471708 -477.86328125 476.24145508 C-478.0552998 451.67958236 -476.58634493 427.45050868 -472.33203125 403.203125 C-472.12223633 401.98496094 -471.91244141 400.76679688 -471.69628906 399.51171875 C-458.0431768 322.67602206 -425.97328974 250.43701276 -377.58203125 189.203125 C-377.03514648 188.51057617 -376.48826172 187.81802734 -375.92480469 187.10449219 C-369.62239215 179.15893745 -363.15481697 171.44371166 -356.21484375 164.046875 C-354.22929596 161.90224771 -352.31560106 159.73617392 -350.4140625 157.51953125 C-345.89136157 152.32884333 -341.0211004 147.49639855 -336.14453125 142.640625 C-334.79004883 141.2803418 -334.79004883 141.2803418 -333.40820312 139.89257812 C-328.29427695 134.78605807 -323.08214207 129.88917486 -317.58203125 125.203125 C-316.49882501 124.25394339 -315.4167438 123.30347596 -314.3359375 122.3515625 C-305.39224782 114.55104075 -296.08691314 107.30455021 -286.58203125 100.203125 C-285.93057129 99.71424805 -285.27911133 99.22537109 -284.60791016 98.72167969 C-259.49232687 79.90903701 -232.64511974 64.21880927 -204.58203125 50.203125 C-203.7297998 49.77306152 -202.87756836 49.34299805 -201.99951172 48.89990234 C-141.13381299 18.32216464 -68.35729666 0.22763919 0 0 Z " fill="#FDFDFD" transform="translate(477.58203125,-0.203125)"/>
<path d="M0 0 C0.67628637 -0.00282738 1.35257275 -0.00565475 2.04935265 -0.00856781 C5.64594258 -0.02344747 9.24249375 -0.03274108 12.83911133 -0.03710938 C15.73279797 -0.04144184 18.62617763 -0.05514354 21.51977539 -0.078125 C48.497156 -0.28763117 75.11993817 1.27915087 101.73046875 6.015625 C103.24722664 6.27835746 104.76399114 6.54105174 106.28076172 6.80371094 C151.84966017 14.78932154 195.54767795 28.46498613 237.41796875 48.203125 C239.03348633 48.96447754 239.03348633 48.96447754 240.68164062 49.74121094 C263.21399937 60.46607238 284.96311872 72.88718554 305.41796875 87.203125 C306.25545654 87.78489502 306.25545654 87.78489502 307.10986328 88.37841797 C324.54022337 100.50883907 341.1771704 113.59605052 356.87744141 127.89770508 C358.48339524 129.35503951 360.0958783 130.8052394 361.71728516 132.24536133 C367.88246793 137.72630175 373.78659369 143.41991423 379.60546875 149.265625 C380.45560547 150.11189453 381.30574219 150.95816406 382.18164062 151.83007812 C387.13636068 156.79245025 391.86561282 161.87105628 396.41796875 167.203125 C397.36726185 168.28623353 398.31772953 169.36831405 399.26953125 170.44921875 C407.0705461 179.39347379 414.30989366 188.70263029 421.41796875 198.203125 C421.90152832 198.8439502 422.38508789 199.48477539 422.88330078 200.14501953 C430.21185702 209.86326733 436.96544176 219.88352673 443.41796875 230.203125 C443.99345459 231.12230713 443.99345459 231.12230713 444.58056641 232.06005859 C486.78787 299.92314708 514.33493332 381.51887041 514.62109375 461.98046875 C514.62679382 463.26707901 514.6324939 464.55368927 514.6383667 465.87928772 C514.64878448 468.59457785 514.65468379 471.30983928 514.65820312 474.02514648 C514.66253846 476.73850313 514.67625371 479.45153292 514.69921875 482.16479492 C514.8912373 506.72666764 513.42228243 530.95574132 509.16796875 555.203125 C508.95817383 556.42128906 508.74837891 557.63945313 508.53222656 558.89453125 C495.4352306 632.60056916 465.35722229 701.9548575 420.37036133 761.78320312 C417.0478282 766.2282944 413.97886759 770.82314751 410.91430664 775.44897461 C407.85021554 780.06800841 404.7459684 784.65990296 401.64453125 789.25390625 C401.03146622 790.16236801 400.41840118 791.07082977 399.78675842 792.00682068 C397.23266151 795.79124388 394.67791859 799.5752307 392.12304688 803.35913086 C385.80552368 812.71659836 379.49083321 822.07530066 373.23855591 831.47651672 C366.54800725 841.52660925 359.76972219 851.51815201 353.01318359 861.52392578 C346.73132083 870.82781266 340.4524698 880.13302868 334.23580933 889.4806366 C327.59640949 899.45387742 320.86975674 909.36889305 314.1640625 919.29760742 C307.89266773 928.58441056 301.62555635 937.87350974 295.41796875 947.203125 C288.59051196 957.46436482 281.69117509 967.67686964 274.79296875 977.890625 C265.07530325 992.26814727 265.07530325 992.26814727 255.42578125 1006.69140625 C248.34408545 1017.33970893 241.16968926 1027.92583984 234.01318359 1038.52392578 C225.1850427 1051.59303818 225.1850427 1051.59303818 216.41796875 1064.703125 C209.33888837 1075.34752786 202.16706146 1085.92973136 195.01318359 1096.52392578 C186.1850427 1109.59303818 186.1850427 1109.59303818 177.41796875 1122.703125 C170.33888837 1133.34752786 163.16706146 1143.92973136 156.01318359 1154.52392578 C147.18418417 1167.59442009 147.18418417 1167.59442009 138.41796875 1180.70703125 C134.45866236 1186.66252227 130.45865157 1192.58987367 126.44921875 1198.51171875 C125.20572798 1200.34960857 123.96223841 1202.18749921 122.71875 1204.02539062 C120.81826654 1206.83402424 118.91697322 1209.64209251 117.01318359 1212.44848633 C103.31744009 1232.52777586 103.31744009 1232.52777586 90.98046875 1253.453125 C80.1539954 1272.05245101 61.48656867 1283.43722051 41.29296875 1289.640625 C17.64769425 1295.5338662 -7.87023341 1291.7083536 -28.765625 1279.59375 C-45.10359851 1269.6231683 -55.14060064 1254.82488538 -65.14453125 1238.953125 C-66.37232066 1237.01427531 -67.60018748 1235.07547464 -68.828125 1233.13671875 C-69.44929199 1232.15429199 -70.07045898 1231.17186523 -70.71044922 1230.15966797 C-73.11585954 1226.35983508 -75.53210665 1222.56696579 -77.94897461 1218.77441406 C-83.3339112 1210.32422888 -88.69808743 1201.86124575 -94.04345703 1193.38598633 C-97.87433817 1187.31524994 -101.72540057 1181.25752994 -105.58203125 1175.203125 C-110.41974755 1167.60854418 -115.23946196 1160.00297417 -120.04296875 1152.38671875 C-123.87405484 1146.31576487 -127.72524294 1140.25777739 -131.58203125 1134.203125 C-135.43753485 1128.15048943 -139.28797479 1122.09485498 -143.11694336 1116.02539062 C-144.1038709 1114.46104222 -145.09168187 1112.89725085 -146.08032227 1111.33398438 C-148.54028724 1107.44399273 -150.99091016 1103.54881085 -153.421875 1099.640625 C-161.96543464 1085.98146863 -170.98187749 1072.65444917 -180.01480103 1059.3164978 C-191.07035163 1042.98950217 -201.96674274 1026.56300373 -212.77563477 1010.07177734 C-218.68037071 1001.06991692 -224.65239314 992.12667563 -230.77587891 983.2722168 C-236.23305482 975.37593839 -241.58829286 967.40965172 -246.95703125 959.453125 C-247.57908447 958.53160645 -248.2011377 957.61008789 -248.84204102 956.66064453 C-258.96197504 941.66065628 -268.95331021 926.57965988 -278.88656616 911.45559692 C-289.10200825 895.90682332 -299.45904888 880.45854533 -309.8828125 865.04882812 C-319.20939497 851.25868186 -328.46230796 837.42087711 -337.6706543 823.55151367 C-342.89704327 815.68474577 -348.15289306 807.83802392 -353.45703125 800.0234375 C-354.24219116 798.85784302 -354.24219116 798.85784302 -355.04321289 797.66870117 C-359.14828484 791.64561602 -363.71282726 786.18415116 -368.5390625 780.734375 C-373.73578863 774.80106501 -378.39763801 768.43038867 -383.13037109 762.12646484 C-384.38792673 760.4602988 -385.66489877 758.8088212 -386.9453125 757.16015625 C-442.66986043 684.9321773 -477.46007397 587.83129073 -477.78515625 496.42578125 C-477.79085632 495.13917099 -477.7965564 493.85256073 -477.8024292 492.52696228 C-477.81284698 489.81167215 -477.81874629 487.09641072 -477.82226562 484.38110352 C-477.82660096 481.66774687 -477.84031621 478.95471708 -477.86328125 476.24145508 C-478.0552998 451.67958236 -476.58634493 427.45050868 -472.33203125 403.203125 C-472.12223633 401.98496094 -471.91244141 400.76679688 -471.69628906 399.51171875 C-458.0431768 322.67602206 -425.97328974 250.43701276 -377.58203125 189.203125 C-377.03514648 188.51057617 -376.48826172 187.81802734 -375.92480469 187.10449219 C-369.62239215 179.15893745 -363.15481697 171.44371166 -356.21484375 164.046875 C-354.22929596 161.90224771 -352.31560106 159.73617392 -350.4140625 157.51953125 C-345.89136157 152.32884333 -341.0211004 147.49639855 -336.14453125 142.640625 C-334.79004883 141.2803418 -334.79004883 141.2803418 -333.40820312 139.89257812 C-328.29427695 134.78605807 -323.08214207 129.88917486 -317.58203125 125.203125 C-316.49882501 124.25394339 -315.4167438 123.30347596 -314.3359375 122.3515625 C-305.39224782 114.55104075 -296.08691314 107.30455021 -286.58203125 100.203125 C-285.93057129 99.71424805 -285.27911133 99.22537109 -284.60791016 98.72167969 C-259.49232687 79.90903701 -232.64511974 64.21880927 -204.58203125 50.203125 C-203.7297998 49.77306152 -202.87756836 49.34299805 -201.99951172 48.89990234 C-141.13381299 18.32216464 -68.35729666 0.22763919 0 0 Z M-155.58203125 126.203125 C-157.47379162 127.06286692 -159.36572142 127.92223613 -161.2578125 128.78125 C-194.65793191 144.1498376 -227.01943497 164.91985425 -254.10546875 189.9375 C-255.47014585 191.18594278 -256.84274563 192.42649618 -258.24731445 193.62988281 C-263.91801181 198.48903005 -269.24010219 203.6750321 -274.51782227 208.95361328 C-276.0084474 210.44205737 -277.50690142 211.92229777 -279.00585938 213.40234375 C-285.31567104 219.67580093 -291.0393833 226.23101592 -296.58203125 233.203125 C-297.44536184 234.23072349 -298.31375235 235.25413872 -299.19140625 236.26953125 C-348.45565714 293.71452454 -377.60424539 368.22073435 -384.58203125 443.203125 C-384.67629395 444.1732251 -384.77055664 445.1433252 -384.86767578 446.14282227 C-385.71486572 455.76274737 -385.82526164 465.36514445 -385.83203125 475.015625 C-385.83270599 475.88795776 -385.83338074 476.76029053 -385.83407593 477.65905762 C-385.72249759 569.36184895 -351.42433963 658.64515415 -290.58203125 727.203125 C-289.76992188 728.12738281 -288.9578125 729.05164063 -288.12109375 730.00390625 C-281.98961874 736.84137128 -275.54704304 743.36995379 -269.08203125 749.890625 C-267.7827771 751.20945679 -267.7827771 751.20945679 -266.45727539 752.55493164 C-260.47923928 758.5408447 -254.18842925 763.92665546 -247.58203125 769.203125 C-246.55466489 770.06673181 -245.53126135 770.93512827 -244.515625 771.8125 C-235.93834913 779.16828588 -226.82985742 785.72264075 -217.58203125 792.203125 C-216.62490234 792.87625732 -216.62490234 792.87625732 -215.6484375 793.56298828 C-204.72905258 801.19188113 -193.24199749 807.77949893 -181.58203125 814.203125 C-180.68484375 814.70102539 -179.78765625 815.19892578 -178.86328125 815.71191406 C-98.59982838 859.96636814 -3.48634557 873.42905428 133.41796875 848.203125 C179.81073197 834.5717456 223.76859304 813.38084506 262.41796875 784.203125 C263.01786621 783.75485352 263.61776367 783.30658203 264.23583984 782.84472656 C280.96219995 770.33664748 296.28404264 756.39793851 311.10546875 741.703125 C311.98460937 740.83703613 312.86375 739.97094727 313.76953125 739.07861328 C319.75552751 733.10049334 325.14142524 726.80961561 330.41796875 720.203125 C331.28157556 719.17575864 332.14997202 718.1523551 333.02734375 717.13671875 C389.52090889 651.2619229 419.60723369 563.59175795 419.66796875 477.265625 C419.66864349 476.39417847 419.66931824 475.52273193 419.67001343 474.62487793 C419.55890055 383.41263067 384.88600759 294.33936365 324.41796875 226.203125 C323.19980469 224.81673828 323.19980469 224.81673828 321.95703125 223.40234375 C315.82555624 216.56487872 309.38298054 210.03629621 302.91796875 203.515625 C302.05179932 202.63640381 301.18562988 201.75718262 300.29321289 200.85131836 C294.31517678 194.8654053 288.02436675 189.47959454 281.41796875 184.203125 C280.39060239 183.33951819 279.36719885 182.47112173 278.3515625 181.59375 C269.77428663 174.23796412 260.66579492 167.68360925 251.41796875 161.203125 C250.77988281 160.75437012 250.14179687 160.30561523 249.484375 159.84326172 C238.56523593 152.21454063 227.0731671 145.63452732 215.41796875 139.203125 C214.58023926 138.7376123 213.74250977 138.27209961 212.87939453 137.79248047 C138.59309456 96.76522239 50.25409952 81.51702717 -155.58203125 126.203125 Z " fill="#000000" transform="translate(477.58203125,-0.203125)"/>
<path d="M0 0 C1.72882035 0.00154919 3.45764114 0.00265892 5.18646204 0.003371 C9.90540521 0.00662369 14.62431664 0.01623216 19.34324789 0.02697825 C24.44491731 0.03750158 29.54659281 0.04215164 34.64826965 0.0476532 C45.78659419 0.0608309 56.92489621 0.08169832 68.06320524 0.10421848 C75.0235866 0.11826884 81.98397021 0.13076226 88.94435501 0.14296722 C108.23415834 0.17706306 127.52395602 0.21301892 146.81374168 0.25606155 C148.0464408 0.2588096 149.27913991 0.26155764 150.54919354 0.26438896 C152.40251256 0.26852397 152.40251256 0.26852397 154.29327238 0.27274251 C156.79672137 0.27832778 159.30017038 0.28391019 161.80361938 0.28948975 C163.0454008 0.29225893 164.28718221 0.29502812 165.56659336 0.29788122 C185.69562042 0.34241117 205.82464384 0.37346422 225.95370345 0.39868954 C246.64361264 0.42480738 267.33347732 0.46207013 288.02334654 0.51050925 C299.63059106 0.53742832 311.23780105 0.55961715 322.8450737 0.56952667 C332.7257801 0.57801815 342.60640155 0.59673657 352.48706125 0.62863049 C357.5238501 0.64458755 362.56052888 0.65582853 367.59734535 0.65402794 C372.21636873 0.65249411 376.8351466 0.66487958 381.45411082 0.68792626 C383.11682103 0.69384871 384.77955836 0.69485692 386.44227259 0.69019488 C410.89390051 0.62979408 433.55462226 7.26517234 451.63076782 24.41497803 C456.98010352 30.1021665 460.91815027 36.24163134 464.63076782 43.10247803 C465.03940063 43.83724365 465.44803345 44.57200928 465.86904907 45.32904053 C472.31121455 58.21337149 475.04408062 75.13410695 471.93545532 89.26263428 C471.01491113 92.01266334 469.93683791 94.51475038 468.63076782 97.10247803 C468.20666626 97.96357178 467.7825647 98.82466553 467.34561157 99.71185303 C462.54738584 108.53310369 455.20354924 115.69206913 445.63076782 119.10247803 C439.91555843 120.74505857 434.87482519 121.39080304 428.94651318 121.35695362 C428.10483301 121.3601601 427.26315284 121.36336658 426.39596722 121.36667022 C423.58078744 121.37495943 420.76582101 121.36904968 417.95063782 121.36317444 C415.90979539 121.36619561 413.8689541 121.37008492 411.82811481 121.37476701 C406.22362782 121.38506016 400.61920471 121.38286181 395.01471245 121.37858641 C388.96890771 121.37612158 382.92311843 121.38513035 376.87731934 121.3926239 C365.0341554 121.40537981 353.19101356 121.40716929 341.34784587 121.40482364 C331.72188817 121.40299037 322.09593711 121.40475129 312.46998024 121.40904808 C311.08660252 121.40965048 309.7032248 121.41025168 308.31984708 121.41085168 C306.23517462 121.41175895 304.15050215 121.41266761 302.06582969 121.41358403 C282.68511737 121.42201283 263.30440756 121.42634978 243.92369366 121.42217731 C243.19318336 121.42202094 242.46267306 121.42186456 241.71002609 121.42170345 C238.00758839 121.42089768 234.3051507 121.4200519 230.60271301 121.41919015 C229.86740977 121.41901906 229.13210652 121.41884797 228.37452136 121.4186717 C226.88755967 121.41832504 225.40059797 121.41797651 223.91363628 121.41762611 C200.77839748 121.41226935 177.64319679 121.42019835 154.50796509 121.43865967 C128.50920223 121.45938176 102.51046298 121.47010196 76.51169139 121.46608418 C73.73879516 121.46568884 70.96589894 121.46532729 68.1930027 121.4649868 C67.16888395 121.4648507 67.16888395 121.4648507 66.12407594 121.46471186 C55.82312674 121.46354651 45.5222014 121.47018942 35.22125816 121.48079872 C23.50386925 121.49285463 11.78652368 121.49412716 0.06913074 121.48200855 C-5.90888567 121.47611372 -11.88679942 121.47503726 -17.86480904 121.48701096 C-23.33929905 121.49784866 -28.81360044 121.49479139 -34.28808155 121.48074927 C-36.26649063 121.47809653 -38.24491439 121.48048694 -40.22330908 121.48848514 C-59.13063046 121.55960568 -59.13063046 121.55960568 -68.36923218 118.10247803 C-69.58610718 117.66935303 -70.80298218 117.23622803 -72.05673218 116.78997803 C-81.75860118 111.84751646 -89.49274564 104.41040815 -93.36923218 94.10247803 C-95.18159271 88.06343384 -95.68980514 82.64010645 -95.61923218 76.35247803 C-95.6117395 75.47140381 -95.60424683 74.59032959 -95.5965271 73.68255615 C-95.29316704 55.2301299 -88.62940853 36.18283614 -75.85360718 22.41107178 C-73.85378667 20.64807212 -71.64999404 19.34444942 -69.28329468 18.12982178 C-67.05107473 16.93171189 -65.01760659 15.53965267 -62.93173218 14.10247803 C-43.77147782 1.31829493 -22.42830081 -0.06876449 0 0 Z " fill="#FEFEFE" transform="translate(327.3692321777344,425.89752197265625)"/>
<path d="M0 0 C0.680625 -0.00257813 1.36125 -0.00515625 2.0625 -0.0078125 C4 0.125 4 0.125 7 1.125 C7 1.785 7 2.445 7 3.125 C7.721875 3.186875 8.44375 3.24875 9.1875 3.3125 C12.88727425 4.38132367 14.31685822 6.37945957 17 9.125 C25.16501116 15.71559197 34.22066487 15.28224759 44.28515625 15.2578125 C45.63250854 15.2601313 45.63250854 15.2601313 47.00708008 15.26249695 C50.02559895 15.26499267 53.0439931 15.25861012 56.0625 15.25 C57.11782928 15.24745209 58.17315857 15.24490417 59.26046753 15.24227905 C65.97812479 15.22377993 72.69565518 15.19168197 79.41323757 15.15544605 C84.99553405 15.12679992 90.57780018 15.11380618 96.16015625 15.10302734 C104.37607128 15.08635011 112.59165316 15.04796723 120.80737972 14.9896965 C125.38256278 14.95768563 129.95744459 14.93384552 134.53274536 14.92999268 C138.89935662 14.9257598 143.26519349 14.89738094 147.63156128 14.85169411 C149.25261936 14.83876896 150.87376992 14.83422652 152.49487305 14.83881187 C160.78033678 14.85700428 167.75588451 14.75075969 175.01609802 10.19389343 C177 9.125 177 9.125 181 9.125 C181 8.465 181 7.805 181 7.125 C189.62931789 6.62113538 197.70050487 8.16050362 206.125 9.875 C207.51140564 10.15033123 208.89788068 10.42531323 210.28442383 10.69995117 C219.59855291 12.56137665 228.83308386 14.63190565 238 17.125 C239.3324335 17.46191222 240.66534025 17.79701792 242 18.125 C242 18.785 242 19.445 242 20.125 C242.7425 20.08375 243.485 20.0425 244.25 20 C247.11948044 20.13043093 248.60575147 20.58584023 251 22.125 C251.33 22.785 251.66 23.445 252 24.125 C253.74499609 24.97046354 253.74499609 24.97046354 255.875 25.75 C266.85124223 30.48382959 275.4492748 38.99460539 284 47.125 C284.7321875 47.78113281 285.464375 48.43726563 286.21875 49.11328125 C294.9475193 57.20124804 301.24005695 67.89812779 305 79.125 C305.34675781 80.06859375 305.69351563 81.0121875 306.05078125 81.984375 C310.09386657 93.33441814 311.39130808 104.42187722 311.375 116.4375 C311.37411377 117.62013428 311.37322754 118.80276855 311.37231445 120.02124023 C311.25052322 129.02822721 310.03728444 136.61189449 307 145.125 C306.40801219 147.10159528 305.82372879 149.08052781 305.25 151.0625 C304.83581107 152.41742657 304.42024469 153.77193944 304 155.125 C303.34 155.125 302.68 155.125 302 155.125 C301.67 156.775 301.34 158.425 301 160.125 C300.34 160.125 299.68 160.125 299 160.125 C298.855625 160.95 298.71125 161.775 298.5625 162.625 C296.29633205 167.70121621 292.442338 170.85955005 288 174.125 C287.34 174.125 286.68 174.125 286 174.125 C285.773125 174.74375 285.54625 175.3625 285.3125 176 C283.60391383 178.76628237 282.00007779 179.02741056 279 180.125 C278.525625 180.599375 278.05125 181.07375 277.5625 181.5625 C265.82513213 193.29986787 238.52894243 191.37570104 223.12420774 191.39248681 C221.33664991 191.38816565 219.54909255 191.38365246 217.76153564 191.37896729 C215.80622262 191.38127847 213.85091046 191.38445936 211.89560008 191.38842177 C206.58275166 191.39668839 201.26997608 191.39268194 195.95712757 191.38644934 C190.20372361 191.38189205 184.45033148 191.38892482 178.69692993 191.39440918 C167.44862207 191.40327076 156.200341 191.40139544 144.95203212 191.3955839 C135.80225533 191.39105373 126.65248602 191.39046035 117.50270844 191.39263153 C116.19682636 191.392938 114.89094428 191.39324446 113.54549001 191.39356022 C110.89196024 191.39419972 108.23843047 191.39484815 105.58490071 191.3955054 C81.44807473 191.40123766 57.31126224 191.39531486 33.17443856 191.3848202 C11.19180541 191.37533478 -10.79080455 191.37617585 -32.7734375 191.38574219 C-57.52684935 191.39647855 -82.28024822 191.4006458 -107.03366208 191.39451766 C-109.67825651 191.39388062 -112.32285094 191.39325188 -114.96744537 191.39263153 C-116.2683568 191.39232298 -117.56926822 191.39201443 -118.9096012 191.39169653 C-128.03670947 191.38997633 -137.16380946 191.39287015 -146.29091644 191.39759064 C-157.43085872 191.40322589 -168.57077284 191.40162796 -179.71071193 191.39102915 C-185.38458648 191.38580718 -191.05841426 191.38365567 -196.73228836 191.39032745 C-275.69197261 191.47510157 -275.69197261 191.47510157 -298.484375 169.7578125 C-300.41305714 167.60435913 -302.22210135 165.40347206 -304 163.125 C-304.9358698 162.06106381 -305.8731739 160.99838594 -306.8125 159.9375 C-312 153.26785714 -312 153.26785714 -312 149.125 C-312.66 149.125 -313.32 149.125 -314 149.125 C-316.5411444 140.59277483 -317.48451513 132.76100636 -317.375 123.875 C-317.36629883 122.69131836 -317.35759766 121.50763672 -317.34863281 120.28808594 C-317.19711457 111.2094108 -316.24653141 102.91911442 -314 94.125 C-313.69348389 92.78687589 -313.38884041 91.44832163 -313.0859375 90.109375 C-311.61251083 83.8524409 -310.02865622 78.21453971 -306.26953125 72.93359375 C-304.89034429 70.96878279 -303.84256718 68.94882551 -302.75 66.8125 C-299.54635863 61.00216907 -295.33442552 56.1200378 -291 51.125 C-290.36118896 50.37549072 -290.36118896 50.37549072 -289.70947266 49.61083984 C-263.56728731 19.06146841 -226.48802208 10.09992979 -188 6.125 C-187.16597656 5.9909375 -186.33195313 5.856875 -185.47265625 5.71875 C-181.61575204 5.30418832 -178.53025077 6.1569381 -175.08203125 7.84375 C-174.01480835 8.36316162 -174.01480835 8.36316162 -172.92602539 8.89306641 C-170.22171295 10.26873707 -167.54837617 11.69474795 -164.89355469 13.16357422 C-160.09910766 15.59788732 -156.50763998 16.37376834 -151.0859375 16.35546875 C-150.07677528 16.35532524 -150.07677528 16.35532524 -149.04722595 16.35517883 C-146.82297651 16.35142655 -144.59916018 16.33231723 -142.375 16.3125 C-140.7814958 16.30559647 -139.18798981 16.29909367 -137.59448242 16.29296875 C-126.82444126 16.23437992 -116.07348009 15.93530279 -105.31008911 15.55407715 C-88.14928329 14.96580246 -70.98096285 15.04251394 -53.8125 15.0625 C-53.07482517 15.06335602 -52.33715034 15.06421204 -51.57712173 15.06509399 C-42.38472404 15.07656777 -33.19236264 15.09680865 -24 15.125 C-24 14.465 -24 13.805 -24 13.125 C-22.3125 11.828125 -22.3125 11.828125 -20 10.375 C-16.08645585 7.86267749 -12.38541304 5.19257689 -8.7265625 2.32421875 C-5.88091068 0.34771398 -3.36615014 -0.01275057 0 0 Z M-229.75 44.4375 C-230.47388916 44.66187744 -231.19777832 44.88625488 -231.94360352 45.11743164 C-243.0539929 48.63670092 -252.94645536 53.71755439 -262 61.125 C-262.99 61.455 -263.98 61.785 -265 62.125 C-275.24075304 72.13406179 -282.65194432 87.09956026 -285 101.125 C-285.18046875 102.02347656 -285.3609375 102.92195313 -285.546875 103.84765625 C-287.70092271 119.42736337 -286.66297129 134.24103828 -277 147.125 C-274.49461337 149.69314198 -271.84983467 151.95012617 -269 154.125 C-268.38253906 154.63933594 -267.76507813 155.15367187 -267.12890625 155.68359375 C-264.53855593 157.43742727 -262.03880715 158.29668094 -259.0625 159.25 C-257.53302734 159.74886719 -257.53302734 159.74886719 -255.97265625 160.2578125 C-250.47364439 161.86199204 -245.39824649 162.26942586 -239.68209553 162.25642776 C-238.42431818 162.25950672 -238.42431818 162.25950672 -237.14113119 162.26264787 C-234.3187076 162.26832257 -231.49633273 162.26686003 -228.67390442 162.26544189 C-226.63493932 162.26802526 -224.59597472 162.27103834 -222.55701083 162.2744453 C-216.94383215 162.2825219 -211.33066625 162.28430524 -205.71748245 162.28504276 C-199.66755764 162.28689216 -193.61763948 162.29443891 -187.56771851 162.30117798 C-173.64413693 162.31547504 -159.72055848 162.32128839 -145.79697141 162.32586992 C-138.91603724 162.32820613 -132.0351039 162.3318088 -125.15417038 162.3355653 C-101.59861718 162.34840035 -78.04306444 162.35911971 -54.48750782 162.3625679 C-53.00894586 162.36278953 -51.53038389 162.36301132 -50.05182193 162.36323325 C-48.56969651 162.36345389 -47.0875711 162.36367438 -45.60544568 162.3638947 C-42.6320647 162.36433725 -39.65868372 162.36478437 -36.68530273 162.36523438 C-35.94807762 162.36534377 -35.21085251 162.36545316 -34.45128725 162.36556586 C-10.54619064 162.36919658 13.35887564 162.38511741 37.26396064 162.40842474 C62.5396934 162.43302338 87.81540884 162.44674075 113.09115392 162.44793582 C115.86604488 162.44810727 118.64093584 162.4483227 121.4158268 162.44857025 C122.44070593 162.4486539 122.44070593 162.4486539 123.48628969 162.44873925 C134.47933062 162.44988964 145.47234041 162.46091063 156.46537082 162.47545731 C167.51578767 162.48982702 178.56617302 162.49280419 189.61659887 162.48501733 C195.60257429 162.48110673 201.588445 162.48206056 207.57440758 162.49607468 C213.05512853 162.50878868 218.53566582 162.50763795 224.01638643 162.49548396 C225.99823394 162.49352265 227.98009436 162.49662541 229.96192374 162.50532833 C244.87430013 162.56666339 257.65816648 161.66517005 269.23046875 151.0859375 C279.07060269 140.6365645 282.65405195 128.87521132 282.3046875 114.73046875 C281.43081238 97.61046071 274.53358722 80.83496197 263 68.125 C262.11248047 67.11759766 262.11248047 67.11759766 261.20703125 66.08984375 C247.3095018 51.21805451 227.30725189 42.93570944 207.15923798 41.93405783 C202.68563472 41.83018616 198.21212278 41.83578145 193.73756409 41.83979797 C192.00817811 41.83407012 190.2787948 41.82747953 188.54941505 41.82010716 C183.82435728 41.80245341 179.09935408 41.79701227 174.37426746 41.79366672 C169.26782281 41.78789432 164.16141459 41.77070656 159.05499268 41.75497437 C149.06193293 41.72598995 139.06888023 41.70751077 129.07579059 41.69263426 C117.43080782 41.67491948 105.78585662 41.64689875 94.14089584 41.61850204 C73.35818476 41.56818716 52.57546584 41.52741827 31.79272461 41.49194336 C11.64101156 41.45753887 -8.510671 41.41610744 -28.66235352 41.36694336 C-30.52392585 41.36240293 -30.52392585 41.36240293 -32.42310571 41.35777078 C-33.66203921 41.35474874 -34.90097271 41.3517267 -36.17744964 41.34861308 C-59.13925897 41.29266934 -82.10107861 41.24352116 -105.06290964 41.19741303 C-113.17367736 41.18096567 -121.28443898 41.16248015 -129.39520073 41.14333534 C-139.28472284 41.12012059 -149.17424413 41.10080385 -159.06378298 41.08630244 C-164.10637516 41.07883485 -169.14895034 41.0697765 -174.19153023 41.05625343 C-178.81347219 41.04391541 -183.43539686 41.03638666 -188.0573535 41.03259435 C-189.7234364 41.03041274 -191.38951818 41.02653136 -193.05559235 41.02071408 C-211.6416285 40.79740317 -211.6416285 40.79740317 -229.75 44.4375 Z " fill="#2C3033" transform="translate(518,384.875)"/>
<path d="M0 0 C0.62261719 0.22171875 1.24523437 0.4434375 1.88671875 0.671875 C8.86361002 3.57777077 14.17326835 9.44379223 18.11892605 15.80351734 C19.23106042 18.57602452 19.13655164 20.60048832 18.97999573 23.58122253 C18.92885337 24.70691556 18.87771101 25.83260859 18.82501888 26.99241352 C18.76102681 28.21590095 18.69703474 29.43938837 18.63110352 30.69995117 C18.51633059 33.35053809 18.40473436 36.00098674 18.29959106 38.65194702 C18.27189076 39.33882664 18.24419045 40.02570625 18.21565074 40.7334004 C17.9323423 48.11053956 17.88744165 55.4863238 17.88647461 62.8684082 C17.88607748 63.54310068 17.88568035 64.21779315 17.88527119 64.91293085 C17.88387931 69.14353982 17.89013954 73.37411064 17.89860606 77.60470986 C17.90500919 81.36685755 17.9054564 85.12900676 17.90663147 88.89115906 C17.9096962 95.96276964 17.91784149 103.0343641 17.92798096 110.1059677 C17.93929631 118.17903574 17.94469073 126.2521047 17.94967639 134.32517874 C17.9600303 150.88346209 17.97774175 167.44172832 18 184 C14.37 182.02 10.74 180.04 7 178 C7 177.34 7 176.68 7 176 C6.113125 175.87625 5.22625 175.7525 4.3125 175.625 C1.29612498 175.05587264 -1.20326054 174.23385564 -4 173 C-4 172.34 -4 171.68 -4 171 C-5.0725 170.855625 -6.145 170.71125 -7.25 170.5625 C-9.91662949 170.16250558 -12.41399729 169.72408076 -15 169 C-15 168.34 -15 167.68 -15 167 C-21.84985242 165.62339974 -28.70258873 164.26311107 -35.5625 162.9375 C-36.44357422 162.76412109 -37.32464844 162.59074219 -38.23242188 162.41210938 C-43.81240871 161.33729272 -49.34429457 160.55695779 -55 160 C-54.9278125 158.93007813 -54.855625 157.86015625 -54.78125 156.7578125 C-52.55666703 130.25089744 -52.55666703 130.25089744 -56.34375 104.22265625 C-57 102 -57 102 -57 99 C-57.66 99 -58.32 99 -59 99 C-59.433125 97.5459375 -59.433125 97.5459375 -59.875 96.0625 C-64.45277426 85.59901597 -76.40908685 80.08295397 -86 75 C-86.76570313 74.55398438 -87.53140625 74.10796875 -88.3203125 73.6484375 C-96.04445141 69.30165488 -105.11224767 69.8500881 -113.75732422 69.85473633 C-114.67585175 69.85137772 -115.59437927 69.8480191 -116.54074097 69.84455872 C-119.54540396 69.83514168 -122.55001071 69.83311044 -125.5546875 69.83203125 C-127.66399152 69.82881275 -129.77329531 69.82544825 -131.88259888 69.82194519 C-136.29201779 69.81597741 -140.70141718 69.81410292 -145.11083984 69.81469727 C-150.73461462 69.81479887 -156.35826311 69.80113776 -161.98200798 69.78392506 C-166.33513962 69.772757 -170.68824116 69.77077952 -175.04138565 69.77130699 C-177.11362265 69.77013446 -179.18586062 69.76575397 -181.25808334 69.75797462 C-200.67966777 69.36086067 -200.67966777 69.36086067 -219 75 C-219.33 75.33 -219.66 75.66 -220 76 C-221.66617115 76.04063832 -223.33388095 76.042721 -225 76 C-225 76.66 -225 77.32 -225 78 C-226.010625 78.37125 -227.02125 78.7425 -228.0625 79.125 C-232.41993356 80.99121397 -235.58223116 83.76984138 -239 87 C-239.928125 87.86625 -240.85625 88.7325 -241.8125 89.625 C-243.76299027 91.74267515 -244.80693635 93.43032444 -246 96 C-246.66 96.33 -247.32 96.66 -248 97 C-248.73075648 99.3140622 -249.40138258 101.64828869 -250 104 C-253.1356452 101.44502984 -254.5127573 98.94930495 -256.0625 95.3125 C-260.9755728 85.11073721 -272.61709024 77.98937726 -283.0703125 74.26171875 C-284.70217613 73.79900417 -286.35063974 73.39584646 -288 73 C-288.763125 72.649375 -289.52625 72.29875 -290.3125 71.9375 C-297.36880106 69.47599963 -305.430028 69.84639976 -312.83325195 69.82299805 C-314.22326416 69.81314125 -314.22326416 69.81314125 -315.64135742 69.80308533 C-318.67366648 69.78355617 -321.7059266 69.77173806 -324.73828125 69.76171875 C-325.78304312 69.75764322 -326.82780499 69.7535677 -327.9042263 69.74936867 C-333.43053355 69.72859852 -338.95681661 69.71425585 -344.4831543 69.70483398 C-350.15852122 69.69376555 -355.8334966 69.65933405 -361.50872517 69.61966228 C-365.90393251 69.59340384 -370.29904753 69.58513416 -374.6943264 69.58155251 C-376.78529707 69.57671348 -378.87626438 69.56517718 -380.96715736 69.54651451 C-392.35345058 69.45116596 -402.33541305 69.56853296 -413 74 C-413.66655106 74.26559723 -414.33310211 74.53119446 -415.01985168 74.80484009 C-422.28167452 77.8931318 -427.34721179 81.5892723 -432.1875 87.8125 C-432.785625 88.534375 -433.38375 89.25625 -434 90 C-434.66 90 -435.32 90 -436 90 C-436.2475 90.53625 -436.495 91.0725 -436.75 91.625 C-438 94 -438 94 -440.0625 97 C-441.6901836 99.52028428 -442.55341928 101.09722532 -443 104 C-443.66 104 -444.32 104 -445 104 C-447.92574643 121.76346045 -448.49431709 140.27882049 -445 158 C-446.16273438 158.08636719 -447.32546875 158.17273438 -448.5234375 158.26171875 C-458.90755317 159.13798777 -468.47262035 160.93205407 -478.4375 163.9765625 C-482 165 -482 165 -485 165 C-485 165.66 -485 166.32 -485 167 C-486.58298026 167.4803318 -488.16639978 167.95921612 -489.75 168.4375 C-490.63171875 168.70433594 -491.5134375 168.97117187 -492.421875 169.24609375 C-494.60565835 169.88468494 -496.78835498 170.46775833 -499 171 C-499 171.66 -499 172.32 -499 173 C-499.67546875 173.25394531 -500.3509375 173.50789062 -501.046875 173.76953125 C-501.93890625 174.11371094 -502.8309375 174.45789063 -503.75 174.8125 C-504.63171875 175.14894531 -505.5134375 175.48539063 -506.421875 175.83203125 C-509.0343481 176.89880433 -509.0343481 176.89880433 -511.140625 178.63671875 C-513 180 -513 180 -516 180 C-516.751391 150.67294958 -517.39574191 121.34456562 -517.94297791 92.01299286 C-517.99839171 89.0849803 -518.05600451 86.15701981 -518.11437988 83.22906494 C-518.3037212 73.65299903 -518.46777672 64.07769362 -518.552845 54.50006962 C-518.58791212 50.56247457 -518.63565296 46.62616022 -518.71777344 42.6892395 C-518.79358974 39.01871547 -518.83077738 35.34983036 -518.83790207 31.67854881 C-518.85103268 29.7271752 -518.90340945 27.77618573 -518.95742798 25.82551575 C-518.9260864 19.46867203 -518.40182972 15.69171163 -514.14990234 10.80712891 C-506.17479395 3 -506.17479395 3 -500 3 C-500 2.34 -500 1.68 -500 1 C-496.3226718 -0.15835838 -492.83678577 -0.13312878 -489 -0.125 C-487.783125 -0.12757813 -486.56625 -0.13015625 -485.3125 -0.1328125 C-482.65249989 -0.02616155 -480.51771029 0.20692126 -478 1 C-478 1.66 -478 2.32 -478 3 C-477.05125 3.144375 -476.1025 3.28875 -475.125 3.4375 C-472 4 -472 4 -470 5 C-470 5.66 -470 6.32 -470 7 C-469.443125 7.20625 -468.88625 7.4125 -468.3125 7.625 C-465.08698649 9.5428729 -462.82237417 11.74391548 -461 15 C-460.27239393 18.45979009 -460.21014322 21.84768936 -460.1875 25.375 C-460.16236328 26.30183594 -460.13722656 27.22867188 -460.11132812 28.18359375 C-460.05275692 30.45615641 -460.01625987 32.72680678 -460 35 C-455.90639536 35.98239855 -452.09212358 36.11881707 -447.88793468 36.10743046 C-447.17980201 36.10689593 -446.47166934 36.1063614 -445.7420781 36.10581067 C-443.36326923 36.10277642 -440.98454673 36.09250815 -438.60575867 36.08229065 C-436.88552731 36.07859671 -435.16529495 36.07534747 -433.44506198 36.07250541 C-428.71328441 36.06339741 -423.98154516 36.04796634 -419.24978817 36.03152263 C-414.14895102 36.01489714 -409.04810119 36.00410746 -403.94725037 35.99261475 C-395.10810441 35.97189786 -386.26897492 35.94747043 -377.42984581 35.92053413 C-364.64989402 35.88159395 -351.86993247 35.84823217 -339.08996163 35.81623887 C-318.35610541 35.76418207 -297.62226409 35.70760378 -276.88842773 35.64819336 C-256.74552999 35.59048586 -236.60262823 35.53490079 -216.4597168 35.48217773 C-215.21844025 35.47892802 -213.97716371 35.4756783 -212.69827273 35.4723301 C-206.47125235 35.45604059 -200.24423186 35.43979289 -194.01721132 35.42356598 C-142.34478918 35.28885939 -90.67238904 35.14681964 -39 35 C-39.02094727 34.43603516 -39.04189453 33.87207031 -39.06347656 33.29101562 C-39.14748501 30.69419751 -39.19892229 28.09766638 -39.25 25.5 C-39.28351563 24.613125 -39.31703125 23.72625 -39.3515625 22.8125 C-39.44559663 16.41817899 -38.26746467 12.50580662 -35 7 C-34.34 7 -33.68 7 -33 7 C-33 6.34 -33 5.68 -33 5 C-30.98828125 3.52734375 -30.98828125 3.52734375 -28.3125 1.9375 C-27.44238281 1.41027344 -26.57226562 0.88304687 -25.67578125 0.33984375 C-17.95781899 -3.52477093 -7.91590286 -2.98713315 0 0 Z " fill="#282E31" transform="translate(766,207)"/>
<path d="M0 0 C1.93786085 0.47770523 3.87527674 0.95721571 5.8125 1.4375 C7.43091797 1.83775391 7.43091797 1.83775391 9.08203125 2.24609375 C11.0740843 2.76077412 13.04811524 3.34937175 15 4 C16.68395315 4.0909845 18.37136097 4.12277455 20.05776978 4.12145996 C21.65956526 4.12373344 21.65956526 4.12373344 23.29372025 4.12605286 C24.48794979 4.12248276 25.68217934 4.11891266 26.91259766 4.11523438 C28.84832705 4.11519661 28.84832705 4.11519661 30.82316208 4.11515808 C34.5136996 4.1146168 38.20419867 4.10723844 41.89472532 4.09871864 C45.15694607 4.091949 48.41916696 4.08886697 51.68139279 4.08559561 C109.84993771 4.02446418 168.01865785 3.74875465 226.18677132 3.52733517 C234.99707219 3.49380842 243.80737379 3.4604771 252.61767578 3.42724609 C253.80542678 3.4227656 253.80542678 3.4227656 255.01717274 3.41819459 C268.3924037 3.36776851 281.76763761 3.31816114 295.14287341 3.26903296 C302.55801383 3.24175789 309.97315215 3.21405522 317.38828659 3.18519592 C344.78733541 3.07868263 372.18642666 2.9789699 399.58570027 2.95893574 C401.89515169 2.95704904 404.20460263 2.95439465 406.51405215 2.95088482 C420.19850308 2.93159174 433.82371923 3.12878288 447.49511719 3.75976562 C460.704134 4.31418066 473.94031492 4.22530624 487.15869141 4.24023438 C491.34411098 4.2458097 495.52921999 4.27011759 499.71454048 4.29820633 C502.98836177 4.31686373 506.26210646 4.32203898 509.53597641 4.32357025 C511.08040016 4.32656768 512.62482353 4.33449577 514.16919327 4.34775543 C524.88056925 4.50550238 524.88056925 4.50550238 535.10958862 1.64471436 C537.46924979 0.83996495 539.52492685 0.89882942 542 1 C542.06955903 11.71818982 542.12284132 22.4363258 542.15543652 33.15469551 C542.17108183 38.13185737 542.19229949 43.10886462 542.22631836 48.0859375 C542.25895211 52.89051709 542.27686155 57.69494809 542.28463173 62.49962997 C542.29016801 64.33122979 542.30097907 66.16282162 542.31719017 67.99435806 C542.33901789 70.56298546 542.3419647 73.13100157 542.34057617 75.69970703 C542.35675491 76.83151649 542.35675491 76.83151649 542.3732605 77.9861908 C542.34556318 82.73196868 541.56135748 85.99361721 539 90 C535.90137168 92.06575221 535.03644363 92.27446849 531.4921875 92.4140625 C530.59661133 92.45289551 529.70103516 92.49172852 528.77832031 92.53173828 C527.34117676 92.57790283 527.34117676 92.57790283 525.875 92.625 C524.8859668 92.66222168 523.89693359 92.69944336 522.87792969 92.73779297 C508.18288292 93.25228557 493.67126829 92.96092517 479 92 C477.8047407 75.34266289 477.50634254 58.70930374 477 42 C340.38 42.33 203.76 42.66 63 43 C62.13792335 48.08191497 62.13792335 48.08191497 61.82641602 53.09008789 C61.81292618 53.83428482 61.79943634 54.57848175 61.78553772 55.3452301 C61.77509933 56.12978073 61.76466095 56.91433136 61.75390625 57.72265625 C61.72098794 59.41211495 61.68777597 61.10156795 61.65429688 62.79101562 C61.60682453 65.43298707 61.56231591 68.07493215 61.52319336 70.71704102 C61.48341551 73.28164059 61.43191379 75.84580072 61.37890625 78.41015625 C61.3704921 79.19673111 61.36207794 79.98330597 61.35340881 80.79371643 C61.26008158 84.9494467 60.86089195 88.2582065 59 92 C52.88038732 92.1684192 46.76063541 92.32888916 40.640625 92.48217773 C38.56114168 92.53536104 36.48171154 92.59066987 34.40234375 92.64819336 C31.40376245 92.73076923 28.40506949 92.80555637 25.40625 92.87890625 C24.48509399 92.90594131 23.56393799 92.93297638 22.61486816 92.96083069 C8.91052403 93.27368269 8.91052403 93.27368269 4 90 C4 88.68 4 87.36 4 86 C3.34 86 2.68 86 2 86 C-0.41989451 27.52570016 -0.41989451 27.52570016 0 0 Z " fill="#272D2F" transform="translate(246,594)"/>
<path d="M0 0 C1.38151497 -0.00262848 1.38151497 -0.00262848 2.79093933 -0.00531006 C5.83240653 -0.00970689 8.87381542 -0.00679697 11.9152832 -0.00341797 C14.03652457 -0.00409192 16.15776586 -0.00506271 18.27900696 -0.00631714 C22.72670222 -0.00779142 27.17437739 -0.00564927 31.62207031 -0.00097656 C37.30332139 0.00470317 42.98452503 0.00145116 48.66577435 -0.00454903 C53.04885713 -0.00817677 57.43192884 -0.0070056 61.81501198 -0.00442123 C63.90843524 -0.00375718 66.00185954 -0.00456205 68.0952816 -0.00690079 C71.0335999 -0.00946177 73.97184346 -0.00553777 76.91015625 0 C77.76401917 -0.00202423 78.61788208 -0.00404846 79.49761963 -0.00613403 C85.30866942 0.01398945 91.00734751 0.45775234 96.77856445 1.12939453 C96.77856445 1.78939453 96.77856445 2.44939453 96.77856445 3.12939453 C97.50688477 3.20544922 98.23520508 3.28150391 98.9855957 3.35986328 C102.49206098 4.32598029 103.95575658 5.83782304 106.46606445 8.44189453 C107.61655273 9.61171875 107.61655273 9.61171875 108.7902832 10.80517578 C115.50223561 18.65117122 115.11223984 29.08441079 115.02856445 38.87939453 C115.02034668 40.03157471 115.01212891 41.18375488 115.00366211 42.37084961 C114.71522289 64.28447652 114.71522289 64.28447652 108.60668945 70.76220703 C102.45433941 75.36332351 97.22305754 75.56594935 89.80712891 75.53344727 C88.16445793 75.54374214 88.16445793 75.54374214 86.48860168 75.554245 C82.87288392 75.572526 79.25759972 75.5686721 75.6418457 75.56298828 C73.12086344 75.56755072 70.59988241 75.57285648 68.0789032 75.57887268 C62.79391853 75.58780735 57.50909098 75.58561277 52.22412109 75.57543945 C46.13923315 75.56398419 40.0547873 75.57799299 33.96995765 75.60483593 C28.09237302 75.62978211 22.21495856 75.63214999 16.33733177 75.62571907 C13.84839329 75.62556622 11.35944616 75.63158062 8.87053871 75.64401054 C5.37902208 75.65898596 1.88846062 75.64819281 -1.60302734 75.63110352 C-2.62003723 75.64077148 -3.63704712 75.65043945 -4.68487549 75.66040039 C-11.94854811 75.58642853 -20.23194435 74.63963804 -25.90651989 69.64673519 C-27.22143555 68.06689453 -27.22143555 68.06689453 -29.22143555 65.12939453 C-29.99040161 64.44091431 -29.99040161 64.44091431 -30.77490234 63.73852539 C-36.16986085 57.73714623 -34.75711063 44.83662093 -34.86669922 37.17700195 C-34.89490322 35.76794296 -34.94283244 34.35914364 -35.01025391 32.95141602 C-35.37592936 25.24183314 -35.29973009 19.39320868 -29.91674805 13.35986328 C-28.38612444 11.91235401 -26.8225513 10.49852566 -25.22143555 9.12939453 C-24.56127441 8.49300049 -23.90111328 7.85660645 -23.22094727 7.20092773 C-19.97666622 4.16340294 -18.79681392 3.12939453 -14.22143555 3.12939453 C-14.22143555 2.46939453 -14.22143555 1.80939453 -14.22143555 1.12939453 C-9.47731146 -0.08375916 -4.86032706 -0.01138728 0 0 Z " fill="#282E31" transform="translate(380.221435546875,299.87060546875)"/>
<path d="M0 0 C0.89554596 -0.00175232 1.79109192 -0.00350464 2.71377563 -0.00531006 C5.64571119 -0.00967682 8.57758542 -0.00680918 11.50952148 -0.00341797 C13.56257641 -0.00409244 15.61563126 -0.00506365 17.66868591 -0.00631714 C21.95963302 -0.00778705 26.25055924 -0.00566208 30.54150391 -0.00097656 C36.02778312 0.00472389 41.51401344 0.00143521 47.00029087 -0.00454903 C51.23573675 -0.00817065 55.47117112 -0.00700875 59.70661736 -0.00442123 C61.7291254 -0.00375658 63.75163451 -0.00456417 65.77414131 -0.00690079 C68.60466384 -0.00945403 71.43510825 -0.00554934 74.265625 0 C75.09234207 -0.00202423 75.91905914 -0.00404846 76.77082825 -0.00613403 C81.78802766 0.01199215 86.60072289 0.41462003 91.56811523 1.12939453 C91.56811523 1.78939453 91.56811523 2.44939453 91.56811523 3.12939453 C92.88811523 3.12939453 94.20811523 3.12939453 95.56811523 3.12939453 C95.56811523 3.78939453 95.56811523 4.44939453 95.56811523 5.12939453 C96.12499023 5.35626953 96.68186523 5.58314453 97.25561523 5.81689453 C102.12584846 8.58108096 104.69567173 11.94416637 106.56811523 17.12939453 C107.22811523 17.45939453 107.88811523 17.78939453 108.56811523 18.12939453 C108.69783457 27.8006915 108.55028335 37.46215035 108.25561523 47.12939453 C108.23313721 48.19085693 108.21065918 49.25231934 108.1875 50.34594727 C107.9144076 58.19874699 107.14695253 65.37214319 101.13061523 71.06689453 C100.5544043 71.63279297 99.97819336 72.19869141 99.38452148 72.78173828 C95.45063279 75.7004299 91.05949907 75.25590528 86.31323242 75.25878906 C85.223675 75.26141754 85.223675 75.26141754 84.11210632 75.26409912 C81.69637688 75.26851437 79.28072052 75.26556983 76.86499023 75.26220703 C75.15049221 75.26288275 73.43599428 75.26385499 71.72149658 75.2651062 C68.09988507 75.26658482 64.47829811 75.26443283 60.85668945 75.25976562 C56.34612712 75.25422038 51.8356256 75.25736917 47.32506561 75.26317215 C29.19138725 75.28334621 11.05620748 75.20405369 -7.0745163 74.85738754 C-8.8266582 74.8254997 -10.57889283 74.79831658 -12.33118439 74.77612686 C-14.75426367 74.74382202 -17.17624719 74.69282655 -19.59887695 74.63671875 C-20.30703804 74.63072033 -21.01519913 74.62472191 -21.74481964 74.61854172 C-26.98126285 74.46565207 -31.12126414 73.23250796 -35.04125977 69.66455078 C-38.2389506 65.53602528 -40.64244141 62.35226831 -40.77001953 57.05444336 C-40.79246231 56.26294388 -40.81490509 55.4714444 -40.83802795 54.65596008 C-40.84966476 53.80801376 -40.86130157 52.96006744 -40.87329102 52.08642578 C-40.88706284 51.20339279 -40.90083466 50.3203598 -40.9150238 49.41056824 C-40.93827539 47.54208617 -40.95555122 45.67352153 -40.96728516 43.80493164 C-40.99413621 40.96815365 -41.06903801 38.13515083 -41.14477539 35.29931641 C-41.36848318 20.08802826 -41.36848318 20.08802826 -37.32250977 14.64111328 C-35.39892578 12.71801758 -35.39892578 12.71801758 -33.43188477 11.12939453 C-32.55971313 10.39233276 -32.55971313 10.39233276 -31.66992188 9.64038086 C-30.0351656 8.36398539 -28.37146103 7.23747544 -26.61938477 6.12939453 C-25.76183594 5.55898438 -25.76183594 5.55898438 -24.88696289 4.97705078 C-17.02275504 -0.21646839 -9.22012742 -0.02263105 0 0 Z " fill="#2B2F32" transform="translate(577.431884765625,299.87060546875)"/>
<path d="M0 0 C-5.68958438 5.68958438 -23.52429337 3.13220189 -31.40680909 3.1384055 C-33.23533781 3.13693502 -35.06386646 3.13536736 -36.89239502 3.13371277 C-38.87073298 3.13558441 -40.84907058 3.13788651 -42.8274076 3.14057809 C-48.22628047 3.14665788 -53.62513777 3.14656706 -59.02401328 3.14538372 C-64.86026479 3.14517876 -70.69651142 3.15070713 -76.53276062 3.15544128 C-87.94782233 3.16372503 -99.36287888 3.166495 -110.77794334 3.16705366 C-120.05101642 3.16752946 -129.3240878 3.16958736 -138.59716034 3.17275429 C-141.27078557 3.17365186 -143.9444108 3.17454167 -146.61803603 3.17542917 C-147.28275269 3.17565021 -147.94746935 3.17587126 -148.63232894 3.17609901 C-167.30680764 3.18224575 -185.98128577 3.18620027 -204.65576553 3.18575573 C-205.35872398 3.18574015 -206.06168243 3.18572457 -206.78594266 3.18570852 C-210.34853037 3.18562542 -213.91111808 3.18552638 -217.4737058 3.18542381 C-218.18120933 3.18540387 -218.88871286 3.18538392 -219.61765589 3.18536337 C-221.04839179 3.18532294 -222.47912768 3.18528114 -223.90986357 3.18523798 C-246.20700539 3.18462421 -268.50413205 3.19215362 -290.80126953 3.20581055 C-315.86720465 3.22115714 -340.93312981 3.22977783 -365.99906993 3.22884732 C-379.2669979 3.22847644 -392.53490946 3.23128574 -405.80283356 3.24202538 C-417.08695807 3.25110107 -428.37105767 3.25332952 -439.65518424 3.24651595 C-445.41553556 3.24323719 -451.17583899 3.24324285 -456.93618584 3.2518692 C-462.2020774 3.2596745 -467.46788259 3.25836465 -472.73377189 3.24958507 C-474.64520852 3.24803692 -476.55665141 3.24991505 -478.46808067 3.25544515 C-481.05325065 3.26243314 -483.63811149 3.25726901 -486.22327042 3.24888897 C-486.97637444 3.25385715 -487.72947846 3.25882533 -488.50540382 3.26394406 C-492.22527357 3.2382065 -493.8199742 3.1200172 -497 1 C-495.45021458 0.99739563 -495.45021458 0.99739563 -493.86912036 0.99473864 C-448.3494483 0.9181789 -402.82977851 0.84039392 -357.31011963 0.7563324 C-356.27690548 0.75442488 -356.27690548 0.75442488 -355.22281833 0.75247882 C-340.25425552 0.72483647 -325.28569312 0.69697347 -310.31713115 0.66888306 C-302.97688308 0.65510949 -295.63663492 0.6413847 -288.29638672 0.62768555 C-287.56593168 0.62632146 -286.83547664 0.62495738 -286.0828866 0.62355196 C-262.39346518 0.57933617 -238.70403951 0.53834316 -215.01460951 0.49901587 C-190.67696824 0.4585955 -166.3393349 0.41493485 -142.00170687 0.36717889 C-138.56664141 0.36044003 -135.13157589 0.35373833 -131.69651031 0.34705925 C-130.68237398 0.34508566 -130.68237398 0.34508566 -129.64775003 0.3430722 C-118.75089938 0.32196172 -107.85404571 0.30428171 -96.95718707 0.28787469 C-86.01044256 0.27131971 -75.06370895 0.2510937 -64.1169776 0.22733159 C-58.18245173 0.21455792 -52.24793428 0.20342511 -46.31339836 0.19658089 C-40.88650053 0.19028699 -35.45963172 0.17946984 -30.0327498 0.1649667 C-28.0636504 0.16051865 -26.09454632 0.15776889 -24.12544212 0.15683801 C-21.45995605 0.15533611 -18.79455478 0.14779019 -16.12908554 0.1386652 C-14.96806024 0.1401992 -14.96806024 0.1401992 -13.78357989 0.14176419 C-8.97330095 0.11682478 -4.57964359 -1.4720283 0 0 Z " fill="#6C7473" transform="translate(773,546)"/>
<path d="M0 0 C44.22 0 88.44 0 134 0 C134 0.66 134 1.32 134 2 C125.00022258 2.17914303 116.00021314 2.34441019 107 2.5 C105.97004976 2.51781588 105.97004976 2.51781588 104.91929245 2.53599167 C80.29973337 2.95762432 55.68545401 3.08880657 31.0625 3.0625 C30.25546631 3.06164398 29.44843262 3.06078796 28.61694336 3.05990601 C18.74460464 3.04864469 8.87230383 3.02876511 -1 3 C-0.67 2.01 -0.34 1.02 0 0 Z " fill="#24282B" transform="translate(414,422)"/>
<path d="M0 0 C0.33 0 0.66 0 1 0 C2.25202405 29.65935783 2.12207212 59.324094 2.07202661 89.0039947 C2.06062373 95.89212764 2.0552946 102.78026185 2.05032361 109.66840196 C2.04001203 123.77894476 2.02255027 137.88947169 2 152 C1.67 152 1.34 152 1 152 C-0.23901136 140.808776 -0.24157909 129.60553142 -0.3515625 118.359375 C-0.37477384 116.23032442 -0.39816428 114.10127578 -0.42172241 111.972229 C-0.47004021 107.50397235 -0.51493123 103.03569666 -0.55761719 98.56738281 C-0.60090501 94.07251697 -0.6493367 89.57776017 -0.703125 85.08300781 C-1.04238092 56.695814 -0.97294686 28.37432595 0 0 Z " fill="#192424" transform="translate(781,228)"/>
<path d="M0 0 C-2.78256531 2.78256531 -4.6844561 2.39846607 -8.58338928 2.61790466 C-9.25078473 2.65554725 -9.91818018 2.69318984 -10.60579973 2.73197311 C-18.28993266 3.12786163 -25.97396228 3.1328104 -33.66577148 3.11352539 C-35.2738749 3.11324248 -36.88197845 3.11340329 -38.49008179 3.1139679 C-42.80518324 3.1142518 -47.12025622 3.10842155 -51.43535113 3.10139394 C-55.96365888 3.09509199 -60.49196747 3.09455124 -65.02027893 3.09336853 C-73.5727417 3.09027522 -82.12519151 3.08208909 -90.6776486 3.07201904 C-100.42387937 3.06079541 -110.1701108 3.05533178 -119.91634643 3.05032361 C-139.94423816 3.03990456 -159.97211826 3.0223443 -180 3 C-180 2.67 -180 2.34 -180 2 C-179.2229175 1.99576806 -178.445835 1.99153612 -177.64520454 1.98717594 C-158.66187131 1.88348376 -139.67857257 1.77479174 -120.69529915 1.66066074 C-111.51481429 1.60558421 -102.33432556 1.55214686 -93.15380859 1.50268555 C-85.14407317 1.45952769 -77.13436341 1.41317496 -69.124668 1.36312145 C-64.89089169 1.33677207 -60.65711962 1.31193026 -56.42331314 1.29092598 C-40.19535463 1.20939694 -14.65317363 -4.70994867 0 0 Z " fill="#373D3D" transform="translate(773,546)"/>
<path d="M0 0 C0.99 0.33 1.98 0.66 3 1 C2.67 26.08 2.34 51.16 2 77 C1.01 77.495 1.01 77.495 0 78 C0 52.26 0 26.52 0 0 Z " fill="#191C1E" transform="translate(249,224)"/>
<path d="M0 0 C0.99 0 1.98 0 3 0 C3.04633899 9.18815053 3.08187715 18.37626083 3.10362434 27.56450272 C3.11406186 31.83096697 3.12822048 36.09735128 3.15087891 40.36376953 C3.17260842 44.48104386 3.18456887 48.59824129 3.18975449 52.71556854 C3.19345005 54.28644776 3.20066652 55.85732277 3.21146011 57.42816925 C3.22597658 59.62831216 3.22797789 61.82813722 3.22705078 64.02832031 C3.231492 65.28074524 3.23593323 66.53317017 3.24050903 67.82354736 C3 71 3 71 1 75 C0.67 50.25 0.34 25.5 0 0 Z " fill="#151E27" transform="translate(784,595)"/>
<path d="M0 0 C2 1 2 1 3.109375 3.7734375 C4.54386928 9.29483412 4.29688258 14.96029074 4.25 20.625 C4.24323242 21.78257812 4.23646484 22.94015625 4.22949219 24.1328125 C4.01526776 41.82874689 4.01526776 41.82874689 2 47 C-0.078125 48.3125 -0.078125 48.3125 -2 49 C-1.67 48.34 -1.34 47.68 -1 47 C-0.84720314 45.54325186 -0.75061192 44.08039309 -0.68359375 42.6171875 C-0.64161865 41.70783447 -0.59964355 40.79848145 -0.55639648 39.86157227 C-0.51716064 38.87600342 -0.4779248 37.89043457 -0.4375 36.875 C-0.3950415 35.8655835 -0.35258301 34.85616699 -0.30883789 33.81616211 C0.12235098 22.54538827 0.09735662 11.27689224 0 0 Z " fill="#212A2A" transform="translate(491,318)"/>
<path d="M0 0 C3 1 3 1 4.17089844 3.08251953 C5.18438161 6.64881045 5.28700286 10.00476973 5.265625 13.6796875 C5.26753845 14.41067657 5.2694519 15.14166565 5.27142334 15.89480591 C5.2727798 17.43622178 5.26912108 18.97764928 5.26074219 20.51904297 C5.25006558 22.86061712 5.26063946 25.20141875 5.2734375 27.54296875 C5.27211521 29.04687667 5.26955137 30.55078412 5.265625 32.0546875 C5.26967346 32.74658173 5.27372192 33.43847595 5.27789307 34.15133667 C5.23357903 38.81896397 4.43753223 42.60960242 3 47 C2.67 47 2.34 47 2 47 C1.97494385 45.96705811 1.9498877 44.93411621 1.92407227 43.86987305 C1.82893076 39.98761444 1.72898398 36.1054911 1.62768555 32.22338867 C1.58473559 30.55252273 1.54303823 28.88162405 1.50268555 27.21069336 C1.28198082 18.10730461 1.03015395 9.05650682 0 0 Z " fill="#191C1B" transform="translate(711,311)"/>
<path d="M0 0 C0.89917648 -0.00095673 1.79835297 -0.00191345 2.72477722 -0.00289917 C4.61494009 -0.00357697 6.50510533 -0.0017507 8.39526367 0.00244141 C11.30067081 0.00782678 14.20592556 0.00246686 17.11132812 -0.00390625 C18.94921909 -0.00324601 20.78710997 -0.00196598 22.625 0 C23.93426201 -0.00303635 23.93426201 -0.00303635 25.26997375 -0.00613403 C31.36549757 0.01784132 31.36549757 0.01784132 32.48046875 1.1328125 C34.80864839 1.50041981 37.14230725 1.83522831 39.48046875 2.1328125 C39.48046875 2.4628125 39.48046875 2.7928125 39.48046875 3.1328125 C21.00046875 3.1328125 2.52046875 3.1328125 -16.51953125 3.1328125 C-16.18953125 2.4728125 -15.85953125 1.8128125 -15.51953125 1.1328125 C-10.40648507 -0.14506963 -5.2349572 -0.01228297 0 0 Z " fill="#222526" transform="translate(435.51953125,299.8671875)"/>
<path d="M0 0 C5.94 1.485 5.94 1.485 12 3 C12 3.66 12 4.32 12 5 C9.36 4.67 6.72 4.34 4 4 C3.67 15.88 3.34 27.76 3 40 C2.67 40 2.34 40 2 40 C0.47433307 34.57306018 -0.24113699 29.90098685 -0.1953125 24.21875 C-0.1924826 23.51979614 -0.18965271 22.82084229 -0.18673706 22.10070801 C-0.1756727 19.90028684 -0.15059606 17.70029507 -0.125 15.5 C-0.11495235 13.99479761 -0.10582965 12.48958874 -0.09765625 10.984375 C-0.07577893 7.32278062 -0.04134696 3.66143232 0 0 Z " fill="#222727" transform="translate(246,594)"/>
<path d="M0 0 C0 0.99 0 1.98 0 3 C-35.27645611 4.85069729 -35.27645611 4.85069729 -48 3 C-47.67 2.34 -47.34 1.68 -47 1 C-40.6279366 0.85727422 -34.25586558 0.71489279 -27.88378906 0.57275391 C-25.71484196 0.5243312 -23.54589664 0.47582886 -21.37695312 0.42724609 C-18.26432753 0.35753921 -15.15169571 0.28811616 -12.0390625 0.21875 C-11.065065 0.19687622 -10.0910675 0.17500244 -9.08755493 0.15246582 C-8.18677216 0.13244507 -7.28598938 0.11242432 -6.35791016 0.09179688 C-5.56293121 0.07403198 -4.76795227 0.05626709 -3.94888306 0.03796387 C-2.63277756 0.01232639 -1.31635518 0 0 0 Z " fill="#212526" transform="translate(782,683)"/>
<path d="M0 0 C1.32 0 2.64 0 4 0 C4 0.66 4 1.32 4 2 C4.62648438 2.06058594 5.25296875 2.12117188 5.8984375 2.18359375 C6.71570313 2.26738281 7.53296875 2.35117187 8.375 2.4375 C9.59316406 2.55931641 9.59316406 2.55931641 10.8359375 2.68359375 C13 3 13 3 15 4 C15 4.66 15 5.32 15 6 C15.556875 6.061875 16.11375 6.12375 16.6875 6.1875 C19.97272942 7.34176979 21.607803 9.49388886 24 12 C25.0558047 12.82118143 26.11839045 13.63371691 27.1875 14.4375 C30.24094404 17.21952679 31.07734063 19.03256473 32 23 C31.34 23 30.68 23 30 23 C30 22.34 30 21.68 30 21 C29.4121875 20.90847656 28.824375 20.81695312 28.21875 20.72265625 C25.45622949 19.82289165 24.42640132 18.59625235 22.5 16.4375 C16.09190835 9.76540458 8.29491209 4.99977215 0 1 C0 0.67 0 0.34 0 0 Z " fill="#323433" transform="translate(755,434)"/>
<path d="M0 0 C0.33 0 0.66 0 1 0 C2.16407206 7.01154322 1.99217361 13.84146896 1.75805664 20.92529297 C1.68747397 23.12581159 1.63327671 25.32634432 1.58007812 27.52734375 C1.53745044 28.93753034 1.49386362 30.34768833 1.44921875 31.7578125 C1.41143311 33.0277002 1.37364746 34.29758789 1.3347168 35.60595703 C1.01877181 38.80965304 0.37175938 41.11038077 -1 44 C-1.33 44 -1.66 44 -2 44 C-2.02519409 40.1263124 -2.04308675 36.25265815 -2.05493164 32.37890625 C-2.06228369 30.43227455 -2.07500578 28.48566544 -2.08789062 26.5390625 C-2.10964044 18.01313632 -2.01668365 9.47631353 -1 1 C-0.67 0.67 -0.34 0.34 0 0 Z " fill="#142329" transform="translate(306,636)"/>
<path d="M0 0 C3.00832011 4.51248016 2.32901757 8.87875174 2.3125 14.1875 C2.32861328 15.20392578 2.34472656 16.22035156 2.36132812 17.26757812 C2.36539394 23.56552274 1.60700129 28.2563428 -1 34 C-1.33 34 -1.66 34 -2 34 C-1.88204075 29.31842099 -1.75781451 24.63706712 -1.62768555 19.95581055 C-1.58427854 18.362107 -1.54260781 16.7683552 -1.50268555 15.17456055 C-1.44512193 12.88836092 -1.38138851 10.60240551 -1.31640625 8.31640625 C-1.29969376 7.59973282 -1.28298126 6.88305939 -1.26576233 6.14466858 C-1.11387171 1.11387171 -1.11387171 1.11387171 0 0 Z " fill="#1B2323" transform="translate(827,489)"/>
<path d="M0 0 C0.66 0 1.32 0 2 0 C2 8.25 2 16.5 2 25 C2.66 25 3.32 25 4 25 C4.66 29.29 5.32 33.58 6 38 C4.35 38 2.7 38 1 38 C-0.24795354 25.34218554 -0.10177436 12.70457176 0 0 Z " fill="#1C2425" transform="translate(315,326)"/>
<path d="M0 0 C0.66 0 1.32 0 2 0 C1.72285156 1.22332031 1.44570312 2.44664062 1.16015625 3.70703125 C-1.41379921 15.51888922 -2.7266891 26.91965813 -3 39 C-5 37 -5 37 -5.22705078 34.66162109 C-5.21657715 33.70852051 -5.20610352 32.75541992 -5.1953125 31.7734375 C-5.18886719 30.7421875 -5.18242187 29.7109375 -5.17578125 28.6484375 C-5.15902344 27.56820313 -5.14226562 26.48796875 -5.125 25.375 C-5.11597656 24.28703125 -5.10695312 23.1990625 -5.09765625 22.078125 C-5.07403409 19.38519848 -5.04109556 16.69270745 -5 14 C-4.34 14 -3.68 14 -3 14 C-3.33 11.03 -3.66 8.06 -4 5 C-3.01 4.34 -2.02 3.68 -1 3 C-0.67 2.01 -0.34 1.02 0 0 Z " fill="#5F6E6D" transform="translate(235,472)"/>
<path d="M0 0 C-5.51360269 5.51360269 -21.98368799 3.08368981 -29.40234375 3.09765625 C-33.91411143 3.09512809 -38.42576708 3.07945298 -42.9375 3.0625 C-45.27799383 3.05747365 -47.61848871 3.05291276 -49.95898438 3.04882812 C-55.63934615 3.03791546 -61.31966805 3.02126779 -67 3 C-67 2.67 -67 2.34 -67 2 C-65.85225098 1.97494385 -64.70450195 1.9498877 -63.52197266 1.92407227 C-59.17180393 1.82829722 -54.82173367 1.72852703 -50.47167969 1.62768555 C-48.60614358 1.58496701 -46.7405839 1.54326332 -44.875 1.50268555 C-35.21040794 1.29179332 -25.55260147 1.03511573 -15.8984375 0.52734375 C-14.78621323 0.47170006 -14.78621323 0.47170006 -13.65151978 0.41493225 C-0.95225548 -0.30608212 -0.95225548 -0.30608212 0 0 Z " fill="#424949" transform="translate(773,546)"/>
<path d="M0 0 C23.78877436 -0.41277905 23.78877436 -0.41277905 34 2 C34 2.33 34 2.66 34 3 C29.97982745 3.02485364 25.95968512 3.04293238 21.93945312 3.05493164 C20.5738853 3.05993786 19.20832276 3.06674482 17.84277344 3.07543945 C15.87176882 3.08766831 13.9007239 3.09272866 11.9296875 3.09765625 C10.15440674 3.10551147 10.15440674 3.10551147 8.34326172 3.11352539 C5.13846468 3.00470177 2.14523388 2.60517483 -1 2 C-0.67 1.34 -0.34 0.68 0 0 Z " fill="#1D2327" transform="translate(262,572)"/>
<path d="M0 0 C0.99 0.495 0.99 0.495 2 1 C1.99419922 1.63526611 1.98839844 2.27053223 1.98242188 2.92504883 C1.94421867 10.52407661 2.18456579 18.0957658 2.5 25.6875 C2.54769531 26.87794922 2.59539062 28.06839844 2.64453125 29.29492188 C2.7610685 32.19669946 2.87959289 35.09838086 3 38 C2.34 38 1.68 38 1 38 C0.67 38.66 0.34 39.32 0 40 C0 26.8 0 13.6 0 0 Z " fill="#171B1D" transform="translate(249,639)"/>
<path d="M0 0 C1.4814704 3.87824417 0.44528969 6.45913016 -0.8125 10.3125 C-3.09890676 17.83628141 -4.16814441 25.18493564 -5 33 C-5.66 33 -6.32 33 -7 33 C-7.50912521 22.77506877 -6.66263946 14.69618393 -3 5 C-2.34 5 -1.68 5 -1 5 C-0.67 3.35 -0.34 1.7 0 0 Z " fill="#1F2322" transform="translate(210,464)"/>
<path d="M0 0 C0.66 0.33 1.32 0.66 2 1 C-0.93107855 5.23020128 -3.36895033 8.69418078 -7.8125 11.375 C-9.97327177 13.05031204 -10.86511441 14.32589865 -11.40332031 17.015625 C-11.99127221 22.33581893 -12.03923858 27.65234165 -12 33 C-12.33 33 -12.66 33 -13 33 C-14.3746861 16.46982388 -14.3746861 16.46982388 -11.13671875 10.65234375 C-8.87966645 8.20320189 -6.58593811 6.09358235 -4 4 C-2.65413725 2.67931495 -1.31662113 1.34983864 0 0 Z " fill="#434745" transform="translate(359,305)"/>
<path d="M0 0 C0.99 0.66 1.98 1.32 3 2 C0.61426621 3.89213369 -1.07175348 5.02391783 -4 6 C-4.433125 6.45375 -4.86625 6.9075 -5.3125 7.375 C-8.58796405 10.52915056 -11.85717418 11.93650968 -16.375 12.1875 C-17.674375 12.0946875 -17.674375 12.0946875 -19 12 C-17.50879308 9.01758616 -15.22195372 8.48686318 -12.25 7.0625 C-5.70637667 4.17873706 -5.70637667 4.17873706 0 0 Z " fill="#384040" transform="translate(801,559)"/>
<path d="M0 0 C0.99 0 1.98 0 3 0 C3 12.87 3 25.74 3 39 C2.67 39 2.34 39 2 39 C1.97494385 38.28046143 1.9498877 37.56092285 1.92407227 36.81958008 C1.32763951 18.38849036 1.32763951 18.38849036 0 0 Z " fill="#0B141B" transform="translate(784,595)"/>
<path d="M0 0 C0.33 0.99 0.66 1.98 1 3 C-0.423125 3.12375 -0.423125 3.12375 -1.875 3.25 C-3.421875 3.62125 -3.421875 3.62125 -5 4 C-6.18330183 5.86644906 -6.18330183 5.86644906 -7 8 C-9.125 9.75 -9.125 9.75 -11 11 C-11.33 9.35 -11.66 7.7 -12 6 C-11.34 6 -10.68 6 -10 6 C-10 5.34 -10 4.68 -10 4 C-6.32547562 1.1605948 -4.73113419 0 0 0 Z " fill="#242928" transform="translate(743,208)"/>
<path d="M0 0 C1.4540625 0.0309375 1.4540625 0.0309375 2.9375 0.0625 C2.9375 0.7225 2.9375 1.3825 2.9375 2.0625 C-1.90672847 4.60998246 -6.55410376 4.29066428 -11.875 4.1875 C-12.75865234 4.17847656 -13.64230469 4.16945313 -14.55273438 4.16015625 C-16.72277359 4.13669637 -18.89267247 4.10082865 -21.0625 4.0625 C-21.0625 3.7325 -21.0625 3.4025 -21.0625 3.0625 C-19.84691406 2.92972656 -18.63132812 2.79695312 -17.37890625 2.66015625 C-15.79424516 2.48199909 -14.2096111 2.30360125 -12.625 2.125 C-11.42133789 1.99448242 -11.42133789 1.99448242 -10.19335938 1.86132812 C-6.50700825 1.44136407 -3.47761039 0.07097164 0 0 Z " fill="#1E2529" transform="translate(778.0625,569.9375)"/>
<path d="M0 0 C0.33 0 0.66 0 1 0 C1 7.92 1 15.84 1 24 C0.34 24 -0.32 24 -1 24 C-2.40948526 16.32613578 -1.87620605 8.72034883 -1 1 C-0.67 0.67 -0.34 0.34 0 0 Z " fill="#16191B" transform="translate(726,660)"/>
<path d="M0 0 C0 0.66 0 1.32 0 2 C-0.85464844 2.20496094 -1.70929688 2.40992188 -2.58984375 2.62109375 C-3.69457031 2.89050781 -4.79929687 3.15992188 -5.9375 3.4375 C-7.03964844 3.70433594 -8.14179688 3.97117187 -9.27734375 4.24609375 C-11.89421254 4.72995725 -11.89421254 4.72995725 -13 6 C-15.67058851 6.14115161 -18.32432238 6.04247107 -21 6 C-20 4 -20 4 -17.05078125 2.9296875 C-15.81714844 2.58164062 -14.58351563 2.23359375 -13.3125 1.875 C-11.48138672 1.34519531 -11.48138672 1.34519531 -9.61328125 0.8046875 C-6.2610498 0.0581365 -3.41640681 -0.1574381 0 0 Z " fill="#1C2324" transform="translate(302,396)"/>
<path d="M0 0 C1.32 0 2.64 0 4 0 C4 0.66 4 1.32 4 2 C4.62648438 2.06058594 5.25296875 2.12117188 5.8984375 2.18359375 C6.71570313 2.26738281 7.53296875 2.35117187 8.375 2.4375 C9.59316406 2.55931641 9.59316406 2.55931641 10.8359375 2.68359375 C13 3 13 3 15 4 C15 4.66 15 5.32 15 6 C15.66 6 16.32 6 17 6 C17.33 7.65 17.66 9.3 18 11 C14.02858252 9.67619417 11.10022764 7.70230689 7.78125 5.2421875 C5.32581813 3.52984685 2.71096759 2.25630206 0 1 C0 0.67 0 0.34 0 0 Z " fill="#4F5152" transform="translate(755,434)"/>
<path d="M0 0 C0.99 0 1.98 0 3 0 C2.52492969 4.27563279 0.04697466 6.16560497 -3 9 C-4.1446875 10.1446875 -4.1446875 10.1446875 -5.3125 11.3125 C-5.869375 11.869375 -6.42625 12.42625 -7 13 C-7.66 12.34 -8.32 11.68 -9 11 C-7.68823998 9.35357683 -6.3755713 7.70787757 -5.0625 6.0625 C-4.33160156 5.14597656 -3.60070312 4.22945313 -2.84765625 3.28515625 C-1 1 -1 1 0 0 Z " fill="#2F2F2F" transform="translate(228,435)"/>
<path d="M0 0 C0.66 0.99 1.32 1.98 2 3 C-5.50216736 6.0517291 -11.94635715 6.33608711 -20 6 C-16.9079531 3.9386354 -15.28166209 3.556772 -11.6875 3 C-7.62754847 2.32154656 -3.8642325 1.46214203 0 0 Z " fill="#1A2223" transform="translate(783,595)"/>
<path d="M0 0 C4.39946244 3.77268971 4.48694006 8.4565938 5 14 C5.219997 20.66577723 5.11753651 27.33306781 5 34 C4.67 34 4.34 34 4 34 C3.96261719 32.92363281 3.92523437 31.84726562 3.88671875 30.73828125 C3.53467686 22.43715268 2.78061677 14.70651528 0.62109375 6.63671875 C0 4 0 4 0 0 Z " fill="#6C6F6F" transform="translate(796,478)"/>
<path d="M0 0 C6.90320403 -0.23400692 11.61412507 0.30907667 17 5 C18.37013339 6.63654821 19.7120272 8.29803595 21 10 C17.65346564 8.81252007 14.68616881 7.27390808 11.625 5.5 C7.78848315 3.32147535 4.28623353 2.00316104 0 1 C0 0.67 0 0.34 0 0 Z M18 5 C18.99 5.33 19.98 5.66 21 6 C20.01 6 19.02 6 18 6 C18 5.67 18 5.34 18 5 Z " fill="#4B4D50" transform="translate(478,279)"/>
<path d="M0 0 C1.8871875 0.0309375 1.8871875 0.0309375 3.8125 0.0625 C3.8125 0.7225 3.8125 1.3825 3.8125 2.0625 C4.4725 2.3925 5.1325 2.7225 5.8125 3.0625 C3.37531065 3.39825056 0.93779385 3.73119285 -1.5 4.0625 C-2.19029297 4.15789062 -2.88058594 4.25328125 -3.59179688 4.3515625 C-6.48397073 4.74277442 -9.26514977 5.0625 -12.1875 5.0625 C-8.089169 1.62876322 -5.385198 -0.08828193 0 0 Z " fill="#383B3A" transform="translate(518.1875,384.9375)"/>
<path d="M0 0 C1.30179261 3.603026 0.70754688 5.6765456 -0.6875 9.1875 C-1.02136719 10.06792969 -1.35523438 10.94835937 -1.69921875 11.85546875 C-3 14 -3 14 -5.03515625 14.703125 C-6.00775391 14.85007812 -6.00775391 14.85007812 -7 15 C-8.73026102 16.47890069 -8.73026102 16.47890069 -10 18 C-10.66 17.67 -11.32 17.34 -12 17 C-11.46890625 16.443125 -10.9378125 15.88625 -10.390625 15.3125 C-5.89590089 10.45688564 -2.64719747 6.06649419 0 0 Z " fill="#505555" transform="translate(796,521)"/>
<path d="M0 0 C0.33 0.99 0.66 1.98 1 3 C-3.625 7 -3.625 7 -7 7 C-7.33 7.99 -7.66 8.98 -8 10 C-8.33 9.34 -8.66 8.68 -9 8 C-9.66 7.67 -10.32 7.34 -11 7 C-9.87720538 6.01830524 -8.75168527 5.03972702 -7.625 4.0625 C-6.68527344 3.24458984 -6.68527344 3.24458984 -5.7265625 2.41015625 C-3.71547429 0.76761588 -2.62199195 0 0 0 Z " fill="#313534" transform="translate(260,440)"/>
<path d="M0 0 C4.44304843 4.90267413 6.8337884 9.89738338 7.1875 16.5 C7.125625 17.325 7.06375 18.15 7 19 C4.39350532 16.39350532 3.55975019 13.46865679 2.375 10.0625 C2.03082031 9.11213867 2.03082031 9.11213867 1.6796875 8.14257812 C0.67198284 5.29041404 0 3.04816693 0 0 Z " fill="#1D2123" transform="translate(818,456)"/>
<path d="M0 0 C0.99 0 1.98 0 3 0 C3.05383848 2.45862401 3.09359038 4.9160755 3.125 7.375 C3.14175781 8.07367187 3.15851562 8.77234375 3.17578125 9.4921875 C3.19344267 11.32897486 3.10303261 13.16601963 3 15 C2.34 15.66 1.68 16.32 1 17 C0.00749455 11.29309366 -0.10477512 5.78591511 0 0 Z " fill="#31393E" transform="translate(784,666)"/>
<path d="M0 0 C0.86625 0.37125 0.86625 0.37125 1.75 0.75 C-0.16135386 4.28600465 -1.87642766 6.53972846 -5.25 8.75 C-6 6.5 -6 6.5 -6.25 3.75 C-3.32317073 -0.36924119 -3.32317073 -0.36924119 0 0 Z " fill="#212324" transform="translate(257.25,215.25)"/>
<path d="M0 0 C-1.90881434 1.03544174 -3.82739204 2.05290085 -5.75 3.0625 C-6.81734375 3.63097656 -7.8846875 4.19945312 -8.984375 4.78515625 C-12.02593537 6.01044806 -13.04893565 6.25348607 -16 5 C-11.25 2 -11.25 2 -9 2 C-9 1.34 -9 0.68 -9 0 C-5.5657338 -0.85856655 -3.38317487 -0.97591583 0 0 Z " fill="#172425" transform="translate(279,373)"/>
<path d="M0 0 C6.02839298 -0.39315606 11.40447021 0.66316955 17 3 C17.33 3.66 17.66 4.32 18 5 C11.56318772 4.48914188 6.04057576 3.27057103 0 1 C0 0.67 0 0.34 0 0 Z " fill="#1C2424" transform="translate(739,370)"/>
<path d="M0 0 C-2 2 -2 2 -4.43017578 2.22705078 C-5.4251709 2.21657715 -6.42016602 2.20610352 -7.4453125 2.1953125 C-8.52167969 2.18886719 -9.59804688 2.18242188 -10.70703125 2.17578125 C-11.83496094 2.15902344 -12.96289062 2.14226563 -14.125 2.125 C-15.26066406 2.11597656 -16.39632812 2.10695313 -17.56640625 2.09765625 C-20.37781299 2.07403098 -23.18880298 2.04109013 -26 2 C-26 1.67 -26 1.34 -26 1 C-24.74703125 0.93941406 -23.4940625 0.87882813 -22.203125 0.81640625 C-20.55207276 0.73197744 -18.90103165 0.64733061 -17.25 0.5625 C-16.425 0.52318359 -15.6 0.48386719 -14.75 0.44335938 C-13.95078125 0.40146484 -13.1515625 0.35957031 -12.328125 0.31640625 C-11.5949707 0.27974854 -10.86181641 0.24309082 -10.10644531 0.20532227 C-7.97686968 0.05220526 -7.97686968 0.05220526 -5.87011719 -0.54711914 C-3.60748721 -1.09505369 -2.18994109 -0.70390963 0 0 Z " fill="#5C6061" transform="translate(773,546)"/>
<path d="M0 0 C4.42049045 1.2055883 7.11421977 2.39277472 10 6 C11.25 8.75 11.25 8.75 12 11 C11.34 11.66 10.68 12.32 10 13 C9.835 12.319375 9.67 11.63875 9.5 10.9375 C7.57020955 7.15832703 4.93122357 5.11452463 1.6796875 2.453125 C1.12539063 1.97359375 0.57109375 1.4940625 0 1 C0 0.67 0 0.34 0 0 Z " fill="#404246" transform="translate(499,289)"/>
<path d="M0 0 C0.33 0 0.66 0 1 0 C0.46148032 5.27749285 -0.77343836 9.25645564 -3 14 C-3.66 14 -4.32 14 -5 14 C-5.28883414 9.93465943 -4.57875609 7.66941645 -2.5 4.1875 C-2.0359375 3.39730469 -1.571875 2.60710938 -1.09375 1.79296875 C-0.55234375 0.90544922 -0.55234375 0.90544922 0 0 Z " fill="#1A2226" transform="translate(824,525)"/>
<path d="M0 0 C0.66 0.33 1.32 0.66 2 1 C-4.92938497 9.81548975 -4.92938497 9.81548975 -11 11 C-7.6381774 6.74828319 -4.25171681 3.3618226 0 0 Z " fill="#484A49" transform="translate(244,419)"/>
<path d="M0 0 C-2.06212166 2.06212166 -3.97035716 3.2543095 -6.5 4.6875 C-7.2940625 5.14511719 -8.088125 5.60273438 -8.90625 6.07421875 C-9.5971875 6.37972656 -10.288125 6.68523437 -11 7 C-11.66 6.67 -12.32 6.34 -13 6 C-9.32275786 -0.51874744 -7.1066834 -0.11462393 0 0 Z " fill="#525554" transform="translate(277,433)"/>
<path d="M0 0 C0.66 0.33 1.32 0.66 2 1 C1.6875 2.9375 1.6875 2.9375 1 5 C-2.47325181 6.1577506 -5.36067448 6.06866652 -9 6 C-6.12050853 3.76039553 -3.23257974 1.70135776 0 0 Z " fill="#454B49" transform="translate(782,539)"/>
<path d="M0 0 C7.48291572 6.15034169 7.48291572 6.15034169 10 10 C7 10 7 10 4.4375 7.625 C3.633125 6.75875 2.82875 5.8925 2 5 C1.34 4.34 0.68 3.68 0 3 C0 2.01 0 1.02 0 0 Z " fill="#3E4044" transform="translate(793,424)"/>
<path d="M0 0 C0 0.66 0 1.32 0 2 C-1.08667969 2.09087891 -1.08667969 2.09087891 -2.1953125 2.18359375 C-7.17116533 2.61483433 -12.08680391 3.07047641 -17 4 C-15.37090303 2.06479883 -14.40446131 1.09922178 -11.9140625 0.48828125 C-11.15867187 0.43027344 -10.40328125 0.37226563 -9.625 0.3125 C-8.43970703 0.21582031 -8.43970703 0.21582031 -7.23046875 0.1171875 C-4.81504424 -0.00971747 -2.41808984 -0.0780029 0 0 Z " fill="#1F2322" transform="translate(380,301)"/>
<path d="M0 0 C5.78461538 4.18461538 5.78461538 4.18461538 6.875 8.3125 C6.936875 9.6428125 6.936875 9.6428125 7 11 C4.35247996 8.42215154 2.05567935 6.08351902 0 3 C0 2.01 0 1.02 0 0 Z " fill="#3D4447" transform="translate(298,215)"/>
<path d="M0 0 C-0.33 0.99 -0.66 1.98 -1 3 C-4.3 3 -7.6 3 -11 3 C-3.71428571 -1.85714286 -3.71428571 -1.85714286 0 0 Z " fill="#484D4D" transform="translate(282,401)"/>
<path d="M0 0 C3.375 0.25 3.375 0.25 7 1 C8.4375 3.0625 8.4375 3.0625 9 5 C8.01 5.495 8.01 5.495 7 6 C4.875 5.0625 4.875 5.0625 3 4 C3 3.34 3 2.68 3 2 C2.01 1.67 1.02 1.34 0 1 C0 0.67 0 0.34 0 0 Z " fill="#323839" transform="translate(770,381)"/>
<path d="M0 0 C-1.45449401 1.0055761 -2.91372443 2.00430435 -4.375 3 C-5.59316406 3.8353125 -5.59316406 3.8353125 -6.8359375 4.6875 C-9 6 -9 6 -11 6 C-9.89210592 2.67631776 -9.51563783 2.38436907 -6.625 0.75 C-6.01914062 0.39421875 -5.41328125 0.0384375 -4.7890625 -0.328125 C-3 -1 -3 -1 0 0 Z " fill="#1B2525" transform="translate(540,284)"/>
<path d="M0 0 C0.66 0.33 1.32 0.66 2 1 C-2.43076923 6.78461538 -2.43076923 6.78461538 -5.3125 7.875 C-5.869375 7.91625 -6.42625 7.9575 -7 8 C-5.61918777 3.8575633 -3.40174442 2.67796901 0 0 Z " fill="#1B2121" transform="translate(790,534)"/>
<path d="M0 0 C5.19209404 -0.21192221 9.126739 0.4087311 14 2 C14 2.33 14 2.66 14 3 C4.58997722 3.3690205 4.58997722 3.3690205 0 1 C0 0.67 0 0.34 0 0 Z " fill="#1E2527" transform="translate(721,366)"/>
<path d="M0 0 C0.66 0.33 1.32 0.66 2 1 C0.71034824 2.37562854 -0.62689293 3.70766393 -2 5 C-2.66 5 -3.32 5 -4 5 C-4.33 6.32 -4.66 7.64 -5 9 C-5.99 9 -6.98 9 -8 9 C-6.4169423 4.7257442 -3.49431596 2.73468206 0 0 Z " fill="#4E504F" transform="translate(549,307)"/>
<path d="M0 0 C3.33717549 1.3809002 5.22301036 2.8201238 7 6 C6.57421875 8.1328125 6.57421875 8.1328125 6 10 C4.99421411 8.71283353 3.99553202 7.42011342 3 6.125 C2.443125 5.40570313 1.88625 4.68640625 1.3125 3.9453125 C0 2 0 2 0 0 Z " fill="#191B1B" transform="translate(701,294)"/>
<path d="M0 0 C0.99 0.33 1.98 0.66 3 1 C2.88637738 2.4800841 2.75877092 3.95910074 2.625 5.4375 C2.52058594 6.67306641 2.52058594 6.67306641 2.4140625 7.93359375 C2.27742187 8.61550781 2.14078125 9.29742188 2 10 C1.01 10.495 1.01 10.495 0 11 C0 7.37 0 3.74 0 0 Z " fill="#1E2021" transform="translate(201,503)"/>
<path d="M0 0 C0.33 0 0.66 0 1 0 C1.25 2.25 1.25 2.25 1 5 C-1 7.3125 -1 7.3125 -3 9 C-3.66 8.34 -4.32 7.68 -5 7 C-4.19152271 5.83054208 -3.37810888 4.66449539 -2.5625 3.5 C-2.11003906 2.8503125 -1.65757812 2.200625 -1.19140625 1.53125 C-0.79824219 1.0259375 -0.40507812 0.520625 0 0 Z " fill="#3B3B3B" transform="translate(224,439)"/>
<path d="M0 0 C-3.08888522 2.05925681 -3.70935927 2.2390374 -7.1875 2.125 C-9.0746875 2.063125 -9.0746875 2.063125 -11 2 C-11 1.34 -11 0.68 -11 0 C-3.57142857 -1.28571429 -3.57142857 -1.28571429 0 0 Z " fill="#131617" transform="translate(277,209)"/>
<path d="M0 0 C0.66 0 1.32 0 2 0 C2.25 5.625 2.25 5.625 0 9 C-0.66 9 -1.32 9 -2 9 C-2 7.68 -2 6.36 -2 5 C-1.34 5 -0.68 5 0 5 C0 3.35 0 1.7 0 0 Z " fill="#24292A" transform="translate(799,516)"/>
<path d="M0 0 C0.33 0.99 0.66 1.98 1 3 C1.66 3 2.32 3 3 3 C3 3.99 3 4.98 3 6 C1.35 6.33 -0.3 6.66 -2 7 C-1.34 4.69 -0.68 2.38 0 0 Z " fill="#1C2120" transform="translate(252,380)"/>
<path d="M0 0 C-3.44450737 2.29633824 -5.93812283 2.54016485 -10 3 C-7.00991906 -1.48512141 -4.87831759 -1.18661779 0 0 Z " fill="#3F484A" transform="translate(267,379)"/>
<path d="M0 0 C0.33 0.99 0.66 1.98 1 3 C-1.97 5.475 -1.97 5.475 -5 8 C-5.33 7.01 -5.66 6.02 -6 5 C-4.02 3.35 -2.04 1.7 0 0 Z " fill="#393F3E" transform="translate(680,365)"/>
<path d="M0 0 C0 0.66 0 1.32 0 2 C1.65 2.33 3.3 2.66 5 3 C4.01 4.485 4.01 4.485 3 6 C0.33333333 4.66666667 -2.33333333 3.33333333 -5 2 C-2 0 -2 0 0 0 Z " fill="#3B3F3F" transform="translate(689,282)"/>
<path d="M0 0 C1.98 0.99 3.96 1.98 6 3 C6 3.99 6 4.98 6 6 C3.03 5.505 3.03 5.505 0 5 C0.66 4.67 1.32 4.34 2 4 C2 3.34 2 2.68 2 2 C1.34 2 0.68 2 0 2 C0 1.34 0 0.68 0 0 Z " fill="#383C3C" transform="translate(246,537)"/>
<path d="M0 0 C2 2 2 2 2.1953125 4.1640625 C2.16050781 5.38222656 2.16050781 5.38222656 2.125 6.625 C2.10695313 7.44226563 2.08890625 8.25953125 2.0703125 9.1015625 C2.04710937 9.72804688 2.02390625 10.35453125 2 11 C-0.7865517 8.2134483 -0.65662895 5.84575573 -1 2 C-0.67 1.34 -0.34 0.68 0 0 Z " fill="#25272A" transform="translate(799,477)"/>
<path d="M0 0 C2.64 0 5.28 0 8 0 C8 0.66 8 1.32 8 2 C8.66 2.33 9.32 2.66 10 3 C7.03 3 4.06 3 1 3 C0.67 2.01 0.34 1.02 0 0 Z " fill="#3D4140" transform="translate(514,385)"/>
<path d="M0 0 C2.875 -0.1875 2.875 -0.1875 6 0 C6.66 0.99 7.32 1.98 8 3 C5.03 3 2.06 3 -1 3 C-0.67 2.01 -0.34 1.02 0 0 Z " fill="#232527" transform="translate(562,301)"/>
<path d="M0 0 C2.475 0.495 2.475 0.495 5 1 C5 1.66 5 2.32 5 3 C5.66 3 6.32 3 7 3 C7 3.66 7 4.32 7 5 C4.61435923 4.42415568 2.33317216 3.77772405 0 3 C0 2.01 0 1.02 0 0 Z " fill="#151A19" transform="translate(241,536)"/>
<path d="M0 0 C-1.24976756 3.65316671 -1.67098753 4.78065836 -5 7 C-5.33 6.01 -5.66 5.02 -6 4 C-2.25 0 -2.25 0 0 0 Z " fill="#2F3737" transform="translate(251,448)"/>
<path d="M0 0 C1.36125 0.12375 1.36125 0.12375 2.75 0.25 C2.42 0.91 2.09 1.57 1.75 2.25 C-0.31640625 2.8828125 -0.31640625 2.8828125 -2.8125 3.375 C-4.05193359 3.62636719 -4.05193359 3.62636719 -5.31640625 3.8828125 C-5.95449219 4.00398438 -6.59257813 4.12515625 -7.25 4.25 C-4.83923194 1.28290085 -3.90322061 0.30024774 0 0 Z " fill="#222629" transform="translate(552.25,276.75)"/>
<path d="M0 0 C2.31 0 4.62 0 7 0 C7 0.66 7 1.32 7 2 C7.66 2.33 8.32 2.66 9 3 C6.03 2.67 3.06 2.34 0 2 C0 1.34 0 0.68 0 0 Z " fill="#1D2426" transform="translate(668,275)"/>
<path d="M0 0 C1.4800841 0.11362262 2.95910074 0.24122908 4.4375 0.375 C5.26121094 0.44460938 6.08492187 0.51421875 6.93359375 0.5859375 C7.95646484 0.79089844 7.95646484 0.79089844 9 1 C9.33 1.66 9.66 2.32 10 3 C8.5199159 2.88637738 7.04089926 2.75877092 5.5625 2.625 C4.73878906 2.55539062 3.91507813 2.48578125 3.06640625 2.4140625 C2.38449219 2.27742187 1.70257813 2.14078125 1 2 C0.67 1.34 0.34 0.68 0 0 Z " fill="#363637" transform="translate(236,565)"/>
<path d="M0 0 C0.99 0 1.98 0 3 0 C2.67 1.65 2.34 3.3 2 5 C1.01 5 0.02 5 -1 5 C-0.67 3.35 -0.34 1.7 0 0 Z " fill="#373E40" transform="translate(242,455)"/>
<path d="M0 0 C2.97 1.98 2.97 1.98 6 4 C5.67 4.66 5.34 5.32 5 6 C3.68 5.67 2.36 5.34 1 5 C0.67 3.35 0.34 1.7 0 0 Z " fill="#35393A" transform="translate(809,443)"/>
<path d="M0 0 C0.66 0 1.32 0 2 0 C2.33 0.99 2.66 1.98 3 3 C0.525 4.485 0.525 4.485 -2 6 C-1.125 1.125 -1.125 1.125 0 0 Z " fill="#464948" transform="translate(258,440)"/>
<path d="M0 0 C0.99 0.66 1.98 1.32 3 2 C1.68 3.32 0.36 4.64 -1 6 C-1.66 5.67 -2.32 5.34 -3 5 C-1.125 1.125 -1.125 1.125 0 0 Z " fill="#404748" transform="translate(488,366)"/>
<path d="M0 0 C4.875 2.625 4.875 2.625 6 6 C3 6 3 6 1.3125 4.6875 C0 3 0 3 0 0 Z " fill="#343837" transform="translate(352,364)"/>
<path d="M0 0 C3.36720387 1.39332574 4.9859524 2.9789286 7 6 C3.75728494 5.4409112 2.06942576 4.5867822 0 2 C0 1.34 0 0.68 0 0 Z " fill="#494C4E" transform="translate(771,210)"/>
</svg>
