<?xml version="1.0" encoding="UTF-8"?>
<!DOCTYPE svg PUBLIC "-//W3C//DTD SVG 1.1//EN" "http://www.w3.org/Graphics/SVG/1.1/DTD/svg11.dtd">
<svg xmlns="http://www.w3.org/2000/svg" version="1.1" width="992px" height="1291px" style="shape-rendering:geometricPrecision; text-rendering:geometricPrecision; image-rendering:optimizeQuality; fill-rule:evenodd; clip-rule:evenodd" xmlns:xlink="http://www.w3.org/1999/xlink">
<g><path style="opacity:0.995" fill="#000000" d="M 462.5,-0.5 C 484.5,-0.5 506.5,-0.5 528.5,-0.5C 685.444,12.4792 810.944,81.4792 905,206.5C 955.545,278.963 984.378,359.296 991.5,447.5C 991.5,468.167 991.5,488.833 991.5,509.5C 985.683,585.423 963.183,656.09 924,721.5C 806.752,894.994 689.752,1068.66 573,1242.5C 559.996,1269.26 538.829,1285.26 509.5,1290.5C 499.833,1290.5 490.167,1290.5 480.5,1290.5C 454.782,1285.56 434.615,1272.22 420,1250.5C 363.411,1158.98 305.078,1068.64 245,979.5C 203,916.833 161,854.167 119,791.5C 48.213,710.892 8.37971,616.892 -0.5,509.5C -0.5,488.833 -0.5,468.167 -0.5,447.5C 15.0179,290.232 88.0179,167.732 218.5,80C 293.059,32.6469 374.393,5.81357 462.5,-0.5 Z"/></g>
<g><path style="opacity:1" fill="#2f3b39" d="M 477.5,89.5 C 469.335,90.4202 461.002,91.0868 452.5,91.5C 453.952,90.6981 455.618,90.1981 457.5,90C 464.158,89.5004 470.825,89.3337 477.5,89.5 Z"/></g>
<g><path style="opacity:1" fill="#b3bcbb" d="M 477.5,89.5 C 491.837,89.3334 506.171,89.5001 520.5,90C 528.71,90.2418 536.71,91.0751 544.5,92.5C 513.834,91.1868 483.168,91.1868 452.5,92.5C 452.5,92.1667 452.5,91.8333 452.5,91.5C 461.002,91.0868 469.335,90.4202 477.5,89.5 Z"/></g>
<g><path style="opacity:0.999" fill="#fdfefd" d="M 544.5,92.5 C 660.35,107.325 753.517,160.992 824,253.5C 899.348,361.965 916.015,478.965 874,604.5C 824.15,729.348 734.65,810.515 605.5,848C 582.557,854.422 559.223,858.589 535.5,860.5C 507.168,861.809 478.834,861.809 450.5,860.5C 446.881,859.756 443.215,859.423 439.5,859.5C 427.706,856.555 415.706,853.889 403.5,851.5C 402.653,850.034 401.32,849.2 399.5,849C 396.854,848.503 394.187,848.336 391.5,848.5C 390.167,848.5 388.833,848.5 387.5,848.5C 377.02,845.295 366.687,841.628 356.5,837.5C 353.855,835.69 350.855,834.69 347.5,834.5C 347.167,834.5 346.833,834.5 346.5,834.5C 341.297,830.236 335.297,827.569 328.5,826.5C 326.434,824.801 324.1,823.468 321.5,822.5C 320.652,820.907 319.319,819.74 317.5,819C 311.178,816.507 304.845,814.007 298.5,811.5C 295.55,808.192 291.884,806.192 287.5,805.5C 285.879,803.058 283.546,801.725 280.5,801.5C 261.224,790.164 243.224,776.83 226.5,761.5C 223.769,757.766 220.436,754.766 216.5,752.5C 207.14,743.806 198.14,734.806 189.5,725.5C 175.319,709.33 162.319,692.33 150.5,674.5C 149.389,671.144 147.723,668.144 145.5,665.5C 144.202,661.912 142.536,658.579 140.5,655.5C 138.455,651.081 136.122,646.748 133.5,642.5C 133.657,641.127 133.49,639.793 133,638.5C 132.098,636.569 130.931,634.903 129.5,633.5C 128.586,629.064 126.919,625.064 124.5,621.5C 121.351,612.713 118.018,604.046 114.5,595.5C 113.545,589.39 112.212,583.39 110.5,577.5C 110.88,575.302 110.213,573.635 108.5,572.5C 107.537,568.899 106.87,565.233 106.5,561.5C 105.691,556.255 104.358,551.255 102.5,546.5C 101.092,542.314 100.425,537.981 100.5,533.5C 98.2449,499.191 97.9116,464.858 99.5,430.5C 100.721,422.847 101.721,415.18 102.5,407.5C 102.802,404.627 103.469,401.961 104.5,399.5C 106.237,395.458 107.237,391.124 107.5,386.5C 107.366,384.708 107.699,383.042 108.5,381.5C 110.074,379.898 110.741,377.898 110.5,375.5C 111.39,368.939 113.057,362.606 115.5,356.5C 117.074,354.898 117.741,352.898 117.5,350.5C 117.5,350.167 117.5,349.833 117.5,349.5C 118.117,349.389 118.617,349.056 119,348.5C 120.953,343.17 122.787,337.837 124.5,332.5C 128.585,325.313 131.919,317.646 134.5,309.5C 137.548,306.07 139.548,302.07 140.5,297.5C 141.376,297.631 142.043,297.298 142.5,296.5C 144.306,293.359 145.639,290.026 146.5,286.5C 148.245,284.967 149.245,282.967 149.5,280.5C 151.241,278.605 152.241,276.272 152.5,273.5C 156.511,268.132 160.511,262.798 164.5,257.5C 166.822,256.198 168.155,254.198 168.5,251.5C 168.328,250.508 168.662,249.842 169.5,249.5C 176.405,241.358 183.071,233.025 189.5,224.5C 197.202,217.799 204.202,210.466 210.5,202.5C 245.019,167.886 285.019,141.22 330.5,122.5C 335.232,122.373 339.232,120.707 342.5,117.5C 350.384,115.041 358.384,112.874 366.5,111C 367.381,110.292 368.047,109.458 368.5,108.5C 369.391,107.89 370.391,107.557 371.5,107.5C 380.986,106.552 389.986,104.218 398.5,100.5C 407.109,98.889 415.776,97.5557 424.5,96.5C 433.076,95.9133 441.41,94.58 449.5,92.5C 450.5,92.5 451.5,92.5 452.5,92.5C 483.168,91.1868 513.834,91.1868 544.5,92.5 Z"/></g>
<g><path style="opacity:1" fill="#c3c8c9" d="M 449.5,92.5 C 441.41,94.58 433.076,95.9133 424.5,96.5C 432.555,94.2139 440.888,92.8805 449.5,92.5 Z"/></g>
<g><path style="opacity:1" fill="#636c6c" d="M 452.5,91.5 C 452.5,91.8333 452.5,92.1667 452.5,92.5C 451.5,92.5 450.5,92.5 449.5,92.5C 440.888,92.8805 432.555,94.2139 424.5,96.5C 415.776,97.5557 407.109,98.889 398.5,100.5C 416.017,95.3582 434.017,92.3582 452.5,91.5 Z"/></g>
<g><path style="opacity:1" fill="#9faead" d="M 398.5,100.5 C 389.986,104.218 380.986,106.552 371.5,107.5C 380.185,104.291 389.185,101.958 398.5,100.5 Z"/></g>
<g><path style="opacity:1" fill="#a9b5b3" d="M 368.5,108.5 C 368.047,109.458 367.381,110.292 366.5,111C 358.384,112.874 350.384,115.041 342.5,117.5C 350.702,113.411 359.368,110.411 368.5,108.5 Z"/></g>
<g><path style="opacity:1" fill="#aebbb9" d="M 342.5,117.5 C 339.232,120.707 335.232,122.373 330.5,122.5C 334.203,120.321 338.203,118.655 342.5,117.5 Z"/></g>
<g><path style="opacity:1" fill="#989999" d="M 210.5,202.5 C 204.202,210.466 197.202,217.799 189.5,224.5C 193.098,219.726 196.931,215.06 201,210.5C 203.766,207.223 206.933,204.557 210.5,202.5 Z"/></g>
<g><path style="opacity:1" fill="#6d736e" d="M 189.5,224.5 C 183.071,233.025 176.405,241.358 169.5,249.5C 174.968,240.245 181.634,231.912 189.5,224.5 Z"/></g>
<g><path style="opacity:1" fill="#222426" d="M 717.5,318.5 C 716.624,318.631 715.957,318.298 715.5,317.5C 716.872,315.309 717.206,313.142 716.5,311C 717.794,309.04 719.46,307.373 721.5,306C 720.528,299.628 720.528,293.128 721.5,286.5C 723.167,286.5 724.833,286.5 726.5,286.5C 726.5,285.5 726.5,284.5 726.5,283.5C 725.167,283.5 723.833,283.5 722.5,283.5C 721.505,279.836 720.505,276.169 719.5,272.5C 718.127,272.657 716.793,272.49 715.5,272C 714.221,270.354 712.555,269.187 710.5,268.5C 709.147,267.476 708.48,266.143 708.5,264.5C 706.833,264.5 705.167,264.5 703.5,264.5C 703.5,263.5 703.5,262.5 703.5,261.5C 699.158,261.261 694.824,260.927 690.5,260.5C 690.5,254.167 690.5,247.833 690.5,241.5C 687.15,241.665 683.817,241.498 680.5,241C 676.578,238.677 676.912,238.177 681.5,239.5C 682.833,238.167 682.833,236.833 681.5,235.5C 679.382,234.054 677.049,233.387 674.5,233.5C 674.433,232.041 674.766,230.708 675.5,229.5C 691.584,221.347 708.584,218.013 726.5,219.5C 735.617,220.455 741.784,225.122 745,233.5C 748.488,247.136 747.988,260.636 743.5,274C 740.569,280.626 738.069,287.459 736,294.5C 733.999,297.745 731.999,301.078 730,304.5C 726.051,309.428 721.884,314.094 717.5,318.5 Z"/></g>
<g><path style="opacity:1" fill="#8b8e89" d="M 168.5,251.5 C 168.155,254.198 166.822,256.198 164.5,257.5C 165.34,255.147 166.674,253.147 168.5,251.5 Z"/></g>
<g><path style="opacity:1" fill="#222426" d="M 416.5,307.5 C 413.465,306.626 410.465,305.626 407.5,304.5C 404.459,303.771 401.459,302.604 398.5,301C 390.084,300.24 381.75,299.073 373.5,297.5C 373.077,296.735 372.743,295.902 372.5,295C 374.219,288.061 377.386,281.894 382,276.5C 387.19,270.312 392.69,264.479 398.5,259C 400.5,258.333 402.5,258.333 404.5,259C 415.282,266.449 424.782,275.282 433,285.5C 433.667,287.167 433.667,288.833 433,290.5C 428.833,296 424.667,301.5 420.5,307C 419.207,307.49 417.873,307.657 416.5,307.5 Z"/></g>
<g><path style="opacity:1" fill="#292a2a" d="M 675.5,229.5 C 674.766,230.708 674.433,232.041 674.5,233.5C 677.049,233.387 679.382,234.054 681.5,235.5C 682.833,236.833 682.833,238.167 681.5,239.5C 676.912,238.177 676.578,238.677 680.5,241C 683.817,241.498 687.15,241.665 690.5,241.5C 690.5,247.833 690.5,254.167 690.5,260.5C 694.824,260.927 699.158,261.261 703.5,261.5C 703.5,262.5 703.5,263.5 703.5,264.5C 705.167,264.5 706.833,264.5 708.5,264.5C 708.48,266.143 709.147,267.476 710.5,268.5C 712.555,269.187 714.221,270.354 715.5,272C 716.793,272.49 718.127,272.657 719.5,272.5C 720.505,276.169 721.505,279.836 722.5,283.5C 723.833,283.5 725.167,283.5 726.5,283.5C 726.5,284.5 726.5,285.5 726.5,286.5C 724.833,286.5 723.167,286.5 721.5,286.5C 720.528,293.128 720.528,299.628 721.5,306C 719.46,307.373 717.794,309.04 716.5,311C 717.206,313.142 716.872,315.309 715.5,317.5C 715.957,318.298 716.624,318.631 717.5,318.5C 714.902,322.438 711.902,326.105 708.5,329.5C 686.55,348.175 664.883,367.341 643.5,387C 632.959,395.714 622.292,404.214 611.5,412.5C 609.327,411.834 608.993,410.667 610.5,409C 609.293,407.7 608.626,406.2 608.5,404.5C 610.167,404.5 611.833,404.5 613.5,404.5C 613.35,401.156 611.683,398.823 608.5,397.5C 605.557,398.244 602.557,398.744 599.5,399C 589.172,399.5 578.839,399.666 568.5,399.5C 568.5,408.833 568.5,418.167 568.5,427.5C 564.833,427.5 561.167,427.5 557.5,427.5C 557.5,428.833 557.5,430.167 557.5,431.5C 556.5,431.5 555.5,431.5 554.5,431.5C 554.5,433.5 554.5,435.5 554.5,437.5C 547.833,437.5 541.167,437.5 534.5,437.5C 534.5,440.5 534.5,443.5 534.5,446.5C 528.833,446.5 523.167,446.5 517.5,446.5C 517.5,451.167 517.5,455.833 517.5,460.5C 515.833,460.5 514.167,460.5 512.5,460.5C 512.5,461.833 512.5,463.167 512.5,464.5C 507.833,464.5 503.167,464.5 498.5,464.5C 498.5,467.5 498.5,470.5 498.5,473.5C 491.504,473.894 484.504,474.227 477.5,474.5C 477.5,483.5 477.5,492.5 477.5,501.5C 474.167,501.5 470.833,501.5 467.5,501.5C 467.5,503.5 467.5,505.5 467.5,507.5C 466.167,507.5 464.833,507.5 463.5,507.5C 463.5,508.5 463.5,509.5 463.5,510.5C 461.5,510.5 459.5,510.5 457.5,510.5C 457.5,513.833 457.5,517.167 457.5,520.5C 453.833,520.5 450.167,520.5 446.5,520.5C 446.5,523.833 446.5,527.167 446.5,530.5C 443.5,530.5 440.5,530.5 437.5,530.5C 436.686,535.119 436.353,539.786 436.5,544.5C 434.833,544.5 433.167,544.5 431.5,544.5C 431.5,545.833 431.5,547.167 431.5,548.5C 428.833,548.5 426.167,548.5 423.5,548.5C 423.5,551.833 423.5,555.167 423.5,558.5C 418.167,558.5 412.833,558.5 407.5,558.5C 407.167,564.5 406.833,570.5 406.5,576.5C 399.5,576.5 392.5,576.5 385.5,576.5C 385.5,578.167 385.5,579.833 385.5,581.5C 383.833,581.5 382.167,581.5 380.5,581.5C 380.5,582.833 380.5,584.167 380.5,585.5C 379.167,585.5 377.833,585.5 376.5,585.5C 376.5,588.833 376.5,592.167 376.5,595.5C 373.167,595.5 369.833,595.5 366.5,595.5C 366.5,596.833 366.5,598.167 366.5,599.5C 363.5,599.5 360.5,599.5 357.5,599.5C 357.85,605.004 357.183,610.337 355.5,615.5C 358.249,615.274 360.916,615.607 363.5,616.5C 365.42,615.024 367.587,614.024 370,613.5C 371.03,613.836 371.53,614.503 371.5,615.5C 357.808,624.009 344.475,633.009 331.5,642.5C 330.724,640.026 329.224,639.359 327,640.5C 325.842,640.002 325.009,639.169 324.5,638C 325.424,633.291 326.091,628.291 326.5,623C 326.416,619.307 325.75,615.807 324.5,612.5C 326.535,611.403 327.868,609.737 328.5,607.5C 329.85,606.05 331.516,605.383 333.5,605.5C 333.248,602.756 333.915,600.256 335.5,598C 334.67,596.535 334.504,595.035 335,593.5C 335.451,595.929 336.285,596.096 337.5,594C 336.529,588.928 336.195,583.762 336.5,578.5C 333.813,578.664 331.146,578.497 328.5,578C 327.663,576.989 327.33,575.822 327.5,574.5C 326.448,574.351 325.448,574.517 324.5,575C 323.751,576.734 323.251,578.567 323,580.5C 320.852,581.805 319.352,583.638 318.5,586C 317.552,586.483 316.552,586.649 315.5,586.5C 315.351,585.448 315.517,584.448 316,583.5C 320.49,577.91 324.157,571.91 327,565.5C 332.352,563.48 335.519,559.647 336.5,554C 336.333,553.5 336.167,553 336,552.5C 334.961,553.71 333.794,554.71 332.5,555.5C 333.75,553.068 335.25,550.734 337,548.5C 359.055,527.234 380.555,505.401 401.5,483C 422.134,464.369 442.801,445.703 463.5,427C 484.058,407.444 504.391,387.444 524.5,367C 533.536,358.296 542.869,349.962 552.5,342C 562.678,332.488 572.178,322.322 581,311.5C 600.774,293.728 619.941,275.228 638.5,256C 646.167,249.667 653.833,243.333 661.5,237C 666.062,234.22 670.728,231.72 675.5,229.5 Z"/></g>
<g><path style="opacity:1" fill="#262727" d="M 227.5,276.5 C 228.952,277.302 230.618,277.802 232.5,278C 233.362,280.734 234.195,280.901 235,278.5C 245.698,280.711 256.531,282.378 267.5,283.5C 286.612,287.074 305.945,290.074 325.5,292.5C 337.938,295.619 350.271,298.619 362.5,301.5C 371.332,302.768 380.332,303.768 389.5,304.5C 397.66,306.864 405.993,308.864 414.5,310.5C 429.455,315.298 444.788,318.964 460.5,321.5C 461.058,322.79 462.058,323.623 463.5,324C 467.813,324.735 472.147,325.235 476.5,325.5C 482.536,326.006 488.536,326.839 494.5,328C 506.12,331.122 517.786,333.788 529.5,336C 493.03,365.64 458.697,397.474 426.5,431.5C 424.801,431.66 423.134,431.494 421.5,431C 411.992,425.245 401.992,420.579 391.5,417C 379.395,411.781 367.728,405.781 356.5,399C 314.652,380.117 272.986,360.783 231.5,341C 222.515,336.842 213.848,332.175 205.5,327C 193.242,323.65 182.076,318.15 172,310.5C 171.333,308.833 171.333,307.167 172,305.5C 184.014,294.25 196.848,284.083 210.5,275C 216.411,274.219 222.077,274.719 227.5,276.5 Z"/></g>
<g><path style="opacity:1" fill="#434449" d="M 671.5,267.5 C 678.433,268.052 685.1,269.552 691.5,272C 695.645,275.833 699.812,279.666 704,283.5C 705.483,286.702 705.817,290.036 705,293.5C 699.22,300.871 691.72,303.704 682.5,302C 679.299,298.464 675.799,295.297 672,292.5C 670.613,288.725 668.946,285.058 667,281.5C 666.333,277.833 666.333,274.167 667,270.5C 669.026,270.085 670.526,269.085 671.5,267.5 Z"/></g>
<g><path style="opacity:1" fill="#484b53" d="M 227.5,276.5 C 230.85,276.335 234.183,276.502 237.5,277C 247.643,279.118 257.643,281.285 267.5,283.5C 256.531,282.378 245.698,280.711 235,278.5C 234.195,280.901 233.362,280.734 232.5,278C 230.618,277.802 228.952,277.302 227.5,276.5 Z"/></g>
<g><path style="opacity:1" fill="#929690" d="M 149.5,280.5 C 149.245,282.967 148.245,284.967 146.5,286.5C 146.755,284.033 147.755,282.033 149.5,280.5 Z"/></g>
<g><path style="opacity:1" fill="#b8bcb7" d="M 146.5,286.5 C 145.639,290.026 144.306,293.359 142.5,296.5C 142.043,297.298 141.376,297.631 140.5,297.5C 141.756,293.313 143.756,289.646 146.5,286.5 Z"/></g>
<g><path style="opacity:1" fill="#868789" d="M 373.5,297.5 C 381.75,299.073 390.084,300.24 398.5,301C 401.459,302.604 404.459,303.771 407.5,304.5C 401.07,303.367 394.57,302.367 388,301.5C 386.833,301.667 385.667,301.833 384.5,302C 386.491,302.374 388.158,303.207 389.5,304.5C 380.332,303.768 371.332,302.768 362.5,301.5C 366.167,301.5 369.833,301.5 373.5,301.5C 373.5,300.167 373.5,298.833 373.5,297.5 Z"/></g>
<g><path style="opacity:1" fill="#9da29f" d="M 140.5,297.5 C 139.548,302.07 137.548,306.07 134.5,309.5C 135.939,305.158 137.939,301.158 140.5,297.5 Z"/></g>
<g><path style="opacity:1" fill="#b1b2b4" d="M 407.5,304.5 C 410.465,305.626 413.465,306.626 416.5,307.5C 414.952,307.821 414.285,308.821 414.5,310.5C 405.993,308.864 397.66,306.864 389.5,304.5C 388.158,303.207 386.491,302.374 384.5,302C 385.667,301.833 386.833,301.667 388,301.5C 394.57,302.367 401.07,303.367 407.5,304.5 Z"/></g>
<g><path style="opacity:1" fill="#4d5250" d="M 460.5,321.5 C 465.011,322.025 469.511,322.692 474,323.5C 475.376,323.684 476.209,324.351 476.5,325.5C 472.147,325.235 467.813,324.735 463.5,324C 462.058,323.623 461.058,322.79 460.5,321.5 Z"/></g>
<g><path style="opacity:1" fill="#858989" d="M 134.5,309.5 C 131.919,317.646 128.585,325.313 124.5,332.5C 126.482,324.208 129.815,316.541 134.5,309.5 Z"/></g>
<g><path style="opacity:1" fill="#747a79" d="M 124.5,332.5 C 122.787,337.837 120.953,343.17 119,348.5C 118.617,349.056 118.117,349.389 117.5,349.5C 118.897,343.274 121.23,337.607 124.5,332.5 Z"/></g>
<g><path style="opacity:1" fill="#808788" d="M 117.5,350.5 C 117.741,352.898 117.074,354.898 115.5,356.5C 115.259,354.102 115.926,352.102 117.5,350.5 Z"/></g>
<g><path style="opacity:1" fill="#959899" d="M 110.5,375.5 C 110.741,377.898 110.074,379.898 108.5,381.5C 108.259,379.102 108.926,377.102 110.5,375.5 Z"/></g>
<g><path style="opacity:1" fill="#aeb0b3" d="M 107.5,386.5 C 107.237,391.124 106.237,395.458 104.5,399.5C 104.952,395.837 105.452,392.17 106,388.5C 106.278,387.584 106.778,386.918 107.5,386.5 Z"/></g>
<g><path style="opacity:1" fill="#8f9897" d="M 102.5,407.5 C 101.721,415.18 100.721,422.847 99.5,430.5C 99.1667,430.5 98.8333,430.5 98.5,430.5C 99.072,422.58 100.405,414.914 102.5,407.5 Z"/></g>
<g><path style="opacity:1" fill="#202022" d="M 640.5,451.5 C 639.687,456.461 640.853,460.794 644,464.5C 644.701,468.109 645.868,471.442 647.5,474.5C 647.932,475.71 648.599,476.71 649.5,477.5C 649.111,480.553 649.777,483.22 651.5,485.5C 653.277,488.505 654.277,491.838 654.5,495.5C 655.057,497.949 655.057,500.282 654.5,502.5C 653.578,498.315 651.412,494.982 648,492.5C 646.442,486.853 644.775,481.186 643,475.5C 642.803,477.861 641.636,479.528 639.5,480.5C 639.977,481.478 640.643,482.311 641.5,483C 639.482,485.871 638.148,489.038 637.5,492.5C 624.833,492.5 612.167,492.5 599.5,492.5C 599.5,495.5 599.5,498.5 599.5,501.5C 596.167,501.5 592.833,501.5 589.5,501.5C 589.5,498.5 589.5,495.5 589.5,492.5C 586.167,492.5 582.833,492.5 579.5,492.5C 579.5,490.5 579.5,488.5 579.5,486.5C 585.261,486.13 585.594,485.13 580.5,483.5C 578.973,481.807 577.64,479.973 576.5,478C 580.515,475.893 580.182,475.227 575.5,476C 573.552,476.983 571.718,478.15 570,479.5C 569.7,477.934 570.2,476.601 571.5,475.5C 591.8,460.05 611.134,443.217 629.5,425C 631.433,424.217 632.933,424.717 634,426.5C 636.243,434.91 638.41,443.244 640.5,451.5 Z"/></g>
<g><path style="opacity:1" fill="#404649" d="M 640.5,451.5 C 641.538,455.274 643.038,458.941 645,462.5C 645.945,466.494 646.778,470.494 647.5,474.5C 645.868,471.442 644.701,468.109 644,464.5C 640.853,460.794 639.687,456.461 640.5,451.5 Z"/></g>
<g><path style="opacity:1" fill="#d4e0da" d="M 98.5,430.5 C 98.8333,430.5 99.1667,430.5 99.5,430.5C 97.9116,464.858 98.2449,499.191 100.5,533.5C 98.7396,528.447 98.073,523.114 98.5,517.5C 97.5798,492.515 97.2465,467.515 97.5,442.5C 98.2721,438.548 98.6054,434.548 98.5,430.5 Z"/></g>
<g><path style="opacity:1" fill="#262627" d="M 571.5,475.5 C 570.2,476.601 569.7,477.934 570,479.5C 571.718,478.15 573.552,476.983 575.5,476C 580.182,475.227 580.515,475.893 576.5,478C 577.64,479.973 578.973,481.807 580.5,483.5C 585.594,485.13 585.261,486.13 579.5,486.5C 579.5,488.5 579.5,490.5 579.5,492.5C 582.833,492.5 586.167,492.5 589.5,492.5C 589.5,495.5 589.5,498.5 589.5,501.5C 592.833,501.5 596.167,501.5 599.5,501.5C 599.5,498.5 599.5,495.5 599.5,492.5C 612.167,492.5 624.833,492.5 637.5,492.5C 638.148,489.038 639.482,485.871 641.5,483C 640.643,482.311 639.977,481.478 639.5,480.5C 641.636,479.528 642.803,477.861 643,475.5C 644.775,481.186 646.442,486.853 648,492.5C 651.412,494.982 653.578,498.315 654.5,502.5C 655.057,500.282 655.057,497.949 654.5,495.5C 657.094,499.688 659.427,504.021 661.5,508.5C 661.336,511.187 661.503,513.854 662,516.5C 664.945,522.84 666.779,529.506 667.5,536.5C 667.747,537.713 668.414,538.38 669.5,538.5C 671.458,548.111 673.624,557.777 676,567.5C 682.693,589.817 689.193,612.15 695.5,634.5C 695.111,637.553 695.777,640.22 697.5,642.5C 702.423,658.428 708.257,674.095 715,689.5C 715.667,691.5 715.667,693.5 715,695.5C 704.029,706.803 692.696,717.803 681,728.5C 679.036,726.877 677.036,725.21 675,723.5C 660.478,705.315 647.145,686.315 635,666.5C 620.898,648.092 606.564,630.092 592,612.5C 584.699,601.856 577.366,591.19 570,580.5C 553.44,560.374 537.606,539.707 522.5,518.5C 523.04,517.252 523.707,516.085 524.5,515C 527.772,513.392 530.772,511.392 533.5,509C 545.464,496.859 558.131,485.692 571.5,475.5 Z"/></g>
<g><path style="opacity:1" fill="#808586" d="M 649.5,477.5 C 650.531,479.961 651.198,482.627 651.5,485.5C 649.777,483.22 649.111,480.553 649.5,477.5 Z"/></g>
<g><path style="opacity:1" fill="#232326" d="M 669.5,515.5 C 668.213,512.594 667.213,509.594 666.5,506.5C 670.506,500.494 675.506,495.494 681.5,491.5C 686.75,493.794 691.75,496.628 696.5,500C 703.364,507.198 710.53,514.032 718,520.5C 718.926,524.253 717.426,526.42 713.5,527C 705.223,535.704 695.723,542.538 685,547.5C 683.674,547.245 682.674,546.578 682,545.5C 677.338,535.673 673.171,525.673 669.5,515.5 Z"/></g>
<g><path style="opacity:1" fill="#bfc1c2" d="M 666.5,506.5 C 667.213,509.594 668.213,512.594 669.5,515.5C 667.901,515.232 666.568,515.566 665.5,516.5C 664.13,514.75 663.13,512.75 662.5,510.5C 663.5,510.5 664.5,510.5 665.5,510.5C 665.232,508.901 665.566,507.568 666.5,506.5 Z"/></g>
<g><path style="opacity:1" fill="#809087" d="M 97.5,442.5 C 97.2465,467.515 97.5798,492.515 98.5,517.5C 97.6981,516.048 97.1981,514.382 97,512.5C 96.1703,488.996 96.3369,465.663 97.5,442.5 Z"/></g>
<g><path style="opacity:1" fill="#2b2d2d" d="M 611.5,412.5 C 540.419,474.065 469.086,535.565 397.5,597C 388.655,603.027 379.988,609.194 371.5,615.5C 371.53,614.503 371.03,613.836 370,613.5C 367.587,614.024 365.42,615.024 363.5,616.5C 360.916,615.607 358.249,615.274 355.5,615.5C 357.183,610.337 357.85,605.004 357.5,599.5C 360.5,599.5 363.5,599.5 366.5,599.5C 366.5,598.167 366.5,596.833 366.5,595.5C 369.833,595.5 373.167,595.5 376.5,595.5C 376.5,592.167 376.5,588.833 376.5,585.5C 377.833,585.5 379.167,585.5 380.5,585.5C 380.5,584.167 380.5,582.833 380.5,581.5C 382.167,581.5 383.833,581.5 385.5,581.5C 385.5,579.833 385.5,578.167 385.5,576.5C 392.5,576.5 399.5,576.5 406.5,576.5C 406.833,570.5 407.167,564.5 407.5,558.5C 412.833,558.5 418.167,558.5 423.5,558.5C 423.5,555.167 423.5,551.833 423.5,548.5C 426.167,548.5 428.833,548.5 431.5,548.5C 431.5,547.167 431.5,545.833 431.5,544.5C 433.167,544.5 434.833,544.5 436.5,544.5C 436.353,539.786 436.686,535.119 437.5,530.5C 440.5,530.5 443.5,530.5 446.5,530.5C 446.5,527.167 446.5,523.833 446.5,520.5C 450.167,520.5 453.833,520.5 457.5,520.5C 457.5,517.167 457.5,513.833 457.5,510.5C 459.5,510.5 461.5,510.5 463.5,510.5C 463.5,509.5 463.5,508.5 463.5,507.5C 464.833,507.5 466.167,507.5 467.5,507.5C 467.5,505.5 467.5,503.5 467.5,501.5C 470.833,501.5 474.167,501.5 477.5,501.5C 477.5,492.5 477.5,483.5 477.5,474.5C 484.504,474.227 491.504,473.894 498.5,473.5C 498.5,470.5 498.5,467.5 498.5,464.5C 503.167,464.5 507.833,464.5 512.5,464.5C 512.5,463.167 512.5,461.833 512.5,460.5C 514.167,460.5 515.833,460.5 517.5,460.5C 517.5,455.833 517.5,451.167 517.5,446.5C 523.167,446.5 528.833,446.5 534.5,446.5C 534.5,443.5 534.5,440.5 534.5,437.5C 541.167,437.5 547.833,437.5 554.5,437.5C 554.5,435.5 554.5,433.5 554.5,431.5C 555.5,431.5 556.5,431.5 557.5,431.5C 557.5,430.167 557.5,428.833 557.5,427.5C 561.167,427.5 564.833,427.5 568.5,427.5C 568.5,418.167 568.5,408.833 568.5,399.5C 578.839,399.666 589.172,399.5 599.5,399C 602.557,398.744 605.557,398.244 608.5,397.5C 611.683,398.823 613.35,401.156 613.5,404.5C 611.833,404.5 610.167,404.5 608.5,404.5C 608.626,406.2 609.293,407.7 610.5,409C 608.993,410.667 609.327,411.834 611.5,412.5 Z"/></g>
<g><path style="opacity:1" fill="#5d5e60" d="M 661.5,508.5 C 662.338,508.842 662.672,509.508 662.5,510.5C 663.13,512.75 664.13,514.75 665.5,516.5C 666.376,523.985 667.71,531.318 669.5,538.5C 668.414,538.38 667.747,537.713 667.5,536.5C 666.779,529.506 664.945,522.84 662,516.5C 661.503,513.854 661.336,511.187 661.5,508.5 Z"/></g>
<g><path style="opacity:1" fill="#22292b" d="M 152.5,273.5 C 152.241,276.272 151.241,278.605 149.5,280.5C 147.755,282.033 146.755,284.033 146.5,286.5C 143.756,289.646 141.756,293.313 140.5,297.5C 137.939,301.158 135.939,305.158 134.5,309.5C 129.815,316.541 126.482,324.208 124.5,332.5C 121.23,337.607 118.897,343.274 117.5,349.5C 117.5,349.833 117.5,350.167 117.5,350.5C 115.926,352.102 115.259,354.102 115.5,356.5C 113.057,362.606 111.39,368.939 110.5,375.5C 108.926,377.102 108.259,379.102 108.5,381.5C 107.699,383.042 107.366,384.708 107.5,386.5C 106.778,386.918 106.278,387.584 106,388.5C 105.452,392.17 104.952,395.837 104.5,399.5C 103.469,401.961 102.802,404.627 102.5,407.5C 100.405,414.914 99.072,422.58 98.5,430.5C 98.6054,434.548 98.2721,438.548 97.5,442.5C 96.3369,465.663 96.1703,488.996 97,512.5C 97.1981,514.382 97.6981,516.048 98.5,517.5C 98.073,523.114 98.7396,528.447 100.5,533.5C 100.425,537.981 101.092,542.314 102.5,546.5C 102.835,551.874 104.168,556.874 106.5,561.5C 106.87,565.233 107.537,568.899 108.5,572.5C 108.12,574.698 108.787,576.365 110.5,577.5C 112.212,583.39 113.545,589.39 114.5,595.5C 112.908,594.398 112.075,595.065 112,597.5C 75.4945,483.885 88.1612,376.219 150,274.5C 150.671,273.748 151.504,273.414 152.5,273.5 Z"/></g>
<g><path style="opacity:1" fill="#a5a8a9" d="M 102.5,546.5 C 104.358,551.255 105.691,556.255 106.5,561.5C 104.168,556.874 102.835,551.874 102.5,546.5 Z"/></g>
<g><path style="opacity:1" fill="#1e1f1f" d="M 272.5,560.5 C 276.5,561.167 280.5,561.833 284.5,562.5C 280.018,563.326 275.351,563.826 270.5,564C 270.833,564.333 271.167,564.667 271.5,565C 269.5,565.333 267.5,565.667 265.5,566C 270.039,566.253 274.539,566.753 279,567.5C 279.945,567.905 280.612,568.572 281,569.5C 282.331,576.285 281.331,582.618 278,588.5C 277.667,587.833 277.333,587.167 277,586.5C 276.5,587.667 275.667,588.5 274.5,589C 271.632,590.383 268.632,591.216 265.5,591.5C 265.5,592.833 265.5,594.167 265.5,595.5C 264.5,595.5 263.5,595.5 262.5,595.5C 262.5,598.167 262.5,600.833 262.5,603.5C 259.873,604.092 257.206,604.425 254.5,604.5C 255.796,611.868 252.796,615.701 245.5,616C 248.588,616.847 251.421,616.347 254,614.5C 254.492,615.549 254.326,616.549 253.5,617.5C 256.1,620.041 256.1,622.541 253.5,625C 254.044,625.717 254.711,626.217 255.5,626.5C 255.44,627.043 255.107,627.376 254.5,627.5C 242.617,621.12 230.617,614.954 218.5,609C 205.167,601.333 191.833,593.667 178.5,586C 176.833,585 175.5,583.667 174.5,582C 182.5,572.667 191.167,564 200.5,556C 224.626,557.514 248.626,559.014 272.5,560.5 Z"/></g>
<g><path style="opacity:1" fill="#52585e" d="M 272.5,560.5 C 283.981,559.974 295.315,560.974 306.5,563.5C 306.376,564.107 306.043,564.44 305.5,564.5C 298.656,563.681 291.656,563.014 284.5,562.5C 280.5,561.833 276.5,561.167 272.5,560.5 Z"/></g>
<g><path style="opacity:1" fill="#212327" d="M 284.5,562.5 C 291.656,563.014 298.656,563.681 305.5,564.5C 302.896,566.6 300.396,568.933 298,571.5C 284.781,590.625 270.614,608.958 255.5,626.5C 254.711,626.217 254.044,625.717 253.5,625C 256.1,622.541 256.1,620.041 253.5,617.5C 254.326,616.549 254.492,615.549 254,614.5C 251.421,616.347 248.588,616.847 245.5,616C 252.796,615.701 255.796,611.868 254.5,604.5C 257.206,604.425 259.873,604.092 262.5,603.5C 262.5,600.833 262.5,598.167 262.5,595.5C 263.5,595.5 264.5,595.5 265.5,595.5C 265.5,594.167 265.5,592.833 265.5,591.5C 268.632,591.216 271.632,590.383 274.5,589C 275.667,588.5 276.5,587.667 277,586.5C 277.333,587.167 277.667,587.833 278,588.5C 281.331,582.618 282.331,576.285 281,569.5C 280.612,568.572 279.945,567.905 279,567.5C 274.539,566.753 270.039,566.253 265.5,566C 267.5,565.667 269.5,565.333 271.5,565C 271.167,564.667 270.833,564.333 270.5,564C 275.351,563.826 280.018,563.326 284.5,562.5 Z"/></g>
<g><path style="opacity:1" fill="#8d9496" d="M 108.5,572.5 C 110.213,573.635 110.88,575.302 110.5,577.5C 108.787,576.365 108.12,574.698 108.5,572.5 Z"/></g>
<g><path style="opacity:1" fill="#242425" d="M 331.5,642.5 C 317.497,653.824 303.164,664.824 288.5,675.5C 287.504,675.586 286.671,675.252 286,674.5C 285.506,672.866 285.34,671.199 285.5,669.5C 281.125,670.274 276.792,670.274 272.5,669.5C 269.014,666.497 265.181,664.164 261,662.5C 260.833,662.167 260.667,661.833 260.5,661.5C 264.217,660.307 264.383,658.974 261,657.5C 257.416,658.917 254.583,661.25 252.5,664.5C 252.167,664.333 251.833,664.167 251.5,664C 252.582,662.67 253.249,661.17 253.5,659.5C 258.027,651.804 263.527,644.804 270,638.5C 289.313,613.874 307.646,588.541 325,562.5C 327.344,559.989 329.844,557.656 332.5,555.5C 333.794,554.71 334.961,553.71 336,552.5C 336.167,553 336.333,553.5 336.5,554C 335.519,559.647 332.352,563.48 327,565.5C 324.157,571.91 320.49,577.91 316,583.5C 315.517,584.448 315.351,585.448 315.5,586.5C 316.552,586.649 317.552,586.483 318.5,586C 319.352,583.638 320.852,581.805 323,580.5C 323.251,578.567 323.751,576.734 324.5,575C 325.448,574.517 326.448,574.351 327.5,574.5C 327.33,575.822 327.663,576.989 328.5,578C 331.146,578.497 333.813,578.664 336.5,578.5C 336.195,583.762 336.529,588.928 337.5,594C 336.285,596.096 335.451,595.929 335,593.5C 334.504,595.035 334.67,596.535 335.5,598C 333.915,600.256 333.248,602.756 333.5,605.5C 331.516,605.383 329.85,606.05 328.5,607.5C 327.868,609.737 326.535,611.403 324.5,612.5C 325.75,615.807 326.416,619.307 326.5,623C 326.091,628.291 325.424,633.291 324.5,638C 325.009,639.169 325.842,640.002 327,640.5C 329.224,639.359 330.724,640.026 331.5,642.5 Z"/></g>
<g><path style="opacity:1" fill="#8d9294" d="M 124.5,621.5 C 126.919,625.064 128.586,629.064 129.5,633.5C 127.081,629.936 125.414,625.936 124.5,621.5 Z"/></g>
<g><path style="opacity:1" fill="#293031" d="M 114.5,595.5 C 118.018,604.046 121.351,612.713 124.5,621.5C 125.414,625.936 127.081,629.936 129.5,633.5C 130.083,636.947 131.416,639.947 133.5,642.5C 136.122,646.748 138.455,651.081 140.5,655.5C 140.5,656.167 140.5,656.833 140.5,657.5C 139.504,657.586 138.671,657.252 138,656.5C 129.066,641.125 121.566,624.958 115.5,608C 115.911,606.856 116.244,605.689 116.5,604.5C 115.414,601.58 114.748,598.58 114.5,595.5 Z"/></g>
<g><path style="opacity:1" fill="#8c9192" d="M 129.5,633.5 C 130.931,634.903 132.098,636.569 133,638.5C 133.49,639.793 133.657,641.127 133.5,642.5C 131.416,639.947 130.083,636.947 129.5,633.5 Z"/></g>
<g><path style="opacity:1" fill="#747577" d="M 695.5,634.5 C 696.531,636.961 697.198,639.627 697.5,642.5C 695.777,640.22 695.111,637.553 695.5,634.5 Z"/></g>
<g><path style="opacity:1" fill="#1d1e20" d="M 389.5,651.5 C 390.094,657.817 390.594,664.151 391,670.5C 391.708,671.381 392.542,672.047 393.5,672.5C 393.205,674.735 393.539,676.735 394.5,678.5C 394.813,683.353 395.479,688.02 396.5,692.5C 397.755,697.172 399.255,701.839 401,706.5C 402.99,714.11 404.324,721.777 405,729.5C 398.553,733.613 392.386,738.113 386.5,743C 383.318,746.349 379.985,749.516 376.5,752.5C 353.956,728.954 333.622,703.621 315.5,676.5C 325.63,670.917 334.963,664.084 343.5,656C 356.812,646.341 370.479,637.174 384.5,628.5C 385.086,628.709 385.586,629.043 386,629.5C 387.777,636.873 388.944,644.206 389.5,651.5 Z"/></g>
<g><path style="opacity:1" fill="#737a7c" d="M 140.5,655.5 C 142.536,658.579 144.202,661.912 145.5,665.5C 143.103,663.338 141.436,660.671 140.5,657.5C 140.5,656.833 140.5,656.167 140.5,655.5 Z"/></g>
<g><path style="opacity:1" fill="#313132" d="M 288.5,675.5 C 279.791,683.018 270.124,689.185 259.5,694C 257.5,694.667 255.5,694.667 253.5,694C 249.908,691.287 246.408,688.453 243,685.5C 241.221,680.251 241.887,675.251 245,670.5C 247.853,666.765 250.687,663.098 253.5,659.5C 253.249,661.17 252.582,662.67 251.5,664C 251.833,664.167 252.167,664.333 252.5,664.5C 254.583,661.25 257.416,658.917 261,657.5C 264.383,658.974 264.217,660.307 260.5,661.5C 260.667,661.833 260.833,662.167 261,662.5C 265.181,664.164 269.014,666.497 272.5,669.5C 276.792,670.274 281.125,670.274 285.5,669.5C 285.34,671.199 285.506,672.866 286,674.5C 286.671,675.252 287.504,675.586 288.5,675.5 Z"/></g>
<g><path style="opacity:1" fill="#3a3f44" d="M 389.5,651.5 C 391.028,658.342 392.361,665.342 393.5,672.5C 392.542,672.047 391.708,671.381 391,670.5C 390.594,664.151 390.094,657.817 389.5,651.5 Z"/></g>
<g><path style="opacity:1" fill="#707477" d="M 394.5,678.5 C 395.268,679.263 395.768,680.263 396,681.5C 396.499,685.152 396.665,688.818 396.5,692.5C 395.479,688.02 394.813,683.353 394.5,678.5 Z"/></g>
<g><path style="opacity:1" fill="#282f30" d="M 150.5,674.5 C 162.319,692.33 175.319,709.33 189.5,725.5C 186.215,725.731 183.715,724.397 182,721.5C 173.235,710.091 164.568,698.757 156,687.5C 154.773,684.269 153.106,681.269 151,678.5C 150.51,677.207 150.343,675.873 150.5,674.5 Z"/></g>
<g><path style="opacity:1" fill="#aeb5b4" d="M 216.5,752.5 C 220.436,754.766 223.769,757.766 226.5,761.5C 222.564,759.234 219.231,756.234 216.5,752.5 Z"/></g>
<g><path style="opacity:1" fill="#212a2b" d="M 189.5,725.5 C 198.14,734.806 207.14,743.806 216.5,752.5C 219.231,756.234 222.564,759.234 226.5,761.5C 243.224,776.83 261.224,790.164 280.5,801.5C 282.566,803.199 284.9,804.532 287.5,805.5C 290.723,808.247 294.389,810.247 298.5,811.5C 303.542,815.021 308.875,818.021 314.5,820.5C 312.473,820.662 310.473,820.495 308.5,820C 264.178,797.995 225.345,768.828 192,732.5C 191.616,729.94 190.783,727.606 189.5,725.5 Z"/></g>
<g><path style="opacity:1" fill="#909a9a" d="M 280.5,801.5 C 283.546,801.725 285.879,803.058 287.5,805.5C 284.9,804.532 282.566,803.199 280.5,801.5 Z"/></g>
<g><path style="opacity:1" fill="#a5afaf" d="M 287.5,805.5 C 291.884,806.192 295.55,808.192 298.5,811.5C 294.389,810.247 290.723,808.247 287.5,805.5 Z"/></g>
<g><path style="opacity:1" fill="#aab9b9" d="M 298.5,811.5 C 304.845,814.007 311.178,816.507 317.5,819C 319.319,819.74 320.652,820.907 321.5,822.5C 319.106,821.985 316.772,821.319 314.5,820.5C 308.875,818.021 303.542,815.021 298.5,811.5 Z"/></g>
<g><path style="opacity:1" fill="#7c8f95" d="M 321.5,822.5 C 324.1,823.468 326.434,824.801 328.5,826.5C 325.454,826.275 323.121,824.942 321.5,822.5 Z"/></g>
<g><path style="opacity:1" fill="#95a4aa" d="M 328.5,826.5 C 335.297,827.569 341.297,830.236 346.5,834.5C 341.511,832.674 336.511,830.841 331.5,829C 330.058,828.623 329.058,827.79 328.5,826.5 Z"/></g>
<g><path style="opacity:1" fill="#909a9d" d="M 347.5,834.5 C 350.855,834.69 353.855,835.69 356.5,837.5C 353.084,837.472 350.084,836.472 347.5,834.5 Z"/></g>
<g><path style="opacity:1" fill="#374545" d="M 356.5,837.5 C 366.687,841.628 377.02,845.295 387.5,848.5C 376.134,847.187 365.801,843.52 356.5,837.5 Z"/></g>
<g><path style="opacity:1" fill="#b0bdbb" d="M 391.5,848.5 C 394.187,848.336 396.854,848.503 399.5,849C 401.32,849.2 402.653,850.034 403.5,851.5C 401.435,851.483 399.435,851.15 397.5,850.5C 395.214,850.405 393.214,849.738 391.5,848.5 Z"/></g>
<g><path style="opacity:1" fill="#6d7a7c" d="M 397.5,850.5 C 399.435,851.15 401.435,851.483 403.5,851.5C 415.706,853.889 427.706,856.555 439.5,859.5C 425.684,857.864 412.017,855.364 398.5,852C 397.944,851.617 397.611,851.117 397.5,850.5 Z"/></g>
<g><path style="opacity:1" fill="#bdc4c3" d="M 450.5,860.5 C 478.834,861.809 507.168,861.809 535.5,860.5C 507.166,864.5 478.833,864.5 450.5,860.5 Z"/></g>
</svg>
