<?xml version="1.0" encoding="UTF-8"?>
<!DOCTYPE svg PUBLIC "-//W3C//DTD SVG 1.1//EN" "http://www.w3.org/Graphics/SVG/1.1/DTD/svg11.dtd">
<svg xmlns="http://www.w3.org/2000/svg" version="1.1" width="992px" height="1291px" style="shape-rendering:geometricPrecision; text-rendering:geometricPrecision; image-rendering:optimizeQuality; fill-rule:evenodd; clip-rule:evenodd" xmlns:xlink="http://www.w3.org/1999/xlink">
<g><path style="opacity:0.995" fill="#000000" d="M 462.5,-0.5 C 484.5,-0.5 506.5,-0.5 528.5,-0.5C 685.444,12.4792 810.944,81.4792 905,206.5C 955.545,278.963 984.378,359.296 991.5,447.5C 991.5,468.167 991.5,488.833 991.5,509.5C 985.683,585.423 963.183,656.09 924,721.5C 806.752,894.994 689.752,1068.66 573,1242.5C 559.996,1269.26 538.829,1285.26 509.5,1290.5C 499.833,1290.5 490.167,1290.5 480.5,1290.5C 454.782,1285.56 434.615,1272.22 420,1250.5C 363.411,1158.98 305.078,1068.64 245,979.5C 203,916.833 161,854.167 119,791.5C 48.213,710.892 8.37971,616.892 -0.5,509.5C -0.5,488.833 -0.5,468.167 -0.5,447.5C 15.0179,290.232 88.0179,167.732 218.5,80C 293.059,32.6469 374.393,5.81357 462.5,-0.5 Z"/></g>
<g><path style="opacity:1" fill="#2f3b39" d="M 477.5,89.5 C 469.335,90.4202 461.002,91.0868 452.5,91.5C 453.952,90.6981 455.618,90.1981 457.5,90C 464.158,89.5004 470.825,89.3337 477.5,89.5 Z"/></g>
<g><path style="opacity:1" fill="#b3bcbb" d="M 477.5,89.5 C 491.837,89.3334 506.171,89.5001 520.5,90C 528.71,90.2418 536.71,91.0751 544.5,92.5C 513.834,91.1868 483.168,91.1868 452.5,92.5C 452.5,92.1667 452.5,91.8333 452.5,91.5C 461.002,91.0868 469.335,90.4202 477.5,89.5 Z"/></g>
<g><path style="opacity:0.998" fill="#fefefe" d="M 544.5,92.5 C 660.35,107.325 753.517,160.992 824,253.5C 899.348,361.965 916.015,478.965 874,604.5C 824.15,729.348 734.65,810.515 605.5,848C 582.557,854.422 559.223,858.589 535.5,860.5C 507.168,861.809 478.834,861.809 450.5,860.5C 446.881,859.756 443.215,859.423 439.5,859.5C 427.706,856.555 415.706,853.889 403.5,851.5C 402.653,850.034 401.32,849.2 399.5,849C 396.854,848.503 394.187,848.336 391.5,848.5C 390.167,848.5 388.833,848.5 387.5,848.5C 377.02,845.295 366.687,841.628 356.5,837.5C 353.855,835.69 350.855,834.69 347.5,834.5C 347.167,834.5 346.833,834.5 346.5,834.5C 341.297,830.236 335.297,827.569 328.5,826.5C 326.434,824.801 324.1,823.468 321.5,822.5C 320.652,820.907 319.319,819.74 317.5,819C 311.178,816.507 304.845,814.007 298.5,811.5C 295.55,808.192 291.884,806.192 287.5,805.5C 285.879,803.058 283.546,801.725 280.5,801.5C 261.224,790.164 243.224,776.83 226.5,761.5C 223.769,757.766 220.436,754.766 216.5,752.5C 207.14,743.806 198.14,734.806 189.5,725.5C 175.319,709.33 162.319,692.33 150.5,674.5C 149.389,671.144 147.723,668.144 145.5,665.5C 144.202,661.912 142.536,658.579 140.5,655.5C 138.455,651.081 136.122,646.748 133.5,642.5C 133.657,641.127 133.49,639.793 133,638.5C 132.098,636.569 130.931,634.903 129.5,633.5C 128.586,629.064 126.919,625.064 124.5,621.5C 121.351,612.713 118.018,604.046 114.5,595.5C 113.545,589.39 112.212,583.39 110.5,577.5C 110.88,575.302 110.213,573.635 108.5,572.5C 107.537,568.899 106.87,565.233 106.5,561.5C 105.691,556.255 104.358,551.255 102.5,546.5C 101.092,542.314 100.425,537.981 100.5,533.5C 98.2449,499.191 97.9116,464.858 99.5,430.5C 100.721,422.847 101.721,415.18 102.5,407.5C 102.802,404.627 103.469,401.961 104.5,399.5C 106.237,395.458 107.237,391.124 107.5,386.5C 107.366,384.708 107.699,383.042 108.5,381.5C 110.074,379.898 110.741,377.898 110.5,375.5C 111.39,368.939 113.057,362.606 115.5,356.5C 117.074,354.898 117.741,352.898 117.5,350.5C 117.5,350.167 117.5,349.833 117.5,349.5C 118.117,349.389 118.617,349.056 119,348.5C 120.953,343.17 122.787,337.837 124.5,332.5C 128.585,325.313 131.919,317.646 134.5,309.5C 137.548,306.07 139.548,302.07 140.5,297.5C 141.376,297.631 142.043,297.298 142.5,296.5C 144.306,293.359 145.639,290.026 146.5,286.5C 148.245,284.967 149.245,282.967 149.5,280.5C 151.241,278.605 152.241,276.272 152.5,273.5C 156.511,268.132 160.511,262.798 164.5,257.5C 166.822,256.198 168.155,254.198 168.5,251.5C 168.328,250.508 168.662,249.842 169.5,249.5C 176.405,241.358 183.071,233.025 189.5,224.5C 197.202,217.799 204.202,210.466 210.5,202.5C 223.125,188.705 237.125,176.539 252.5,166C 272.246,151.79 293.246,139.623 315.5,129.5C 321.175,128.494 326.175,126.161 330.5,122.5C 335.232,122.373 339.232,120.707 342.5,117.5C 350.384,115.041 358.384,112.874 366.5,111C 367.381,110.292 368.047,109.458 368.5,108.5C 369.391,107.89 370.391,107.557 371.5,107.5C 380.986,106.552 389.986,104.218 398.5,100.5C 407.109,98.889 415.776,97.5557 424.5,96.5C 433.076,95.9133 441.41,94.58 449.5,92.5C 450.5,92.5 451.5,92.5 452.5,92.5C 483.168,91.1868 513.834,91.1868 544.5,92.5 Z"/></g>
<g><path style="opacity:1" fill="#c3c8c9" d="M 449.5,92.5 C 441.41,94.58 433.076,95.9133 424.5,96.5C 432.555,94.2139 440.888,92.8805 449.5,92.5 Z"/></g>
<g><path style="opacity:1" fill="#636c6c" d="M 452.5,91.5 C 452.5,91.8333 452.5,92.1667 452.5,92.5C 451.5,92.5 450.5,92.5 449.5,92.5C 440.888,92.8805 432.555,94.2139 424.5,96.5C 415.776,97.5557 407.109,98.889 398.5,100.5C 416.017,95.3582 434.017,92.3582 452.5,91.5 Z"/></g>
<g><path style="opacity:1" fill="#9faead" d="M 398.5,100.5 C 389.986,104.218 380.986,106.552 371.5,107.5C 380.185,104.291 389.185,101.958 398.5,100.5 Z"/></g>
<g><path style="opacity:1" fill="#a9b5b3" d="M 368.5,108.5 C 368.047,109.458 367.381,110.292 366.5,111C 358.384,112.874 350.384,115.041 342.5,117.5C 350.702,113.411 359.368,110.411 368.5,108.5 Z"/></g>
<g><path style="opacity:1" fill="#aebbb9" d="M 342.5,117.5 C 339.232,120.707 335.232,122.373 330.5,122.5C 334.203,120.321 338.203,118.655 342.5,117.5 Z"/></g>
<g><path style="opacity:1" fill="#b2bebc" d="M 330.5,122.5 C 326.175,126.161 321.175,128.494 315.5,129.5C 320.07,126.384 325.07,124.05 330.5,122.5 Z"/></g>
<g><path style="opacity:1" fill="#989999" d="M 210.5,202.5 C 204.202,210.466 197.202,217.799 189.5,224.5C 193.098,219.726 196.931,215.06 201,210.5C 203.766,207.223 206.933,204.557 210.5,202.5 Z"/></g>
<g><path style="opacity:1" fill="#6d736e" d="M 189.5,224.5 C 183.071,233.025 176.405,241.358 169.5,249.5C 174.968,240.245 181.634,231.912 189.5,224.5 Z"/></g>
<g><path style="opacity:1" fill="#8b8e89" d="M 168.5,251.5 C 168.155,254.198 166.822,256.198 164.5,257.5C 165.34,255.147 166.674,253.147 168.5,251.5 Z"/></g>
<g><path style="opacity:1" fill="#929690" d="M 149.5,280.5 C 149.245,282.967 148.245,284.967 146.5,286.5C 146.755,284.033 147.755,282.033 149.5,280.5 Z"/></g>
<g><path style="opacity:1" fill="#212121" d="M 624.5,259.5 C 606.772,261.032 588.772,262.198 570.5,263C 565.412,266.665 563.245,271.498 564,277.5C 566.596,274.85 568.096,271.684 568.5,268C 570.791,267.985 572.958,267.818 575,267.5C 576.992,272.606 577.992,277.939 578,283.5C 579.011,284.337 580.178,284.67 581.5,284.5C 581.335,287.85 581.502,291.183 582,294.5C 584.759,295.323 587.593,295.99 590.5,296.5C 598.161,295.897 605.828,295.23 613.5,294.5C 613.167,293.5 612.5,292.833 611.5,292.5C 605.558,293.541 605.225,292.707 610.5,290C 615.263,290.267 619.263,288.767 622.5,285.5C 623.292,287.465 623.959,289.465 624.5,291.5C 626.743,292.474 629.076,292.808 631.5,292.5C 630.983,301.687 630.316,310.854 629.5,320C 631.399,322.804 634.066,323.97 637.5,323.5C 637.5,324.5 637.5,325.5 637.5,326.5C 640.167,326.5 642.833,326.5 645.5,326.5C 645.647,331.214 645.314,335.881 644.5,340.5C 642.5,340.5 640.5,340.5 638.5,340.5C 638.5,339.5 638.5,338.5 638.5,337.5C 570.262,336.864 501.928,336.53 433.5,336.5C 464.664,335.833 495.664,335.167 526.5,334.5C 559.492,333.326 592.492,333.326 625.5,334.5C 622.745,322.399 619.078,310.566 614.5,299C 600.527,299.554 586.527,299.554 572.5,299C 562.239,293.58 558.073,285.08 560,273.5C 562.833,266.667 567.667,261.833 574.5,259C 591.187,258.241 607.854,258.408 624.5,259.5 Z"/></g>
<g><path style="opacity:1" fill="#222223" d="M 624.5,259.5 C 637.895,264.926 646.728,274.593 651,288.5C 654.526,303.272 658.359,317.939 662.5,332.5C 661.842,331.602 661.176,330.602 660.5,329.5C 660.167,330.167 659.833,330.833 659.5,331.5C 660.511,334.848 661.511,338.182 662.5,341.5C 662.594,343.912 661.594,345.745 659.5,347C 661.179,349.565 661.846,352.398 661.5,355.5C 660.5,355.5 659.5,355.5 658.5,355.5C 658.998,360.152 659.331,364.819 659.5,369.5C 657.833,369.5 656.167,369.5 654.5,369.5C 654.5,372.167 654.5,374.833 654.5,377.5C 652.738,377.357 651.071,377.691 649.5,378.5C 648.086,382.984 646.419,387.318 644.5,391.5C 642.99,390.272 641.49,390.272 640,391.5C 614.261,421.064 588.761,450.731 563.5,480.5C 560.539,477.62 556.872,476.287 552.5,476.5C 551.833,472.5 551.167,472.5 550.5,476.5C 549.167,476.5 547.833,476.5 546.5,476.5C 546.5,475.5 546.5,474.5 546.5,473.5C 545.5,473.5 544.5,473.5 543.5,473.5C 543.5,474.5 543.5,475.5 543.5,476.5C 540.753,476.813 538.086,476.48 535.5,475.5C 536.167,474.167 536.833,472.833 537.5,471.5C 535.078,469.06 535.078,466.726 537.5,464.5C 536.672,463.585 535.672,462.919 534.5,462.5C 527.941,468.889 521.941,475.722 516.5,483C 513.97,484.422 511.303,484.755 508.5,484C 513.013,483.758 516.013,481.592 517.5,477.5C 521.72,472.776 526.22,468.109 531,463.5C 532.421,461.595 533.588,459.595 534.5,457.5C 537.881,455.12 540.547,452.12 542.5,448.5C 542.5,447.833 542.833,447.5 543.5,447.5C 547.868,443.133 551.868,438.467 555.5,433.5C 557.766,429.564 560.766,426.231 564.5,423.5C 566.716,422.797 568.549,421.464 570,419.5C 572.08,416.935 573.913,414.268 575.5,411.5C 578.903,409.1 581.57,406.1 583.5,402.5C 584.08,400.251 585.413,398.585 587.5,397.5C 594.175,390.825 600.508,383.825 606.5,376.5C 606.5,375.5 606.5,374.5 606.5,373.5C 556.002,372.667 505.335,372.167 454.5,372C 496.023,370.672 537.69,370.005 579.5,370C 577.26,369.023 574.927,368.523 572.5,368.5C 572.5,366.167 572.5,363.833 572.5,361.5C 570.833,361.5 569.167,361.5 567.5,361.5C 567.5,353.833 567.5,346.167 567.5,338.5C 560.501,337.791 548.834,337.457 532.5,337.5C 518.5,338 504.5,338.5 490.5,339C 497.493,339.999 504.493,340.832 511.5,341.5C 511.5,343.5 511.5,345.5 511.5,347.5C 504.5,347.5 497.5,347.5 490.5,347.5C 490.5,354.5 490.5,361.5 490.5,368.5C 478.526,368.504 466.526,368.837 454.5,369.5C 453.833,370.167 453.167,370.833 452.5,371.5C 453.485,373.098 453.651,374.765 453,376.5C 452.667,375.5 452.333,374.5 452,373.5C 450.443,376.294 450.11,379.294 451,382.5C 451.333,381.833 451.667,381.167 452,380.5C 452.681,382.895 453.515,385.228 454.5,387.5C 454.755,385.657 454.922,383.657 455,381.5C 456.583,385.394 458.416,389.061 460.5,392.5C 460.755,394.967 461.755,396.967 463.5,398.5C 463.92,402.007 464.92,405.341 466.5,408.5C 466.5,409.5 466.5,410.5 466.5,411.5C 465.07,411.421 463.736,411.754 462.5,412.5C 459.966,407.795 458.633,407.795 458.5,412.5C 457.167,412.5 455.833,412.5 454.5,412.5C 454.5,411.167 454.5,409.833 454.5,408.5C 453.167,408.5 451.833,408.5 450.5,408.5C 451.051,411.807 451.384,415.14 451.5,418.5C 452.822,418.33 453.989,418.663 455,419.5C 455.497,421.81 455.663,424.143 455.5,426.5C 457.833,426.5 460.167,426.5 462.5,426.5C 462.5,433.833 462.5,441.167 462.5,448.5C 464.5,448.5 466.5,448.5 468.5,448.5C 468.5,455.5 468.5,462.5 468.5,469.5C 469.833,469.5 471.167,469.5 472.5,469.5C 472.5,471.833 472.5,474.167 472.5,476.5C 471.5,476.5 470.5,476.5 469.5,476.5C 469.5,479.167 469.5,481.833 469.5,484.5C 467.833,484.5 466.167,484.5 464.5,484.5C 464.719,485.675 464.386,486.675 463.5,487.5C 462.482,486.807 461.482,486.141 460.5,485.5C 460.573,483.973 459.906,482.973 458.5,482.5C 456.913,477.368 454.579,472.702 451.5,468.5C 450.5,465.833 449.5,463.167 448.5,460.5C 448.657,459.127 448.49,457.793 448,456.5C 446.918,454.382 445.751,452.382 444.5,450.5C 441.611,445.391 439.278,440.057 437.5,434.5C 436.633,430.671 434.967,427.337 432.5,424.5C 431.462,421.655 430.128,418.988 428.5,416.5C 428.741,414.102 428.074,412.102 426.5,410.5C 424.925,408.453 423.925,406.119 423.5,403.5C 422.696,398.882 421.029,394.549 418.5,390.5C 415.936,389.436 414.603,390.436 414.5,393.5C 412.413,394.585 411.08,396.251 410.5,398.5C 406.917,403.931 403.084,409.265 399,414.5C 398.202,416.259 398.369,417.926 399.5,419.5C 401.529,420.844 403.529,422.177 405.5,423.5C 408.167,426.5 410.833,429.5 413.5,432.5C 411.974,436.124 412.807,439.124 416,441.5C 416.499,445.821 416.666,450.154 416.5,454.5C 415.167,454.5 413.833,454.5 412.5,454.5C 412.5,455.833 412.5,457.167 412.5,458.5C 411.167,458.5 409.833,458.5 408.5,458.5C 407.686,462.683 406.353,466.683 404.5,470.5C 406.833,472.341 407.166,474.508 405.5,477C 409.756,485.277 411.589,494.111 411,503.5C 410.61,500.896 409.776,498.562 408.5,496.5C 408.5,496.167 408.5,495.833 408.5,495.5C 408.31,492.145 407.31,489.145 405.5,486.5C 404.023,482.213 402.023,478.213 399.5,474.5C 398.015,472.066 396.348,469.733 394.5,467.5C 393.92,465.251 392.587,463.585 390.5,462.5C 389.581,459.911 387.914,457.911 385.5,456.5C 384.467,453.401 382.467,452.734 379.5,454.5C 377.413,455.585 376.08,457.251 375.5,459.5C 373.738,460.262 372.738,461.596 372.5,463.5C 370.178,464.802 368.845,466.802 368.5,469.5C 367.094,469.973 366.427,470.973 366.5,472.5C 362.71,476.844 360.043,481.844 358.5,487.5C 357.449,491.996 355.449,495.996 352.5,499.5C 349.331,501.574 348.331,504.241 349.5,507.5C 368.662,508.332 387.996,508.832 407.5,509C 411.736,509.743 413.403,512.243 412.5,516.5C 411.167,516.5 409.833,516.5 408.5,516.5C 408.5,519.833 408.5,523.167 408.5,526.5C 406.5,526.5 404.5,526.5 402.5,526.5C 402.5,528.833 402.5,531.167 402.5,533.5C 403.833,533.5 405.167,533.5 406.5,533.5C 406.16,536.144 406.827,538.477 408.5,540.5C 407.624,541.251 406.624,541.751 405.5,542C 385.329,542.168 365.329,542.668 345.5,543.5C 343.473,543.338 341.473,543.505 339.5,544C 336.429,546.518 333.429,549.018 330.5,551.5C 330.389,552.117 330.056,552.617 329.5,553C 326.522,553.696 323.522,554.196 320.5,554.5C 313.922,555.031 307.588,554.365 301.5,552.5C 295.997,548.129 292.164,542.462 290,535.5C 286.659,521.991 290.159,510.824 300.5,502C 304.252,499.707 308.086,497.54 312,495.5C 314.876,485.573 319.376,476.573 325.5,468.5C 327.822,467.198 329.155,465.198 329.5,462.5C 332.336,456.822 335.669,451.489 339.5,446.5C 342.277,444.049 344.277,441.049 345.5,437.5C 345.771,435.57 346.771,434.236 348.5,433.5C 349.434,432.432 349.768,431.099 349.5,429.5C 350.5,429.5 351.5,429.5 352.5,429.5C 352.238,428.022 352.571,426.689 353.5,425.5C 356.715,425.82 360.048,425.82 363.5,425.5C 363.5,423.5 363.5,421.5 363.5,419.5C 368.167,419.5 372.833,419.5 377.5,419.5C 377.5,417.167 377.5,414.833 377.5,412.5C 379.833,412.5 382.167,412.5 384.5,412.5C 384.5,410.167 384.5,407.833 384.5,405.5C 382.833,405.5 381.167,405.5 379.5,405.5C 379.156,401.36 377.822,397.694 375.5,394.5C 375.39,392.626 376.056,391.126 377.5,390C 376.5,389.333 375.5,389.333 374.5,390C 373,392.167 371.5,394.333 370,396.5C 369.536,395.906 369.369,395.239 369.5,394.5C 378.191,376.946 388.525,360.446 400.5,345C 396.923,339.851 393.589,334.518 390.5,329C 381.167,328.667 371.833,328.333 362.5,328C 350.608,322.038 346.441,312.538 350,299.5C 356.4,288.725 365.9,284.558 378.5,287C 406.202,286.052 433.868,286.386 461.5,288C 478.407,298.343 479.741,310.343 465.5,324C 463.51,325.751 461.177,326.751 458.5,327C 450.184,326.877 441.851,326.71 433.5,326.5C 433.5,329.167 433.5,331.833 433.5,334.5C 464.5,334.5 495.5,334.5 526.5,334.5C 495.664,335.167 464.664,335.833 433.5,336.5C 501.928,336.53 570.262,336.864 638.5,337.5C 638.5,338.5 638.5,339.5 638.5,340.5C 640.5,340.5 642.5,340.5 644.5,340.5C 645.314,335.881 645.647,331.214 645.5,326.5C 642.833,326.5 640.167,326.5 637.5,326.5C 637.5,325.5 637.5,324.5 637.5,323.5C 634.066,323.97 631.399,322.804 629.5,320C 630.316,310.854 630.983,301.687 631.5,292.5C 629.076,292.808 626.743,292.474 624.5,291.5C 623.959,289.465 623.292,287.465 622.5,285.5C 619.263,288.767 615.263,290.267 610.5,290C 605.225,292.707 605.558,293.541 611.5,292.5C 612.5,292.833 613.167,293.5 613.5,294.5C 605.828,295.23 598.161,295.897 590.5,296.5C 587.593,295.99 584.759,295.323 582,294.5C 581.502,291.183 581.335,287.85 581.5,284.5C 580.178,284.67 579.011,284.337 578,283.5C 577.992,277.939 576.992,272.606 575,267.5C 572.958,267.818 570.791,267.985 568.5,268C 568.096,271.684 566.596,274.85 564,277.5C 563.245,271.498 565.412,266.665 570.5,263C 588.772,262.198 606.772,261.032 624.5,259.5 Z"/></g>
<g><path style="opacity:1" fill="#b8bcb7" d="M 146.5,286.5 C 145.639,290.026 144.306,293.359 142.5,296.5C 142.043,297.298 141.376,297.631 140.5,297.5C 141.756,293.313 143.756,289.646 146.5,286.5 Z"/></g>
<g><path style="opacity:1" fill="#9da29f" d="M 140.5,297.5 C 139.548,302.07 137.548,306.07 134.5,309.5C 135.939,305.158 137.939,301.158 140.5,297.5 Z"/></g>
<g><path style="opacity:1" fill="#858989" d="M 134.5,309.5 C 131.919,317.646 128.585,325.313 124.5,332.5C 126.482,324.208 129.815,316.541 134.5,309.5 Z"/></g>
<g><path style="opacity:1" fill="#2a2a2a" d="M 606.5,373.5 C 555.839,374.387 505.173,374.72 454.5,374.5C 454.054,377.01 454.72,379.01 456.5,380.5C 458.143,384.411 459.477,388.411 460.5,392.5C 458.416,389.061 456.583,385.394 455,381.5C 454.922,383.657 454.755,385.657 454.5,387.5C 453.515,385.228 452.681,382.895 452,380.5C 451.667,381.167 451.333,381.833 451,382.5C 450.11,379.294 450.443,376.294 452,373.5C 452.333,374.5 452.667,375.5 453,376.5C 453.651,374.765 453.485,373.098 452.5,371.5C 453.167,370.833 453.833,370.167 454.5,369.5C 466.526,368.837 478.526,368.504 490.5,368.5C 490.5,361.5 490.5,354.5 490.5,347.5C 497.5,347.5 504.5,347.5 511.5,347.5C 511.5,345.5 511.5,343.5 511.5,341.5C 504.493,340.832 497.493,339.999 490.5,339C 504.5,338.5 518.5,338 532.5,337.5C 548.834,337.457 560.501,337.791 567.5,338.5C 567.5,346.167 567.5,353.833 567.5,361.5C 569.167,361.5 570.833,361.5 572.5,361.5C 572.5,363.833 572.5,366.167 572.5,368.5C 574.927,368.523 577.26,369.023 579.5,370C 537.69,370.005 496.023,370.672 454.5,372C 505.335,372.167 556.002,372.667 606.5,373.5 Z"/></g>
<g><path style="opacity:1" fill="#747a79" d="M 124.5,332.5 C 122.787,337.837 120.953,343.17 119,348.5C 118.617,349.056 118.117,349.389 117.5,349.5C 118.897,343.274 121.23,337.607 124.5,332.5 Z"/></g>
<g><path style="opacity:1" fill="#1c1c1c" d="M 662.5,332.5 C 668.546,346.44 674.712,360.44 681,374.5C 683.012,379.702 684.512,385.035 685.5,390.5C 685.628,392.655 685.128,394.655 684,396.5C 683.902,394.381 683.069,392.714 681.5,391.5C 680.056,393.608 679.39,395.941 679.5,398.5C 677.5,398.5 675.5,398.5 673.5,398.5C 673.5,397.167 673.5,395.833 673.5,394.5C 672.167,394.5 670.833,394.5 669.5,394.5C 669.5,395.833 669.5,397.167 669.5,398.5C 668.178,398.67 667.011,398.337 666,397.5C 665.51,398.793 665.343,400.127 665.5,401.5C 662.167,401.5 658.833,401.5 655.5,401.5C 655.5,403.5 655.5,405.5 655.5,407.5C 653.801,407.473 652.467,406.806 651.5,405.5C 648.639,401.112 646.306,396.446 644.5,391.5C 646.419,387.318 648.086,382.984 649.5,378.5C 651.071,377.691 652.738,377.357 654.5,377.5C 654.5,374.833 654.5,372.167 654.5,369.5C 656.167,369.5 657.833,369.5 659.5,369.5C 659.331,364.819 658.998,360.152 658.5,355.5C 659.5,355.5 660.5,355.5 661.5,355.5C 661.846,352.398 661.179,349.565 659.5,347C 661.594,345.745 662.594,343.912 662.5,341.5C 661.511,338.182 660.511,334.848 659.5,331.5C 659.833,330.833 660.167,330.167 660.5,329.5C 661.176,330.602 661.842,331.602 662.5,332.5 Z"/></g>
<g><path style="opacity:1" fill="#808788" d="M 117.5,350.5 C 117.741,352.898 117.074,354.898 115.5,356.5C 115.259,354.102 115.926,352.102 117.5,350.5 Z"/></g>
<g><path style="opacity:1" fill="#b6b8b9" d="M 606.5,373.5 C 606.5,374.5 606.5,375.5 606.5,376.5C 606.167,376.5 605.833,376.5 605.5,376.5C 604.306,375.223 602.64,374.556 600.5,374.5C 552.178,375.476 503.844,375.809 455.5,375.5C 455.629,377.216 455.962,378.883 456.5,380.5C 454.72,379.01 454.054,377.01 454.5,374.5C 505.173,374.72 555.839,374.387 606.5,373.5 Z"/></g>
<g><path style="opacity:1" fill="#f9f9f9" d="M 605.5,376.5 C 598.758,382.905 592.758,389.905 587.5,397.5C 585.413,398.585 584.08,400.251 583.5,402.5C 580.097,404.9 577.43,407.9 575.5,411.5C 571.377,415.079 567.71,419.079 564.5,423.5C 560.766,426.231 557.766,429.564 555.5,433.5C 550.383,437.278 546.383,441.945 543.5,447.5C 542.833,447.5 542.5,447.833 542.5,448.5C 539.149,450.854 536.482,453.854 534.5,457.5C 528.113,463.554 522.446,470.221 517.5,477.5C 512.164,482.417 506.497,482.583 500.5,478C 498.561,476.568 497.228,474.735 496.5,472.5C 495.532,469.9 494.199,467.566 492.5,465.5C 490.331,461.461 488.831,457.128 488,452.5C 481.909,442.391 477.076,431.724 473.5,420.5C 472.588,416.749 470.922,413.416 468.5,410.5C 468.672,409.508 468.338,408.842 467.5,408.5C 467.248,404.673 465.915,401.34 463.5,398.5C 463.245,396.033 462.245,394.033 460.5,392.5C 459.477,388.411 458.143,384.411 456.5,380.5C 455.962,378.883 455.629,377.216 455.5,375.5C 503.844,375.809 552.178,375.476 600.5,374.5C 602.64,374.556 604.306,375.223 605.5,376.5 Z"/></g>
<g><path style="opacity:1" fill="#959899" d="M 110.5,375.5 C 110.741,377.898 110.074,379.898 108.5,381.5C 108.259,379.102 108.926,377.102 110.5,375.5 Z"/></g>
<g><path style="opacity:1" fill="#222222" d="M 846.5,537.5 C 841.734,587.238 817.4,623.738 773.5,647C 766.683,650.078 759.683,652.578 752.5,654.5C 733.579,657.422 714.579,658.088 695.5,656.5C 658.149,649.315 629.316,629.648 609,597.5C 600.939,584.049 595.106,569.715 591.5,554.5C 591.337,552.143 591.503,549.81 592,547.5C 592.654,548.696 593.154,548.696 593.5,547.5C 592.572,546.232 592.405,544.899 593,543.5C 593.333,544.167 593.667,544.833 594,545.5C 594.719,542.343 596.552,540.343 599.5,539.5C 605.375,541.216 611.375,541.883 617.5,541.5C 617.5,543.5 617.5,545.5 617.5,547.5C 619.5,547.5 621.5,547.5 623.5,547.5C 623.343,548.873 623.51,550.207 624,551.5C 624.819,539.154 625.819,538.821 627,550.5C 628.232,553.412 629.732,556.078 631.5,558.5C 631.796,560.403 632.463,562.07 633.5,563.5C 633.755,565.967 634.755,567.967 636.5,569.5C 643.248,583.254 652.915,594.587 665.5,603.5C 666.585,605.587 668.251,606.92 670.5,607.5C 671.903,608.931 673.569,610.098 675.5,611C 676.793,611.49 678.127,611.657 679.5,611.5C 687.094,616.112 695.427,618.779 704.5,619.5C 705.263,620.268 706.263,620.768 707.5,621C 715.833,621.667 724.167,621.667 732.5,621C 734.058,620.79 735.391,620.29 736.5,619.5C 740.786,618.293 745.12,617.293 749.5,616.5C 754.023,615.811 758.023,613.978 761.5,611C 763.5,610.667 765.5,610.333 767.5,610C 767.043,609.586 766.709,609.086 766.5,608.5C 767.77,607.712 768.77,606.712 769.5,605.5C 772.764,603.906 775.431,601.573 777.5,598.5C 779.5,595.833 781.833,593.5 784.5,591.5C 786.914,590.089 788.581,588.089 789.5,585.5C 793.151,579.199 797.151,573.199 801.5,567.5C 804.469,562.601 806.469,557.267 807.5,551.5C 807.298,549.05 807.631,546.717 808.5,544.5C 810.933,530.354 811.1,516.021 809,501.5C 808.722,500.584 808.222,499.918 807.5,499.5C 806.466,495.346 805.132,491.346 803.5,487.5C 803.248,483.673 801.915,480.34 799.5,477.5C 798.151,474.553 796.317,471.886 794,469.5C 793.667,468.167 793.333,466.833 793,465.5C 788.63,461.298 784.463,456.964 780.5,452.5C 778.1,449.097 775.1,446.43 771.5,444.5C 768.482,442.474 765.482,440.474 762.5,438.5C 762.047,437.542 761.381,436.708 760.5,436C 757.252,434.54 753.919,433.374 750.5,432.5C 745.036,430.265 739.369,428.932 733.5,428.5C 733.082,427.778 732.416,427.278 731.5,427C 721.833,426.333 712.167,426.333 702.5,427C 701.584,427.278 700.918,427.778 700.5,428.5C 701.515,434.214 703.515,439.547 706.5,444.5C 706.259,446.898 706.926,448.898 708.5,450.5C 711.347,458.213 714.347,465.88 717.5,473.5C 717.755,475.967 718.755,477.967 720.5,479.5C 722.11,486.257 723.944,492.924 726,499.5C 731.512,503.257 736.846,507.257 742,511.5C 748.175,524.95 746.342,537.117 736.5,548C 733.513,550.492 730.18,552.325 726.5,553.5C 720.797,553.625 715.13,553.292 709.5,552.5C 706.526,549.862 703.526,547.195 700.5,544.5C 699.532,541.9 698.199,539.566 696.5,537.5C 695.007,533.84 693.673,530.173 692.5,526.5C 692.638,521.586 691.972,516.919 690.5,512.5C 687.147,505.278 684.481,497.778 682.5,490C 681.449,488.423 680.449,486.923 679.5,485.5C 679.655,482.284 678.655,479.617 676.5,477.5C 672.868,468.995 669.535,460.328 666.5,451.5C 666.99,449.052 666.157,447.385 664,446.5C 661.958,448.043 659.792,449.376 657.5,450.5C 655.436,450.313 653.436,449.813 651.5,449C 653.285,443.511 651.285,440.678 645.5,440.5C 645.5,438.5 645.5,436.5 645.5,434.5C 649.5,434.167 649.5,433.833 645.5,433.5C 645.5,429.833 645.5,426.167 645.5,422.5C 642.482,422.335 639.482,422.502 636.5,423C 633.5,426 630.5,429 627.5,432C 626.563,432.692 625.897,432.525 625.5,431.5C 633.266,423.031 641.766,415.365 651,408.5C 651.483,407.552 651.649,406.552 651.5,405.5C 652.467,406.806 653.801,407.473 655.5,407.5C 655.5,405.5 655.5,403.5 655.5,401.5C 658.833,401.5 662.167,401.5 665.5,401.5C 665.343,400.127 665.51,398.793 666,397.5C 667.011,398.337 668.178,398.67 669.5,398.5C 669.5,397.167 669.5,395.833 669.5,394.5C 670.833,394.5 672.167,394.5 673.5,394.5C 673.5,395.833 673.5,397.167 673.5,398.5C 675.5,398.5 677.5,398.5 679.5,398.5C 679.39,395.941 680.056,393.608 681.5,391.5C 683.069,392.714 683.902,394.381 684,396.5C 685.128,394.655 685.628,392.655 685.5,390.5C 686.234,391.929 687.401,392.929 689,393.5C 725.457,382.549 758.957,388.382 789.5,411C 831.761,442.688 850.761,484.855 846.5,537.5 Z"/></g>
<g><path style="opacity:1" fill="#f4f4f6" d="M 423.5,403.5 C 423.925,406.119 424.925,408.453 426.5,410.5C 426.259,412.898 426.926,414.898 428.5,416.5C 430.128,418.988 431.462,421.655 432.5,424.5C 433.367,428.329 435.033,431.663 437.5,434.5C 439.278,440.057 441.611,445.391 444.5,450.5C 444.77,454.358 446.103,457.691 448.5,460.5C 449.5,463.167 450.5,465.833 451.5,468.5C 453.087,473.632 455.421,478.298 458.5,482.5C 459.906,482.973 460.573,483.973 460.5,485.5C 462.376,488.884 464.043,492.384 465.5,496C 464.463,499.247 462.796,502.08 460.5,504.5C 457.813,504.664 455.146,504.497 452.5,504C 451.138,499.488 449.138,495.321 446.5,491.5C 441.851,468.582 431.184,448.915 414.5,432.5C 412.5,428.5 409.5,425.5 405.5,423.5C 403.529,422.177 401.529,420.844 399.5,419.5C 398.369,417.926 398.202,416.259 399,414.5C 403.084,409.265 406.917,403.931 410.5,398.5C 412.587,397.415 413.92,395.749 414.5,393.5C 415.688,392.316 416.855,392.316 418,393.5C 419.608,397.056 421.441,400.389 423.5,403.5 Z"/></g>
<g><path style="opacity:1" fill="#5e5d5d" d="M 605.5,376.5 C 605.833,376.5 606.167,376.5 606.5,376.5C 600.508,383.825 594.175,390.825 587.5,397.5C 592.758,389.905 598.758,382.905 605.5,376.5 Z"/></g>
<g><path style="opacity:1" fill="#272626" d="M 369.5,394.5 C 369.369,395.239 369.536,395.906 370,396.5C 371.5,394.333 373,392.167 374.5,390C 375.5,389.333 376.5,389.333 377.5,390C 376.056,391.126 375.39,392.626 375.5,394.5C 377.822,397.694 379.156,401.36 379.5,405.5C 381.167,405.5 382.833,405.5 384.5,405.5C 384.5,407.833 384.5,410.167 384.5,412.5C 382.167,412.5 379.833,412.5 377.5,412.5C 377.5,414.833 377.5,417.167 377.5,419.5C 372.833,419.5 368.167,419.5 363.5,419.5C 363.5,421.5 363.5,423.5 363.5,425.5C 360.048,425.82 356.715,425.82 353.5,425.5C 352.571,426.689 352.238,428.022 352.5,429.5C 351.5,429.5 350.5,429.5 349.5,429.5C 349.768,431.099 349.434,432.432 348.5,433.5C 348.586,432.504 348.252,431.671 347.5,431C 344.305,430.819 341.305,430.319 338.5,429.5C 330.056,427.863 321.389,427.197 312.5,427.5C 308.154,427.334 303.821,427.501 299.5,428C 296.591,428.85 293.924,430.017 291.5,431.5C 289.801,431.34 288.134,431.506 286.5,432C 282.75,434.207 278.75,435.873 274.5,437C 273.619,437.708 272.953,438.542 272.5,439.5C 263.109,443.217 255.442,449.217 249.5,457.5C 245.372,460.29 242.372,463.957 240.5,468.5C 238.11,470.267 236.443,472.6 235.5,475.5C 233.654,477.03 232.654,479.03 232.5,481.5C 230.703,484.636 229.369,487.97 228.5,491.5C 226.561,496.428 224.894,501.428 223.5,506.5C 222.883,506.389 222.383,506.056 222,505.5C 221.5,517.495 221.333,529.495 221.5,541.5C 219.5,541.5 217.5,541.5 215.5,541.5C 215.034,531.748 214.868,522.082 215,512.5C 214,511.167 213,511.167 212,512.5C 210.837,529.821 210.003,529.821 209.5,512.5C 206.833,512.5 204.167,512.5 201.5,512.5C 201.5,507.833 201.5,503.167 201.5,498.5C 198.751,498.274 196.084,498.607 193.5,499.5C 192.37,496.021 192.37,492.521 193.5,489C 193.316,487.624 192.649,486.791 191.5,486.5C 208.754,436.19 243.087,404.023 294.5,390C 319.1,385.276 342.933,387.776 366,397.5C 367.599,396.929 368.766,395.929 369.5,394.5 Z"/></g>
<g><path style="opacity:1" fill="#919194" d="M 423.5,403.5 C 421.441,400.389 419.608,397.056 418,393.5C 416.855,392.316 415.688,392.316 414.5,393.5C 414.603,390.436 415.936,389.436 418.5,390.5C 421.029,394.549 422.696,398.882 423.5,403.5 Z"/></g>
<g><path style="opacity:1" fill="#7d8485" d="M 414.5,393.5 C 413.92,395.749 412.587,397.415 410.5,398.5C 411.08,396.251 412.413,394.585 414.5,393.5 Z"/></g>
<g><path style="opacity:1" fill="#7d8081" d="M 460.5,392.5 C 462.245,394.033 463.245,396.033 463.5,398.5C 461.755,396.967 460.755,394.967 460.5,392.5 Z"/></g>
<g><path style="opacity:1" fill="#aeb0b3" d="M 107.5,386.5 C 107.237,391.124 106.237,395.458 104.5,399.5C 104.952,395.837 105.452,392.17 106,388.5C 106.278,387.584 106.778,386.918 107.5,386.5 Z"/></g>
<g><path style="opacity:1" fill="#6e6e70" d="M 463.5,398.5 C 465.915,401.34 467.248,404.673 467.5,408.5C 467.167,408.5 466.833,408.5 466.5,408.5C 464.92,405.341 463.92,402.007 463.5,398.5 Z"/></g>
<g><path style="opacity:1" fill="#5c5d5a" d="M 583.5,402.5 C 581.57,406.1 578.903,409.1 575.5,411.5C 577.43,407.9 580.097,404.9 583.5,402.5 Z"/></g>
<g><path style="opacity:1" fill="#282828" d="M 466.5,408.5 C 466.833,408.5 467.167,408.5 467.5,408.5C 468.338,408.842 468.672,409.508 468.5,410.5C 469.132,414.431 470.799,417.765 473.5,420.5C 477.076,431.724 481.909,442.391 488,452.5C 488.831,457.128 490.331,461.461 492.5,465.5C 492.725,468.546 494.058,470.879 496.5,472.5C 497.228,474.735 498.561,476.568 500.5,478C 506.497,482.583 512.164,482.417 517.5,477.5C 516.013,481.592 513.013,483.758 508.5,484C 511.303,484.755 513.97,484.422 516.5,483C 521.941,475.722 527.941,468.889 534.5,462.5C 535.672,462.919 536.672,463.585 537.5,464.5C 535.078,466.726 535.078,469.06 537.5,471.5C 536.833,472.833 536.167,474.167 535.5,475.5C 538.086,476.48 540.753,476.813 543.5,476.5C 543.5,475.5 543.5,474.5 543.5,473.5C 544.5,473.5 545.5,473.5 546.5,473.5C 546.5,474.5 546.5,475.5 546.5,476.5C 547.833,476.5 549.167,476.5 550.5,476.5C 551.167,472.5 551.833,472.5 552.5,476.5C 556.872,476.287 560.539,477.62 563.5,480.5C 556.151,489.682 547.984,498.015 539,505.5C 538.506,507.134 538.34,508.801 538.5,510.5C 537.837,508.958 537.17,507.291 536.5,505.5C 533.755,506.818 532.088,508.985 531.5,512C 529.527,512.495 527.527,512.662 525.5,512.5C 525.5,514.833 525.5,517.167 525.5,519.5C 523.167,519.5 520.833,519.5 518.5,519.5C 517.833,524.167 517.167,528.833 516.5,533.5C 512.5,533.5 508.5,533.5 504.5,533.5C 504.5,531.167 504.5,528.833 504.5,526.5C 501.833,526.5 499.167,526.5 496.5,526.5C 496.5,527.833 496.5,529.167 496.5,530.5C 494.833,530.5 493.167,530.5 491.5,530.5C 492.044,534.673 491.377,538.506 489.5,542C 476.129,542.939 462.796,543.273 449.5,543C 448.062,543.219 446.729,543.719 445.5,544.5C 445.957,545.298 446.624,545.631 447.5,545.5C 440.249,585.068 420.249,616.068 387.5,638.5C 387.631,637.624 387.298,636.957 386.5,636.5C 384.5,637.5 382.5,638.5 380.5,639.5C 380.167,639.167 379.833,638.833 379.5,638.5C 383.566,635.636 385.233,631.636 384.5,626.5C 379.833,626.167 375.167,625.833 370.5,625.5C 370.5,623.5 370.5,621.5 370.5,619.5C 366.21,620.02 362.044,620.354 358,620.5C 355.98,619.968 355.147,618.635 355.5,616.5C 359.024,616.071 362.024,614.571 364.5,612C 362.803,611.616 361.137,611.782 359.5,612.5C 363.678,608.639 368.345,605.639 373.5,603.5C 383.117,597.603 390.451,589.603 395.5,579.5C 398.632,577.797 400.299,575.13 400.5,571.5C 402.904,566.84 405.237,562.006 407.5,557C 408.035,554.004 408.702,551.171 409.5,548.5C 410.833,547.167 410.833,545.833 409.5,544.5C 388.34,543.503 367.007,543.169 345.5,543.5C 365.329,542.668 385.329,542.168 405.5,542C 406.624,541.751 407.624,541.251 408.5,540.5C 406.827,538.477 406.16,536.144 406.5,533.5C 405.167,533.5 403.833,533.5 402.5,533.5C 402.5,531.167 402.5,528.833 402.5,526.5C 404.5,526.5 406.5,526.5 408.5,526.5C 408.5,523.167 408.5,519.833 408.5,516.5C 409.833,516.5 411.167,516.5 412.5,516.5C 413.403,512.243 411.736,509.743 407.5,509C 387.996,508.832 368.662,508.332 349.5,507.5C 369.5,507.5 389.5,507.5 409.5,507.5C 409.802,504.941 409.468,502.607 408.5,500.5C 408.5,499.167 408.5,497.833 408.5,496.5C 409.776,498.562 410.61,500.896 411,503.5C 411.589,494.111 409.756,485.277 405.5,477C 407.166,474.508 406.833,472.341 404.5,470.5C 406.353,466.683 407.686,462.683 408.5,458.5C 409.833,458.5 411.167,458.5 412.5,458.5C 412.5,457.167 412.5,455.833 412.5,454.5C 413.833,454.5 415.167,454.5 416.5,454.5C 416.666,450.154 416.499,445.821 416,441.5C 412.807,439.124 411.974,436.124 413.5,432.5C 413.833,432.5 414.167,432.5 414.5,432.5C 431.184,448.915 441.851,468.582 446.5,491.5C 447.465,496.275 449.132,500.775 451.5,505C 454.696,505.805 457.696,505.638 460.5,504.5C 462.796,502.08 464.463,499.247 465.5,496C 464.043,492.384 462.376,488.884 460.5,485.5C 461.482,486.141 462.482,486.807 463.5,487.5C 464.386,486.675 464.719,485.675 464.5,484.5C 466.167,484.5 467.833,484.5 469.5,484.5C 469.5,481.833 469.5,479.167 469.5,476.5C 470.5,476.5 471.5,476.5 472.5,476.5C 472.5,474.167 472.5,471.833 472.5,469.5C 471.167,469.5 469.833,469.5 468.5,469.5C 468.5,462.5 468.5,455.5 468.5,448.5C 466.5,448.5 464.5,448.5 462.5,448.5C 462.5,441.167 462.5,433.833 462.5,426.5C 460.167,426.5 457.833,426.5 455.5,426.5C 455.663,424.143 455.497,421.81 455,419.5C 453.989,418.663 452.822,418.33 451.5,418.5C 451.384,415.14 451.051,411.807 450.5,408.5C 451.833,408.5 453.167,408.5 454.5,408.5C 454.5,409.833 454.5,411.167 454.5,412.5C 455.833,412.5 457.167,412.5 458.5,412.5C 458.633,407.795 459.966,407.795 462.5,412.5C 463.736,411.754 465.07,411.421 466.5,411.5C 466.5,410.5 466.5,409.5 466.5,408.5 Z"/></g>
<g><path style="opacity:1" fill="#9d9fa1" d="M 468.5,410.5 C 470.922,413.416 472.588,416.749 473.5,420.5C 470.799,417.765 469.132,414.431 468.5,410.5 Z"/></g>
<g><path style="opacity:1" fill="#929196" d="M 426.5,410.5 C 428.074,412.102 428.741,414.102 428.5,416.5C 426.926,414.898 426.259,412.898 426.5,410.5 Z"/></g>
<g><path style="opacity:1" fill="#8f9897" d="M 102.5,407.5 C 101.721,415.18 100.721,422.847 99.5,430.5C 99.1667,430.5 98.8333,430.5 98.5,430.5C 99.072,422.58 100.405,414.914 102.5,407.5 Z"/></g>
<g><path style="opacity:1" fill="#4d4d4d" d="M 575.5,411.5 C 573.913,414.268 572.08,416.935 570,419.5C 568.549,421.464 566.716,422.797 564.5,423.5C 567.71,419.079 571.377,415.079 575.5,411.5 Z"/></g>
<g><path style="opacity:1" fill="#aeb0b2" d="M 405.5,423.5 C 409.5,425.5 412.5,428.5 414.5,432.5C 414.167,432.5 413.833,432.5 413.5,432.5C 410.833,429.5 408.167,426.5 405.5,423.5 Z"/></g>
<g><path style="opacity:1" fill="#272726" d="M 657.5,450.5 C 652.106,455.89 647.106,461.556 642.5,467.5C 637.596,473.082 633.929,479.415 631.5,486.5C 624.667,503.502 622.834,521.169 626,539.5C 626.383,540.056 626.883,540.389 627.5,540.5C 627.337,542.857 627.503,545.19 628,547.5C 629.295,551.215 630.462,554.882 631.5,558.5C 629.732,556.078 628.232,553.412 627,550.5C 625.819,538.821 624.819,539.154 624,551.5C 623.51,550.207 623.343,548.873 623.5,547.5C 621.5,547.5 619.5,547.5 617.5,547.5C 617.5,545.5 617.5,543.5 617.5,541.5C 611.375,541.883 605.375,541.216 599.5,539.5C 596.552,540.343 594.719,542.343 594,545.5C 593.667,544.833 593.333,544.167 593,543.5C 592.405,544.899 592.572,546.232 593.5,547.5C 593.154,548.696 592.654,548.696 592,547.5C 591.503,549.81 591.337,552.143 591.5,554.5C 581.778,511.611 590.611,472.945 618,438.5C 620.37,435.961 622.87,433.628 625.5,431.5C 625.897,432.525 626.563,432.692 627.5,432C 630.5,429 633.5,426 636.5,423C 639.482,422.502 642.482,422.335 645.5,422.5C 645.5,426.167 645.5,429.833 645.5,433.5C 649.5,433.833 649.5,434.167 645.5,434.5C 645.5,436.5 645.5,438.5 645.5,440.5C 651.285,440.678 653.285,443.511 651.5,449C 653.436,449.813 655.436,450.313 657.5,450.5 Z"/></g>
<g><path style="opacity:1" fill="#9c9b9e" d="M 733.5,428.5 C 722.496,427.194 711.496,427.194 700.5,428.5C 700.918,427.778 701.584,427.278 702.5,427C 712.167,426.333 721.833,426.333 731.5,427C 732.416,427.278 733.082,427.778 733.5,428.5 Z"/></g>
<g><path style="opacity:1" fill="#67666b" d="M 312.5,427.5 C 308.688,428.324 304.688,428.824 300.5,429C 298.167,430.043 295.834,430.876 293.5,431.5C 292.833,431.5 292.167,431.5 291.5,431.5C 293.924,430.017 296.591,428.85 299.5,428C 303.821,427.501 308.154,427.334 312.5,427.5 Z"/></g>
<g><path style="opacity:1" fill="#d5d3da" d="M 312.5,427.5 C 321.389,427.197 330.056,427.863 338.5,429.5C 323.326,429.027 308.326,429.693 293.5,431.5C 295.834,430.876 298.167,430.043 300.5,429C 304.688,428.824 308.688,428.324 312.5,427.5 Z"/></g>
<g><path style="opacity:1" fill="#f8f8f8" d="M 733.5,428.5 C 739.369,428.932 745.036,430.265 750.5,432.5C 754.182,435.008 758.182,437.008 762.5,438.5C 765.482,440.474 768.482,442.474 771.5,444.5C 773.9,447.903 776.9,450.57 780.5,452.5C 784.463,456.964 788.63,461.298 793,465.5C 793.333,466.833 793.667,468.167 794,469.5C 796.317,471.886 798.151,474.553 799.5,477.5C 799.752,481.327 801.085,484.66 803.5,487.5C 805.132,491.346 806.466,495.346 807.5,499.5C 809.298,514.472 809.632,529.472 808.5,544.5C 807.631,546.717 807.298,549.05 807.5,551.5C 804.531,556.399 802.531,561.733 801.5,567.5C 797.151,573.199 793.151,579.199 789.5,585.5C 787.086,586.911 785.419,588.911 784.5,591.5C 781.833,593.5 779.5,595.833 777.5,598.5C 774.236,600.094 771.569,602.427 769.5,605.5C 762.752,609.179 756.086,612.846 749.5,616.5C 745.12,617.293 740.786,618.293 736.5,619.5C 725.822,620.701 715.155,620.701 704.5,619.5C 695.427,618.779 687.094,616.112 679.5,611.5C 676.947,609.416 673.947,608.083 670.5,607.5C 669.415,605.413 667.749,604.08 665.5,603.5C 652.915,594.587 643.248,583.254 636.5,569.5C 636.245,567.033 635.245,565.033 633.5,563.5C 632.463,562.07 631.796,560.403 631.5,558.5C 630.462,554.882 629.295,551.215 628,547.5C 627.503,545.19 627.337,542.857 627.5,540.5C 626.38,529.88 626.213,519.213 627,508.5C 628.214,501.086 629.714,493.752 631.5,486.5C 633.929,479.415 637.596,473.082 642.5,467.5C 648.298,462.203 653.965,456.703 659.5,451C 661.217,449.441 663.217,448.608 665.5,448.5C 665.263,449.791 665.596,450.791 666.5,451.5C 669.535,460.328 672.868,468.995 676.5,477.5C 676.62,480.578 677.62,483.245 679.5,485.5C 680.449,486.923 681.449,488.423 682.5,490C 684.481,497.778 687.147,505.278 690.5,512.5C 690.362,517.414 691.028,522.081 692.5,526.5C 693.673,530.173 695.007,533.84 696.5,537.5C 696.725,540.546 698.058,542.879 700.5,544.5C 703.526,547.195 706.526,549.862 709.5,552.5C 714.984,556.061 720.65,556.394 726.5,553.5C 730.18,552.325 733.513,550.492 736.5,548C 746.342,537.117 748.175,524.95 742,511.5C 736.846,507.257 731.512,503.257 726,499.5C 723.944,492.924 722.11,486.257 720.5,479.5C 720.245,477.033 719.245,475.033 717.5,473.5C 714.347,465.88 711.347,458.213 708.5,450.5C 708.741,448.102 708.074,446.102 706.5,444.5C 703.515,439.547 701.515,434.214 700.5,428.5C 711.496,427.194 722.496,427.194 733.5,428.5 Z"/></g>
<g><path style="opacity:1" fill="#f8f8f9" d="M 338.5,429.5 C 341.305,430.319 344.305,430.819 347.5,431C 348.252,431.671 348.586,432.504 348.5,433.5C 346.771,434.236 345.771,435.57 345.5,437.5C 342.759,439.975 340.759,442.975 339.5,446.5C 335.669,451.489 332.336,456.822 329.5,462.5C 327.674,464.147 326.34,466.147 325.5,468.5C 319.376,476.573 314.876,485.573 312,495.5C 308.086,497.54 304.252,499.707 300.5,502C 290.159,510.824 286.659,521.991 290,535.5C 292.164,542.462 295.997,548.129 301.5,552.5C 301.953,553.458 302.619,554.292 303.5,555C 307.298,555.772 311.131,556.272 315,556.5C 317.295,556.453 319.129,555.787 320.5,554.5C 323.522,554.196 326.522,553.696 329.5,553C 330.056,552.617 330.389,552.117 330.5,551.5C 334.137,550.014 337.47,548.014 340.5,545.5C 363.5,545.5 386.5,545.5 409.5,545.5C 409.5,546.5 409.5,547.5 409.5,548.5C 408.702,551.171 408.035,554.004 407.5,557C 405.237,562.006 402.904,566.84 400.5,571.5C 398.838,574.12 397.172,576.787 395.5,579.5C 391.54,583.397 388.04,587.731 385,592.5C 380.665,595.669 376.832,599.336 373.5,603.5C 368.345,605.639 363.678,608.639 359.5,612.5C 358.833,612.5 358.167,612.5 357.5,612.5C 355.152,612.592 353.486,613.592 352.5,615.5C 351.833,615.5 351.167,615.5 350.5,615.5C 344.82,617.429 339.153,619.096 333.5,620.5C 324.167,620.5 314.833,620.5 305.5,620.5C 304.432,619.566 303.099,619.232 301.5,619.5C 295.241,617.984 288.907,616.651 282.5,615.5C 278.55,612.754 274.217,610.587 269.5,609C 266.58,607.054 263.913,604.887 261.5,602.5C 260.089,600.086 258.089,598.419 255.5,597.5C 248.61,590.307 242.61,582.64 237.5,574.5C 236.241,570.353 234.241,566.686 231.5,563.5C 231.5,562.833 231.5,562.167 231.5,561.5C 231.241,558.728 230.241,556.395 228.5,554.5C 224.662,539.443 223.495,524.11 225,508.5C 226.409,502.922 227.575,497.256 228.5,491.5C 229.369,487.97 230.703,484.636 232.5,481.5C 234.346,479.97 235.346,477.97 235.5,475.5C 236.443,472.6 238.11,470.267 240.5,468.5C 243.871,465.129 246.871,461.463 249.5,457.5C 256.654,450.659 264.321,444.659 272.5,439.5C 272.953,438.542 273.619,437.708 274.5,437C 278.75,435.873 282.75,434.207 286.5,432C 288.134,431.506 289.801,431.34 291.5,431.5C 292.167,431.5 292.833,431.5 293.5,431.5C 308.326,429.693 323.326,429.027 338.5,429.5 Z"/></g>
<g><path style="opacity:1" fill="#747076" d="M 432.5,424.5 C 434.967,427.337 436.633,430.671 437.5,434.5C 435.033,431.663 433.367,428.329 432.5,424.5 Z"/></g>
<g><path style="opacity:1" fill="#a6a6a6" d="M 750.5,432.5 C 753.919,433.374 757.252,434.54 760.5,436C 761.381,436.708 762.047,437.542 762.5,438.5C 758.182,437.008 754.182,435.008 750.5,432.5 Z"/></g>
<g><path style="opacity:1" fill="#7e7e7d" d="M 345.5,437.5 C 344.277,441.049 342.277,444.049 339.5,446.5C 340.759,442.975 342.759,439.975 345.5,437.5 Z"/></g>
<g><path style="opacity:1" fill="#626260" d="M 555.5,433.5 C 551.868,438.467 547.868,443.133 543.5,447.5C 546.383,441.945 550.383,437.278 555.5,433.5 Z"/></g>
<g><path style="opacity:1" fill="#585657" d="M 771.5,444.5 C 775.1,446.43 778.1,449.097 780.5,452.5C 776.9,450.57 773.9,447.903 771.5,444.5 Z"/></g>
<g><path style="opacity:1" fill="#7e7f80" d="M 706.5,444.5 C 708.074,446.102 708.741,448.102 708.5,450.5C 706.926,448.898 706.259,446.898 706.5,444.5 Z"/></g>
<g><path style="opacity:1" fill="#6f6f6f" d="M 542.5,448.5 C 540.547,452.12 537.881,455.12 534.5,457.5C 536.482,453.854 539.149,450.854 542.5,448.5 Z"/></g>
<g><path style="opacity:1" fill="#bbbabd" d="M 272.5,439.5 C 264.321,444.659 256.654,450.659 249.5,457.5C 255.442,449.217 263.109,443.217 272.5,439.5 Z"/></g>
<g><path style="opacity:1" fill="#908f91" d="M 444.5,450.5 C 445.751,452.382 446.918,454.382 448,456.5C 448.49,457.793 448.657,459.127 448.5,460.5C 446.103,457.691 444.77,454.358 444.5,450.5 Z"/></g>
<g><path style="opacity:1" fill="#f7f8f9" d="M 385.5,456.5 C 386.419,459.089 388.086,461.089 390.5,462.5C 391.08,464.749 392.413,466.415 394.5,467.5C 396.348,469.733 398.015,472.066 399.5,474.5C 399.93,479.359 401.93,483.359 405.5,486.5C 405.528,489.916 406.528,492.916 408.5,495.5C 408.5,495.833 408.5,496.167 408.5,496.5C 408.5,497.833 408.5,499.167 408.5,500.5C 408.5,502.5 408.5,504.5 408.5,506.5C 388.822,506.833 369.155,506.5 349.5,505.5C 351.038,503.757 352.038,501.757 352.5,499.5C 355.449,495.996 357.449,491.996 358.5,487.5C 360.9,483.886 363.4,480.22 366,476.5C 366.49,475.207 366.657,473.873 366.5,472.5C 366.427,470.973 367.094,469.973 368.5,469.5C 370.326,467.853 371.66,465.853 372.5,463.5C 372.738,461.596 373.738,460.262 375.5,459.5C 377.587,458.415 378.92,456.749 379.5,454.5C 382.467,452.734 384.467,453.401 385.5,456.5 Z"/></g>
<g><path style="opacity:1" fill="#aaa9ab" d="M 666.5,451.5 C 665.596,450.791 665.263,449.791 665.5,448.5C 663.217,448.608 661.217,449.441 659.5,451C 653.965,456.703 648.298,462.203 642.5,467.5C 647.106,461.556 652.106,455.89 657.5,450.5C 659.792,449.376 661.958,448.043 664,446.5C 666.157,447.385 666.99,449.052 666.5,451.5 Z"/></g>
<g><path style="opacity:1" fill="#959999" d="M 379.5,454.5 C 378.92,456.749 377.587,458.415 375.5,459.5C 376.08,457.251 377.413,455.585 379.5,454.5 Z"/></g>
<g><path style="opacity:1" fill="#9a9a9d" d="M 385.5,456.5 C 387.914,457.911 389.581,459.911 390.5,462.5C 388.086,461.089 386.419,459.089 385.5,456.5 Z"/></g>
<g><path style="opacity:1" fill="#7d7d7b" d="M 329.5,462.5 C 329.155,465.198 327.822,467.198 325.5,468.5C 326.34,466.147 327.674,464.147 329.5,462.5 Z"/></g>
<g><path style="opacity:1" fill="#8d9093" d="M 372.5,463.5 C 371.66,465.853 370.326,467.853 368.5,469.5C 368.845,466.802 370.178,464.802 372.5,463.5 Z"/></g>
<g><path style="opacity:1" fill="#99979a" d="M 390.5,462.5 C 392.587,463.585 393.92,465.251 394.5,467.5C 392.413,466.415 391.08,464.749 390.5,462.5 Z"/></g>
<g><path style="opacity:1" fill="#d4e0da" d="M 98.5,430.5 C 98.8333,430.5 99.1667,430.5 99.5,430.5C 97.9116,464.858 98.2449,499.191 100.5,533.5C 98.7396,528.447 98.073,523.114 98.5,517.5C 97.5798,492.515 97.2465,467.515 97.5,442.5C 98.2721,438.548 98.6054,434.548 98.5,430.5 Z"/></g>
<g><path style="opacity:1" fill="#9d9d9f" d="M 249.5,457.5 C 246.871,461.463 243.871,465.129 240.5,468.5C 242.372,463.957 245.372,460.29 249.5,457.5 Z"/></g>
<g><path style="opacity:1" fill="#939393" d="M 492.5,465.5 C 494.199,467.566 495.532,469.9 496.5,472.5C 494.058,470.879 492.725,468.546 492.5,465.5 Z"/></g>
<g><path style="opacity:1" fill="#949296" d="M 451.5,468.5 C 454.579,472.702 456.913,477.368 458.5,482.5C 455.421,478.298 453.087,473.632 451.5,468.5 Z"/></g>
<g><path style="opacity:1" fill="#656564" d="M 534.5,457.5 C 533.588,459.595 532.421,461.595 531,463.5C 526.22,468.109 521.72,472.776 517.5,477.5C 522.446,470.221 528.113,463.554 534.5,457.5 Z"/></g>
<g><path style="opacity:1" fill="#888f8d" d="M 717.5,473.5 C 719.245,475.033 720.245,477.033 720.5,479.5C 718.755,477.967 717.755,475.967 717.5,473.5 Z"/></g>
<g><path style="opacity:1" fill="#939694" d="M 235.5,475.5 C 235.346,477.97 234.346,479.97 232.5,481.5C 232.654,479.03 233.654,477.03 235.5,475.5 Z"/></g>
<g><path style="opacity:1" fill="#918f8f" d="M 799.5,477.5 C 801.915,480.34 803.248,483.673 803.5,487.5C 801.085,484.66 799.752,481.327 799.5,477.5 Z"/></g>
<g><path style="opacity:1" fill="#949494" d="M 676.5,477.5 C 678.655,479.617 679.655,482.284 679.5,485.5C 677.62,483.245 676.62,480.578 676.5,477.5 Z"/></g>
<g><path style="opacity:1" fill="#97999d" d="M 366.5,472.5 C 366.657,473.873 366.49,475.207 366,476.5C 363.4,480.22 360.9,483.886 358.5,487.5C 360.043,481.844 362.71,476.844 366.5,472.5 Z"/></g>
<g><path style="opacity:1" fill="#7e7d7e" d="M 399.5,474.5 C 402.023,478.213 404.023,482.213 405.5,486.5C 401.93,483.359 399.93,479.359 399.5,474.5 Z"/></g>
<g><path style="opacity:1" fill="#6b6b6b" d="M 405.5,486.5 C 407.31,489.145 408.31,492.145 408.5,495.5C 406.528,492.916 405.528,489.916 405.5,486.5 Z"/></g>
<g><path style="opacity:1" fill="#929193" d="M 446.5,491.5 C 449.138,495.321 451.138,499.488 452.5,504C 455.146,504.497 457.813,504.664 460.5,504.5C 457.696,505.638 454.696,505.805 451.5,505C 449.132,500.775 447.465,496.275 446.5,491.5 Z"/></g>
<g><path style="opacity:1" fill="#969a9b" d="M 352.5,499.5 C 352.038,501.757 351.038,503.757 349.5,505.5C 369.155,506.5 388.822,506.833 408.5,506.5C 408.5,504.5 408.5,502.5 408.5,500.5C 409.468,502.607 409.802,504.941 409.5,507.5C 389.5,507.5 369.5,507.5 349.5,507.5C 348.331,504.241 349.331,501.574 352.5,499.5 Z"/></g>
<g><path style="opacity:1" fill="#a8a8a9" d="M 631.5,486.5 C 629.714,493.752 628.214,501.086 627,508.5C 626.213,519.213 626.38,529.88 627.5,540.5C 626.883,540.389 626.383,540.056 626,539.5C 622.834,521.169 624.667,503.502 631.5,486.5 Z"/></g>
<g><path style="opacity:1" fill="#809087" d="M 97.5,442.5 C 97.2465,467.515 97.5798,492.515 98.5,517.5C 97.6981,516.048 97.1981,514.382 97,512.5C 96.1703,488.996 96.3369,465.663 97.5,442.5 Z"/></g>
<g><path style="opacity:1" fill="#403f42" d="M 188.5,500.5 C 187.206,516.499 187.206,532.499 188.5,548.5C 187.005,540.889 186.338,533.056 186.5,525C 186.36,516.616 187.026,508.449 188.5,500.5 Z"/></g>
<g><path style="opacity:1" fill="#aaa9af" d="M 690.5,512.5 C 691.972,516.919 692.638,521.586 692.5,526.5C 691.028,522.081 690.362,517.414 690.5,512.5 Z"/></g>
<g><path style="opacity:1" fill="#7e7e7e" d="M 807.5,499.5 C 808.222,499.918 808.722,500.584 809,501.5C 811.1,516.021 810.933,530.354 808.5,544.5C 809.632,529.472 809.298,514.472 807.5,499.5 Z"/></g>
<g><path style="opacity:1" fill="#0a0e0e" d="M 846.5,537.5 C 845.172,532.881 844.506,527.881 844.5,522.5C 844.667,517.5 844.833,512.5 845,507.5C 846.473,517.335 846.973,527.335 846.5,537.5 Z"/></g>
<g><path style="opacity:1" fill="#6d6e70" d="M 228.5,491.5 C 227.575,497.256 226.409,502.922 225,508.5C 223.495,524.11 224.662,539.443 228.5,554.5C 227.768,553.192 226.934,551.858 226,550.5C 223.674,535.979 222.841,521.313 223.5,506.5C 224.894,501.428 226.561,496.428 228.5,491.5 Z"/></g>
<g><path style="opacity:1" fill="#8c8c8c" d="M 696.5,537.5 C 698.199,539.566 699.532,541.9 700.5,544.5C 698.058,542.879 696.725,540.546 696.5,537.5 Z"/></g>
<g><path style="opacity:1" fill="#818283" d="M 345.5,543.5 C 367.007,543.169 388.34,543.503 409.5,544.5C 386.327,544.169 363.327,544.502 340.5,545.5C 337.47,548.014 334.137,550.014 330.5,551.5C 333.429,549.018 336.429,546.518 339.5,544C 341.473,543.505 343.473,543.338 345.5,543.5 Z"/></g>
<g><path style="opacity:1" fill="#d2d2d2" d="M 340.5,545.5 C 363.327,544.502 386.327,544.169 409.5,544.5C 410.833,545.833 410.833,547.167 409.5,548.5C 409.5,547.5 409.5,546.5 409.5,545.5C 386.5,545.5 363.5,545.5 340.5,545.5 Z"/></g>
<g><path style="opacity:1" fill="#22292b" d="M 152.5,273.5 C 152.241,276.272 151.241,278.605 149.5,280.5C 147.755,282.033 146.755,284.033 146.5,286.5C 143.756,289.646 141.756,293.313 140.5,297.5C 137.939,301.158 135.939,305.158 134.5,309.5C 129.815,316.541 126.482,324.208 124.5,332.5C 121.23,337.607 118.897,343.274 117.5,349.5C 117.5,349.833 117.5,350.167 117.5,350.5C 115.926,352.102 115.259,354.102 115.5,356.5C 113.057,362.606 111.39,368.939 110.5,375.5C 108.926,377.102 108.259,379.102 108.5,381.5C 107.699,383.042 107.366,384.708 107.5,386.5C 106.778,386.918 106.278,387.584 106,388.5C 105.452,392.17 104.952,395.837 104.5,399.5C 103.469,401.961 102.802,404.627 102.5,407.5C 100.405,414.914 99.072,422.58 98.5,430.5C 98.6054,434.548 98.2721,438.548 97.5,442.5C 96.3369,465.663 96.1703,488.996 97,512.5C 97.1981,514.382 97.6981,516.048 98.5,517.5C 98.073,523.114 98.7396,528.447 100.5,533.5C 100.425,537.981 101.092,542.314 102.5,546.5C 102.835,551.874 104.168,556.874 106.5,561.5C 106.87,565.233 107.537,568.899 108.5,572.5C 108.12,574.698 108.787,576.365 110.5,577.5C 112.212,583.39 113.545,589.39 114.5,595.5C 112.908,594.398 112.075,595.065 112,597.5C 75.4945,483.885 88.1612,376.219 150,274.5C 150.671,273.748 151.504,273.414 152.5,273.5 Z"/></g>
<g><path style="opacity:1" fill="#a5a8a9" d="M 102.5,546.5 C 104.358,551.255 105.691,556.255 106.5,561.5C 104.168,556.874 102.835,551.874 102.5,546.5 Z"/></g>
<g><path style="opacity:1" fill="#7d7d7d" d="M 709.5,552.5 C 715.13,553.292 720.797,553.625 726.5,553.5C 720.65,556.394 714.984,556.061 709.5,552.5 Z"/></g>
<g><path style="opacity:1" fill="#505050" d="M 301.5,552.5 C 307.588,554.365 313.922,555.031 320.5,554.5C 319.129,555.787 317.295,556.453 315,556.5C 311.131,556.272 307.298,555.772 303.5,555C 302.619,554.292 301.953,553.458 301.5,552.5 Z"/></g>
<g><path style="opacity:1" fill="#8d8d8f" d="M 228.5,554.5 C 230.241,556.395 231.241,558.728 231.5,561.5C 229.759,559.605 228.759,557.272 228.5,554.5 Z"/></g>
<g><path style="opacity:1" fill="#515254" d="M 511.5,556.5 C 512.504,565.152 512.504,573.819 511.5,582.5C 510.167,573.833 510.167,565.167 511.5,556.5 Z"/></g>
<g><path style="opacity:1" fill="#585858" d="M 807.5,551.5 C 806.469,557.267 804.469,562.601 801.5,567.5C 802.531,561.733 804.531,556.399 807.5,551.5 Z"/></g>
<g><path style="opacity:1" fill="#666668" d="M 231.5,563.5 C 234.241,566.686 236.241,570.353 237.5,574.5C 236.542,574.047 235.708,573.381 235,572.5C 233.346,569.707 232.179,566.707 231.5,563.5 Z"/></g>
<g><path style="opacity:1" fill="#929194" d="M 633.5,563.5 C 635.245,565.033 636.245,567.033 636.5,569.5C 634.755,567.967 633.755,565.967 633.5,563.5 Z"/></g>
<g><path style="opacity:1" fill="#8d9496" d="M 108.5,572.5 C 110.213,573.635 110.88,575.302 110.5,577.5C 108.787,576.365 108.12,574.698 108.5,572.5 Z"/></g>
<g><path style="opacity:1" fill="#787777" d="M 400.5,571.5 C 400.299,575.13 398.632,577.797 395.5,579.5C 397.172,576.787 398.838,574.12 400.5,571.5 Z"/></g>
<g><path style="opacity:1" fill="#212121" d="M 538.5,510.5 C 541.831,520.682 540.665,530.348 535,539.5C 531.535,543.967 527.702,548.133 523.5,552C 519.797,554.354 515.797,555.854 511.5,556.5C 510.167,565.167 510.167,573.833 511.5,582.5C 524.622,582.209 532.622,588.376 535.5,601C 531.113,615.206 521.447,620.706 506.5,617.5C 495.78,618.347 485.447,616.847 475.5,613C 469.613,606.719 466.28,599.219 465.5,590.5C 465.529,588.971 466.196,587.804 467.5,587C 470.991,585.423 474.491,583.923 478,582.5C 478.934,573.381 478.267,564.381 476,555.5C 470.964,553.328 466.964,549.995 464,545.5C 458.523,544.495 453.023,544.495 447.5,545.5C 446.624,545.631 445.957,545.298 445.5,544.5C 446.729,543.719 448.062,543.219 449.5,543C 462.796,543.273 476.129,542.939 489.5,542C 491.377,538.506 492.044,534.673 491.5,530.5C 493.167,530.5 494.833,530.5 496.5,530.5C 496.5,529.167 496.5,527.833 496.5,526.5C 499.167,526.5 501.833,526.5 504.5,526.5C 504.5,528.833 504.5,531.167 504.5,533.5C 508.5,533.5 512.5,533.5 516.5,533.5C 517.167,528.833 517.833,524.167 518.5,519.5C 520.833,519.5 523.167,519.5 525.5,519.5C 525.5,517.167 525.5,514.833 525.5,512.5C 527.527,512.662 529.527,512.495 531.5,512C 532.088,508.985 533.755,506.818 536.5,505.5C 537.17,507.291 537.837,508.958 538.5,510.5 Z"/></g>
<g><path style="opacity:1" fill="#828281" d="M 789.5,585.5 C 788.581,588.089 786.914,590.089 784.5,591.5C 785.419,588.911 787.086,586.911 789.5,585.5 Z"/></g>
<g><path style="opacity:1" fill="#222222" d="M 191.5,486.5 C 192.649,486.791 193.316,487.624 193.5,489C 192.37,492.521 192.37,496.021 193.5,499.5C 196.084,498.607 198.751,498.274 201.5,498.5C 201.5,503.167 201.5,507.833 201.5,512.5C 204.167,512.5 206.833,512.5 209.5,512.5C 210.003,529.821 210.837,529.821 212,512.5C 213,511.167 214,511.167 215,512.5C 214.868,522.082 215.034,531.748 215.5,541.5C 217.5,541.5 219.5,541.5 221.5,541.5C 221.333,529.495 221.5,517.495 222,505.5C 222.383,506.056 222.883,506.389 223.5,506.5C 222.841,521.313 223.674,535.979 226,550.5C 226.934,551.858 227.768,553.192 228.5,554.5C 228.759,557.272 229.759,559.605 231.5,561.5C 231.5,562.167 231.5,562.833 231.5,563.5C 232.179,566.707 233.346,569.707 235,572.5C 235.708,573.381 236.542,574.047 237.5,574.5C 242.61,582.64 248.61,590.307 255.5,597.5C 256.911,599.914 258.911,601.581 261.5,602.5C 263.913,604.887 266.58,607.054 269.5,609C 274.217,610.587 278.55,612.754 282.5,615.5C 288.4,618.303 294.733,619.637 301.5,619.5C 303.099,619.232 304.432,619.566 305.5,620.5C 314.821,623.015 324.154,623.015 333.5,620.5C 336.518,620.665 339.518,620.498 342.5,620C 345.099,618.205 347.766,616.705 350.5,615.5C 351.167,615.5 351.833,615.5 352.5,615.5C 354.674,615.25 356.341,614.25 357.5,612.5C 358.167,612.5 358.833,612.5 359.5,612.5C 361.137,611.782 362.803,611.616 364.5,612C 362.024,614.571 359.024,616.071 355.5,616.5C 355.147,618.635 355.98,619.968 358,620.5C 362.044,620.354 366.21,620.02 370.5,619.5C 370.5,621.5 370.5,623.5 370.5,625.5C 375.167,625.833 379.833,626.167 384.5,626.5C 385.233,631.636 383.566,635.636 379.5,638.5C 379.833,638.833 380.167,639.167 380.5,639.5C 382.5,638.5 384.5,637.5 386.5,636.5C 387.298,636.957 387.631,637.624 387.5,638.5C 357.828,657.313 325.495,663.813 290.5,658C 246.12,646.627 214.953,619.793 197,577.5C 192.844,568.216 190.01,558.549 188.5,548.5C 187.206,532.499 187.206,516.499 188.5,500.5C 188.99,495.713 189.99,491.047 191.5,486.5 Z"/></g>
<g><path style="opacity:1" fill="#8e8e8e" d="M 255.5,597.5 C 258.089,598.419 260.089,600.086 261.5,602.5C 258.911,601.581 256.911,599.914 255.5,597.5 Z"/></g>
<g><path style="opacity:1" fill="#646464" d="M 395.5,579.5 C 390.451,589.603 383.117,597.603 373.5,603.5C 376.832,599.336 380.665,595.669 385,592.5C 388.04,587.731 391.54,583.397 395.5,579.5 Z"/></g>
<g><path style="opacity:1" fill="#6c6c6c" d="M 777.5,598.5 C 775.431,601.573 772.764,603.906 769.5,605.5C 771.569,602.427 774.236,600.094 777.5,598.5 Z"/></g>
<g><path style="opacity:1" fill="#8e8d8f" d="M 665.5,603.5 C 667.749,604.08 669.415,605.413 670.5,607.5C 668.251,606.92 666.585,605.587 665.5,603.5 Z"/></g>
<g><path style="opacity:1" fill="#939395" d="M 670.5,607.5 C 673.947,608.083 676.947,609.416 679.5,611.5C 678.127,611.657 676.793,611.49 675.5,611C 673.569,610.098 671.903,608.931 670.5,607.5 Z"/></g>
<g><path style="opacity:1" fill="#494a4a" d="M 769.5,605.5 C 768.77,606.712 767.77,607.712 766.5,608.5C 766.709,609.086 767.043,609.586 767.5,610C 765.5,610.333 763.5,610.667 761.5,611C 758.023,613.978 754.023,615.811 749.5,616.5C 756.086,612.846 762.752,609.179 769.5,605.5 Z"/></g>
<g><path style="opacity:1" fill="#848686" d="M 357.5,612.5 C 356.341,614.25 354.674,615.25 352.5,615.5C 353.486,613.592 355.152,612.592 357.5,612.5 Z"/></g>
<g><path style="opacity:1" fill="#aab0af" d="M 282.5,615.5 C 288.907,616.651 295.241,617.984 301.5,619.5C 294.733,619.637 288.4,618.303 282.5,615.5 Z"/></g>
<g><path style="opacity:1" fill="#545354" d="M 350.5,615.5 C 347.766,616.705 345.099,618.205 342.5,620C 339.518,620.498 336.518,620.665 333.5,620.5C 339.153,619.096 344.82,617.429 350.5,615.5 Z"/></g>
<g><path style="opacity:1" fill="#9da3a1" d="M 305.5,620.5 C 314.833,620.5 324.167,620.5 333.5,620.5C 324.154,623.015 314.821,623.015 305.5,620.5 Z"/></g>
<g><path style="opacity:1" fill="#868b89" d="M 704.5,619.5 C 715.155,620.701 725.822,620.701 736.5,619.5C 735.391,620.29 734.058,620.79 732.5,621C 724.167,621.667 715.833,621.667 707.5,621C 706.263,620.768 705.263,620.268 704.5,619.5 Z"/></g>
<g><path style="opacity:1" fill="#8d9294" d="M 124.5,621.5 C 126.919,625.064 128.586,629.064 129.5,633.5C 127.081,629.936 125.414,625.936 124.5,621.5 Z"/></g>
<g><path style="opacity:1" fill="#293031" d="M 114.5,595.5 C 118.018,604.046 121.351,612.713 124.5,621.5C 125.414,625.936 127.081,629.936 129.5,633.5C 130.083,636.947 131.416,639.947 133.5,642.5C 136.122,646.748 138.455,651.081 140.5,655.5C 140.5,656.167 140.5,656.833 140.5,657.5C 139.504,657.586 138.671,657.252 138,656.5C 129.066,641.125 121.566,624.958 115.5,608C 115.911,606.856 116.244,605.689 116.5,604.5C 115.414,601.58 114.748,598.58 114.5,595.5 Z"/></g>
<g><path style="opacity:1" fill="#8c9192" d="M 129.5,633.5 C 130.931,634.903 132.098,636.569 133,638.5C 133.49,639.793 133.657,641.127 133.5,642.5C 131.416,639.947 130.083,636.947 129.5,633.5 Z"/></g>
<g><path style="opacity:1" fill="#3d3d3d" d="M 752.5,654.5 C 747.755,656.166 742.755,657.333 737.5,658C 731.147,658.293 724.813,658.793 718.5,659.5C 710.598,659.121 702.932,658.121 695.5,656.5C 714.579,658.088 733.579,657.422 752.5,654.5 Z"/></g>
<g><path style="opacity:1" fill="#737a7c" d="M 140.5,655.5 C 142.536,658.579 144.202,661.912 145.5,665.5C 143.103,663.338 141.436,660.671 140.5,657.5C 140.5,656.833 140.5,656.167 140.5,655.5 Z"/></g>
<g><path style="opacity:1" fill="#282f30" d="M 150.5,674.5 C 162.319,692.33 175.319,709.33 189.5,725.5C 186.215,725.731 183.715,724.397 182,721.5C 173.235,710.091 164.568,698.757 156,687.5C 154.773,684.269 153.106,681.269 151,678.5C 150.51,677.207 150.343,675.873 150.5,674.5 Z"/></g>
<g><path style="opacity:1" fill="#aeb5b4" d="M 216.5,752.5 C 220.436,754.766 223.769,757.766 226.5,761.5C 222.564,759.234 219.231,756.234 216.5,752.5 Z"/></g>
<g><path style="opacity:1" fill="#212a2b" d="M 189.5,725.5 C 198.14,734.806 207.14,743.806 216.5,752.5C 219.231,756.234 222.564,759.234 226.5,761.5C 243.224,776.83 261.224,790.164 280.5,801.5C 282.566,803.199 284.9,804.532 287.5,805.5C 290.723,808.247 294.389,810.247 298.5,811.5C 303.542,815.021 308.875,818.021 314.5,820.5C 312.473,820.662 310.473,820.495 308.5,820C 264.178,797.995 225.345,768.828 192,732.5C 191.616,729.94 190.783,727.606 189.5,725.5 Z"/></g>
<g><path style="opacity:1" fill="#909a9a" d="M 280.5,801.5 C 283.546,801.725 285.879,803.058 287.5,805.5C 284.9,804.532 282.566,803.199 280.5,801.5 Z"/></g>
<g><path style="opacity:1" fill="#a5afaf" d="M 287.5,805.5 C 291.884,806.192 295.55,808.192 298.5,811.5C 294.389,810.247 290.723,808.247 287.5,805.5 Z"/></g>
<g><path style="opacity:1" fill="#aab9b9" d="M 298.5,811.5 C 304.845,814.007 311.178,816.507 317.5,819C 319.319,819.74 320.652,820.907 321.5,822.5C 319.106,821.985 316.772,821.319 314.5,820.5C 308.875,818.021 303.542,815.021 298.5,811.5 Z"/></g>
<g><path style="opacity:1" fill="#7c8f95" d="M 321.5,822.5 C 324.1,823.468 326.434,824.801 328.5,826.5C 325.454,826.275 323.121,824.942 321.5,822.5 Z"/></g>
<g><path style="opacity:1" fill="#95a4aa" d="M 328.5,826.5 C 335.297,827.569 341.297,830.236 346.5,834.5C 341.511,832.674 336.511,830.841 331.5,829C 330.058,828.623 329.058,827.79 328.5,826.5 Z"/></g>
<g><path style="opacity:1" fill="#909a9d" d="M 347.5,834.5 C 350.855,834.69 353.855,835.69 356.5,837.5C 353.084,837.472 350.084,836.472 347.5,834.5 Z"/></g>
<g><path style="opacity:1" fill="#374545" d="M 356.5,837.5 C 366.687,841.628 377.02,845.295 387.5,848.5C 376.134,847.187 365.801,843.52 356.5,837.5 Z"/></g>
<g><path style="opacity:1" fill="#b0bdbb" d="M 391.5,848.5 C 394.187,848.336 396.854,848.503 399.5,849C 401.32,849.2 402.653,850.034 403.5,851.5C 401.435,851.483 399.435,851.15 397.5,850.5C 395.214,850.405 393.214,849.738 391.5,848.5 Z"/></g>
<g><path style="opacity:1" fill="#6d7a7c" d="M 397.5,850.5 C 399.435,851.15 401.435,851.483 403.5,851.5C 415.706,853.889 427.706,856.555 439.5,859.5C 425.684,857.864 412.017,855.364 398.5,852C 397.944,851.617 397.611,851.117 397.5,850.5 Z"/></g>
<g><path style="opacity:1" fill="#bdc4c3" d="M 450.5,860.5 C 478.834,861.809 507.168,861.809 535.5,860.5C 507.166,864.5 478.833,864.5 450.5,860.5 Z"/></g>
</svg>
