<?xml version="1.0" encoding="UTF-8"?>
<!DOCTYPE svg PUBLIC "-//W3C//DTD SVG 1.1//EN" "http://www.w3.org/Graphics/SVG/1.1/DTD/svg11.dtd">
<svg xmlns="http://www.w3.org/2000/svg" version="1.1" width="992px" height="1291px" style="shape-rendering:geometricPrecision; text-rendering:geometricPrecision; image-rendering:optimizeQuality; fill-rule:evenodd; clip-rule:evenodd" xmlns:xlink="http://www.w3.org/1999/xlink">
<g><path style="opacity:0.995" fill="#000000" d="M 462.5,-0.5 C 484.5,-0.5 506.5,-0.5 528.5,-0.5C 685.444,12.4792 810.944,81.4792 905,206.5C 955.545,278.963 984.378,359.296 991.5,447.5C 991.5,468.167 991.5,488.833 991.5,509.5C 985.683,585.423 963.183,656.09 924,721.5C 806.752,894.994 689.752,1068.66 573,1242.5C 559.996,1269.26 538.829,1285.26 509.5,1290.5C 499.833,1290.5 490.167,1290.5 480.5,1290.5C 454.782,1285.56 434.615,1272.22 420,1250.5C 363.411,1158.98 305.078,1068.64 245,979.5C 203,916.833 161,854.167 119,791.5C 48.213,710.892 8.37971,616.892 -0.5,509.5C -0.5,488.833 -0.5,468.167 -0.5,447.5C 15.0179,290.232 88.0179,167.732 218.5,80C 293.059,32.6469 374.393,5.81357 462.5,-0.5 Z"/></g>
<g><path style="opacity:1" fill="#2f3b39" d="M 477.5,89.5 C 469.335,90.4202 461.002,91.0868 452.5,91.5C 453.952,90.6981 455.618,90.1981 457.5,90C 464.158,89.5004 470.825,89.3337 477.5,89.5 Z"/></g>
<g><path style="opacity:1" fill="#b3bcbb" d="M 477.5,89.5 C 491.837,89.3334 506.171,89.5001 520.5,90C 528.71,90.2418 536.71,91.0751 544.5,92.5C 513.834,91.1868 483.168,91.1868 452.5,92.5C 452.5,92.1667 452.5,91.8333 452.5,91.5C 461.002,91.0868 469.335,90.4202 477.5,89.5 Z"/></g>
<g><path style="opacity:0.998" fill="#fcfdfd" d="M 544.5,92.5 C 660.35,107.325 753.517,160.992 824,253.5C 901.061,364.606 916.728,483.939 871,611.5C 823.811,724.688 742.311,801.521 626.5,842C 596.849,851.563 566.516,857.73 535.5,860.5C 507.168,861.809 478.834,861.809 450.5,860.5C 446.881,859.756 443.215,859.423 439.5,859.5C 427.706,856.555 415.706,853.889 403.5,851.5C 402.653,850.034 401.32,849.2 399.5,849C 396.854,848.503 394.187,848.336 391.5,848.5C 390.167,848.5 388.833,848.5 387.5,848.5C 377.02,845.295 366.687,841.628 356.5,837.5C 353.855,835.69 350.855,834.69 347.5,834.5C 347.167,834.5 346.833,834.5 346.5,834.5C 341.297,830.236 335.297,827.569 328.5,826.5C 326.434,824.801 324.1,823.468 321.5,822.5C 320.652,820.907 319.319,819.74 317.5,819C 311.178,816.507 304.845,814.007 298.5,811.5C 295.55,808.192 291.884,806.192 287.5,805.5C 285.879,803.058 283.546,801.725 280.5,801.5C 246.732,780.772 216.399,755.439 189.5,725.5C 175.319,709.33 162.319,692.33 150.5,674.5C 149.389,671.144 147.723,668.144 145.5,665.5C 144.202,661.912 142.536,658.579 140.5,655.5C 138.455,651.081 136.122,646.748 133.5,642.5C 133.657,641.127 133.49,639.793 133,638.5C 132.098,636.569 130.931,634.903 129.5,633.5C 128.586,629.064 126.919,625.064 124.5,621.5C 123.12,618.089 121.786,614.756 120.5,611.5C 119.068,605.859 117.068,600.525 114.5,595.5C 113.545,589.39 112.212,583.39 110.5,577.5C 110.88,575.302 110.213,573.635 108.5,572.5C 107.093,567.939 106.093,563.272 105.5,558.5C 105.342,554.159 104.342,550.159 102.5,546.5C 101.092,542.314 100.425,537.981 100.5,533.5C 97.7396,503.251 96.7396,472.917 97.5,442.5C 98.2721,438.548 98.6054,434.548 98.5,430.5C 99.8915,426.014 101.058,421.347 102,416.5C 102.498,413.518 102.665,410.518 102.5,407.5C 102.802,404.627 103.469,401.961 104.5,399.5C 106.237,395.458 107.237,391.124 107.5,386.5C 107.366,384.708 107.699,383.042 108.5,381.5C 110.074,379.898 110.741,377.898 110.5,375.5C 111.39,368.939 113.057,362.606 115.5,356.5C 117.074,354.898 117.741,352.898 117.5,350.5C 117.5,350.167 117.5,349.833 117.5,349.5C 118.117,349.389 118.617,349.056 119,348.5C 120.953,343.17 122.787,337.837 124.5,332.5C 128.585,325.313 131.919,317.646 134.5,309.5C 137.548,306.07 139.548,302.07 140.5,297.5C 141.756,293.313 143.756,289.646 146.5,286.5C 148.245,284.967 149.245,282.967 149.5,280.5C 151.241,278.605 152.241,276.272 152.5,273.5C 156.511,268.132 160.511,262.798 164.5,257.5C 166.822,256.198 168.155,254.198 168.5,251.5C 168.328,250.508 168.662,249.842 169.5,249.5C 176.405,241.358 183.071,233.025 189.5,224.5C 193.898,221.105 197.564,217.105 200.5,212.5C 204.167,209.5 207.5,206.167 210.5,202.5C 248.131,164.66 292.131,136.327 342.5,117.5C 350.384,115.041 358.384,112.874 366.5,111C 367.381,110.292 368.047,109.458 368.5,108.5C 369.391,107.89 370.391,107.557 371.5,107.5C 380.986,106.552 389.986,104.218 398.5,100.5C 407.109,98.889 415.776,97.5557 424.5,96.5C 433.076,95.9133 441.41,94.58 449.5,92.5C 450.5,92.5 451.5,92.5 452.5,92.5C 483.168,91.1868 513.834,91.1868 544.5,92.5 Z"/></g>
<g><path style="opacity:1" fill="#c3c8c9" d="M 449.5,92.5 C 441.41,94.58 433.076,95.9133 424.5,96.5C 432.555,94.2139 440.888,92.8805 449.5,92.5 Z"/></g>
<g><path style="opacity:1" fill="#636c6c" d="M 452.5,91.5 C 452.5,91.8333 452.5,92.1667 452.5,92.5C 451.5,92.5 450.5,92.5 449.5,92.5C 440.888,92.8805 432.555,94.2139 424.5,96.5C 415.776,97.5557 407.109,98.889 398.5,100.5C 416.017,95.3582 434.017,92.3582 452.5,91.5 Z"/></g>
<g><path style="opacity:1" fill="#9faead" d="M 398.5,100.5 C 389.986,104.218 380.986,106.552 371.5,107.5C 380.185,104.291 389.185,101.958 398.5,100.5 Z"/></g>
<g><path style="opacity:1" fill="#a9b5b3" d="M 368.5,108.5 C 368.047,109.458 367.381,110.292 366.5,111C 358.384,112.874 350.384,115.041 342.5,117.5C 350.702,113.411 359.368,110.411 368.5,108.5 Z"/></g>
<g><path style="opacity:1" fill="#bec3c3" d="M 541.5,203.5 C 529.5,203.5 517.5,203.5 505.5,203.5C 474.601,202.182 443.601,202.849 412.5,205.5C 415.258,204.239 418.258,203.406 421.5,203C 443.349,202.549 465.182,201.715 487,200.5C 505.361,200.825 523.528,201.825 541.5,203.5 Z"/></g>
<g><path style="opacity:1" fill="#595d5e" d="M 505.5,203.5 C 492.323,203.171 479.323,203.505 466.5,204.5C 446.78,204.231 427.113,204.898 407.5,206.5C 407.5,206.167 407.5,205.833 407.5,205.5C 409.167,205.5 410.833,205.5 412.5,205.5C 443.601,202.849 474.601,202.182 505.5,203.5 Z"/></g>
<g><path style="opacity:1" fill="#313738" d="M 466.5,204.5 C 479.323,203.505 492.323,203.171 505.5,203.5C 517.5,203.5 529.5,203.5 541.5,203.5C 543.5,203.5 545.5,203.5 547.5,203.5C 550.833,204.167 554.167,204.833 557.5,205.5C 527.175,204.653 496.842,204.32 466.5,204.5 Z"/></g>
<g><path style="opacity:1" fill="#afb1b1" d="M 547.5,203.5 C 565.339,203.798 583.005,204.465 600.5,205.5C 586.167,205.5 571.833,205.5 557.5,205.5C 554.167,204.833 550.833,204.167 547.5,203.5 Z"/></g>
<g><path style="opacity:1" fill="#9a9d9e" d="M 407.5,205.5 C 407.5,205.833 407.5,206.167 407.5,206.5C 398.491,206.626 389.491,206.959 380.5,207.5C 380.918,206.778 381.584,206.278 382.5,206C 390.827,205.5 399.16,205.334 407.5,205.5 Z"/></g>
<g><path style="opacity:1" fill="#484e4f" d="M 407.5,206.5 C 396.661,207.654 385.661,208.654 374.5,209.5C 370.466,209.505 366.466,209.838 362.5,210.5C 362.918,209.778 363.584,209.278 364.5,209C 368.356,208.823 372.023,208.323 375.5,207.5C 377.167,207.5 378.833,207.5 380.5,207.5C 389.491,206.959 398.491,206.626 407.5,206.5 Z"/></g>
<g><path style="opacity:1" fill="#141d22" d="M 630.5,210.5 C 632.833,210.5 635.167,210.5 637.5,210.5C 642.294,209.903 646.627,210.57 650.5,212.5C 644.491,212.334 638.491,212.501 632.5,213C 625.465,213.997 618.465,215.497 611.5,217.5C 607.74,216.371 604.74,217.538 602.5,221C 604.415,222.836 606.748,224.002 609.5,224.5C 610.428,225.768 610.595,227.101 610,228.5C 609.138,230.087 608.471,231.754 608,233.5C 607.51,232.207 607.343,230.873 607.5,229.5C 538.851,228.35 470.184,228.183 401.5,229C 401.167,229.333 400.833,229.667 400.5,230C 414.163,230.5 427.829,230.667 441.5,230.5C 441.5,230.833 441.5,231.167 441.5,231.5C 441.167,231.5 440.833,231.5 440.5,231.5C 426.496,231.333 412.496,231.5 398.5,232C 397.016,232.662 395.683,233.496 394.5,234.5C 394.539,233.244 394.039,232.244 393,231.5C 387.017,238.722 384.017,247.055 384,256.5C 382.684,253.972 381.517,253.972 380.5,256.5C 381.393,259.084 381.726,261.751 381.5,264.5C 373.833,264.5 366.167,264.5 358.5,264.5C 358.5,253.167 358.5,241.833 358.5,230.5C 356.5,230.5 354.5,230.5 352.5,230.5C 352.183,227.428 352.516,224.428 353.5,221.5C 355.965,220.868 357.631,219.368 358.5,217C 361.956,215.014 365.622,213.514 369.5,212.5C 363.867,211.752 358.2,211.752 352.5,212.5C 355.656,211.566 358.989,210.899 362.5,210.5C 366.466,209.838 370.466,209.505 374.5,209.5C 373.391,210.29 372.058,210.79 370.5,211C 375,211.167 379.5,211.333 384,211.5C 411.459,210.915 438.792,209.915 466,208.5C 467.087,210.932 467.587,210.598 467.5,207.5C 478.776,206.948 489.943,207.615 501,209.5C 505.183,209.095 509.35,208.761 513.5,208.5C 514.551,209.885 515.884,210.885 517.5,211.5C 518.429,212.689 518.762,214.022 518.5,215.5C 521.167,215.5 523.833,215.5 526.5,215.5C 526.33,214.178 526.663,213.011 527.5,212C 529.577,211.808 531.577,211.308 533.5,210.5C 532.833,209.833 532.167,209.167 531.5,208.5C 542.849,207.81 554.182,208.31 565.5,210C 583.004,210.375 600.504,210.875 618,211.5C 622.347,211.499 626.514,211.166 630.5,210.5 Z"/></g>
<g><path style="opacity:1" fill="#121719" d="M 466.5,204.5 C 496.842,204.32 527.175,204.653 557.5,205.5C 571.994,206.331 586.661,206.831 601.5,207C 611.264,208.543 620.931,209.71 630.5,210.5C 626.514,211.166 622.347,211.499 618,211.5C 600.504,210.875 583.004,210.375 565.5,210C 554.182,208.31 542.849,207.81 531.5,208.5C 532.167,209.167 532.833,209.833 533.5,210.5C 531.577,211.308 529.577,211.808 527.5,212C 526.663,213.011 526.33,214.178 526.5,215.5C 523.833,215.5 521.167,215.5 518.5,215.5C 518.762,214.022 518.429,212.689 517.5,211.5C 515.884,210.885 514.551,209.885 513.5,208.5C 509.35,208.761 505.183,209.095 501,209.5C 489.943,207.615 478.776,206.948 467.5,207.5C 467.587,210.598 467.087,210.932 466,208.5C 438.792,209.915 411.459,210.915 384,211.5C 379.5,211.333 375,211.167 370.5,211C 372.058,210.79 373.391,210.29 374.5,209.5C 385.661,208.654 396.661,207.654 407.5,206.5C 427.113,204.898 446.78,204.231 466.5,204.5 Z"/></g>
<g><path style="opacity:1" fill="#a1aaac" d="M 607.5,206.5 C 617.379,206.251 627.046,206.917 636.5,208.5C 626.612,208.858 616.945,208.192 607.5,206.5 Z"/></g>
<g><path style="opacity:1" fill="#a7abae" d="M 375.5,207.5 C 372.023,208.323 368.356,208.823 364.5,209C 363.584,209.278 362.918,209.778 362.5,210.5C 358.989,210.899 355.656,211.566 352.5,212.5C 349.833,212.5 347.167,212.5 344.5,212.5C 346.277,211.4 348.277,210.566 350.5,210C 358.752,208.417 367.086,207.584 375.5,207.5 Z"/></g>
<g><path style="opacity:1" fill="#424a4c" d="M 557.5,205.5 C 571.833,205.5 586.167,205.5 600.5,205.5C 602.95,205.298 605.283,205.631 607.5,206.5C 616.945,208.192 626.612,208.858 636.5,208.5C 636.833,209.167 637.167,209.833 637.5,210.5C 635.167,210.5 632.833,210.5 630.5,210.5C 620.931,209.71 611.264,208.543 601.5,207C 586.661,206.831 571.994,206.331 557.5,205.5 Z"/></g>
<g><path style="opacity:1" fill="#8f969b" d="M 636.5,208.5 C 641.822,209.029 647.156,209.529 652.5,210C 654.183,211.286 655.849,212.453 657.5,213.5C 655.097,213.552 652.764,213.219 650.5,212.5C 646.627,210.57 642.294,209.903 637.5,210.5C 637.167,209.833 636.833,209.167 636.5,208.5 Z"/></g>
<g><path style="opacity:1" fill="#8d8f8f" d="M 210.5,202.5 C 207.5,206.167 204.167,209.5 200.5,212.5C 202.833,208.167 206.167,204.833 210.5,202.5 Z"/></g>
<g><path style="opacity:1" fill="#12191d" d="M 650.5,212.5 C 652.764,213.219 655.097,213.552 657.5,213.5C 662.722,214.778 667.389,217.111 671.5,220.5C 675.41,223.064 679.077,226.064 682.5,229.5C 684.58,231.573 686.246,233.907 687.5,236.5C 691.019,243.2 693.686,250.2 695.5,257.5C 695.5,267.167 695.5,276.833 695.5,286.5C 693.585,286.216 691.919,286.549 690.5,287.5C 677.511,286.834 664.511,286.5 651.5,286.5C 662.007,285.278 672.673,285.278 683.5,286.5C 685.167,286.333 686.833,286.167 688.5,286C 687.328,285.581 686.328,284.915 685.5,284C 669.16,283.36 652.827,283.526 636.5,284.5C 626.83,284.074 617.163,283.574 607.5,283C 606.743,280.056 606.077,277.056 605.5,274C 607.019,270.576 608.686,267.242 610.5,264C 610.164,262.97 609.497,262.47 608.5,262.5C 608.5,261.833 608.5,261.167 608.5,260.5C 609.401,259.71 610.068,258.71 610.5,257.5C 611.87,251.928 611.703,246.261 610,240.5C 609.329,239.748 608.496,239.414 607.5,239.5C 606.246,236.907 604.58,234.573 602.5,232.5C 602.389,231.883 602.056,231.383 601.5,231C 548.168,230.5 494.834,230.333 441.5,230.5C 427.829,230.667 414.163,230.5 400.5,230C 400.833,229.667 401.167,229.333 401.5,229C 470.184,228.183 538.851,228.35 607.5,229.5C 607.343,230.873 607.51,232.207 608,233.5C 608.471,231.754 609.138,230.087 610,228.5C 610.595,227.101 610.428,225.768 609.5,224.5C 606.748,224.002 604.415,222.836 602.5,221C 604.74,217.538 607.74,216.371 611.5,217.5C 618.465,215.497 625.465,213.997 632.5,213C 638.491,212.501 644.491,212.334 650.5,212.5 Z"/></g>
<g><path style="opacity:1" fill="#9ea1a4" d="M 339.5,214.5 C 328.711,218.248 320.044,224.914 313.5,234.5C 313.167,234.5 312.833,234.5 312.5,234.5C 318.498,223.678 327.498,217.012 339.5,214.5 Z"/></g>
<g><path style="opacity:1" fill="#9c9daa" d="M 671.5,220.5 C 676.626,221.618 680.293,224.618 682.5,229.5C 679.077,226.064 675.41,223.064 671.5,220.5 Z"/></g>
<g><path style="opacity:1" fill="#9d9f9e" d="M 200.5,212.5 C 197.564,217.105 193.898,221.105 189.5,224.5C 192.436,219.895 196.102,215.895 200.5,212.5 Z"/></g>
<g><path style="opacity:1" fill="#363f45" d="M 441.5,231.5 C 441.5,231.167 441.5,230.833 441.5,230.5C 494.834,230.333 548.168,230.5 601.5,231C 602.056,231.383 602.389,231.883 602.5,232.5C 548.875,231.509 495.209,231.175 441.5,231.5 Z"/></g>
<g><path style="opacity:1" fill="#5c636d" d="M 440.5,231.5 C 440.5,231.833 440.5,232.167 440.5,232.5C 439.167,232.5 437.833,232.5 436.5,232.5C 424.495,232.333 412.495,232.5 400.5,233C 399.944,233.383 399.611,233.883 399.5,234.5C 396.697,234.961 394.363,236.295 392.5,238.5C 392.733,236.938 393.4,235.605 394.5,234.5C 395.683,233.496 397.016,232.662 398.5,232C 412.496,231.5 426.496,231.333 440.5,231.5 Z"/></g>
<g><path style="opacity:1" fill="#6d736e" d="M 189.5,224.5 C 183.071,233.025 176.405,241.358 169.5,249.5C 174.968,240.245 181.634,231.912 189.5,224.5 Z"/></g>
<g><path style="opacity:1" fill="#a8afb7" d="M 436.5,232.5 C 424.316,233.246 411.982,233.913 399.5,234.5C 399.611,233.883 399.944,233.383 400.5,233C 412.495,232.5 424.495,232.333 436.5,232.5 Z"/></g>
<g><path style="opacity:1" fill="#9aa3a8" d="M 440.5,232.5 C 440.5,232.167 440.5,231.833 440.5,231.5C 440.833,231.5 441.167,231.5 441.5,231.5C 495.209,231.175 548.875,231.509 602.5,232.5C 604.58,234.573 606.246,236.907 607.5,239.5C 605.329,237.5 602.996,235.666 600.5,234C 547.174,232.753 493.841,232.253 440.5,232.5 Z"/></g>
<g><path style="opacity:1" fill="#fbfcfd" d="M 436.5,232.5 C 437.833,232.5 439.167,232.5 440.5,232.5C 493.841,232.253 547.174,232.753 600.5,234C 602.996,235.666 605.329,237.5 607.5,239.5C 607.328,240.492 607.662,241.158 608.5,241.5C 608.5,247.833 608.5,254.167 608.5,260.5C 606.123,262.228 604.456,264.561 603.5,267.5C 601.833,268.167 600.167,268.833 598.5,269.5C 558.167,269.5 517.833,269.5 477.5,269.5C 451.455,269.815 425.455,269.482 399.5,268.5C 397.167,265.5 394.5,262.833 391.5,260.5C 389.884,252.983 390.218,245.65 392.5,238.5C 394.363,236.295 396.697,234.961 399.5,234.5C 411.982,233.913 424.316,233.246 436.5,232.5 Z"/></g>
<g><path style="opacity:1" fill="#5f6062" d="M 312.5,234.5 C 312.833,234.5 313.167,234.5 313.5,234.5C 312.018,238.294 310.351,241.961 308.5,245.5C 309.004,241.5 310.337,237.834 312.5,234.5 Z"/></g>
<g><path style="opacity:1" fill="#929ca0" d="M 687.5,236.5 C 688.5,236.5 689.5,236.5 690.5,236.5C 692.107,242.38 694.273,248.047 697,253.5C 697.494,255.134 697.66,256.801 697.5,258.5C 697.5,259.833 697.5,261.167 697.5,262.5C 697.167,262.5 696.833,262.5 696.5,262.5C 696.784,260.585 696.451,258.919 695.5,257.5C 693.686,250.2 691.019,243.2 687.5,236.5 Z"/></g>
<g><path style="opacity:1" fill="#bec0c2" d="M 608.5,241.5 C 609.268,242.263 609.768,243.263 610,244.5C 610.499,248.821 610.666,253.154 610.5,257.5C 610.068,258.71 609.401,259.71 608.5,260.5C 608.5,254.167 608.5,247.833 608.5,241.5 Z"/></g>
<g><path style="opacity:1" fill="#515558" d="M 607.5,239.5 C 608.496,239.414 609.329,239.748 610,240.5C 611.703,246.261 611.87,251.928 610.5,257.5C 610.666,253.154 610.499,248.821 610,244.5C 609.768,243.263 609.268,242.263 608.5,241.5C 607.662,241.158 607.328,240.492 607.5,239.5 Z"/></g>
<g><path style="opacity:1" fill="#585b66" d="M 392.5,238.5 C 390.218,245.65 389.884,252.983 391.5,260.5C 389.824,259.817 389.157,258.483 389.5,256.5C 389.334,251.156 389.501,245.823 390,240.5C 390.708,239.619 391.542,238.953 392.5,238.5 Z"/></g>
<g><path style="opacity:1" fill="#8b8e89" d="M 168.5,251.5 C 168.155,254.198 166.822,256.198 164.5,257.5C 165.34,255.147 166.674,253.147 168.5,251.5 Z"/></g>
<g><path style="opacity:1" fill="#606568" d="M 391.5,260.5 C 394.5,262.833 397.167,265.5 399.5,268.5C 395.833,266.833 393.167,264.167 391.5,260.5 Z"/></g>
<g><path style="opacity:1" fill="#8f9197" d="M 608.5,260.5 C 608.5,261.167 608.5,261.833 608.5,262.5C 607.061,264.36 605.395,266.027 603.5,267.5C 604.456,264.561 606.123,262.228 608.5,260.5 Z"/></g>
<g><path style="opacity:1" fill="#050a0f" d="M 389.5,256.5 C 389.157,258.483 389.824,259.817 391.5,260.5C 393.167,264.167 395.833,266.833 399.5,268.5C 399.973,269.906 400.973,270.573 402.5,270.5C 467.661,272.205 532.994,272.705 598.5,272C 600.596,270.234 602.929,268.901 605.5,268C 607.16,266.512 608.16,264.679 608.5,262.5C 609.497,262.47 610.164,262.97 610.5,264C 608.686,267.242 607.019,270.576 605.5,274C 606.077,277.056 606.743,280.056 607.5,283C 617.163,283.574 626.83,284.074 636.5,284.5C 652.827,283.526 669.16,283.36 685.5,284C 686.328,284.915 687.328,285.581 688.5,286C 686.833,286.167 685.167,286.333 683.5,286.5C 672.673,285.278 662.007,285.278 651.5,286.5C 650.167,286.5 648.833,286.5 647.5,286.5C 614.669,285.429 582.002,285.429 549.5,286.5C 548.5,286.5 547.5,286.5 546.5,286.5C 510.837,287.133 475.17,287.466 439.5,287.5C 440.952,286.698 442.618,286.198 444.5,286C 486.625,286.434 528.625,284.434 570.5,280C 569.167,279.333 567.833,278.667 566.5,278C 555.32,277.729 544.153,277.229 533,276.5C 510.099,277.704 487.266,277.704 464.5,276.5C 450.315,277.595 435.982,278.595 421.5,279.5C 418.994,278.357 416.328,277.69 413.5,277.5C 411.545,277.724 409.879,278.391 408.5,279.5C 402.742,278.086 396.909,276.753 391,275.5C 389.578,272.97 389.245,270.303 390,267.5C 390.718,268.451 391.551,268.617 392.5,268C 388.138,264.022 386.305,259.188 387,253.5C 387.377,254.942 388.21,255.942 389.5,256.5 Z"/></g>
<g><path style="opacity:1" fill="#454f53" d="M 608.5,262.5 C 608.16,264.679 607.16,266.512 605.5,268C 602.929,268.901 600.596,270.234 598.5,272C 532.994,272.705 467.661,272.205 402.5,270.5C 427.5,270.5 452.5,270.5 477.5,270.5C 517.176,270.46 556.843,270.627 596.5,271C 597.416,270.722 598.082,270.222 598.5,269.5C 600.167,268.833 601.833,268.167 603.5,267.5C 605.395,266.027 607.061,264.36 608.5,262.5 Z"/></g>
<g><path style="opacity:1" fill="#b0bcbe" d="M 477.5,270.5 C 477.5,270.167 477.5,269.833 477.5,269.5C 517.833,269.5 558.167,269.5 598.5,269.5C 598.082,270.222 597.416,270.722 596.5,271C 556.843,270.627 517.176,270.46 477.5,270.5 Z"/></g>
<g><path style="opacity:1" fill="#8f9aa0" d="M 399.5,268.5 C 425.455,269.482 451.455,269.815 477.5,269.5C 477.5,269.833 477.5,270.167 477.5,270.5C 452.5,270.5 427.5,270.5 402.5,270.5C 400.973,270.573 399.973,269.906 399.5,268.5 Z"/></g>
<g><path style="opacity:1" fill="#3a4248" d="M 696.5,262.5 C 696.833,262.5 697.167,262.5 697.5,262.5C 698.167,270.5 698.833,278.5 699.5,286.5C 699.5,286.833 699.5,287.167 699.5,287.5C 698.504,287.586 697.671,287.252 697,286.5C 696.5,278.507 696.334,270.507 696.5,262.5 Z"/></g>
<g><path style="opacity:1" fill="#06111b" d="M 439.5,287.5 C 428.671,286.455 418.005,286.455 407.5,287.5C 380.833,287.5 354.167,287.5 327.5,287.5C 324.482,287.665 321.482,287.498 318.5,287C 322.428,285.927 326.428,284.927 330.5,284C 355.5,283.667 380.5,283.333 405.5,283C 407.056,282.28 408.056,281.113 408.5,279.5C 409.879,278.391 411.545,277.724 413.5,277.5C 416.328,277.69 418.994,278.357 421.5,279.5C 435.982,278.595 450.315,277.595 464.5,276.5C 487.266,277.704 510.099,277.704 533,276.5C 544.153,277.229 555.32,277.729 566.5,278C 567.833,278.667 569.167,279.333 570.5,280C 528.625,284.434 486.625,286.434 444.5,286C 442.618,286.198 440.952,286.698 439.5,287.5 Z"/></g>
<g><path style="opacity:1" fill="#929690" d="M 149.5,280.5 C 149.245,282.967 148.245,284.967 146.5,286.5C 146.755,284.033 147.755,282.033 149.5,280.5 Z"/></g>
<g><path style="opacity:1" fill="#c6cace" d="M 308.5,245.5 C 305.509,255.981 304.842,266.647 306.5,277.5C 307.395,280.738 307.395,283.905 306.5,287C 293.993,287.169 281.66,287.669 269.5,288.5C 268.167,288.5 266.833,288.5 265.5,288.5C 265.918,287.778 266.584,287.278 267.5,287C 280.244,286.987 292.91,286.154 305.5,284.5C 302.855,272.42 303.022,260.42 306,248.5C 306.377,247.058 307.21,246.058 308.5,245.5 Z"/></g>
<g><path style="opacity:1" fill="#bbc0c2" d="M 697.5,258.5 C 698.558,259.6 699.392,260.934 700,262.5C 700.5,269.826 700.666,277.159 700.5,284.5C 710.147,285.194 719.813,285.694 729.5,286C 733.536,287.67 737.536,289.337 741.5,291C 743.996,292.331 745.996,294.164 747.5,296.5C 743.271,295.36 739.605,293.193 736.5,290C 733.964,289.814 731.631,289.314 729.5,288.5C 729.082,287.778 728.416,287.278 727.5,287C 718.173,286.5 708.839,286.334 699.5,286.5C 698.833,278.5 698.167,270.5 697.5,262.5C 697.5,261.167 697.5,259.833 697.5,258.5 Z"/></g>
<g><path style="opacity:1" fill="#26312f" d="M 549.5,286.5 C 582.002,285.429 614.669,285.429 647.5,286.5C 647.5,286.833 647.5,287.167 647.5,287.5C 637.249,288.475 626.915,288.808 616.5,288.5C 610.441,288.746 604.441,288.413 598.5,287.5C 582.342,286.504 566.009,286.17 549.5,286.5 Z"/></g>
<g><path style="opacity:1" fill="#4c4e53" d="M 647.5,287.5 C 647.5,287.167 647.5,286.833 647.5,286.5C 648.833,286.5 650.167,286.5 651.5,286.5C 664.511,286.5 677.511,286.834 690.5,287.5C 691.15,287.804 691.817,288.137 692.5,288.5C 693.332,298.149 693.832,307.816 694,317.5C 698.099,318.424 702.265,318.424 706.5,317.5C 703.682,318.727 700.682,319.727 697.5,320.5C 695.626,320.61 694.126,319.944 693,318.5C 691.736,308.894 690.902,299.227 690.5,289.5C 689.167,289.5 687.833,289.5 686.5,289.5C 673.713,287.735 660.713,287.068 647.5,287.5 Z"/></g>
<g><path style="opacity:1" fill="#6b6e73" d="M 699.5,287.5 C 699.5,287.167 699.5,286.833 699.5,286.5C 708.839,286.334 718.173,286.5 727.5,287C 728.416,287.278 729.082,287.778 729.5,288.5C 719.532,287.604 709.532,287.271 699.5,287.5 Z"/></g>
<g><path style="opacity:1" fill="#7b8589" d="M 306.5,277.5 C 307.777,278.694 308.444,280.36 308.5,282.5C 308.333,284.167 308.167,285.833 308,287.5C 306.989,288.337 305.822,288.67 304.5,288.5C 292.833,288.5 281.167,288.5 269.5,288.5C 281.66,287.669 293.993,287.169 306.5,287C 307.395,283.905 307.395,280.738 306.5,277.5 Z"/></g>
<g><path style="opacity:1" fill="#545a62" d="M 327.5,287.5 C 354.167,287.5 380.833,287.5 407.5,287.5C 414.354,287.176 421.021,287.509 427.5,288.5C 394.329,288.168 361.329,288.502 328.5,289.5C 325.941,289.198 323.607,289.532 321.5,290.5C 319.801,290.34 318.134,290.506 316.5,291C 315.251,292.98 313.918,294.813 312.5,296.5C 313.219,294.236 313.552,291.903 313.5,289.5C 318.391,289.468 323.057,288.801 327.5,287.5 Z"/></g>
<g><path style="opacity:1" fill="#223836" d="M 407.5,287.5 C 418.005,286.455 428.671,286.455 439.5,287.5C 475.17,287.466 510.837,287.133 546.5,286.5C 542.018,287.326 537.351,287.826 532.5,288C 497.502,288.5 462.502,288.667 427.5,288.5C 421.021,287.509 414.354,287.176 407.5,287.5 Z"/></g>
<g><path style="opacity:1" fill="#51585c" d="M 265.5,288.5 C 266.833,288.5 268.167,288.5 269.5,288.5C 281.167,288.5 292.833,288.5 304.5,288.5C 291.006,289.331 277.339,289.831 263.5,290C 262.944,290.383 262.611,290.883 262.5,291.5C 260.007,292.774 257.341,293.44 254.5,293.5C 254.953,292.542 255.619,291.708 256.5,291C 259.353,289.57 262.353,288.737 265.5,288.5 Z"/></g>
<g><path style="opacity:1" fill="#829290" d="M 546.5,286.5 C 547.5,286.5 548.5,286.5 549.5,286.5C 566.009,286.17 582.342,286.504 598.5,287.5C 541.979,289.205 485.313,289.872 428.5,289.5C 395.167,289.5 361.833,289.5 328.5,289.5C 361.329,288.502 394.329,288.168 427.5,288.5C 462.502,288.667 497.502,288.5 532.5,288C 537.351,287.826 542.018,287.326 546.5,286.5 Z"/></g>
<g><path style="opacity:1" fill="#f8f8fa" d="M 646.5,289.5 C 659.833,289.5 673.167,289.5 686.5,289.5C 687.209,290.404 688.209,290.737 689.5,290.5C 689.215,300.282 690.048,309.949 692,319.5C 692.92,321.314 694.42,322.314 696.5,322.5C 700.724,320.92 705.058,320.42 709.5,321C 708.833,321.667 708.167,322.333 707.5,323C 704.5,323.333 701.5,323.667 698.5,324C 697.289,325.113 697.289,326.28 698.5,327.5C 696.803,328.364 695.637,329.697 695,331.5C 695.122,340.52 694.955,349.52 694.5,358.5C 695.597,362.575 696.93,366.575 698.5,370.5C 697.092,374.058 696.092,377.725 695.5,381.5C 695.543,410.091 695.543,438.758 695.5,467.5C 694.699,469.042 694.366,470.708 694.5,472.5C 693.89,473.391 693.557,474.391 693.5,475.5C 688.203,482.464 682.203,488.798 675.5,494.5C 673.076,495.03 670.743,495.864 668.5,497C 559.5,497.667 450.5,497.667 341.5,497C 338.199,495.35 335.199,493.35 332.5,491C 331.207,490.51 329.873,490.343 328.5,490.5C 325.5,487.167 322.5,483.833 319.5,480.5C 319.551,478.43 318.885,476.597 317.5,475C 318.102,473.437 318.935,473.604 320,475.5C 320.483,474.552 320.649,473.552 320.5,472.5C 323.025,473.64 325.692,474.307 328.5,474.5C 328.36,472.876 329.027,471.71 330.5,471C 326.277,468.756 326.611,467.59 331.5,467.5C 332.391,468.11 333.391,468.443 334.5,468.5C 335.222,469.551 336.222,470.218 337.5,470.5C 339.269,473.277 341.602,475.277 344.5,476.5C 392.998,477.665 441.665,477.832 490.5,477C 491,476.5 491.5,476 492,475.5C 492.099,421.667 491.599,368 490.5,314.5C 490.5,313.833 490.167,313.5 489.5,313.5C 445.67,312.501 401.67,312.168 357.5,312.5C 357.5,312.167 357.5,311.833 357.5,311.5C 349.265,310.186 340.932,310.186 332.5,311.5C 329.085,311.239 329.085,310.072 332.5,308C 340.436,306.508 348.436,305.508 356.5,305C 353.006,301.272 348.673,299.772 343.5,300.5C 343.33,299.178 343.663,298.011 344.5,297C 341.5,296.667 338.5,296.333 335.5,296C 341.361,294.213 347.361,293.213 353.5,293C 345.784,292.2 338.117,292.367 330.5,293.5C 327.891,292.77 325.224,292.27 322.5,292C 357.811,290.577 393.144,290.077 428.5,290.5C 477.538,291.016 526.538,290.35 575.5,288.5C 592.503,289.1 609.503,289.767 626.5,290.5C 633.342,290.5 640.009,290.166 646.5,289.5 Z"/></g>
<g><path style="opacity:1" fill="#9da2a2" d="M 647.5,287.5 C 660.713,287.068 673.713,287.735 686.5,289.5C 673.167,289.5 659.833,289.5 646.5,289.5C 636.319,289.827 626.319,289.494 616.5,288.5C 626.915,288.808 637.249,288.475 647.5,287.5 Z"/></g>
<g><path style="opacity:1" fill="#dae3df" d="M 598.5,287.5 C 604.441,288.413 610.441,288.746 616.5,288.5C 626.319,289.494 636.319,289.827 646.5,289.5C 640.009,290.166 633.342,290.5 626.5,290.5C 609.503,289.767 592.503,289.1 575.5,288.5C 526.538,290.35 477.538,291.016 428.5,290.5C 428.5,290.167 428.5,289.833 428.5,289.5C 485.313,289.872 541.979,289.205 598.5,287.5 Z"/></g>
<g><path style="opacity:1" fill="#161d21" d="M 695.5,257.5 C 696.451,258.919 696.784,260.585 696.5,262.5C 696.334,270.507 696.5,278.507 697,286.5C 697.671,287.252 698.504,287.586 699.5,287.5C 709.532,287.271 719.532,287.604 729.5,288.5C 731.631,289.314 733.964,289.814 736.5,290C 739.605,293.193 743.271,295.36 747.5,296.5C 750.902,299.895 753.902,303.562 756.5,307.5C 758.881,311.718 761.048,316.051 763,320.5C 763.5,349.165 763.667,377.831 763.5,406.5C 763.167,406.5 762.833,406.5 762.5,406.5C 762.983,378.078 762.483,349.745 761,321.5C 760.17,350.003 760.336,378.336 761.5,406.5C 761.291,407.922 760.791,409.255 760,410.5C 757.521,412.966 755.021,415.299 752.5,417.5C 752.167,417.5 751.833,417.5 751.5,417.5C 744.201,418.35 736.868,418.683 729.5,418.5C 727.021,417.205 724.354,416.205 721.5,415.5C 720.853,413.859 719.853,412.526 718.5,411.5C 719.675,411.719 720.675,411.386 721.5,410.5C 720.424,406.362 719.424,402.195 718.5,398C 718.625,396.373 719.125,394.873 720,393.5C 720.333,373.5 720.667,353.5 721,333.5C 721.359,329.814 722.193,326.314 723.5,323C 723.333,321.833 723.167,320.667 723,319.5C 722.617,320.056 722.117,320.389 721.5,320.5C 722.15,318.565 722.483,316.565 722.5,314.5C 718.486,314.334 714.486,314.501 710.5,315C 709.429,315.852 708.429,316.685 707.5,317.5C 707.167,317.5 706.833,317.5 706.5,317.5C 702.265,318.424 698.099,318.424 694,317.5C 693.832,307.816 693.332,298.149 692.5,288.5C 691.817,288.137 691.15,287.804 690.5,287.5C 691.919,286.549 693.585,286.216 695.5,286.5C 695.5,276.833 695.5,267.167 695.5,257.5 Z"/></g>
<g><path style="opacity:1" fill="#131b1f" d="M 394.5,234.5 C 393.4,235.605 392.733,236.938 392.5,238.5C 391.542,238.953 390.708,239.619 390,240.5C 389.501,245.823 389.334,251.156 389.5,256.5C 388.21,255.942 387.377,254.942 387,253.5C 386.305,259.188 388.138,264.022 392.5,268C 391.551,268.617 390.718,268.451 390,267.5C 389.245,270.303 389.578,272.97 391,275.5C 396.909,276.753 402.742,278.086 408.5,279.5C 408.056,281.113 407.056,282.28 405.5,283C 380.5,283.333 355.5,283.667 330.5,284C 326.428,284.927 322.428,285.927 318.5,287C 321.482,287.498 324.482,287.665 327.5,287.5C 323.057,288.801 318.391,289.468 313.5,289.5C 313.552,291.903 313.219,294.236 312.5,296.5C 311.197,300.112 310.03,303.779 309,307.5C 308.503,310.146 308.336,312.813 308.5,315.5C 308.167,316.5 307.5,317.167 306.5,317.5C 299.159,317.334 291.826,317.5 284.5,318C 282.957,320.045 283.29,321.545 285.5,322.5C 286.427,349.485 286.76,376.485 286.5,403.5C 286.5,404.5 286.5,405.5 286.5,406.5C 285.241,407.979 284.241,409.646 283.5,411.5C 281.012,413.255 278.678,415.255 276.5,417.5C 273.692,418.929 270.692,419.595 267.5,419.5C 260.591,420.04 253.924,419.373 247.5,417.5C 246.508,417.672 245.842,417.338 245.5,416.5C 242.117,413.28 239.284,409.614 237,405.5C 236.333,379.833 236.333,354.167 237,328.5C 237.21,326.942 237.71,325.609 238.5,324.5C 238.333,351.502 238.5,378.502 239,405.5C 239.035,392.171 240.202,379.005 242.5,366C 240.064,362.626 239.897,359.126 242,355.5C 242.194,342.138 242.861,328.805 244,315.5C 245.239,308.1 249.406,303.434 256.5,301.5C 256.921,299.09 258.254,297.257 260.5,296C 263.177,295.751 265.51,294.751 267.5,293C 280.988,292.982 294.321,292.315 307.5,291C 292.455,290.199 277.455,290.366 262.5,291.5C 262.611,290.883 262.944,290.383 263.5,290C 277.339,289.831 291.006,289.331 304.5,288.5C 305.822,288.67 306.989,288.337 308,287.5C 308.167,285.833 308.333,284.167 308.5,282.5C 308.444,280.36 307.777,278.694 306.5,277.5C 304.842,266.647 305.509,255.981 308.5,245.5C 310.351,241.961 312.018,238.294 313.5,234.5C 320.044,224.914 328.711,218.248 339.5,214.5C 341.403,214.204 343.07,213.537 344.5,212.5C 347.167,212.5 349.833,212.5 352.5,212.5C 358.2,211.752 363.867,211.752 369.5,212.5C 365.622,213.514 361.956,215.014 358.5,217C 357.631,219.368 355.965,220.868 353.5,221.5C 352.516,224.428 352.183,227.428 352.5,230.5C 354.5,230.5 356.5,230.5 358.5,230.5C 358.5,241.833 358.5,253.167 358.5,264.5C 366.167,264.5 373.833,264.5 381.5,264.5C 381.726,261.751 381.393,259.084 380.5,256.5C 381.517,253.972 382.684,253.972 384,256.5C 384.017,247.055 387.017,238.722 393,231.5C 394.039,232.244 394.539,233.244 394.5,234.5 Z"/></g>
<g><path style="opacity:1" fill="#9da29f" d="M 140.5,297.5 C 139.548,302.07 137.548,306.07 134.5,309.5C 135.939,305.158 137.939,301.158 140.5,297.5 Z"/></g>
<g><path style="opacity:1" fill="#969ca4" d="M 321.5,290.5 C 319.552,291.131 317.719,292.131 316,293.5C 315.06,295.942 313.894,298.275 312.5,300.5C 311.657,305.755 310.323,310.755 308.5,315.5C 308.336,312.813 308.503,310.146 309,307.5C 310.03,303.779 311.197,300.112 312.5,296.5C 313.918,294.813 315.251,292.98 316.5,291C 318.134,290.506 319.801,290.34 321.5,290.5 Z"/></g>
<g><path style="opacity:1" fill="#797b7c" d="M 254.5,293.5 C 253.188,295.479 251.521,297.145 249.5,298.5C 246.108,303.541 242.774,308.541 239.5,313.5C 241.453,304.547 246.453,297.881 254.5,293.5 Z"/></g>
<g><path style="opacity:1" fill="#394244" d="M 357.5,313.5 C 357.5,313.167 357.5,312.833 357.5,312.5C 401.67,312.168 445.67,312.501 489.5,313.5C 489.5,339.833 489.5,366.167 489.5,392.5C 489.167,392.5 488.833,392.5 488.5,392.5C 488.5,366.833 488.5,341.167 488.5,315.5C 444.831,314.923 401.164,314.256 357.5,313.5 Z"/></g>
<g><path style="opacity:1" fill="#282f31" d="M 518.5,313.5 C 568.5,313.5 618.5,313.5 668.5,313.5C 669.458,313.953 670.292,314.619 671,315.5C 671.498,318.817 671.665,322.15 671.5,325.5C 671.832,373.336 671.499,421.003 670.5,468.5C 670.958,417.476 670.458,366.476 669,315.5C 618.736,314.836 568.569,314.169 518.5,313.5 Z"/></g>
<g><path style="opacity:1" fill="#12181c" d="M 488.5,392.5 C 488.833,392.5 489.167,392.5 489.5,392.5C 489.5,419.833 489.5,447.167 489.5,474.5C 441.5,474.5 393.5,474.5 345.5,474.5C 342.615,473.618 339.948,472.284 337.5,470.5C 336.68,468.188 335.847,465.854 335,463.5C 334.5,442.503 334.333,421.503 334.5,400.5C 335.332,420.996 335.832,441.663 336,462.5C 337.277,413.822 337.443,365.155 336.5,316.5C 386.167,316.5 435.833,316.5 485.5,316.5C 485.641,366.836 486.141,417.17 487,467.5C 487.333,467.833 487.667,468.167 488,468.5C 488.5,443.169 488.667,417.836 488.5,392.5 Z"/></g>
<g><path style="opacity:1" fill="#778597" d="M 306.5,317.5 C 299.687,318.491 292.687,318.825 285.5,318.5C 285.5,319.833 285.5,321.167 285.5,322.5C 283.29,321.545 282.957,320.045 284.5,318C 291.826,317.5 299.159,317.334 306.5,317.5 Z"/></g>
<g><path style="opacity:1" fill="#141b1d" d="M 349.5,319.5 C 361.373,318.488 373.373,318.822 385.5,320.5C 387.055,320.278 388.389,319.611 389.5,318.5C 392.777,319.254 396.11,319.754 399.5,320C 398.833,320.333 398.167,320.667 397.5,321C 399.45,322.496 401.45,322.663 403.5,321.5C 402.196,319.984 402.696,319.318 405,319.5C 405.915,320.796 407.581,321.463 410,321.5C 423.831,320.54 437.664,320.04 451.5,320C 450.552,320.483 449.552,320.649 448.5,320.5C 448.67,321.822 448.337,322.989 447.5,324C 449.929,324.451 450.096,325.285 448,326.5C 447.333,335.167 447.333,343.833 448,352.5C 458.088,353.532 468.255,354.198 478.5,354.5C 478.836,349.846 478.169,345.346 476.5,341C 477.167,339.333 477.833,337.667 478.5,336C 477.622,334.2 476.955,332.367 476.5,330.5C 477.833,330.5 479.167,330.5 480.5,330.5C 481.237,338.467 481.737,346.467 482,354.5C 482.811,353.04 483.645,352.707 484.5,353.5C 483.872,356.78 483.539,360.113 483.5,363.5C 483.919,398.885 484.919,434.219 486.5,469.5C 438.503,470.667 390.503,470.833 342.5,470C 340.174,466.925 338.84,463.425 338.5,459.5C 340.077,454.954 339.744,450.621 337.5,446.5C 338.167,444.5 338.833,442.5 339.5,440.5C 338.489,416.099 338.489,391.766 339.5,367.5C 342.932,367.757 346.266,368.424 349.5,369.5C 349.5,364.167 349.5,358.833 349.5,353.5C 352.448,353.777 355.281,353.444 358,352.5C 358.5,346.175 358.666,339.842 358.5,333.5C 361.5,333.5 364.5,333.5 367.5,333.5C 367.739,329.158 368.073,324.824 368.5,320.5C 362.196,319.74 355.863,319.407 349.5,319.5 Z"/></g>
<g><path style="opacity:1" fill="#50565a" d="M 721.5,320.5 C 718.343,325.713 716.676,331.38 716.5,337.5C 716.5,334.833 716.5,332.167 716.5,329.5C 718.284,325.015 719.617,320.348 720.5,315.5C 716.031,315.458 711.698,316.125 707.5,317.5C 708.429,316.685 709.429,315.852 710.5,315C 714.486,314.501 718.486,314.334 722.5,314.5C 722.483,316.565 722.15,318.565 721.5,320.5 Z"/></g>
<g><path style="opacity:1" fill="#f5f5f7" d="M 328.5,289.5 C 361.833,289.5 395.167,289.5 428.5,289.5C 428.5,289.833 428.5,290.167 428.5,290.5C 393.144,290.077 357.811,290.577 322.5,292C 325.224,292.27 327.891,292.77 330.5,293.5C 338.117,292.367 345.784,292.2 353.5,293C 347.361,293.213 341.361,294.213 335.5,296C 338.5,296.333 341.5,296.667 344.5,297C 343.663,298.011 343.33,299.178 343.5,300.5C 348.673,299.772 353.006,301.272 356.5,305C 348.436,305.508 340.436,306.508 332.5,308C 329.085,310.072 329.085,311.239 332.5,311.5C 330.586,318.892 329.919,326.559 330.5,334.5C 330.329,378.839 330.662,423.172 331.5,467.5C 326.611,467.59 326.277,468.756 330.5,471C 329.027,471.71 328.36,472.876 328.5,474.5C 325.692,474.307 323.025,473.64 320.5,472.5C 320.649,473.552 320.483,474.552 320,475.5C 318.935,473.604 318.102,473.437 317.5,475C 318.885,476.597 319.551,478.43 319.5,480.5C 319.167,480.5 318.833,480.5 318.5,480.5C 316.294,475.953 313.294,471.953 309.5,468.5C 309.315,466.804 308.481,465.471 307,464.5C 306.506,462.866 306.34,461.199 306.5,459.5C 305.167,459.5 303.833,459.5 302.5,459.5C 302.737,460.791 302.404,461.791 301.5,462.5C 301.656,454.471 301.323,446.471 300.5,438.5C 299.022,438.238 297.689,438.571 296.5,439.5C 300.012,445.517 299.845,451.517 296,457.5C 295.502,460.817 295.335,464.15 295.5,467.5C 292.833,467.5 290.167,467.5 287.5,467.5C 287.5,461.167 287.5,454.833 287.5,448.5C 278.167,448.5 268.833,448.5 259.5,448.5C 259.5,445.167 259.5,441.833 259.5,438.5C 255.833,438.5 252.167,438.5 248.5,438.5C 248.894,434.776 248.227,431.276 246.5,428C 247.148,426.56 247.481,425.06 247.5,423.5C 253.67,422.998 255.003,425.331 251.5,430.5C 253.164,431.223 254.831,430.89 256.5,429.5C 259.933,431.141 262.6,430.308 264.5,427C 272.417,425.541 279.417,422.207 285.5,417C 286.793,416.51 288.127,416.343 289.5,416.5C 289.523,414.073 290.023,411.74 291,409.5C 291.333,409.833 291.667,410.167 292,410.5C 292.333,409.5 292.667,408.5 293,407.5C 293.906,379.074 293.072,350.741 290.5,322.5C 296.092,321.576 301.425,321.576 306.5,322.5C 300.207,319.738 293.54,318.738 286.5,319.5C 286.5,320.5 286.5,321.5 286.5,322.5C 286.167,322.5 285.833,322.5 285.5,322.5C 285.5,321.167 285.5,319.833 285.5,318.5C 292.687,318.825 299.687,318.491 306.5,317.5C 307.5,317.167 308.167,316.5 308.5,315.5C 310.323,310.755 311.657,305.755 312.5,300.5C 313.894,298.275 315.06,295.942 316,293.5C 317.719,292.131 319.552,291.131 321.5,290.5C 323.607,289.532 325.941,289.198 328.5,289.5 Z"/></g>
<g><path style="opacity:1" fill="#eceeee" d="M 686.5,289.5 C 687.833,289.5 689.167,289.5 690.5,289.5C 690.902,299.227 691.736,308.894 693,318.5C 694.126,319.944 695.626,320.61 697.5,320.5C 700.682,319.727 703.682,318.727 706.5,317.5C 706.833,317.5 707.167,317.5 707.5,317.5C 711.698,316.125 716.031,315.458 720.5,315.5C 719.617,320.348 718.284,325.015 716.5,329.5C 716.167,329.5 715.833,329.5 715.5,329.5C 715.762,328.022 715.429,326.689 714.5,325.5C 714.167,325.833 713.833,326.167 713.5,326.5C 712.986,329.644 712.153,332.644 711,335.5C 710.667,355.833 710.333,376.167 710,396.5C 709.667,397.167 709.333,397.833 709,398.5C 708.333,397.167 707.667,397.167 707,398.5C 705.002,410.479 703.002,422.479 701,434.5C 700.5,445.495 700.333,456.495 700.5,467.5C 700.167,467.5 699.833,467.5 699.5,467.5C 699.5,467.167 699.5,466.833 699.5,466.5C 699.948,456.727 699.448,447.061 698,437.5C 696.609,447.1 696.109,456.767 696.5,466.5C 696.5,467.167 696.167,467.5 695.5,467.5C 695.543,438.758 695.543,410.091 695.5,381.5C 696.092,377.725 697.092,374.058 698.5,370.5C 696.93,366.575 695.597,362.575 694.5,358.5C 694.955,349.52 695.122,340.52 695,331.5C 695.637,329.697 696.803,328.364 698.5,327.5C 697.289,326.28 697.289,325.113 698.5,324C 701.5,323.667 704.5,323.333 707.5,323C 708.167,322.333 708.833,321.667 709.5,321C 705.058,320.42 700.724,320.92 696.5,322.5C 694.42,322.314 692.92,321.314 692,319.5C 690.048,309.949 689.215,300.282 689.5,290.5C 688.209,290.737 687.209,290.404 686.5,289.5 Z"/></g>
<g><path style="opacity:1" fill="#2d2f32" d="M 357.5,311.5 C 357.5,311.833 357.5,312.167 357.5,312.5C 357.5,312.833 357.5,313.167 357.5,313.5C 349.833,313.5 342.167,313.5 334.5,313.5C 334.5,340.167 334.5,366.833 334.5,393.5C 334.167,393.5 333.833,393.5 333.5,393.5C 333.245,366.829 333.078,340.162 333,313.5C 333.5,313 334,312.5 334.5,312C 342.159,311.5 349.826,311.334 357.5,311.5 Z"/></g>
<g><path style="opacity:1" fill="#858989" d="M 134.5,309.5 C 131.919,317.646 128.585,325.313 124.5,332.5C 126.482,324.208 129.815,316.541 134.5,309.5 Z"/></g>
<g><path style="opacity:1" fill="#c6cacb" d="M 668.5,313.5 C 668.5,313.167 668.5,312.833 668.5,312.5C 670.371,312.859 671.871,313.859 673,315.5C 673.5,359.499 673.667,403.499 673.5,447.5C 672.833,406.833 672.167,366.167 671.5,325.5C 671.665,322.15 671.498,318.817 671,315.5C 670.292,314.619 669.458,313.953 668.5,313.5 Z"/></g>
<g><path style="opacity:1" fill="#0d0f12" d="M 238.5,324.5 C 238.552,320.802 238.886,317.135 239.5,313.5C 242.774,308.541 246.108,303.541 249.5,298.5C 251.521,297.145 253.188,295.479 254.5,293.5C 257.341,293.44 260.007,292.774 262.5,291.5C 277.455,290.366 292.455,290.199 307.5,291C 294.321,292.315 280.988,292.982 267.5,293C 265.51,294.751 263.177,295.751 260.5,296C 258.254,297.257 256.921,299.09 256.5,301.5C 249.406,303.434 245.239,308.1 244,315.5C 242.861,328.805 242.194,342.138 242,355.5C 239.897,359.126 240.064,362.626 242.5,366C 240.202,379.005 239.035,392.171 239,405.5C 238.5,378.502 238.333,351.502 238.5,324.5 Z"/></g>
<g><path style="opacity:1" fill="#040b0e" d="M 357.5,313.5 C 401.164,314.256 444.831,314.923 488.5,315.5C 488.5,341.167 488.5,366.833 488.5,392.5C 488.667,417.836 488.5,443.169 488,468.5C 487.667,468.167 487.333,467.833 487,467.5C 486.141,417.17 485.641,366.836 485.5,316.5C 435.833,316.5 386.167,316.5 336.5,316.5C 337.443,365.155 337.277,413.822 336,462.5C 335.832,441.663 335.332,420.996 334.5,400.5C 334.5,398.167 334.5,395.833 334.5,393.5C 334.5,366.833 334.5,340.167 334.5,313.5C 342.167,313.5 349.833,313.5 357.5,313.5 Z"/></g>
<g><path style="opacity:1" fill="#a5a7ac" d="M 668.5,312.5 C 668.5,312.833 668.5,313.167 668.5,313.5C 618.5,313.5 568.5,313.5 518.5,313.5C 517.833,313.5 517.167,313.5 516.5,313.5C 514.504,366.823 513.838,420.49 514.5,474.5C 513.676,470.688 513.176,466.688 513,462.5C 512.167,412.497 512.333,362.497 513.5,312.5C 565.118,312.406 616.784,312.406 668.5,312.5 Z"/></g>
<g><path style="opacity:1" fill="#0c1014" d="M 718.5,411.5 C 718.167,410.833 717.833,410.167 717.5,409.5C 717.766,386.188 717.432,362.854 716.5,339.5C 716.5,338.833 716.5,338.167 716.5,337.5C 716.676,331.38 718.343,325.713 721.5,320.5C 722.117,320.389 722.617,320.056 723,319.5C 723.167,320.667 723.333,321.833 723.5,323C 722.193,326.314 721.359,329.814 721,333.5C 720.667,353.5 720.333,373.5 720,393.5C 719.125,394.873 718.625,396.373 718.5,398C 719.424,402.195 720.424,406.362 721.5,410.5C 720.675,411.386 719.675,411.719 718.5,411.5 Z"/></g>
<g><path style="opacity:1" fill="#747a79" d="M 124.5,332.5 C 122.787,337.837 120.953,343.17 119,348.5C 118.617,349.056 118.117,349.389 117.5,349.5C 118.897,343.274 121.23,337.607 124.5,332.5 Z"/></g>
<g><path style="opacity:1" fill="#9b9d9e" d="M 239.5,313.5 C 238.886,317.135 238.552,320.802 238.5,324.5C 237.71,325.609 237.21,326.942 237,328.5C 236.333,354.167 236.333,379.833 237,405.5C 239.284,409.614 242.117,413.28 245.5,416.5C 240.871,414.593 237.704,411.259 236,406.5C 235.333,380.167 235.333,353.833 236,327.5C 236.254,322.484 237.421,317.817 239.5,313.5 Z"/></g>
<g><path style="opacity:1" fill="#808788" d="M 117.5,350.5 C 117.741,352.898 117.074,354.898 115.5,356.5C 115.259,354.102 115.926,352.102 117.5,350.5 Z"/></g>
<g><path style="opacity:1" fill="#7e8082" d="M 715.5,329.5 C 715.833,329.5 716.167,329.5 716.5,329.5C 716.5,332.167 716.5,334.833 716.5,337.5C 716.5,338.167 716.5,338.833 716.5,339.5C 715.503,361.66 715.169,383.994 715.5,406.5C 714.503,384.006 714.169,361.339 714.5,338.5C 714.963,335.518 715.296,332.518 715.5,329.5 Z"/></g>
<g><path style="opacity:1" fill="#6e7e7f" d="M 756.5,307.5 C 757.496,307.414 758.329,307.748 759,308.5C 761.312,311.943 763.146,315.609 764.5,319.5C 764.831,348.671 764.498,377.671 763.5,406.5C 763.667,377.831 763.5,349.165 763,320.5C 761.048,316.051 758.881,311.718 756.5,307.5 Z"/></g>
<g><path style="opacity:1" fill="#00070a" d="M 762.5,406.5 C 762.167,406.5 761.833,406.5 761.5,406.5C 760.336,378.336 760.17,350.003 761,321.5C 762.483,349.745 762.983,378.078 762.5,406.5 Z"/></g>
<g><path style="opacity:1" fill="#687171" d="M 285.5,322.5 C 285.833,322.5 286.167,322.5 286.5,322.5C 286.833,325.833 287.167,329.167 287.5,332.5C 287.831,356.339 287.498,380.006 286.5,403.5C 286.76,376.485 286.427,349.485 285.5,322.5 Z"/></g>
<g><path style="opacity:1" fill="#959899" d="M 110.5,375.5 C 110.741,377.898 110.074,379.898 108.5,381.5C 108.259,379.102 108.926,377.102 110.5,375.5 Z"/></g>
<g><path style="opacity:1" fill="#bacbcc" d="M 764.5,319.5 C 765.83,349.003 765.83,378.669 764.5,408.5C 763.817,408.863 763.15,409.196 762.5,409.5C 762.557,408.391 762.89,407.391 763.5,406.5C 764.498,377.671 764.831,348.671 764.5,319.5 Z"/></g>
<g><path style="opacity:1" fill="#a1a9a9" d="M 287.5,332.5 C 288.663,356.33 288.83,380.33 288,404.5C 287.722,405.416 287.222,406.082 286.5,406.5C 286.5,405.5 286.5,404.5 286.5,403.5C 287.498,380.006 287.831,356.339 287.5,332.5 Z"/></g>
<g><path style="opacity:1" fill="#383a3d" d="M 716.5,339.5 C 717.432,362.854 717.766,386.188 717.5,409.5C 716.094,409.027 715.427,408.027 715.5,406.5C 715.169,383.994 715.503,361.66 716.5,339.5 Z"/></g>
<g><path style="opacity:1" fill="#aeb0b3" d="M 107.5,386.5 C 107.237,391.124 106.237,395.458 104.5,399.5C 104.952,395.837 105.452,392.17 106,388.5C 106.278,387.584 106.778,386.918 107.5,386.5 Z"/></g>
<g><path style="opacity:1" fill="#6e7477" d="M 671.5,325.5 C 672.167,366.167 672.833,406.833 673.5,447.5C 673.891,454.921 673.391,462.254 672,469.5C 669.793,472.564 666.959,474.564 663.5,475.5C 664.167,474.833 664.833,474.167 665.5,473.5C 667.5,472.167 669.167,470.5 670.5,468.5C 671.499,421.003 671.832,373.336 671.5,325.5 Z"/></g>
<g><path style="opacity:1" fill="#b7b9bb" d="M 714.5,338.5 C 714.169,361.339 714.503,384.006 715.5,406.5C 715.427,408.027 716.094,409.027 717.5,409.5C 717.833,410.167 718.167,410.833 718.5,411.5C 719.853,412.526 720.853,413.859 721.5,415.5C 717.702,414.61 715.202,412.276 714,408.5C 713.17,384.996 713.337,361.663 714.5,338.5 Z"/></g>
<g><path style="opacity:1" fill="#747f7f" d="M 761.5,406.5 C 761.833,406.5 762.167,406.5 762.5,406.5C 762.833,406.5 763.167,406.5 763.5,406.5C 762.89,407.391 762.557,408.391 762.5,409.5C 760.063,413.269 756.729,415.936 752.5,417.5C 755.021,415.299 757.521,412.966 760,410.5C 760.791,409.255 761.291,407.922 761.5,406.5 Z"/></g>
<g><path style="opacity:1" fill="#8f9395" d="M 283.5,411.5 C 282.188,414.661 279.855,416.661 276.5,417.5C 278.678,415.255 281.012,413.255 283.5,411.5 Z"/></g>
<g><path style="opacity:1" fill="#8f9897" d="M 102.5,407.5 C 102.665,410.518 102.498,413.518 102,416.5C 101.058,421.347 99.8915,426.014 98.5,430.5C 99.072,422.58 100.405,414.914 102.5,407.5 Z"/></g>
<g><path style="opacity:1" fill="#686c6d" d="M 247.5,417.5 C 253.924,419.373 260.591,420.04 267.5,419.5C 263.627,421.43 259.294,422.097 254.5,421.5C 253.048,420.698 251.382,420.198 249.5,420C 248.619,419.292 247.953,418.458 247.5,417.5 Z"/></g>
<g><path style="opacity:1" fill="#e0e0e2" d="M 330.5,334.5 C 331.328,340.653 331.828,346.987 332,353.5C 332.167,390.336 332.667,427.002 333.5,463.5C 333.629,465.216 333.962,466.883 334.5,468.5C 333.391,468.443 332.391,468.11 331.5,467.5C 330.662,423.172 330.329,378.839 330.5,334.5 Z"/></g>
<g><path style="opacity:1" fill="#879393" d="M 751.5,417.5 C 750.4,418.558 749.066,419.392 747.5,420C 742.167,420.667 736.833,420.667 731.5,420C 730.584,419.722 729.918,419.222 729.5,418.5C 736.868,418.683 744.201,418.35 751.5,417.5 Z"/></g>
<g><path style="opacity:1" fill="#919294" d="M 357.5,311.5 C 349.826,311.334 342.159,311.5 334.5,312C 334,312.5 333.5,313 333,313.5C 333.078,340.162 333.245,366.829 333.5,393.5C 333.5,416.833 333.5,440.167 333.5,463.5C 332.667,427.002 332.167,390.336 332,353.5C 331.828,346.987 331.328,340.653 330.5,334.5C 329.919,326.559 330.586,318.892 332.5,311.5C 340.932,310.186 349.265,310.186 357.5,311.5 Z"/></g>
<g><path style="opacity:1" fill="#4c4e50" d="M 333.5,393.5 C 333.833,393.5 334.167,393.5 334.5,393.5C 334.5,395.833 334.5,398.167 334.5,400.5C 334.333,421.503 334.5,442.503 335,463.5C 335.847,465.854 336.68,468.188 337.5,470.5C 336.222,470.218 335.222,469.551 334.5,468.5C 333.962,466.883 333.629,465.216 333.5,463.5C 333.5,440.167 333.5,416.833 333.5,393.5 Z"/></g>
<g><path style="opacity:1" fill="#c2c7c8" d="M 276.5,417.5 C 275.358,419.433 273.692,420.933 271.5,422C 265.651,422.818 259.985,422.652 254.5,421.5C 259.294,422.097 263.627,421.43 267.5,419.5C 270.692,419.595 273.692,418.929 276.5,417.5 Z"/></g>
<g><path style="opacity:1" fill="#060d12" d="M 516.5,313.5 C 517.167,313.5 517.833,313.5 518.5,313.5C 568.569,314.169 618.736,314.836 669,315.5C 670.458,366.476 670.958,417.476 670.5,468.5C 669.167,470.5 667.5,472.167 665.5,473.5C 663.253,473.915 661.086,474.582 659,475.5C 657.93,475.472 657.097,475.139 656.5,474.5C 610.003,473.501 563.336,473.168 516.5,473.5C 516.5,420.167 516.5,366.833 516.5,313.5 Z"/></g>
<g><path style="opacity:1" fill="#151b1e" d="M 518.5,316.5 C 567.5,316.5 616.5,316.5 665.5,316.5C 667.588,361.168 667.921,405.834 666.5,450.5C 667.203,454.992 667.87,459.492 668.5,464C 668.205,466.923 666.871,469.257 664.5,471C 661.318,471.407 658.151,471.907 655,472.5C 630.144,471.18 605.31,471.18 580.5,472.5C 559.89,471.051 539.223,470.384 518.5,470.5C 518.5,419.167 518.5,367.833 518.5,316.5 Z"/></g>
<g><path style="opacity:1" fill="#b2b4b3" d="M 699.5,466.5 C 698.698,465.048 698.198,463.382 698,461.5C 697.802,463.382 697.302,465.048 696.5,466.5C 696.109,456.767 696.609,447.1 698,437.5C 699.448,447.061 699.948,456.727 699.5,466.5 Z"/></g>
<g><path style="opacity:1" fill="#a4adad" d="M 309.5,468.5 C 308.5,467.833 307.5,467.167 306.5,466.5C 305.597,464.38 304.263,464.046 302.5,465.5C 302.167,465.5 301.833,465.5 301.5,465.5C 301.5,464.5 301.5,463.5 301.5,462.5C 302.404,461.791 302.737,460.791 302.5,459.5C 303.833,459.5 305.167,459.5 306.5,459.5C 306.34,461.199 306.506,462.866 307,464.5C 308.481,465.471 309.315,466.804 309.5,468.5 Z"/></g>
<g><path style="opacity:1" fill="#3d4646" d="M 306.5,466.5 C 307.5,467.167 308.5,467.833 309.5,468.5C 313.294,471.953 316.294,475.953 318.5,480.5C 312.665,477.337 308.665,472.671 306.5,466.5 Z"/></g>
<g><path style="opacity:1" fill="#2d323b" d="M 516.5,313.5 C 516.5,366.833 516.5,420.167 516.5,473.5C 563.336,473.168 610.003,473.501 656.5,474.5C 609.5,474.5 562.5,474.5 515.5,474.5C 515.167,474.5 514.833,474.5 514.5,474.5C 513.838,420.49 514.504,366.823 516.5,313.5 Z"/></g>
<g><path style="opacity:1" fill="#49565f" d="M 489.5,313.5 C 490.167,313.5 490.5,313.833 490.5,314.5C 490.5,368.167 490.5,421.833 490.5,475.5C 462.833,475.5 435.167,475.5 407.5,475.5C 386.66,475.831 365.993,475.497 345.5,474.5C 393.5,474.5 441.5,474.5 489.5,474.5C 489.5,447.167 489.5,419.833 489.5,392.5C 489.5,366.167 489.5,339.833 489.5,313.5 Z"/></g>
<g><path style="opacity:1" fill="#545b66" d="M 665.5,473.5 C 664.833,474.167 664.167,474.833 663.5,475.5C 661.052,476.473 658.385,476.806 655.5,476.5C 608.833,475.833 562.167,475.167 515.5,474.5C 562.5,474.5 609.5,474.5 656.5,474.5C 657.097,475.139 657.93,475.472 659,475.5C 661.086,474.582 663.253,473.915 665.5,473.5 Z"/></g>
<g><path style="opacity:1" fill="#7a808b" d="M 337.5,470.5 C 339.948,472.284 342.615,473.618 345.5,474.5C 365.993,475.497 386.66,475.831 407.5,475.5C 386.673,476.497 365.673,476.831 344.5,476.5C 341.602,475.277 339.269,473.277 337.5,470.5 Z"/></g>
<g><path style="opacity:1" fill="#a3b0b4" d="M 490.5,314.5 C 491.599,368 492.099,421.667 492,475.5C 491.5,476 491,476.5 490.5,477C 441.665,477.832 392.998,477.665 344.5,476.5C 365.673,476.831 386.673,476.497 407.5,475.5C 435.167,475.5 462.833,475.5 490.5,475.5C 490.5,421.833 490.5,368.167 490.5,314.5 Z"/></g>
<g><path style="opacity:1" fill="#9ba1ab" d="M 514.5,474.5 C 514.833,474.5 515.167,474.5 515.5,474.5C 562.167,475.167 608.833,475.833 655.5,476.5C 608.155,477.162 561.155,476.495 514.5,474.5 Z"/></g>
<g><path style="opacity:1" fill="#5c6164" d="M 318.5,480.5 C 318.833,480.5 319.167,480.5 319.5,480.5C 322.5,483.833 325.5,487.167 328.5,490.5C 326.938,490.267 325.605,489.6 324.5,488.5C 322.091,486.098 320.091,483.431 318.5,480.5 Z"/></g>
<g><path style="opacity:1" fill="#8b8d90" d="M 693.5,475.5 C 689.554,483.779 683.554,490.113 675.5,494.5C 682.203,488.798 688.203,482.464 693.5,475.5 Z"/></g>
<g><path style="opacity:1" fill="#0f1519" d="M 324.5,488.5 C 325.605,489.6 326.938,490.267 328.5,490.5C 328.833,491.167 329.167,491.833 329.5,492.5C 327.645,492.272 326.812,492.939 327,494.5C 330.813,496.969 334.646,499.469 338.5,502C 361.498,502.5 384.498,502.667 407.5,502.5C 408.218,504.137 408.384,505.803 408,507.5C 405.281,506.556 402.448,506.223 399.5,506.5C 399.5,512.5 399.5,518.5 399.5,524.5C 402.5,524.5 405.5,524.5 408.5,524.5C 409.354,533.149 410.021,541.816 410.5,550.5C 413.681,550.002 416.347,550.835 418.5,553C 423.837,553.724 428.837,555.224 433.5,557.5C 433.5,558.5 433.5,559.5 433.5,560.5C 434.5,560.5 435.5,560.5 436.5,560.5C 436.18,557.102 436.513,553.768 437.5,550.5C 438.107,550.624 438.44,550.957 438.5,551.5C 437.469,561.671 437.469,572.004 438.5,582.5C 439.5,582.5 440.5,582.5 441.5,582.5C 441.988,585.711 441.321,588.544 439.5,591C 439.833,591.333 440.167,591.667 440.5,592C 439.552,592.483 438.552,592.649 437.5,592.5C 437.5,598.5 437.5,604.5 437.5,610.5C 434.5,610.5 431.5,610.5 428.5,610.5C 428.5,604.167 428.5,597.833 428.5,591.5C 426.833,591.5 425.167,591.5 423.5,591.5C 423.714,593.144 423.38,594.644 422.5,596C 419.518,596.498 416.518,596.665 413.5,596.5C 413.5,597.833 413.5,599.167 413.5,600.5C 415.5,600.5 417.5,600.5 419.5,600.5C 420.168,605.161 418.168,607.161 413.5,606.5C 413.5,607.833 413.5,609.167 413.5,610.5C 414.833,610.5 416.167,610.5 417.5,610.5C 418.167,617.167 418.833,617.167 419.5,610.5C 421.833,610.5 424.167,610.5 426.5,610.5C 426.5,612.167 426.5,613.833 426.5,615.5C 431.913,615.453 437.246,616.12 442.5,617.5C 445.741,617.552 448.741,616.885 451.5,615.5C 452.167,617.5 452.833,619.5 453.5,621.5C 452.127,621.343 450.793,621.51 449.5,622C 452.662,623.027 455.662,624.194 458.5,625.5C 409.832,625.667 361.166,625.5 312.5,625C 311.213,623.59 310.046,622.09 309,620.5C 308.561,589.163 308.728,557.996 309.5,527C 308.833,525.333 308.167,523.667 307.5,522C 308.23,518.206 308.73,514.373 309,510.5C 310.324,516.931 311.158,516.598 311.5,509.5C 311.149,506.378 310.482,503.378 309.5,500.5C 310.833,500.5 312.167,500.5 313.5,500.5C 313.5,499.167 313.5,497.833 313.5,496.5C 315.167,496.5 316.833,496.5 318.5,496.5C 318.67,495.178 318.337,494.011 317.5,493C 319.614,491.502 320.114,489.669 319,487.5C 320.062,488.899 321.395,489.899 323,490.5C 324.03,490.164 324.53,489.497 324.5,488.5 Z"/></g>
<g><path style="opacity:1" fill="#2b3239" d="M 301.5,465.5 C 301.833,465.5 302.167,465.5 302.5,465.5C 304.179,516.817 304.846,568.15 304.5,619.5C 303.921,576.158 302.921,532.824 301.5,489.5C 301.5,481.833 301.5,474.167 301.5,466.5C 301.5,466.167 301.5,465.833 301.5,465.5 Z"/></g>
<g><path style="opacity:1" fill="#a4abab" d="M 328.5,490.5 C 329.873,490.343 331.207,490.51 332.5,491C 335.199,493.35 338.199,495.35 341.5,497C 450.5,497.667 559.5,497.667 668.5,497C 670.743,495.864 673.076,495.03 675.5,494.5C 674.426,496.284 672.76,497.451 670.5,498C 560.501,498.5 450.501,498.667 340.5,498.5C 336.646,496.742 332.979,494.742 329.5,492.5C 329.167,491.833 328.833,491.167 328.5,490.5 Z"/></g>
<g><path style="opacity:1" fill="#040b0b" d="M 329.5,492.5 C 332.979,494.742 336.646,496.742 340.5,498.5C 450.666,499.333 560.999,499.833 671.5,500C 671.043,500.414 670.709,500.914 670.5,501.5C 617.504,502.5 564.504,502.833 511.5,502.5C 476.833,502.5 442.167,502.5 407.5,502.5C 384.498,502.667 361.498,502.5 338.5,502C 334.646,499.469 330.813,496.969 327,494.5C 326.812,492.939 327.645,492.272 329.5,492.5 Z"/></g>
<g><path style="opacity:1" fill="#131c1e" d="M 407.5,502.5 C 442.167,502.5 476.833,502.5 511.5,502.5C 510.391,503.29 509.058,503.79 507.5,504C 500.842,504.5 494.175,504.666 487.5,504.5C 487.109,509.011 487.775,513.345 489.5,517.5C 487.181,520.928 487.181,524.428 489.5,528C 489.252,529.716 488.585,531.216 487.5,532.5C 489.05,534.428 490.717,536.261 492.5,538C 479.308,539.15 465.975,539.984 452.5,540.5C 486.647,541.914 520.647,542.914 554.5,543.5C 518.165,543.333 481.832,543.5 445.5,544C 441.045,548.146 440.045,552.812 442.5,558C 443.448,558.483 444.448,558.649 445.5,558.5C 445.5,558.833 445.5,559.167 445.5,559.5C 439.618,559.951 437.284,557.284 438.5,551.5C 438.44,550.957 438.107,550.624 437.5,550.5C 436.513,553.768 436.18,557.102 436.5,560.5C 435.5,560.5 434.5,560.5 433.5,560.5C 433.5,559.5 433.5,558.5 433.5,557.5C 428.837,555.224 423.837,553.724 418.5,553C 416.347,550.835 413.681,550.002 410.5,550.5C 410.021,541.816 409.354,533.149 408.5,524.5C 405.5,524.5 402.5,524.5 399.5,524.5C 399.5,518.5 399.5,512.5 399.5,506.5C 402.448,506.223 405.281,506.556 408,507.5C 408.384,505.803 408.218,504.137 407.5,502.5 Z"/></g>
<g><path style="opacity:1" fill="#8c9a92" d="M 97.5,442.5 C 96.7396,472.917 97.7396,503.251 100.5,533.5C 98.9501,526.709 97.7834,519.709 97,512.5C 96.1703,488.996 96.3369,465.663 97.5,442.5 Z"/></g>
<g><path style="opacity:1" fill="#050b10" d="M 306.5,466.5 C 308.665,472.671 312.665,477.337 318.5,480.5C 320.091,483.431 322.091,486.098 324.5,488.5C 324.53,489.497 324.03,490.164 323,490.5C 321.395,489.899 320.062,488.899 319,487.5C 320.114,489.669 319.614,491.502 317.5,493C 318.337,494.011 318.67,495.178 318.5,496.5C 316.833,496.5 315.167,496.5 313.5,496.5C 313.5,497.833 313.5,499.167 313.5,500.5C 312.167,500.5 310.833,500.5 309.5,500.5C 310.482,503.378 311.149,506.378 311.5,509.5C 311.158,516.598 310.324,516.931 309,510.5C 308.73,514.373 308.23,518.206 307.5,522C 308.167,523.667 308.833,525.333 309.5,527C 308.728,557.996 308.561,589.163 309,620.5C 310.046,622.09 311.213,623.59 312.5,625C 361.166,625.5 409.832,625.667 458.5,625.5C 528.167,625.333 597.834,625.5 667.5,626C 672.337,626.467 677.17,626.967 682,627.5C 687.124,626.943 691.124,624.61 694,620.5C 695.039,621.244 695.539,622.244 695.5,623.5C 694.167,625.5 692.5,627.167 690.5,628.5C 601.531,628.433 512.531,628.766 423.5,629.5C 421.167,629.5 418.833,629.5 416.5,629.5C 381.669,628.667 346.669,628.167 311.5,628C 310.756,626.961 309.756,626.461 308.5,626.5C 307.513,624.449 306.18,622.782 304.5,621.5C 304.5,620.833 304.5,620.167 304.5,619.5C 304.846,568.15 304.179,516.817 302.5,465.5C 304.263,464.046 305.597,464.38 306.5,466.5 Z"/></g>
<g><path style="opacity:1" fill="#494d57" d="M 375.5,534.5 C 371.818,534.335 368.152,534.501 364.5,535C 363.584,535.278 362.918,535.778 362.5,536.5C 360.05,536.298 357.717,536.631 355.5,537.5C 357.364,535.782 359.697,534.615 362.5,534C 367.02,533.186 371.354,533.353 375.5,534.5 Z"/></g>
<g><path style="opacity:1" fill="#888b94" d="M 375.5,534.5 C 378.491,534.166 380.824,535.166 382.5,537.5C 375.953,535.239 369.287,534.906 362.5,536.5C 362.918,535.778 363.584,535.278 364.5,535C 368.152,534.501 371.818,534.335 375.5,534.5 Z"/></g>
<g><path style="opacity:1" fill="#11191c" d="M 694.5,472.5 C 694.833,472.5 695.167,472.5 695.5,472.5C 695.679,474.954 695.013,477.121 693.5,479C 696.323,480.841 696.156,482.341 693,483.5C 692.667,482.833 692.333,482.167 692,481.5C 689.551,482.906 688.551,484.906 689,487.5C 690.329,486.506 691.662,485.506 693,484.5C 693.772,484.645 694.439,484.978 695,485.5C 695.167,530.17 695.667,574.837 696.5,619.5C 697.167,616.358 697.834,613.358 698.5,610.5C 698.5,613.5 698.5,616.5 698.5,619.5C 697.878,621.122 696.878,622.455 695.5,623.5C 695.539,622.244 695.039,621.244 694,620.5C 691.124,624.61 687.124,626.943 682,627.5C 677.17,626.967 672.337,626.467 667.5,626C 597.834,625.5 528.167,625.333 458.5,625.5C 455.662,624.194 452.662,623.027 449.5,622C 450.793,621.51 452.127,621.343 453.5,621.5C 452.833,619.5 452.167,617.5 451.5,615.5C 448.741,616.885 445.741,617.552 442.5,617.5C 437.246,616.12 431.913,615.453 426.5,615.5C 426.5,613.833 426.5,612.167 426.5,610.5C 424.167,610.5 421.833,610.5 419.5,610.5C 418.833,617.167 418.167,617.167 417.5,610.5C 416.167,610.5 414.833,610.5 413.5,610.5C 413.5,609.167 413.5,607.833 413.5,606.5C 418.168,607.161 420.168,605.161 419.5,600.5C 417.5,600.5 415.5,600.5 413.5,600.5C 413.5,599.167 413.5,597.833 413.5,596.5C 416.518,596.665 419.518,596.498 422.5,596C 423.38,594.644 423.714,593.144 423.5,591.5C 425.167,591.5 426.833,591.5 428.5,591.5C 428.5,597.833 428.5,604.167 428.5,610.5C 431.5,610.5 434.5,610.5 437.5,610.5C 437.5,604.5 437.5,598.5 437.5,592.5C 438.552,592.649 439.552,592.483 440.5,592C 440.167,591.667 439.833,591.333 439.5,591C 441.321,588.544 441.988,585.711 441.5,582.5C 441.088,580.027 442.088,578.694 444.5,578.5C 442.537,581.518 442.037,584.851 443,588.5C 443.498,590.544 444.665,591.878 446.5,592.5C 446.973,593.906 447.973,594.573 449.5,594.5C 485.331,595.664 521.331,595.831 557.5,595C 559.863,594.411 560.863,592.911 560.5,590.5C 560.664,587.813 560.497,585.146 560,582.5C 559.184,581.177 558.017,580.511 556.5,580.5C 556.5,580.167 556.5,579.833 556.5,579.5C 556.5,579.167 556.5,578.833 556.5,578.5C 561.611,577.449 564.277,579.782 564.5,585.5C 561.415,595.291 562.415,595.791 567.5,587C 566.196,586.196 565.529,585.029 565.5,583.5C 567.514,581.293 568.514,578.627 568.5,575.5C 566.097,575.393 564.264,576.393 563,578.5C 561.421,576.959 559.587,575.792 557.5,575C 563.458,576.351 566.458,573.851 566.5,567.5C 565.5,567.5 564.5,567.5 563.5,567.5C 563.265,564.197 561.598,561.863 558.5,560.5C 558.5,560.167 558.5,559.833 558.5,559.5C 558.5,559.167 558.5,558.833 558.5,558.5C 559.5,558.167 560.167,557.5 560.5,556.5C 561.629,554.372 561.796,552.039 561,549.5C 560.777,547.119 559.61,545.453 557.5,544.5C 556.791,543.596 555.791,543.263 554.5,543.5C 520.647,542.914 486.647,541.914 452.5,540.5C 465.975,539.984 479.308,539.15 492.5,538C 490.717,536.261 489.05,534.428 487.5,532.5C 488.585,531.216 489.252,529.716 489.5,528C 487.181,524.428 487.181,520.928 489.5,517.5C 487.775,513.345 487.109,509.011 487.5,504.5C 494.175,504.666 500.842,504.5 507.5,504C 509.058,503.79 510.391,503.29 511.5,502.5C 564.504,502.833 617.504,502.5 670.5,501.5C 670.709,500.914 671.043,500.414 671.5,500C 560.999,499.833 450.666,499.333 340.5,498.5C 450.501,498.667 560.501,498.5 670.5,498C 672.76,497.451 674.426,496.284 675.5,494.5C 683.554,490.113 689.554,483.779 693.5,475.5C 693.557,474.391 693.89,473.391 694.5,472.5 Z"/></g>
<g><path style="opacity:1" fill="#8a929a" d="M 648.5,539.5 C 636.966,535.192 625.633,535.525 614.5,540.5C 614.577,539.25 615.244,538.417 616.5,538C 626.017,533.681 635.684,533.348 645.5,537C 646.942,537.377 647.942,538.21 648.5,539.5 Z"/></g>
<g><path style="opacity:1" fill="#f6f8fa" d="M 382.5,537.5 C 386.745,540.4 390.745,543.733 394.5,547.5C 394.755,549.967 395.755,551.967 397.5,553.5C 398.2,557.798 398.533,562.131 398.5,566.5C 395.874,574.061 391.874,581.061 386.5,587.5C 384.181,587.992 382.181,588.992 380.5,590.5C 374.551,591.579 368.551,591.746 362.5,591C 359.11,588.402 355.443,586.568 351.5,585.5C 348.768,582.442 346.102,579.442 343.5,576.5C 343.1,574.623 342.1,573.123 340.5,572C 339.767,570.234 339.433,568.401 339.5,566.5C 339.728,559.734 341.394,553.401 344.5,547.5C 347.167,545.5 349.5,543.167 351.5,540.5C 352.872,539.488 354.205,538.488 355.5,537.5C 357.717,536.631 360.05,536.298 362.5,536.5C 369.287,534.906 375.953,535.239 382.5,537.5 Z"/></g>
<g><path style="opacity:1" fill="#f9fafb" d="M 648.5,539.5 C 650.473,540.806 652.139,542.473 653.5,544.5C 655.458,547.792 657.791,550.792 660.5,553.5C 661.903,558.387 662.569,563.387 662.5,568.5C 660.853,572.424 659.186,576.424 657.5,580.5C 653.46,583.844 649.46,587.177 645.5,590.5C 644.833,590.5 644.167,590.5 643.5,590.5C 637.158,590.666 630.825,590.5 624.5,590C 622.156,589.163 620.156,587.829 618.5,586C 617.207,585.51 615.873,585.343 614.5,585.5C 611.502,582.333 608.669,579 606,575.5C 604.589,573.35 603.755,571.016 603.5,568.5C 603.334,564.486 603.501,560.486 604,556.5C 605.105,553.461 606.272,550.461 607.5,547.5C 610.167,545.5 612.5,543.167 614.5,540.5C 625.633,535.525 636.966,535.192 648.5,539.5 Z"/></g>
<g><path style="opacity:1" fill="#65696d" d="M 382.5,537.5 C 388.012,539.012 392.012,542.345 394.5,547.5C 390.745,543.733 386.745,540.4 382.5,537.5 Z"/></g>
<g><path style="opacity:1" fill="#777d80" d="M 351.5,540.5 C 349.5,543.167 347.167,545.5 344.5,547.5C 345.833,544.167 348.167,541.833 351.5,540.5 Z"/></g>
<g><path style="opacity:1" fill="#9aa1a7" d="M 554.5,543.5 C 555.791,543.263 556.791,543.596 557.5,544.5C 520.498,544.333 483.498,544.5 446.5,545C 443.123,548.133 441.956,551.966 443,556.5C 446.057,557.451 449.223,557.784 452.5,557.5C 452.5,557.833 452.5,558.167 452.5,558.5C 450.167,558.5 447.833,558.5 445.5,558.5C 444.448,558.649 443.448,558.483 442.5,558C 440.045,552.812 441.045,548.146 445.5,544C 481.832,543.5 518.165,543.333 554.5,543.5 Z"/></g>
<g><path style="opacity:1" fill="#687273" d="M 614.5,540.5 C 612.5,543.167 610.167,545.5 607.5,547.5C 608.833,544.167 611.167,541.833 614.5,540.5 Z"/></g>
<g><path style="opacity:1" fill="#f9f9fb" d="M 557.5,544.5 C 559.252,548.243 560.252,552.243 560.5,556.5C 560.167,557.5 559.5,558.167 558.5,558.5C 545.833,558.5 533.167,558.5 520.5,558.5C 497.84,557.798 475.174,557.465 452.5,557.5C 449.223,557.784 446.057,557.451 443,556.5C 441.956,551.966 443.123,548.133 446.5,545C 483.498,544.5 520.498,544.333 557.5,544.5 Z"/></g>
<g><path style="opacity:1" fill="#4d565b" d="M 699.5,466.5 C 699.5,466.833 699.5,467.167 699.5,467.5C 699.832,518.336 699.499,569.003 698.5,619.5C 698.5,616.5 698.5,613.5 698.5,610.5C 698.833,563.162 698.5,515.829 697.5,468.5C 695.889,469.32 695.222,470.654 695.5,472.5C 695.167,472.5 694.833,472.5 694.5,472.5C 694.366,470.708 694.699,469.042 695.5,467.5C 696.167,467.5 696.5,467.167 696.5,466.5C 697.302,465.048 697.802,463.382 698,461.5C 698.198,463.382 698.698,465.048 699.5,466.5 Z"/></g>
<g><path style="opacity:1" fill="#9ea1a2" d="M 102.5,546.5 C 104.342,550.159 105.342,554.159 105.5,558.5C 103.755,554.8 102.755,550.8 102.5,546.5 Z"/></g>
<g><path style="opacity:1" fill="#9396a3" d="M 557.5,544.5 C 559.61,545.453 560.777,547.119 561,549.5C 561.796,552.039 561.629,554.372 560.5,556.5C 560.252,552.243 559.252,548.243 557.5,544.5 Z"/></g>
<g><path style="opacity:1" fill="#a4a8af" d="M 653.5,544.5 C 655.546,546.279 657.713,547.946 660,549.5C 660.49,550.793 660.657,552.127 660.5,553.5C 657.791,550.792 655.458,547.792 653.5,544.5 Z"/></g>
<g><path style="opacity:1" fill="#7e8184" d="M 394.5,547.5 C 396.245,549.033 397.245,551.033 397.5,553.5C 395.755,551.967 394.755,549.967 394.5,547.5 Z"/></g>
<g><path style="opacity:1" fill="#959a9c" d="M 607.5,547.5 C 606.272,550.461 605.105,553.461 604,556.5C 603.501,560.486 603.334,564.486 603.5,568.5C 602.353,564.354 602.186,560.02 603,555.5C 604.163,553.715 604.83,551.715 605,549.5C 605.708,548.619 606.542,547.953 607.5,547.5 Z"/></g>
<g><path style="opacity:1" fill="#808b8d" d="M 344.5,547.5 C 341.394,553.401 339.728,559.734 339.5,566.5C 338.068,561.138 338.568,555.805 341,550.5C 341.759,548.937 342.926,547.937 344.5,547.5 Z"/></g>
<g><path style="opacity:1" fill="#cdd2db" d="M 452.5,558.5 C 452.5,558.167 452.5,557.833 452.5,557.5C 475.174,557.465 497.84,557.798 520.5,558.5C 509.346,559.495 498.012,559.828 486.5,559.5C 475.086,559.811 463.752,559.477 452.5,558.5 Z"/></g>
<g><path style="opacity:1" fill="#505564" d="M 445.5,559.5 C 445.5,559.167 445.5,558.833 445.5,558.5C 447.833,558.5 450.167,558.5 452.5,558.5C 463.752,559.477 475.086,559.811 486.5,559.5C 486.5,559.833 486.5,560.167 486.5,560.5C 473.451,560.796 460.451,560.463 447.5,559.5C 446.833,559.5 446.167,559.5 445.5,559.5 Z"/></g>
<g><path style="opacity:1" fill="#79878d" d="M 520.5,558.5 C 533.167,558.5 545.833,558.5 558.5,558.5C 558.5,558.833 558.5,559.167 558.5,559.5C 534.545,560.48 510.545,560.814 486.5,560.5C 486.5,560.167 486.5,559.833 486.5,559.5C 498.012,559.828 509.346,559.495 520.5,558.5 Z"/></g>
<g><path style="opacity:1" fill="#04090f" d="M 438.5,551.5 C 437.284,557.284 439.618,559.951 445.5,559.5C 446.167,559.5 446.833,559.5 447.5,559.5C 447.611,560.117 447.944,560.617 448.5,561C 485.336,561.831 522.002,561.664 558.5,560.5C 561.598,561.863 563.265,564.197 563.5,567.5C 564.5,567.5 565.5,567.5 566.5,567.5C 566.458,573.851 563.458,576.351 557.5,575C 559.587,575.792 561.421,576.959 563,578.5C 564.264,576.393 566.097,575.393 568.5,575.5C 568.514,578.627 567.514,581.293 565.5,583.5C 565.529,585.029 566.196,586.196 567.5,587C 562.415,595.791 561.415,595.291 564.5,585.5C 564.277,579.782 561.611,577.449 556.5,578.5C 521.665,577.802 486.999,577.802 452.5,578.5C 449.833,578.5 447.167,578.5 444.5,578.5C 442.088,578.694 441.088,580.027 441.5,582.5C 440.5,582.5 439.5,582.5 438.5,582.5C 437.469,572.004 437.469,561.671 438.5,551.5 Z"/></g>
<g><path style="opacity:1" fill="#262f39" d="M 447.5,559.5 C 460.451,560.463 473.451,560.796 486.5,560.5C 510.545,560.814 534.545,560.48 558.5,559.5C 558.5,559.833 558.5,560.167 558.5,560.5C 522.002,561.664 485.336,561.831 448.5,561C 447.944,560.617 447.611,560.117 447.5,559.5 Z"/></g>
<g><path style="opacity:1" fill="#6c6e71" d="M 397.5,553.5 C 399.363,555.725 400.363,558.392 400.5,561.5C 400.444,563.64 399.777,565.306 398.5,566.5C 398.533,562.131 398.2,557.798 397.5,553.5 Z"/></g>
<g><path style="opacity:1" fill="#a2a6ab" d="M 660.5,553.5 C 662.067,554.681 662.901,556.347 663,558.5C 663.808,562.027 663.641,565.36 662.5,568.5C 662.569,563.387 661.903,558.387 660.5,553.5 Z"/></g>
<g><path style="opacity:1" fill="#070b10" d="M 698.5,610.5 C 697.834,613.358 697.167,616.358 696.5,619.5C 695.667,574.837 695.167,530.17 695,485.5C 694.439,484.978 693.772,484.645 693,484.5C 691.662,485.506 690.329,486.506 689,487.5C 688.551,484.906 689.551,482.906 692,481.5C 692.333,482.167 692.667,482.833 693,483.5C 696.156,482.341 696.323,480.841 693.5,479C 695.013,477.121 695.679,474.954 695.5,472.5C 695.222,470.654 695.889,469.32 697.5,468.5C 698.5,515.829 698.833,563.162 698.5,610.5 Z"/></g>
<g><path style="opacity:1" fill="#989c9f" d="M 398.5,566.5 C 398.663,568.857 398.497,571.19 398,573.5C 395.497,576.502 393.497,579.835 392,583.5C 390.549,585.464 388.716,586.797 386.5,587.5C 391.874,581.061 395.874,574.061 398.5,566.5 Z"/></g>
<g><path style="opacity:1" fill="#8d9496" d="M 108.5,572.5 C 110.213,573.635 110.88,575.302 110.5,577.5C 108.787,576.365 108.12,574.698 108.5,572.5 Z"/></g>
<g><path style="opacity:1" fill="#4c5560" d="M 452.5,578.5 C 486.999,577.802 521.665,577.802 556.5,578.5C 556.5,578.833 556.5,579.167 556.5,579.5C 521.828,579.563 487.162,579.23 452.5,578.5 Z"/></g>
<g><path style="opacity:1" fill="#8f8f94" d="M 662.5,568.5 C 663.695,573.833 662.028,577.833 657.5,580.5C 659.186,576.424 660.853,572.424 662.5,568.5 Z"/></g>
<g><path style="opacity:1" fill="#6b7072" d="M 343.5,576.5 C 346.102,579.442 348.768,582.442 351.5,585.5C 347.435,583.767 344.768,580.767 343.5,576.5 Z"/></g>
<g><path style="opacity:1" fill="#fafafc" d="M 556.5,580.5 C 558.017,580.511 559.184,581.177 560,582.5C 560.497,585.146 560.664,587.813 560.5,590.5C 559.684,592.144 558.35,593.31 556.5,594C 551.511,594.499 546.511,594.666 541.5,594.5C 509.961,593.819 478.294,593.152 446.5,592.5C 444.513,588.774 444.18,584.94 445.5,581C 482.498,580.5 519.498,580.333 556.5,580.5 Z"/></g>
<g><path style="opacity:1" fill="#78787a" d="M 657.5,580.5 C 656.797,582.716 655.464,584.549 653.5,586C 651.183,588.157 648.516,589.657 645.5,590.5C 649.46,587.177 653.46,583.844 657.5,580.5 Z"/></g>
<g><path style="opacity:1" fill="#90999c" d="M 699.5,467.5 C 699.833,467.5 700.167,467.5 700.5,467.5C 700.667,518.834 700.5,570.168 700,621.5C 697.234,624.777 694.067,627.443 690.5,629.5C 690.5,629.167 690.5,628.833 690.5,628.5C 692.5,627.167 694.167,625.5 695.5,623.5C 696.878,622.455 697.878,621.122 698.5,619.5C 699.499,569.003 699.832,518.336 699.5,467.5 Z"/></g>
<g><path style="opacity:1" fill="#aab1b6" d="M 444.5,578.5 C 447.167,578.5 449.833,578.5 452.5,578.5C 487.162,579.23 521.828,579.563 556.5,579.5C 556.5,579.833 556.5,580.167 556.5,580.5C 519.498,580.333 482.498,580.5 445.5,581C 444.18,584.94 444.513,588.774 446.5,592.5C 444.665,591.878 443.498,590.544 443,588.5C 442.037,584.851 442.537,581.518 444.5,578.5 Z"/></g>
<g><path style="opacity:1" fill="#9b9fa1" d="M 614.5,585.5 C 615.873,585.343 617.207,585.51 618.5,586C 620.156,587.829 622.156,589.163 624.5,590C 630.825,590.5 637.158,590.666 643.5,590.5C 636.599,591.81 629.599,591.81 622.5,590.5C 619.151,589.831 616.484,588.164 614.5,585.5 Z"/></g>
<g><path style="opacity:1" fill="#b2b9bd" d="M 301.5,466.5 C 301.5,474.167 301.5,481.833 301.5,489.5C 301.726,531.168 302.059,572.834 302.5,614.5C 300.573,565.174 300.239,515.841 301.5,466.5 Z"/></g>
<g><path style="opacity:1" fill="#5d6165" d="M 351.5,585.5 C 355.443,586.568 359.11,588.402 362.5,591C 368.551,591.746 374.551,591.579 380.5,590.5C 380.389,591.117 380.056,591.617 379.5,592C 370.252,593.682 361.585,592.349 353.5,588C 352.619,587.292 351.953,586.458 351.5,585.5 Z"/></g>
<g><path style="opacity:1" fill="#4b4e51" d="M 622.5,590.5 C 629.599,591.81 636.599,591.81 643.5,590.5C 644.167,590.5 644.833,590.5 645.5,590.5C 642.062,591.823 638.229,592.49 634,592.5C 629.771,592.49 625.938,591.823 622.5,590.5 Z"/></g>
<g><path style="opacity:1" fill="#767d82" d="M 301.5,489.5 C 302.921,532.824 303.921,576.158 304.5,619.5C 304.5,620.167 304.5,620.833 304.5,621.5C 303.883,621.389 303.383,621.056 303,620.5C 302.505,618.527 302.338,616.527 302.5,614.5C 302.059,572.834 301.726,531.168 301.5,489.5 Z"/></g>
<g><path style="opacity:1" fill="#c5c7cb" d="M 446.5,592.5 C 478.294,593.152 509.961,593.819 541.5,594.5C 510.833,594.5 480.167,594.5 449.5,594.5C 447.973,594.573 446.973,593.906 446.5,592.5 Z"/></g>
<g><path style="opacity:1" fill="#8a8d92" d="M 560.5,590.5 C 560.863,592.911 559.863,594.411 557.5,595C 521.331,595.831 485.331,595.664 449.5,594.5C 480.167,594.5 510.833,594.5 541.5,594.5C 546.511,594.666 551.511,594.499 556.5,594C 558.35,593.31 559.684,592.144 560.5,590.5 Z"/></g>
<g><path style="opacity:1" fill="#545e60" d="M 114.5,595.5 C 117.068,600.525 119.068,605.859 120.5,611.5C 119.883,611.389 119.383,611.056 119,610.5C 116.905,605.653 115.405,600.653 114.5,595.5 Z"/></g>
<g><path style="opacity:1" fill="#8d9294" d="M 124.5,621.5 C 126.919,625.064 128.586,629.064 129.5,633.5C 127.081,629.936 125.414,625.936 124.5,621.5 Z"/></g>
<g><path style="opacity:1" fill="#21282a" d="M 152.5,273.5 C 152.241,276.272 151.241,278.605 149.5,280.5C 147.755,282.033 146.755,284.033 146.5,286.5C 143.756,289.646 141.756,293.313 140.5,297.5C 137.939,301.158 135.939,305.158 134.5,309.5C 129.815,316.541 126.482,324.208 124.5,332.5C 121.23,337.607 118.897,343.274 117.5,349.5C 117.5,349.833 117.5,350.167 117.5,350.5C 115.926,352.102 115.259,354.102 115.5,356.5C 113.057,362.606 111.39,368.939 110.5,375.5C 108.926,377.102 108.259,379.102 108.5,381.5C 107.699,383.042 107.366,384.708 107.5,386.5C 106.778,386.918 106.278,387.584 106,388.5C 105.452,392.17 104.952,395.837 104.5,399.5C 103.469,401.961 102.802,404.627 102.5,407.5C 100.405,414.914 99.072,422.58 98.5,430.5C 98.6054,434.548 98.2721,438.548 97.5,442.5C 96.3369,465.663 96.1703,488.996 97,512.5C 97.7834,519.709 98.9501,526.709 100.5,533.5C 100.425,537.981 101.092,542.314 102.5,546.5C 102.755,550.8 103.755,554.8 105.5,558.5C 106.093,563.272 107.093,567.939 108.5,572.5C 108.12,574.698 108.787,576.365 110.5,577.5C 112.212,583.39 113.545,589.39 114.5,595.5C 115.405,600.653 116.905,605.653 119,610.5C 119.383,611.056 119.883,611.389 120.5,611.5C 121.786,614.756 123.12,618.089 124.5,621.5C 125.414,625.936 127.081,629.936 129.5,633.5C 130.083,636.947 131.416,639.947 133.5,642.5C 136.122,646.748 138.455,651.081 140.5,655.5C 140.5,656.167 140.5,656.833 140.5,657.5C 139.504,657.586 138.671,657.252 138,656.5C 89.0486,564.863 78.7153,468.863 107,368.5C 117.314,335.178 131.648,303.845 150,274.5C 150.671,273.748 151.504,273.414 152.5,273.5 Z"/></g>
<g><path style="opacity:1" fill="#8d8f95" d="M 304.5,621.5 C 306.18,622.782 307.513,624.449 308.5,626.5C 306.003,625.871 304.67,624.204 304.5,621.5 Z"/></g>
<g><path style="opacity:1" fill="#44484b" d="M 308.5,626.5 C 309.756,626.461 310.756,626.961 311.5,628C 346.669,628.167 381.669,628.667 416.5,629.5C 381.5,629.5 346.5,629.5 311.5,629.5C 310.167,628.833 309.167,627.833 308.5,626.5 Z"/></g>
<g><path style="opacity:1" fill="#333c43" d="M 690.5,628.5 C 690.5,628.833 690.5,629.167 690.5,629.5C 689.167,629.833 687.833,630.167 686.5,630.5C 598.665,630.833 510.998,630.499 423.5,629.5C 512.531,628.766 601.531,628.433 690.5,628.5 Z"/></g>
<g><path style="opacity:1" fill="#91999f" d="M 311.5,629.5 C 346.5,629.5 381.5,629.5 416.5,629.5C 418.833,629.5 421.167,629.5 423.5,629.5C 510.998,630.499 598.665,630.833 686.5,630.5C 561.999,631.571 437.333,631.571 312.5,630.5C 311.833,630.5 311.5,630.167 311.5,629.5 Z"/></g>
<g><path style="opacity:1" fill="#cfd4d8" d="M 690.5,629.5 C 690.5,630.167 690.5,630.833 690.5,631.5C 660.21,632.485 629.877,632.818 599.5,632.5C 503.662,632.781 407.995,632.115 312.5,630.5C 437.333,631.571 561.999,631.571 686.5,630.5C 687.833,630.167 689.167,629.833 690.5,629.5 Z"/></g>
<g><path style="opacity:1" fill="#8c9192" d="M 129.5,633.5 C 130.931,634.903 132.098,636.569 133,638.5C 133.49,639.793 133.657,641.127 133.5,642.5C 131.416,639.947 130.083,636.947 129.5,633.5 Z"/></g>
<g><path style="opacity:1" fill="#1c1f20" d="M 329.5,652.5 C 329.5,652.167 329.5,651.833 329.5,651.5C 355.835,651.333 382.169,651.5 408.5,652C 409.65,661.089 409.817,670.255 409,679.5C 408.722,680.416 408.222,681.082 407.5,681.5C 407.5,671.833 407.5,662.167 407.5,652.5C 381.5,652.5 355.5,652.5 329.5,652.5 Z"/></g>
<g><path style="opacity:1" fill="#737a7c" d="M 140.5,655.5 C 142.536,658.579 144.202,661.912 145.5,665.5C 143.103,663.338 141.436,660.671 140.5,657.5C 140.5,656.833 140.5,656.167 140.5,655.5 Z"/></g>
<g><path style="opacity:1" fill="#0b1215" d="M 329.5,652.5 C 355.5,652.5 381.5,652.5 407.5,652.5C 407.5,662.167 407.5,671.833 407.5,681.5C 407.5,682.833 407.5,684.167 407.5,685.5C 404.907,686.754 402.573,688.42 400.5,690.5C 380.125,690.665 359.791,690.665 339.5,690.5C 336.19,688.854 333.523,686.52 331.5,683.5C 329.925,673.236 329.258,662.903 329.5,652.5 Z"/></g>
<g><path style="opacity:1" fill="#f7f8f8" d="M 594.5,688.5 C 596.685,688.704 598.685,689.37 600.5,690.5C 600.918,691.222 601.584,691.722 602.5,692C 622.338,692.829 642.004,692.662 661.5,691.5C 664.631,692.092 666.964,691.092 668.5,688.5C 669.239,688.631 669.906,688.464 670.5,688C 671.749,686.02 673.082,684.187 674.5,682.5C 675.829,671.765 675.829,660.931 674.5,650C 646.997,649.17 619.664,649.336 592.5,650.5C 591.883,650.611 591.383,650.944 591,651.5C 590.5,658.158 590.334,664.825 590.5,671.5C 589.345,664.679 589.179,657.679 590,650.5C 591.558,648.232 593.724,647.066 596.5,647C 592.308,644.668 588.808,645.501 586,649.5C 585.501,655.491 585.334,661.491 585.5,667.5C 533.167,667.5 480.833,667.5 428.5,667.5C 428.5,670.167 428.5,672.833 428.5,675.5C 426.5,675.5 424.5,675.5 422.5,675.5C 422.5,677.167 422.5,678.833 422.5,680.5C 420.856,680.714 419.356,680.38 418,679.5C 417.667,681.047 418.167,682.38 419.5,683.5C 417.955,684.452 416.288,684.785 414.5,684.5C 414.176,680.445 414.509,676.445 415.5,672.5C 415.669,673.397 416.002,674.397 416.5,675.5C 417.48,672.914 417.813,670.247 417.5,667.5C 416.5,667.5 415.5,667.5 414.5,667.5C 414.829,661.794 414.495,656.128 413.5,650.5C 412.668,660.483 412.168,670.483 412,680.5C 411.583,681.756 410.75,682.423 409.5,682.5C 410.619,672.213 410.785,661.88 410,651.5C 409.329,650.748 408.496,650.414 407.5,650.5C 381.337,649.337 355.003,649.17 328.5,650C 327.515,659.417 327.182,668.917 327.5,678.5C 326.506,668.681 326.173,658.681 326.5,648.5C 354.502,648.667 382.502,648.5 410.5,648C 409.167,647.333 407.833,646.667 406.5,646C 388.626,645.894 370.792,645.06 353,643.5C 347.863,644.303 342.697,644.636 337.5,644.5C 337.5,642.833 337.5,641.167 337.5,639.5C 331.167,639.5 324.833,639.5 318.5,639.5C 318.921,637.09 320.254,635.257 322.5,634C 350.54,633.085 378.54,633.585 406.5,635.5C 458.637,634.585 510.97,634.251 563.5,634.5C 579.668,635.159 595.835,635.825 612,636.5C 634.828,635.195 657.662,635.195 680.5,636.5C 683.876,636.812 686.876,635.978 689.5,634C 659.331,633.832 629.331,633.332 599.5,632.5C 629.877,632.818 660.21,632.485 690.5,631.5C 690.62,632.586 691.287,633.253 692.5,633.5C 695.391,632.468 697.891,630.801 700,628.5C 701.726,629.576 703.559,629.743 705.5,629C 704.241,628.077 702.908,627.243 701.5,626.5C 704.614,623.994 705.614,620.994 704.5,617.5C 705.5,617.5 706.5,617.5 707.5,617.5C 706.53,621.931 708.197,624.265 712.5,624.5C 712.5,627.167 712.5,629.833 712.5,632.5C 705.833,633.167 705.833,633.833 712.5,634.5C 712.5,636.167 712.5,637.833 712.5,639.5C 713.5,639.5 714.5,639.5 715.5,639.5C 709.122,662.283 702.122,684.95 694.5,707.5C 658.515,718.437 622.515,729.937 586.5,742C 573.159,742.512 559.826,742.345 546.5,741.5C 546.5,739.167 546.5,736.833 546.5,734.5C 553.167,734.5 559.833,734.5 566.5,734.5C 566.5,721.833 566.5,709.167 566.5,696.5C 571.5,696.5 576.5,696.5 581.5,696.5C 581.5,693.167 581.5,689.833 581.5,686.5C 580.167,686.5 578.833,686.5 577.5,686.5C 577.5,683.5 577.5,680.5 577.5,677.5C 580.5,677.5 583.5,677.5 586.5,677.5C 586.278,680.39 586.945,683.057 588.5,685.5C 590.483,686.982 592.316,688.649 594,690.5C 594.464,689.906 594.631,689.239 594.5,688.5 Z"/></g>
<g><path style="opacity:1" fill="#5d6062" d="M 592.5,650.5 C 619.502,650.333 646.502,650.5 673.5,651C 674.487,661.418 674.82,671.918 674.5,682.5C 673.082,684.187 671.749,686.02 670.5,688C 669.906,688.464 669.239,688.631 668.5,688.5C 669.122,687.373 669.955,686.373 671,685.5C 673.297,674.343 673.797,663.176 672.5,652C 645.835,651.5 619.169,651.333 592.5,651.5C 592.47,662.181 592.804,672.848 593.5,683.5C 591.979,679.64 590.979,675.64 590.5,671.5C 590.334,664.825 590.5,658.158 591,651.5C 591.383,650.944 591.883,650.611 592.5,650.5 Z"/></g>
<g><path style="opacity:1" fill="#0b1214" d="M 668.5,688.5 C 666.199,689.06 663.866,689.56 661.5,690C 642.503,690.5 623.503,690.667 604.5,690.5C 603.167,690.5 601.833,690.5 600.5,690.5C 598.167,688.167 595.833,685.833 593.5,683.5C 592.804,672.848 592.47,662.181 592.5,651.5C 619.169,651.333 645.835,651.5 672.5,652C 673.797,663.176 673.297,674.343 671,685.5C 669.955,686.373 669.122,687.373 668.5,688.5 Z"/></g>
<g><path style="opacity:1" fill="#afb5b6" d="M 592.5,650.5 C 619.664,649.336 646.997,649.17 674.5,650C 675.829,660.931 675.829,671.765 674.5,682.5C 674.82,671.918 674.487,661.418 673.5,651C 646.502,650.5 619.502,650.333 592.5,650.5 Z"/></g>
<g><path style="opacity:1" fill="#a5aaab" d="M 407.5,650.5 C 381.328,650.169 355.328,650.502 329.5,651.5C 328.507,660.318 328.173,669.318 328.5,678.5C 328.167,678.5 327.833,678.5 327.5,678.5C 327.182,668.917 327.515,659.417 328.5,650C 355.003,649.17 381.337,649.337 407.5,650.5 Z"/></g>
<g><path style="opacity:1" fill="#4a4a4e" d="M 329.5,651.5 C 329.5,651.833 329.5,652.167 329.5,652.5C 329.258,662.903 329.925,673.236 331.5,683.5C 330.687,681.739 329.687,680.072 328.5,678.5C 328.173,669.318 328.507,660.318 329.5,651.5 Z"/></g>
<g><path style="opacity:1" fill="#747a7b" d="M 329.5,651.5 C 355.328,650.502 381.328,650.169 407.5,650.5C 408.496,650.414 409.329,650.748 410,651.5C 410.785,661.88 410.619,672.213 409.5,682.5C 409.068,683.71 408.401,684.71 407.5,685.5C 407.5,684.167 407.5,682.833 407.5,681.5C 408.222,681.082 408.722,680.416 409,679.5C 409.817,670.255 409.65,661.089 408.5,652C 382.169,651.5 355.835,651.333 329.5,651.5 Z"/></g>
<g><path style="opacity:1" fill="#b6b7ba" d="M 328.5,678.5 C 329.687,680.072 330.687,681.739 331.5,683.5C 333.523,686.52 336.19,688.854 339.5,690.5C 339.5,690.833 339.5,691.167 339.5,691.5C 332.795,689.767 329.129,685.433 328.5,678.5 Z"/></g>
<g><path style="opacity:1" fill="#898c8b" d="M 593.5,683.5 C 595.833,685.833 598.167,688.167 600.5,690.5C 598.685,689.37 596.685,688.704 594.5,688.5C 593.699,686.958 593.366,685.292 593.5,683.5 Z"/></g>
<g><path style="opacity:1" fill="#2d3537" d="M 339.5,691.5 C 339.5,691.167 339.5,690.833 339.5,690.5C 359.791,690.665 380.125,690.665 400.5,690.5C 381.329,691.321 361.996,691.988 342.5,692.5C 341.609,691.89 340.609,691.557 339.5,691.5 Z"/></g>
<g><path style="opacity:1" fill="#363c3f" d="M 668.5,688.5 C 666.964,691.092 664.631,692.092 661.5,691.5C 642.326,691.83 623.326,691.497 604.5,690.5C 623.503,690.667 642.503,690.5 661.5,690C 663.866,689.56 666.199,689.06 668.5,688.5 Z"/></g>
<g><path style="opacity:1" fill="#73777a" d="M 600.5,690.5 C 601.833,690.5 603.167,690.5 604.5,690.5C 623.326,691.497 642.326,691.83 661.5,691.5C 642.004,692.662 622.338,692.829 602.5,692C 601.584,691.722 600.918,691.222 600.5,690.5 Z"/></g>
<g><path style="opacity:1" fill="#8c9697" d="M 407.5,685.5 C 405.074,688.932 402.074,691.599 398.5,693.5C 379.659,693.83 360.993,693.497 342.5,692.5C 361.996,691.988 381.329,691.321 400.5,690.5C 402.573,688.42 404.907,686.754 407.5,685.5 Z"/></g>
<g><path style="opacity:1" fill="#d6dcdd" d="M 339.5,691.5 C 340.609,691.557 341.609,691.89 342.5,692.5C 360.993,693.497 379.659,693.83 398.5,693.5C 379.671,694.662 360.671,694.829 341.5,694C 340.619,693.292 339.953,692.458 339.5,691.5 Z"/></g>
<g><path style="opacity:1" fill="#282f30" d="M 150.5,674.5 C 162.319,692.33 175.319,709.33 189.5,725.5C 186.215,725.731 183.715,724.397 182,721.5C 173.235,710.091 164.568,698.757 156,687.5C 154.773,684.269 153.106,681.269 151,678.5C 150.51,677.207 150.343,675.873 150.5,674.5 Z"/></g>
<g><path style="opacity:1" fill="#212a2b" d="M 189.5,725.5 C 216.399,755.439 246.732,780.772 280.5,801.5C 282.566,803.199 284.9,804.532 287.5,805.5C 290.723,808.247 294.389,810.247 298.5,811.5C 303.542,815.021 308.875,818.021 314.5,820.5C 312.473,820.662 310.473,820.495 308.5,820C 264.178,797.995 225.345,768.828 192,732.5C 191.616,729.94 190.783,727.606 189.5,725.5 Z"/></g>
<g><path style="opacity:1" fill="#909a9a" d="M 280.5,801.5 C 283.546,801.725 285.879,803.058 287.5,805.5C 284.9,804.532 282.566,803.199 280.5,801.5 Z"/></g>
<g><path style="opacity:1" fill="#a5afaf" d="M 287.5,805.5 C 291.884,806.192 295.55,808.192 298.5,811.5C 294.389,810.247 290.723,808.247 287.5,805.5 Z"/></g>
<g><path style="opacity:1" fill="#aab9b9" d="M 298.5,811.5 C 304.845,814.007 311.178,816.507 317.5,819C 319.319,819.74 320.652,820.907 321.5,822.5C 319.106,821.985 316.772,821.319 314.5,820.5C 308.875,818.021 303.542,815.021 298.5,811.5 Z"/></g>
<g><path style="opacity:1" fill="#7c8f95" d="M 321.5,822.5 C 324.1,823.468 326.434,824.801 328.5,826.5C 325.454,826.275 323.121,824.942 321.5,822.5 Z"/></g>
<g><path style="opacity:1" fill="#95a4aa" d="M 328.5,826.5 C 335.297,827.569 341.297,830.236 346.5,834.5C 341.511,832.674 336.511,830.841 331.5,829C 330.058,828.623 329.058,827.79 328.5,826.5 Z"/></g>
<g><path style="opacity:1" fill="#909a9d" d="M 347.5,834.5 C 350.855,834.69 353.855,835.69 356.5,837.5C 353.084,837.472 350.084,836.472 347.5,834.5 Z"/></g>
<g><path style="opacity:1" fill="#374545" d="M 356.5,837.5 C 366.687,841.628 377.02,845.295 387.5,848.5C 376.134,847.187 365.801,843.52 356.5,837.5 Z"/></g>
<g><path style="opacity:1" fill="#b0bdbb" d="M 391.5,848.5 C 394.187,848.336 396.854,848.503 399.5,849C 401.32,849.2 402.653,850.034 403.5,851.5C 401.435,851.483 399.435,851.15 397.5,850.5C 395.214,850.405 393.214,849.738 391.5,848.5 Z"/></g>
<g><path style="opacity:1" fill="#6d7a7c" d="M 397.5,850.5 C 399.435,851.15 401.435,851.483 403.5,851.5C 415.706,853.889 427.706,856.555 439.5,859.5C 425.684,857.864 412.017,855.364 398.5,852C 397.944,851.617 397.611,851.117 397.5,850.5 Z"/></g>
<g><path style="opacity:1" fill="#bdc4c3" d="M 450.5,860.5 C 478.834,861.809 507.168,861.809 535.5,860.5C 507.166,864.5 478.833,864.5 450.5,860.5 Z"/></g>
</svg>
