<?xml version="1.0" encoding="UTF-8"?>
<!DOCTYPE svg PUBLIC "-//W3C//DTD SVG 1.1//EN" "http://www.w3.org/Graphics/SVG/1.1/DTD/svg11.dtd">
<svg xmlns="http://www.w3.org/2000/svg" version="1.1" width="992px" height="1291px" style="shape-rendering:geometricPrecision; text-rendering:geometricPrecision; image-rendering:optimizeQuality; fill-rule:evenodd; clip-rule:evenodd" xmlns:xlink="http://www.w3.org/1999/xlink">
<g><path style="opacity:0.995" fill="#000000" d="M 462.5,-0.5 C 484.5,-0.5 506.5,-0.5 528.5,-0.5C 685.444,12.4792 810.944,81.4792 905,206.5C 955.545,278.963 984.378,359.296 991.5,447.5C 991.5,468.167 991.5,488.833 991.5,509.5C 985.683,585.423 963.183,656.09 924,721.5C 806.752,894.994 689.752,1068.66 573,1242.5C 559.996,1269.26 538.829,1285.26 509.5,1290.5C 499.833,1290.5 490.167,1290.5 480.5,1290.5C 454.782,1285.56 434.615,1272.22 420,1250.5C 363.411,1158.98 305.078,1068.64 245,979.5C 203,916.833 161,854.167 119,791.5C 48.213,710.892 8.37971,616.892 -0.5,509.5C -0.5,488.833 -0.5,468.167 -0.5,447.5C 15.0179,290.232 88.0179,167.732 218.5,80C 293.059,32.6469 374.393,5.81357 462.5,-0.5 Z"/></g>
<g><path style="opacity:1" fill="#2f3b39" d="M 477.5,89.5 C 469.335,90.4202 461.002,91.0868 452.5,91.5C 453.952,90.6981 455.618,90.1981 457.5,90C 464.158,89.5004 470.825,89.3337 477.5,89.5 Z"/></g>
<g><path style="opacity:1" fill="#b3bcbb" d="M 477.5,89.5 C 491.837,89.3334 506.171,89.5001 520.5,90C 528.71,90.2418 536.71,91.0751 544.5,92.5C 513.834,91.1868 483.168,91.1868 452.5,92.5C 452.5,92.1667 452.5,91.8333 452.5,91.5C 461.002,91.0868 469.335,90.4202 477.5,89.5 Z"/></g>
<g><path style="opacity:0.999" fill="#fdfefe" d="M 544.5,92.5 C 660.35,107.325 753.517,160.992 824,253.5C 899.348,361.965 916.015,478.965 874,604.5C 824.15,729.348 734.65,810.515 605.5,848C 582.557,854.422 559.223,858.589 535.5,860.5C 507.168,861.809 478.834,861.809 450.5,860.5C 446.881,859.756 443.215,859.423 439.5,859.5C 427.706,856.555 415.706,853.889 403.5,851.5C 402.653,850.034 401.32,849.2 399.5,849C 396.854,848.503 394.187,848.336 391.5,848.5C 390.167,848.5 388.833,848.5 387.5,848.5C 377.02,845.295 366.687,841.628 356.5,837.5C 353.855,835.69 350.855,834.69 347.5,834.5C 347.167,834.5 346.833,834.5 346.5,834.5C 341.297,830.236 335.297,827.569 328.5,826.5C 326.434,824.801 324.1,823.468 321.5,822.5C 320.652,820.907 319.319,819.74 317.5,819C 311.178,816.507 304.845,814.007 298.5,811.5C 295.55,808.192 291.884,806.192 287.5,805.5C 285.879,803.058 283.546,801.725 280.5,801.5C 261.224,790.164 243.224,776.83 226.5,761.5C 223.769,757.766 220.436,754.766 216.5,752.5C 207.14,743.806 198.14,734.806 189.5,725.5C 175.319,709.33 162.319,692.33 150.5,674.5C 149.389,671.144 147.723,668.144 145.5,665.5C 144.202,661.912 142.536,658.579 140.5,655.5C 138.455,651.081 136.122,646.748 133.5,642.5C 133.657,641.127 133.49,639.793 133,638.5C 132.098,636.569 130.931,634.903 129.5,633.5C 128.586,629.064 126.919,625.064 124.5,621.5C 123.353,618.053 122.02,614.72 120.5,611.5C 119.068,605.859 117.068,600.525 114.5,595.5C 113.545,589.39 112.212,583.39 110.5,577.5C 110.88,575.302 110.213,573.635 108.5,572.5C 107.537,568.899 106.87,565.233 106.5,561.5C 105.691,556.255 104.358,551.255 102.5,546.5C 101.092,542.314 100.425,537.981 100.5,533.5C 98.2449,499.191 97.9116,464.858 99.5,430.5C 100.721,422.847 101.721,415.18 102.5,407.5C 102.802,404.627 103.469,401.961 104.5,399.5C 106.237,395.458 107.237,391.124 107.5,386.5C 107.366,384.708 107.699,383.042 108.5,381.5C 110.074,379.898 110.741,377.898 110.5,375.5C 111.39,368.939 113.057,362.606 115.5,356.5C 117.074,354.898 117.741,352.898 117.5,350.5C 117.5,350.167 117.5,349.833 117.5,349.5C 118.117,349.389 118.617,349.056 119,348.5C 120.953,343.17 122.787,337.837 124.5,332.5C 128.585,325.313 131.919,317.646 134.5,309.5C 137.548,306.07 139.548,302.07 140.5,297.5C 141.376,297.631 142.043,297.298 142.5,296.5C 144.142,293.181 145.809,289.847 147.5,286.5C 148.484,283.572 148.817,280.572 148.5,277.5C 157.809,261.725 168.476,246.892 180.5,233C 181.094,232.536 181.761,232.369 182.5,232.5C 185.52,230.477 187.854,227.81 189.5,224.5C 197.202,217.799 204.202,210.466 210.5,202.5C 223.125,188.705 237.125,176.539 252.5,166C 272.246,151.79 293.246,139.623 315.5,129.5C 321.175,128.494 326.175,126.161 330.5,122.5C 335.232,122.373 339.232,120.707 342.5,117.5C 350.384,115.041 358.384,112.874 366.5,111C 367.381,110.292 368.047,109.458 368.5,108.5C 369.391,107.89 370.391,107.557 371.5,107.5C 380.986,106.552 389.986,104.218 398.5,100.5C 407.109,98.889 415.776,97.5557 424.5,96.5C 433.076,95.9133 441.41,94.58 449.5,92.5C 450.5,92.5 451.5,92.5 452.5,92.5C 483.168,91.1868 513.834,91.1868 544.5,92.5 Z"/></g>
<g><path style="opacity:1" fill="#c3c8c9" d="M 449.5,92.5 C 441.41,94.58 433.076,95.9133 424.5,96.5C 432.555,94.2139 440.888,92.8805 449.5,92.5 Z"/></g>
<g><path style="opacity:1" fill="#636c6c" d="M 452.5,91.5 C 452.5,91.8333 452.5,92.1667 452.5,92.5C 451.5,92.5 450.5,92.5 449.5,92.5C 440.888,92.8805 432.555,94.2139 424.5,96.5C 415.776,97.5557 407.109,98.889 398.5,100.5C 416.017,95.3582 434.017,92.3582 452.5,91.5 Z"/></g>
<g><path style="opacity:1" fill="#9faead" d="M 398.5,100.5 C 389.986,104.218 380.986,106.552 371.5,107.5C 380.185,104.291 389.185,101.958 398.5,100.5 Z"/></g>
<g><path style="opacity:1" fill="#a9b5b3" d="M 368.5,108.5 C 368.047,109.458 367.381,110.292 366.5,111C 358.384,112.874 350.384,115.041 342.5,117.5C 350.702,113.411 359.368,110.411 368.5,108.5 Z"/></g>
<g><path style="opacity:1" fill="#aebbb9" d="M 342.5,117.5 C 339.232,120.707 335.232,122.373 330.5,122.5C 334.203,120.321 338.203,118.655 342.5,117.5 Z"/></g>
<g><path style="opacity:1" fill="#b2bebc" d="M 330.5,122.5 C 326.175,126.161 321.175,128.494 315.5,129.5C 320.07,126.384 325.07,124.05 330.5,122.5 Z"/></g>
<g><path style="opacity:1" fill="#b4b6bc" d="M 487.5,185.5 C 491.311,184.355 495.311,184.188 499.5,185C 500.756,185.417 501.423,186.25 501.5,187.5C 497.028,185.784 492.362,185.118 487.5,185.5 Z"/></g>
<g><path style="opacity:1" fill="#565961" d="M 487.5,185.5 C 492.362,185.118 497.028,185.784 501.5,187.5C 503.833,190.5 506.5,193.167 509.5,195.5C 510.11,196.391 510.443,197.391 510.5,198.5C 507.036,195.538 503.703,192.371 500.5,189C 496.594,187.566 492.594,187.233 488.5,188C 485.673,191.239 482.34,193.739 478.5,195.5C 478.369,194.761 478.536,194.094 479,193.5C 481.425,191.333 483.925,189.333 486.5,187.5C 486.328,186.508 486.662,185.842 487.5,185.5 Z"/></g>
<g><path style="opacity:1" fill="#9fa3ae" d="M 501.5,187.5 C 505.167,189.167 507.833,191.833 509.5,195.5C 506.5,193.167 503.833,190.5 501.5,187.5 Z"/></g>
<g><path style="opacity:1" fill="#b7b7b8" d="M 486.5,187.5 C 483.925,189.333 481.425,191.333 479,193.5C 478.536,194.094 478.369,194.761 478.5,195.5C 477.833,195.5 477.167,195.5 476.5,195.5C 477.913,192.581 479.913,190.081 482.5,188C 483.793,187.51 485.127,187.343 486.5,187.5 Z"/></g>
<g><path style="opacity:1" fill="#111418" d="M 510.5,198.5 C 512.603,201.72 514.936,204.72 517.5,207.5C 517.372,209.655 517.872,211.655 519,213.5C 521.723,216.383 524.223,219.383 526.5,222.5C 526.572,225.553 527.572,228.219 529.5,230.5C 530.358,233.235 531.858,235.568 534,237.5C 534.798,239.259 534.631,240.926 533.5,242.5C 528.996,239.658 525.996,235.658 524.5,230.5C 522.167,228.833 519.833,227.167 517.5,225.5C 514.483,228.554 510.817,229.887 506.5,229.5C 506.5,227.833 506.5,226.167 506.5,224.5C 504.833,224.5 503.167,224.5 501.5,224.5C 501.5,221.833 501.5,219.167 501.5,216.5C 500.5,216.5 499.5,216.5 498.5,216.5C 498.5,214.5 498.5,212.5 498.5,210.5C 494.115,211.206 490.615,209.873 488,206.5C 487.692,207.308 487.192,207.975 486.5,208.5C 485.692,206.577 485.192,204.577 485,202.5C 484,201.833 483,201.167 482,200.5C 480.441,202.217 479.608,204.217 479.5,206.5C 474.278,209.223 470.778,213.556 469,219.5C 467.743,221.746 465.91,223.079 463.5,223.5C 463.657,224.873 463.49,226.207 463,227.5C 461.274,229.228 459.941,231.228 459,233.5C 457.989,234.337 456.822,234.67 455.5,234.5C 455.175,239.139 453.175,242.806 449.5,245.5C 448.481,243.54 448.481,241.54 449.5,239.5C 450.793,237.704 452.293,236.037 454,234.5C 456.844,228.811 459.678,223.145 462.5,217.5C 467.81,210.239 473.144,202.906 478.5,195.5C 482.34,193.739 485.673,191.239 488.5,188C 492.594,187.233 496.594,187.566 500.5,189C 503.703,192.371 507.036,195.538 510.5,198.5 Z"/></g>
<g><path style="opacity:1" fill="#a1a4a9" d="M 509.5,195.5 C 511.516,196.456 513.349,197.79 515,199.5C 517.78,204.062 520.28,208.728 522.5,213.5C 520.137,212.059 518.47,210.059 517.5,207.5C 514.936,204.72 512.603,201.72 510.5,198.5C 510.443,197.391 510.11,196.391 509.5,195.5 Z"/></g>
<g><path style="opacity:1" fill="#5a5b5b" d="M 476.5,195.5 C 477.167,195.5 477.833,195.5 478.5,195.5C 473.144,202.906 467.81,210.239 462.5,217.5C 463.63,215.685 464.296,213.685 464.5,211.5C 468.829,206.492 472.829,201.159 476.5,195.5 Z"/></g>
<g><path style="opacity:1" fill="#989999" d="M 210.5,202.5 C 204.202,210.466 197.202,217.799 189.5,224.5C 193.098,219.726 196.931,215.06 201,210.5C 203.766,207.223 206.933,204.557 210.5,202.5 Z"/></g>
<g><path style="opacity:1" fill="#535a64" d="M 517.5,207.5 C 518.47,210.059 520.137,212.059 522.5,213.5C 524.601,216.127 525.934,219.127 526.5,222.5C 524.223,219.383 521.723,216.383 519,213.5C 517.872,211.655 517.372,209.655 517.5,207.5 Z"/></g>
<g><path style="opacity:1" fill="#1a1d1d" d="M 529.5,230.5 C 533.237,234.231 536.57,238.231 539.5,242.5C 539.338,244.527 539.505,246.527 540,248.5C 542,250.5 544,252.5 546,254.5C 548.429,258.076 550.595,261.743 552.5,265.5C 553.1,269.748 551.767,270.915 548.5,269C 546.932,266.696 545.765,264.196 545,261.5C 543.108,260.87 541.441,259.87 540,258.5C 539.308,259.025 538.808,259.692 538.5,260.5C 540.272,266.307 538.605,270.974 533.5,274.5C 529.893,275.489 526.226,275.823 522.5,275.5C 523.205,278.244 523.205,280.911 522.5,283.5C 519.833,280.833 517.167,280.833 514.5,283.5C 514.218,281.013 514.218,278.347 514.5,275.5C 510.167,275.5 505.833,275.5 501.5,275.5C 501.5,292.5 501.5,309.5 501.5,326.5C 511.028,327.103 520.362,326.436 529.5,324.5C 530.495,329.792 530.828,335.125 530.5,340.5C 533.206,340.575 535.873,340.908 538.5,341.5C 538.5,345.833 538.5,350.167 538.5,354.5C 540.167,354.5 541.833,354.5 543.5,354.5C 543.5,375.167 543.5,395.833 543.5,416.5C 539.167,416.5 534.833,416.5 530.5,416.5C 530.5,417.833 530.5,419.167 530.5,420.5C 525.167,420.5 519.833,420.5 514.5,420.5C 514.5,428.5 514.5,436.5 514.5,444.5C 506.5,444.5 498.5,444.5 490.5,444.5C 490.5,446.167 490.5,447.833 490.5,449.5C 488.833,449.5 487.167,449.5 485.5,449.5C 485.5,447.833 485.5,446.167 485.5,444.5C 483.167,444.5 480.833,444.5 478.5,444.5C 478.5,448.833 478.5,453.167 478.5,457.5C 471.5,457.5 464.5,457.5 457.5,457.5C 457.5,459.5 457.5,461.5 457.5,463.5C 456.167,463.5 454.833,463.5 453.5,463.5C 453.5,461.5 453.5,459.5 453.5,457.5C 456.645,456.923 458.145,454.923 458,451.5C 458.703,448.518 458.203,445.851 456.5,443.5C 456.291,442.078 455.791,440.745 455,439.5C 454.346,440.696 453.846,440.696 453.5,439.5C 456.523,433.126 459.856,426.792 463.5,420.5C 466.977,416.933 470.644,413.6 474.5,410.5C 474.832,407.158 476.332,404.492 479,402.5C 481.075,403.895 482.908,403.562 484.5,401.5C 485.429,402.689 485.762,404.022 485.5,405.5C 490.723,403.26 495.89,400.927 501,398.5C 501.5,383.837 501.667,369.17 501.5,354.5C 496.167,354.5 490.833,354.5 485.5,354.5C 485.5,350.167 485.5,345.833 485.5,341.5C 483.167,341.5 480.833,341.5 478.5,341.5C 478.5,339.5 478.5,337.5 478.5,335.5C 474.167,335.5 469.833,335.5 465.5,335.5C 465.5,336.5 465.5,337.5 465.5,338.5C 460.833,338.5 456.167,338.5 451.5,338.5C 451.5,337.5 451.5,336.5 451.5,335.5C 450.5,335.5 449.5,335.5 448.5,335.5C 448.207,339.437 448.54,343.27 449.5,347C 438.639,350.733 438.972,352.733 450.5,353C 452.056,353.72 453.056,354.887 453.5,356.5C 452.167,356.167 450.833,355.833 449.5,355.5C 447.473,355.338 445.473,355.505 443.5,356C 441.63,358.04 439.63,359.873 437.5,361.5C 436.504,361.414 435.671,361.748 435,362.5C 432.578,366.344 429.911,370.01 427,373.5C 426.51,374.793 426.343,376.127 426.5,377.5C 424.787,378.635 424.12,380.302 424.5,382.5C 422.5,383.833 420.833,385.5 419.5,387.5C 416.285,392.906 412.785,398.239 409,403.5C 408.51,404.793 408.343,406.127 408.5,407.5C 407.518,408.141 406.518,408.807 405.5,409.5C 404.527,407.608 403.86,405.608 403.5,403.5C 404.845,401.677 405.345,399.677 405,397.5C 402.827,396.111 400.661,394.778 398.5,393.5C 401.797,390.568 403.13,386.901 402.5,382.5C 401.167,382.5 399.833,382.5 398.5,382.5C 398.5,378.5 398.5,374.5 398.5,370.5C 392.833,370.5 387.167,370.5 381.5,370.5C 381.838,367.989 381.838,365.655 381.5,363.5C 380.088,364.806 378.421,365.64 376.5,366C 371.861,372.953 367.694,380.12 364,387.5C 363.801,385.598 362.967,384.098 361.5,383C 365.973,376.378 369.973,369.545 373.5,362.5C 375.98,356.262 379.48,350.595 384,345.5C 385.811,341.005 388.478,337.005 392,333.5C 393.386,330.267 394.553,326.934 395.5,323.5C 404.706,312.786 412.706,301.119 419.5,288.5C 422.456,286.212 424.123,283.212 424.5,279.5C 427.761,272.749 431.761,266.416 436.5,260.5C 440.878,256.415 443.711,251.415 445,245.5C 446.594,243.474 448.094,241.474 449.5,239.5C 448.481,241.54 448.481,243.54 449.5,245.5C 453.175,242.806 455.175,239.139 455.5,234.5C 456.822,234.67 457.989,234.337 459,233.5C 459.941,231.228 461.274,229.228 463,227.5C 463.49,226.207 463.657,224.873 463.5,223.5C 465.91,223.079 467.743,221.746 469,219.5C 470.778,213.556 474.278,209.223 479.5,206.5C 479.608,204.217 480.441,202.217 482,200.5C 483,201.167 484,201.833 485,202.5C 485.192,204.577 485.692,206.577 486.5,208.5C 487.192,207.975 487.692,207.308 488,206.5C 490.615,209.873 494.115,211.206 498.5,210.5C 498.5,212.5 498.5,214.5 498.5,216.5C 499.5,216.5 500.5,216.5 501.5,216.5C 501.5,219.167 501.5,221.833 501.5,224.5C 503.167,224.5 504.833,224.5 506.5,224.5C 506.5,226.167 506.5,227.833 506.5,229.5C 510.817,229.887 514.483,228.554 517.5,225.5C 519.833,227.167 522.167,228.833 524.5,230.5C 525.996,235.658 528.996,239.658 533.5,242.5C 534.631,240.926 534.798,239.259 534,237.5C 531.858,235.568 530.358,233.235 529.5,230.5 Z"/></g>
<g><path style="opacity:1" fill="#929494" d="M 464.5,211.5 C 464.296,213.685 463.63,215.685 462.5,217.5C 457.355,224.82 452.021,232.153 446.5,239.5C 446.557,238.391 446.89,237.391 447.5,236.5C 451.424,231.657 454.591,226.324 457,220.5C 459.985,217.838 462.485,214.838 464.5,211.5 Z"/></g>
<g><path style="opacity:1" fill="#808582" d="M 189.5,224.5 C 187.854,227.81 185.52,230.477 182.5,232.5C 184.117,229.216 186.45,226.549 189.5,224.5 Z"/></g>
<g><path style="opacity:1" fill="#767f83" d="M 526.5,222.5 C 529.458,225.06 531.958,228.06 534,231.5C 535.557,235.358 537.39,239.025 539.5,242.5C 536.57,238.231 533.237,234.231 529.5,230.5C 527.572,228.219 526.572,225.553 526.5,222.5 Z"/></g>
<g><path style="opacity:1" fill="#c5c5c5" d="M 447.5,236.5 C 446.89,237.391 446.557,238.391 446.5,239.5C 444.126,243.105 442.293,247.105 441,251.5C 440.051,253.093 438.885,254.426 437.5,255.5C 435.311,257.224 434.144,259.558 434,262.5C 432.333,263.733 430.833,265.067 429.5,266.5C 432.015,260.808 434.681,255.141 437.5,249.5C 438.76,248.618 439.926,247.618 441,246.5C 442.327,243.503 443.661,240.503 445,237.5C 445.671,236.748 446.504,236.414 447.5,236.5 Z"/></g>
<g><path style="opacity:1" fill="#3b3c3c" d="M 462.5,217.5 C 459.678,223.145 456.844,228.811 454,234.5C 452.293,236.037 450.793,237.704 449.5,239.5C 448.094,241.474 446.594,243.474 445,245.5C 443.711,251.415 440.878,256.415 436.5,260.5C 437.038,258.883 437.371,257.216 437.5,255.5C 438.885,254.426 440.051,253.093 441,251.5C 442.293,247.105 444.126,243.105 446.5,239.5C 452.021,232.153 457.355,224.82 462.5,217.5 Z"/></g>
<g><path style="opacity:1" fill="#61646a" d="M 539.5,242.5 C 540.167,242.833 540.833,243.167 541.5,243.5C 541.547,247.804 543.381,251.137 547,253.5C 550.015,257.529 552.515,261.863 554.5,266.5C 553.833,266.167 553.167,265.833 552.5,265.5C 550.595,261.743 548.429,258.076 546,254.5C 544,252.5 542,250.5 540,248.5C 539.505,246.527 539.338,244.527 539.5,242.5 Z"/></g>
<g><path style="opacity:1" fill="#1d2121" d="M 552.5,265.5 C 553.167,265.833 553.833,266.167 554.5,266.5C 559.27,273.932 563.603,281.599 567.5,289.5C 567.343,290.873 567.51,292.207 568,293.5C 573.439,301.732 578.939,309.732 584.5,317.5C 585.167,317.5 585.833,317.5 586.5,317.5C 586.699,319.96 587.365,322.293 588.5,324.5C 593.824,332.809 599.824,340.475 606.5,347.5C 608.428,349.781 609.428,352.447 609.5,355.5C 610.985,358.815 610.652,361.981 608.5,365C 609.252,367.154 609.419,369.32 609,371.5C 607.883,370.051 607.216,368.384 607,366.5C 606.29,367.973 605.124,368.64 603.5,368.5C 603.604,373.306 602.937,377.972 601.5,382.5C 604.881,382.54 608.214,382.207 611.5,381.5C 611.5,382.833 611.5,384.167 611.5,385.5C 603.833,385.5 596.167,385.5 588.5,385.5C 588.5,394.833 588.5,404.167 588.5,413.5C 592.833,413.5 597.167,413.5 601.5,413.5C 603.346,423.685 604.013,434.018 603.5,444.5C 607.833,444.5 612.167,444.5 616.5,444.5C 616.5,448.833 616.5,453.167 616.5,457.5C 620.833,457.5 625.167,457.5 629.5,457.5C 629.5,463.167 629.5,468.833 629.5,474.5C 635.167,474.5 640.833,474.5 646.5,474.5C 646.5,478.833 646.5,483.167 646.5,487.5C 651.412,488.026 656.078,487.359 660.5,485.5C 660.833,486.333 661.167,487.167 661.5,488C 659.803,492.683 659.136,497.516 659.5,502.5C 661.766,502.859 663.599,502.192 665,500.5C 665.118,497.629 665.784,494.962 667,492.5C 667.667,487.833 667.667,483.167 667,478.5C 663.471,468.385 659.638,458.385 655.5,448.5C 654.844,446.547 654.511,444.547 654.5,442.5C 655.5,442.5 656.5,442.5 657.5,442.5C 657.132,445.624 658.298,447.957 661,449.5C 661.567,452.168 662.067,454.834 662.5,457.5C 663.5,457.5 664.5,457.5 665.5,457.5C 666.458,457.953 667.292,458.619 668,459.5C 668.115,464.244 669.282,468.578 671.5,472.5C 672.457,477.032 673.79,481.365 675.5,485.5C 676.449,493.577 677.783,501.577 679.5,509.5C 678.839,508.282 678.172,506.949 677.5,505.5C 676.667,519.154 676.167,532.821 676,546.5C 673.534,557.744 673.034,569.077 674.5,580.5C 675.086,580.291 675.586,579.957 676,579.5C 676.678,570.792 677.678,562.125 679,553.5C 679.383,552.944 679.883,552.611 680.5,552.5C 678.954,562.775 677.954,573.109 677.5,583.5C 677.167,583.5 676.833,583.5 676.5,583.5C 674.561,588.07 672.728,592.736 671,597.5C 670.667,600.167 670.333,602.833 670,605.5C 666.832,608.744 665.332,612.744 665.5,617.5C 663.676,619.737 662.009,622.071 660.5,624.5C 655.686,630.315 651.686,636.648 648.5,643.5C 646.102,646.571 644.102,649.905 642.5,653.5C 641.761,653.369 641.094,653.536 640.5,654C 638,657.167 635.5,660.333 633,663.5C 631.829,664.893 630.329,665.727 628.5,666C 626.915,668.744 624.915,670.911 622.5,672.5C 619.403,674.081 616.403,675.914 613.5,678C 608.456,679.364 603.456,679.864 598.5,679.5C 598.313,681.564 597.813,683.564 597,685.5C 596.333,686.833 595.667,686.833 595,685.5C 593.562,686.9 592.729,688.567 592.5,690.5C 589.241,689.336 585.907,688.336 582.5,687.5C 582.674,685.139 583.007,682.806 583.5,680.5C 579.5,680.5 575.5,680.5 571.5,680.5C 571.5,665.833 571.5,651.167 571.5,636.5C 581.5,636.5 591.5,636.5 601.5,636.5C 601.5,631.167 601.5,625.833 601.5,620.5C 606.5,620.5 611.5,620.5 616.5,620.5C 616.5,615.167 616.5,609.833 616.5,604.5C 620.833,604.5 625.167,604.5 629.5,604.5C 631.015,580.615 632.015,556.615 632.5,532.5C 631.624,531.749 630.624,531.249 629.5,531C 620.173,530.5 610.839,530.334 601.5,530.5C 601.5,521.5 601.5,512.5 601.5,503.5C 591.5,503.5 581.5,503.5 571.5,503.5C 571.5,512.833 571.5,522.167 571.5,531.5C 567.167,531.5 562.833,531.5 558.5,531.5C 558.5,536.5 558.5,541.5 558.5,546.5C 553.5,546.5 548.5,546.5 543.5,546.5C 543.5,555.833 543.5,565.167 543.5,574.5C 538.5,574.5 533.5,574.5 528.5,574.5C 528.5,575.5 528.5,576.5 528.5,577.5C 524.5,577.5 520.5,577.5 516.5,577.5C 516.8,582.099 516.467,586.599 515.5,591C 505.5,591.667 495.5,591.667 485.5,591C 484.533,586.599 484.2,582.099 484.5,577.5C 480.5,577.5 476.5,577.5 472.5,577.5C 470.865,572.679 470.198,567.679 470.5,562.5C 465.788,562.381 461.288,562.381 457,562.5C 455.558,557.691 455.058,552.691 455.5,547.5C 450.453,547.663 445.453,547.329 440.5,546.5C 440.5,541.5 440.5,536.5 440.5,531.5C 438.833,531.5 437.167,531.5 435.5,531.5C 435.334,524.825 435.5,518.158 436,511.5C 438.293,503.303 439.793,494.97 440.5,486.5C 445.787,487.342 451.12,487.676 456.5,487.5C 456.219,482.435 456.552,477.435 457.5,472.5C 466.475,471.502 475.475,471.168 484.5,471.5C 484.335,467.818 484.501,464.152 485,460.5C 486.699,459.594 488.533,459.261 490.5,459.5C 490.5,456.167 490.5,452.833 490.5,449.5C 490.5,447.833 490.5,446.167 490.5,444.5C 498.5,444.5 506.5,444.5 514.5,444.5C 514.5,436.5 514.5,428.5 514.5,420.5C 519.833,420.5 525.167,420.5 530.5,420.5C 530.5,419.167 530.5,417.833 530.5,416.5C 534.833,416.5 539.167,416.5 543.5,416.5C 543.5,395.833 543.5,375.167 543.5,354.5C 541.833,354.5 540.167,354.5 538.5,354.5C 538.5,350.167 538.5,345.833 538.5,341.5C 535.873,340.908 533.206,340.575 530.5,340.5C 530.828,335.125 530.495,329.792 529.5,324.5C 520.362,326.436 511.028,327.103 501.5,326.5C 501.5,309.5 501.5,292.5 501.5,275.5C 505.833,275.5 510.167,275.5 514.5,275.5C 514.218,278.347 514.218,281.013 514.5,283.5C 517.167,280.833 519.833,280.833 522.5,283.5C 523.205,280.911 523.205,278.244 522.5,275.5C 526.226,275.823 529.893,275.489 533.5,274.5C 538.605,270.974 540.272,266.307 538.5,260.5C 538.808,259.692 539.308,259.025 540,258.5C 541.441,259.87 543.108,260.87 545,261.5C 545.765,264.196 546.932,266.696 548.5,269C 551.767,270.915 553.1,269.748 552.5,265.5 Z"/></g>
<g><path style="opacity:1" fill="#828483" d="M 437.5,255.5 C 437.371,257.216 437.038,258.883 436.5,260.5C 431.761,266.416 427.761,272.749 424.5,279.5C 425.854,275.112 427.521,270.779 429.5,266.5C 430.833,265.067 432.333,263.733 434,262.5C 434.144,259.558 435.311,257.224 437.5,255.5 Z"/></g>
<g><path style="opacity:1" fill="#b3b8ba" d="M 541.5,243.5 C 547.218,251.894 553.218,260.227 559.5,268.5C 561.894,273.645 564.728,278.645 568,283.5C 568.977,285.74 569.477,288.073 569.5,290.5C 568.833,290.167 568.167,289.833 567.5,289.5C 563.603,281.599 559.27,273.932 554.5,266.5C 552.515,261.863 550.015,257.529 547,253.5C 543.381,251.137 541.547,247.804 541.5,243.5 Z"/></g>
<g><path style="opacity:1" fill="#888b8a" d="M 424.5,279.5 C 424.123,283.212 422.456,286.212 419.5,288.5C 419.5,287.5 419.5,286.5 419.5,285.5C 420.692,283.122 422.359,281.122 424.5,279.5 Z"/></g>
<g><path style="opacity:1" fill="#b9bcb9" d="M 148.5,277.5 C 148.817,280.572 148.484,283.572 147.5,286.5C 145.809,289.847 144.142,293.181 142.5,296.5C 142.043,297.298 141.376,297.631 140.5,297.5C 142.203,293.48 143.87,289.48 145.5,285.5C 146.117,285.389 146.617,285.056 147,284.5C 147.186,281.964 147.686,279.631 148.5,277.5 Z"/></g>
<g><path style="opacity:1" fill="#cdcdcd" d="M 419.5,285.5 C 419.5,286.5 419.5,287.5 419.5,288.5C 415.565,292.79 411.898,297.457 408.5,302.5C 410.921,295.982 414.588,290.315 419.5,285.5 Z"/></g>
<g><path style="opacity:1" fill="#484c4f" d="M 567.5,289.5 C 568.167,289.833 568.833,290.167 569.5,290.5C 572.009,296.178 575.509,301.178 580,305.5C 581.381,309.654 582.881,313.654 584.5,317.5C 578.939,309.732 573.439,301.732 568,293.5C 567.51,292.207 567.343,290.873 567.5,289.5 Z"/></g>
<g><path style="opacity:1" fill="#9da29f" d="M 140.5,297.5 C 139.548,302.07 137.548,306.07 134.5,309.5C 135.939,305.158 137.939,301.158 140.5,297.5 Z"/></g>
<g><path style="opacity:1" fill="#b7babc" d="M 569.5,290.5 C 572.168,291.457 573.668,293.457 574,296.5C 575.154,297.743 576.488,298.743 578,299.5C 581.755,305.405 585.255,311.405 588.5,317.5C 587.833,317.5 587.167,317.5 586.5,317.5C 585.833,317.5 585.167,317.5 584.5,317.5C 582.881,313.654 581.381,309.654 580,305.5C 575.509,301.178 572.009,296.178 569.5,290.5 Z"/></g>
<g><path style="opacity:1" fill="#949494" d="M 419.5,288.5 C 412.706,301.119 404.706,312.786 395.5,323.5C 399.213,317.092 402.547,310.426 405.5,303.5C 406.325,302.614 407.325,302.281 408.5,302.5C 411.898,297.457 415.565,292.79 419.5,288.5 Z"/></g>
<g><path style="opacity:1" fill="#858989" d="M 134.5,309.5 C 131.919,317.646 128.585,325.313 124.5,332.5C 126.482,324.208 129.815,316.541 134.5,309.5 Z"/></g>
<g><path style="opacity:1" fill="#797c7e" d="M 586.5,317.5 C 587.167,317.5 587.833,317.5 588.5,317.5C 593.095,326.31 598.595,334.643 605,342.5C 605.608,344.154 606.108,345.821 606.5,347.5C 599.824,340.475 593.824,332.809 588.5,324.5C 587.365,322.293 586.699,319.96 586.5,317.5 Z"/></g>
<g><path style="opacity:1" fill="#171818" d="M 456.5,443.5 C 455.448,443.351 454.448,443.517 453.5,444C 450.974,447.026 448.64,450.193 446.5,453.5C 444.771,451.149 444.104,448.482 444.5,445.5C 444.704,443.315 445.37,441.315 446.5,439.5C 446.5,438.833 446.5,438.167 446.5,437.5C 448.017,437.489 449.184,436.823 450,435.5C 450.495,433.527 450.662,431.527 450.5,429.5C 457.448,420.045 464.615,410.712 472,401.5C 472.806,398.554 474.139,395.888 476,393.5C 476.495,391.527 476.662,389.527 476.5,387.5C 479.36,383.591 478.694,380.257 474.5,377.5C 471.167,372.167 466.833,367.833 461.5,364.5C 459.14,361.473 456.473,358.806 453.5,356.5C 453.056,354.887 452.056,353.72 450.5,353C 438.972,352.733 438.639,350.733 449.5,347C 448.54,343.27 448.207,339.437 448.5,335.5C 449.5,335.5 450.5,335.5 451.5,335.5C 451.5,336.5 451.5,337.5 451.5,338.5C 456.167,338.5 460.833,338.5 465.5,338.5C 465.5,337.5 465.5,336.5 465.5,335.5C 469.833,335.5 474.167,335.5 478.5,335.5C 478.5,337.5 478.5,339.5 478.5,341.5C 480.833,341.5 483.167,341.5 485.5,341.5C 485.5,345.833 485.5,350.167 485.5,354.5C 490.833,354.5 496.167,354.5 501.5,354.5C 501.667,369.17 501.5,383.837 501,398.5C 495.89,400.927 490.723,403.26 485.5,405.5C 485.762,404.022 485.429,402.689 484.5,401.5C 482.908,403.562 481.075,403.895 479,402.5C 476.332,404.492 474.832,407.158 474.5,410.5C 470.644,413.6 466.977,416.933 463.5,420.5C 459.856,426.792 456.523,433.126 453.5,439.5C 453.846,440.696 454.346,440.696 455,439.5C 455.791,440.745 456.291,442.078 456.5,443.5 Z"/></g>
<g><path style="opacity:1" fill="#747a79" d="M 124.5,332.5 C 122.787,337.837 120.953,343.17 119,348.5C 118.617,349.056 118.117,349.389 117.5,349.5C 118.897,343.274 121.23,337.607 124.5,332.5 Z"/></g>
<g><path style="opacity:1" fill="#777878" d="M 395.5,323.5 C 394.553,326.934 393.386,330.267 392,333.5C 388.478,337.005 385.811,341.005 384,345.5C 379.48,350.595 375.98,356.262 373.5,362.5C 371.806,363.527 370.473,364.861 369.5,366.5C 370.129,361.907 372.295,358.241 376,355.5C 376.653,352.861 377.82,350.527 379.5,348.5C 382.197,342.489 385.197,336.489 388.5,330.5C 390.612,327.94 392.945,325.606 395.5,323.5 Z"/></g>
<g><path style="opacity:1" fill="#9ea2a2" d="M 606.5,347.5 C 610.836,350.83 613.502,355.163 614.5,360.5C 613.061,358.64 611.395,356.973 609.5,355.5C 609.428,352.447 608.428,349.781 606.5,347.5 Z"/></g>
<g><path style="opacity:1" fill="#808788" d="M 117.5,350.5 C 117.741,352.898 117.074,354.898 115.5,356.5C 115.259,354.102 115.926,352.102 117.5,350.5 Z"/></g>
<g><path style="opacity:1" fill="#5b5e5b" d="M 449.5,355.5 C 450.833,355.833 452.167,356.167 453.5,356.5C 456.473,358.806 459.14,361.473 461.5,364.5C 460.833,364.5 460.167,364.5 459.5,364.5C 456.167,362.167 452.833,359.833 449.5,357.5C 449.5,356.833 449.5,356.167 449.5,355.5 Z"/></g>
<g><path style="opacity:1" fill="#fbfbfc" d="M 449.5,357.5 C 452.833,359.833 456.167,362.167 459.5,364.5C 459.511,366.017 460.177,367.184 461.5,368C 463.734,369.75 466.068,371.25 468.5,372.5C 469.373,374.886 470.873,376.886 473,378.5C 473.667,382.167 473.667,385.833 473,389.5C 468.862,399.207 463.195,407.873 456,415.5C 455.51,416.793 455.343,418.127 455.5,419.5C 454.325,419.281 453.325,419.614 452.5,420.5C 448.651,427.656 445.318,434.99 442.5,442.5C 439.987,447.547 437.987,452.88 436.5,458.5C 434.694,463.446 432.361,468.112 429.5,472.5C 426.409,479.501 423.909,486.834 422,494.5C 419.843,505.092 418.176,515.758 417,526.5C 416.333,537.167 416.333,547.833 417,558.5C 418.796,562.683 420.129,567.016 421,571.5C 421.792,574.106 423.292,576.106 425.5,577.5C 427.622,583.633 431.622,588.3 437.5,591.5C 439.395,596.063 442.395,599.73 446.5,602.5C 447.031,604.544 448.198,606.211 450,607.5C 450.667,609.833 450.667,612.167 450,614.5C 449.292,615.381 448.458,616.047 447.5,616.5C 443.44,618.63 439.107,620.13 434.5,621C 428.363,621.73 422.363,621.23 416.5,619.5C 413.302,616.875 409.635,615.209 405.5,614.5C 403.873,612.37 402.04,610.37 400,608.5C 398.075,602.439 394.575,597.773 389.5,594.5C 389.005,592.518 388.505,590.518 388,588.5C 382.972,580.59 379.806,571.923 378.5,562.5C 375.489,540.737 375.989,519.07 380,497.5C 380.414,497.043 380.914,496.709 381.5,496.5C 381.725,490.458 383.225,484.792 386,479.5C 386.497,476.854 386.664,474.187 386.5,471.5C 388.655,463.866 391.488,456.532 395,449.5C 395.866,443.604 397.366,437.938 399.5,432.5C 404.707,422.18 409.707,411.847 414.5,401.5C 418.053,396.09 421.887,390.757 426,385.5C 429.712,378.474 433.378,371.474 437,364.5C 439.5,362 442,359.5 444.5,357C 446.197,356.616 447.863,356.782 449.5,357.5 Z"/></g>
<g><path style="opacity:1" fill="#bfc1c0" d="M 379.5,348.5 C 377.82,350.527 376.653,352.861 376,355.5C 372.295,358.241 370.129,361.907 369.5,366.5C 368.728,367.694 367.728,368.694 366.5,369.5C 365.833,370.167 365.167,370.833 364.5,371.5C 364.343,370.127 364.51,368.793 365,367.5C 368.64,361.851 372.306,356.185 376,350.5C 376.816,349.177 377.983,348.511 379.5,348.5 Z"/></g>
<g><path style="opacity:1" fill="#abafb0" d="M 614.5,360.5 C 615.496,360.414 616.329,360.748 617,361.5C 622.554,372.267 628.887,382.601 636,392.5C 637.643,396.956 639.476,401.289 641.5,405.5C 638.416,401.011 635.083,396.678 631.5,392.5C 626.202,381.58 620.535,370.913 614.5,360.5 Z"/></g>
<g><path style="opacity:1" fill="#aeb0af" d="M 449.5,355.5 C 449.5,356.167 449.5,356.833 449.5,357.5C 447.863,356.782 446.197,356.616 444.5,357C 442,359.5 439.5,362 437,364.5C 433.378,371.474 429.712,378.474 426,385.5C 421.887,390.757 418.053,396.09 414.5,401.5C 414.5,400.833 414.5,400.167 414.5,399.5C 414.427,397.973 415.094,396.973 416.5,396.5C 419.669,392.167 422.336,387.5 424.5,382.5C 424.12,380.302 424.787,378.635 426.5,377.5C 430.142,372.238 433.809,366.904 437.5,361.5C 439.63,359.873 441.63,358.04 443.5,356C 445.473,355.505 447.473,355.338 449.5,355.5 Z"/></g>
<g><path style="opacity:1" fill="#9a9c9a" d="M 459.5,364.5 C 460.167,364.5 460.833,364.5 461.5,364.5C 463.833,367.167 466.167,369.833 468.5,372.5C 466.068,371.25 463.734,369.75 461.5,368C 460.177,367.184 459.511,366.017 459.5,364.5 Z"/></g>
<g><path style="opacity:1" fill="#595a59" d="M 461.5,364.5 C 466.833,367.833 471.167,372.167 474.5,377.5C 472.5,375.833 470.5,374.167 468.5,372.5C 466.167,369.833 463.833,367.167 461.5,364.5 Z"/></g>
<g><path style="opacity:1" fill="#474948" d="M 437.5,361.5 C 433.809,366.904 430.142,372.238 426.5,377.5C 426.343,376.127 426.51,374.793 427,373.5C 429.911,370.01 432.578,366.344 435,362.5C 435.671,361.748 436.504,361.414 437.5,361.5 Z"/></g>
<g><path style="opacity:1" fill="#828584" d="M 366.5,369.5 C 366.313,371.564 365.813,373.564 365,375.5C 361.144,379.963 358.311,384.963 356.5,390.5C 355.833,390.833 355.167,391.167 354.5,391.5C 356.509,384.161 359.843,377.495 364.5,371.5C 365.167,370.833 365.833,370.167 366.5,369.5 Z"/></g>
<g><path style="opacity:1" fill="#959899" d="M 110.5,375.5 C 110.741,377.898 110.074,379.898 108.5,381.5C 108.259,379.102 108.926,377.102 110.5,375.5 Z"/></g>
<g><path style="opacity:1" fill="#606060" d="M 474.5,377.5 C 478.694,380.257 479.36,383.591 476.5,387.5C 476.845,383.885 476.178,380.552 474.5,377.5 Z"/></g>
<g><path style="opacity:1" fill="#7b7b7d" d="M 424.5,382.5 C 422.336,387.5 419.669,392.167 416.5,396.5C 417.03,393.318 418.03,390.318 419.5,387.5C 420.833,385.5 422.5,383.833 424.5,382.5 Z"/></g>
<g><path style="opacity:1" fill="#555858" d="M 356.5,390.5 C 355.847,395.485 353.514,399.485 349.5,402.5C 350.63,400.685 351.296,398.685 351.5,396.5C 350.916,393.715 351.916,392.048 354.5,391.5C 355.167,391.167 355.833,390.833 356.5,390.5 Z"/></g>
<g><path style="opacity:1" fill="#404143" d="M 419.5,387.5 C 418.03,390.318 417.03,393.318 416.5,396.5C 415.094,396.973 414.427,397.973 414.5,399.5C 412.003,401.844 410.003,404.511 408.5,407.5C 408.343,406.127 408.51,404.793 409,403.5C 412.785,398.239 416.285,392.906 419.5,387.5 Z"/></g>
<g><path style="opacity:1" fill="#aeb0b3" d="M 107.5,386.5 C 107.237,391.124 106.237,395.458 104.5,399.5C 104.952,395.837 105.452,392.17 106,388.5C 106.278,387.584 106.778,386.918 107.5,386.5 Z"/></g>
<g><path style="opacity:1" fill="#9fa09f" d="M 351.5,396.5 C 351.296,398.685 350.63,400.685 349.5,402.5C 348.905,405.317 347.572,407.65 345.5,409.5C 346.16,404.489 348.16,400.156 351.5,396.5 Z"/></g>
<g><path style="opacity:1" fill="#202326" d="M 609.5,355.5 C 611.395,356.973 613.061,358.64 614.5,360.5C 620.535,370.913 626.202,381.58 631.5,392.5C 634.989,399.478 638.489,406.478 642,413.5C 643.371,415.041 644.871,416.375 646.5,417.5C 647.475,419.795 648.808,421.795 650.5,423.5C 651.769,428.705 654.102,433.372 657.5,437.5C 657.259,441.019 658.593,443.685 661.5,445.5C 662.833,449.5 664.167,453.5 665.5,457.5C 664.5,457.5 663.5,457.5 662.5,457.5C 662.067,454.834 661.567,452.168 661,449.5C 658.298,447.957 657.132,445.624 657.5,442.5C 656.5,442.5 655.5,442.5 654.5,442.5C 654.511,444.547 654.844,446.547 655.5,448.5C 659.638,458.385 663.471,468.385 667,478.5C 667.667,483.167 667.667,487.833 667,492.5C 665.784,494.962 665.118,497.629 665,500.5C 663.599,502.192 661.766,502.859 659.5,502.5C 659.136,497.516 659.803,492.683 661.5,488C 661.167,487.167 660.833,486.333 660.5,485.5C 656.078,487.359 651.412,488.026 646.5,487.5C 646.5,483.167 646.5,478.833 646.5,474.5C 640.833,474.5 635.167,474.5 629.5,474.5C 629.5,468.833 629.5,463.167 629.5,457.5C 625.167,457.5 620.833,457.5 616.5,457.5C 616.5,453.167 616.5,448.833 616.5,444.5C 612.167,444.5 607.833,444.5 603.5,444.5C 604.013,434.018 603.346,423.685 601.5,413.5C 597.167,413.5 592.833,413.5 588.5,413.5C 588.5,404.167 588.5,394.833 588.5,385.5C 596.167,385.5 603.833,385.5 611.5,385.5C 611.5,384.167 611.5,382.833 611.5,381.5C 608.214,382.207 604.881,382.54 601.5,382.5C 602.937,377.972 603.604,373.306 603.5,368.5C 605.124,368.64 606.29,367.973 607,366.5C 607.216,368.384 607.883,370.051 609,371.5C 609.419,369.32 609.252,367.154 608.5,365C 610.652,361.981 610.985,358.815 609.5,355.5 Z"/></g>
<g><path style="opacity:1" fill="#97999c" d="M 414.5,399.5 C 414.5,400.167 414.5,400.833 414.5,401.5C 409.707,411.847 404.707,422.18 399.5,432.5C 397.366,437.938 395.866,443.604 395,449.5C 391.488,456.532 388.655,463.866 386.5,471.5C 384.98,475.271 383.314,478.938 381.5,482.5C 381.5,481.833 381.5,481.167 381.5,480.5C 382.535,474.917 384.201,469.584 386.5,464.5C 391.349,449.791 396.515,435.124 402,420.5C 404.462,416.261 406.628,411.927 408.5,407.5C 410.003,404.511 412.003,401.844 414.5,399.5 Z"/></g>
<g><path style="opacity:1" fill="#c2c1c1" d="M 468.5,372.5 C 470.5,374.167 472.5,375.833 474.5,377.5C 476.178,380.552 476.845,383.885 476.5,387.5C 474.161,391.523 472.328,395.856 471,400.5C 465.961,405.537 461.294,410.871 457,416.5C 455.414,421.216 453.247,425.55 450.5,429.5C 448.127,431.579 446.794,434.246 446.5,437.5C 446.5,438.167 446.5,438.833 446.5,439.5C 445.167,440.5 443.833,441.5 442.5,442.5C 445.318,434.99 448.651,427.656 452.5,420.5C 453.325,419.614 454.325,419.281 455.5,419.5C 455.343,418.127 455.51,416.793 456,415.5C 463.195,407.873 468.862,399.207 473,389.5C 473.667,385.833 473.667,382.167 473,378.5C 470.873,376.886 469.373,374.886 468.5,372.5 Z"/></g>
<g><path style="opacity:1" fill="#636566" d="M 631.5,392.5 C 635.083,396.678 638.416,401.011 641.5,405.5C 641.5,406.167 641.5,406.833 641.5,407.5C 644.01,410.362 645.677,413.696 646.5,417.5C 644.871,416.375 643.371,415.041 642,413.5C 638.489,406.478 634.989,399.478 631.5,392.5 Z"/></g>
<g><path style="opacity:1" fill="#afb1b3" d="M 641.5,407.5 C 643.193,408.475 644.693,409.808 646,411.5C 648.251,415.239 649.751,419.239 650.5,423.5C 648.808,421.795 647.475,419.795 646.5,417.5C 645.677,413.696 644.01,410.362 641.5,407.5 Z"/></g>
<g><path style="opacity:1" fill="#8f9897" d="M 102.5,407.5 C 101.721,415.18 100.721,422.847 99.5,430.5C 99.1667,430.5 98.8333,430.5 98.5,430.5C 99.072,422.58 100.405,414.914 102.5,407.5 Z"/></g>
<g><path style="opacity:1" fill="#5e5d5d" d="M 476.5,387.5 C 476.662,389.527 476.495,391.527 476,393.5C 474.139,395.888 472.806,398.554 472,401.5C 464.615,410.712 457.448,420.045 450.5,429.5C 453.247,425.55 455.414,421.216 457,416.5C 461.294,410.871 465.961,405.537 471,400.5C 472.328,395.856 474.161,391.523 476.5,387.5 Z"/></g>
<g><path style="opacity:1" fill="#1c2023" d="M 373.5,362.5 C 369.973,369.545 365.973,376.378 361.5,383C 362.967,384.098 363.801,385.598 364,387.5C 367.694,380.12 371.861,372.953 376.5,366C 378.421,365.64 380.088,364.806 381.5,363.5C 381.838,365.655 381.838,367.989 381.5,370.5C 387.167,370.5 392.833,370.5 398.5,370.5C 398.5,374.5 398.5,378.5 398.5,382.5C 399.833,382.5 401.167,382.5 402.5,382.5C 403.13,386.901 401.797,390.568 398.5,393.5C 400.661,394.778 402.827,396.111 405,397.5C 405.345,399.677 404.845,401.677 403.5,403.5C 403.86,405.608 404.527,407.608 405.5,409.5C 406.518,408.807 407.518,408.141 408.5,407.5C 406.628,411.927 404.462,416.261 402,420.5C 396.515,435.124 391.349,449.791 386.5,464.5C 387.346,459.306 388.346,454.14 389.5,449C 389.477,446.075 388.977,443.241 388,440.5C 384.988,448.337 383.155,456.337 382.5,464.5C 380.61,464.297 379.11,464.963 378,466.5C 377.587,469.232 376.92,471.899 376,474.5C 374.12,476.739 372.62,479.239 371.5,482C 367.759,508.033 366.593,534.2 368,560.5C 370.677,568.194 373.51,575.86 376.5,583.5C 376.21,587.554 376.877,588.054 378.5,585C 379.448,584.517 380.448,584.351 381.5,584.5C 381.491,586.308 381.991,587.975 383,589.5C 385.324,590.807 386.657,592.807 387,595.5C 387.671,596.252 388.504,596.586 389.5,596.5C 390.222,599.714 391.889,602.381 394.5,604.5C 396.254,607.058 396.921,609.725 396.5,612.5C 395.726,613.711 394.893,613.711 394,612.5C 393.667,613.167 393.333,613.833 393,614.5C 389.49,612.781 385.656,611.948 381.5,612C 380.695,610.028 379.361,608.528 377.5,607.5C 378.348,605.591 378.682,603.591 378.5,601.5C 377.5,601.5 376.5,601.5 375.5,601.5C 375.5,600.5 375.5,599.5 375.5,598.5C 374.325,598.719 373.325,598.386 372.5,597.5C 371.879,594.436 371.045,591.436 370,588.5C 369.5,589.667 368.667,590.5 367.5,591C 363.179,591.499 358.846,591.666 354.5,591.5C 354.5,593.833 354.5,596.167 354.5,598.5C 352.167,598.5 349.833,598.5 347.5,598.5C 347.5,599.5 347.5,600.5 347.5,601.5C 345.167,601.5 342.833,601.5 340.5,601.5C 340.125,606.495 342.458,608.495 347.5,607.5C 347.5,606.5 347.5,605.5 347.5,604.5C 349.833,604.5 352.167,604.5 354.5,604.5C 354.5,607.167 354.5,609.833 354.5,612.5C 350.5,612.5 346.5,612.5 342.5,612.5C 342.5,611.5 342.5,610.5 342.5,609.5C 340.319,609.284 338.653,610.117 337.5,612C 335.527,612.495 333.527,612.662 331.5,612.5C 331.662,610.473 331.495,608.473 331,606.5C 330.282,605.549 329.449,605.383 328.5,606C 330.478,608.497 330.978,611.331 330,614.5C 329.667,614.167 329.333,613.833 329,613.5C 325.212,606.209 322.045,598.876 319.5,591.5C 319.806,588.615 319.473,585.948 318.5,583.5C 318.579,580.729 318.079,578.063 317,575.5C 316.5,556.836 316.333,538.17 316.5,519.5C 316.41,516.848 317.076,514.515 318.5,512.5C 317.384,531.476 317.218,550.476 318,569.5C 318.241,572.289 318.908,574.956 320,577.5C 321.009,560.181 321.676,542.847 322,525.5C 324.212,513.641 325.545,501.641 326,489.5C 328.212,480.764 330.545,472.097 333,463.5C 337.278,456.506 339.611,448.839 340,440.5C 345.127,435.58 348.127,429.58 349,422.5C 349.498,419.183 349.665,415.85 349.5,412.5C 348.5,412.5 347.5,412.5 346.5,412.5C 346.913,415.32 345.913,417.32 343.5,418.5C 343.756,415.402 344.422,412.402 345.5,409.5C 347.572,407.65 348.905,405.317 349.5,402.5C 353.514,399.485 355.847,395.485 356.5,390.5C 358.311,384.963 361.144,379.963 365,375.5C 365.813,373.564 366.313,371.564 366.5,369.5C 367.728,368.694 368.728,367.694 369.5,366.5C 370.473,364.861 371.806,363.527 373.5,362.5 Z"/></g>
<g><path style="opacity:1" fill="#767879" d="M 650.5,423.5 C 654.434,427.368 656.767,432.035 657.5,437.5C 654.102,433.372 651.769,428.705 650.5,423.5 Z"/></g>
<g><path style="opacity:1" fill="#353739" d="M 343.5,418.5 C 342.923,426.286 340.423,433.286 336,439.5C 333.635,444.928 332.301,450.595 332,456.5C 331.764,458.119 330.931,459.119 329.5,459.5C 330.54,452.34 332.374,445.34 335,438.5C 338.68,432.146 341.513,425.48 343.5,418.5 Z"/></g>
<g><path style="opacity:1" fill="#595756" d="M 450.5,429.5 C 450.662,431.527 450.495,433.527 450,435.5C 449.184,436.823 448.017,437.489 446.5,437.5C 446.794,434.246 448.127,431.579 450.5,429.5 Z"/></g>
<g><path style="opacity:1" fill="#888a8b" d="M 345.5,409.5 C 344.422,412.402 343.756,415.402 343.5,418.5C 341.513,425.48 338.68,432.146 335,438.5C 332.374,445.34 330.54,452.34 329.5,459.5C 328.883,459.611 328.383,459.944 328,460.5C 327.021,465.236 325.854,469.902 324.5,474.5C 324.167,474.5 323.833,474.5 323.5,474.5C 323.575,471.794 323.908,469.127 324.5,466.5C 327.343,455.876 330.509,445.209 334,434.5C 338.522,428.286 341.188,421.286 342,413.5C 342.949,411.907 344.115,410.574 345.5,409.5 Z"/></g>
<g><path style="opacity:1" fill="#878c8d" d="M 657.5,437.5 C 660.892,438.99 662.226,441.657 661.5,445.5C 658.593,443.685 657.259,441.019 657.5,437.5 Z"/></g>
<g><path style="opacity:1" fill="#131516" d="M 318.5,512.5 C 318.5,511.833 318.5,511.167 318.5,510.5C 319.596,498.433 321.596,486.433 324.5,474.5C 325.854,469.902 327.021,465.236 328,460.5C 328.383,459.944 328.883,459.611 329.5,459.5C 330.931,459.119 331.764,458.119 332,456.5C 332.301,450.595 333.635,444.928 336,439.5C 340.423,433.286 342.923,426.286 343.5,418.5C 345.913,417.32 346.913,415.32 346.5,412.5C 347.5,412.5 348.5,412.5 349.5,412.5C 349.665,415.85 349.498,419.183 349,422.5C 348.127,429.58 345.127,435.58 340,440.5C 339.611,448.839 337.278,456.506 333,463.5C 330.545,472.097 328.212,480.764 326,489.5C 325.545,501.641 324.212,513.641 322,525.5C 321.676,542.847 321.009,560.181 320,577.5C 318.908,574.956 318.241,572.289 318,569.5C 317.218,550.476 317.384,531.476 318.5,512.5 Z"/></g>
<g><path style="opacity:1" fill="#a3a9a9" d="M 661.5,445.5 C 664.742,447.03 666.242,449.696 666,453.5C 666.667,454.167 667.333,454.833 668,455.5C 669.567,462.208 671.9,468.542 675,474.5C 675.495,476.473 675.662,478.473 675.5,480.5C 674.359,477.746 673.025,475.079 671.5,472.5C 669.282,468.578 668.115,464.244 668,459.5C 667.292,458.619 666.458,457.953 665.5,457.5C 664.167,453.5 662.833,449.5 661.5,445.5 Z"/></g>
<g><path style="opacity:1" fill="#797977" d="M 446.5,439.5 C 445.37,441.315 444.704,443.315 444.5,445.5C 442.097,449.968 439.43,454.301 436.5,458.5C 437.987,452.88 439.987,447.547 442.5,442.5C 443.833,441.5 445.167,440.5 446.5,439.5 Z"/></g>
<g><path style="opacity:1" fill="#d4e0da" d="M 98.5,430.5 C 98.8333,430.5 99.1667,430.5 99.5,430.5C 97.9116,464.858 98.2449,499.191 100.5,533.5C 98.7396,528.447 98.073,523.114 98.5,517.5C 97.5798,492.515 97.2465,467.515 97.5,442.5C 98.2721,438.548 98.6054,434.548 98.5,430.5 Z"/></g>
<g><path style="opacity:1" fill="#949494" d="M 436.5,458.5 C 435.83,462.851 434.996,467.184 434,471.5C 433.021,473.968 431.521,475.968 429.5,477.5C 429.5,475.833 429.5,474.167 429.5,472.5C 432.361,468.112 434.694,463.446 436.5,458.5 Z"/></g>
<g><path style="opacity:1" fill="#5e6866" d="M 671.5,472.5 C 673.025,475.079 674.359,477.746 675.5,480.5C 675.5,481.167 675.5,481.833 675.5,482.5C 675.5,483.5 675.5,484.5 675.5,485.5C 673.79,481.365 672.457,477.032 671.5,472.5 Z"/></g>
<g><path style="opacity:1" fill="#3e4142" d="M 323.5,474.5 C 323.833,474.5 324.167,474.5 324.5,474.5C 321.596,486.433 319.596,498.433 318.5,510.5C 318.468,500.246 319.801,490.246 322.5,480.5C 322.205,478.265 322.539,476.265 323.5,474.5 Z"/></g>
<g><path style="opacity:1" fill="#c2c4c5" d="M 324.5,466.5 C 323.908,469.127 323.575,471.794 323.5,474.5C 322.539,476.265 322.205,478.265 322.5,480.5C 320.386,481.36 319.22,483.027 319,485.5C 318.667,490.5 318.333,495.5 318,500.5C 317.722,501.416 317.222,502.082 316.5,502.5C 316.889,495.83 317.389,489.164 318,482.5C 319.666,477.504 321.333,472.504 323,467.5C 323.383,466.944 323.883,466.611 324.5,466.5 Z"/></g>
<g><path style="opacity:1" fill="#7f7f7f" d="M 429.5,477.5 C 429.5,480.167 429.5,482.833 429.5,485.5C 428.954,488.647 427.954,491.647 426.5,494.5C 423.768,501.292 421.768,508.292 420.5,515.5C 421.666,502.232 424.666,489.565 429.5,477.5 Z"/></g>
<g><path style="opacity:1" fill="#8f9694" d="M 675.5,482.5 C 676.79,483.058 677.623,484.058 678,485.5C 679.106,489.868 680.272,494.201 681.5,498.5C 682.782,515.313 682.782,531.98 681.5,548.5C 681.667,533.83 681.5,519.163 681,504.5C 679.704,499.569 678.704,494.569 678,489.5C 677.392,487.934 676.558,486.6 675.5,485.5C 675.5,484.5 675.5,483.5 675.5,482.5 Z"/></g>
<g><path style="opacity:1" fill="#7e8182" d="M 322.5,480.5 C 319.801,490.246 318.468,500.246 318.5,510.5C 318.5,511.167 318.5,511.833 318.5,512.5C 317.076,514.515 316.41,516.848 316.5,519.5C 315.503,538.993 315.17,558.66 315.5,578.5C 314.518,575.038 314.185,571.371 314.5,567.5C 314.001,545.771 314.668,524.105 316.5,502.5C 317.222,502.082 317.722,501.416 318,500.5C 318.333,495.5 318.667,490.5 319,485.5C 319.22,483.027 320.386,481.36 322.5,480.5 Z"/></g>
<g><path style="opacity:1" fill="#141414" d="M 428.5,578.5 C 424.405,572.888 422.072,566.555 421.5,559.5C 421.333,546.163 421.5,532.829 422,519.5C 424.08,511.269 425.58,502.936 426.5,494.5C 427.954,491.647 428.954,488.647 429.5,485.5C 430.921,481.324 432.921,477.324 435.5,473.5C 435.018,487.484 432.184,501.151 427,514.5C 425.095,530.503 425.095,546.503 427,562.5C 428.425,568.276 430.591,573.776 433.5,579C 433.167,579.5 432.833,580 432.5,580.5C 431.14,579.82 429.807,579.153 428.5,578.5 Z"/></g>
<g><path style="opacity:1" fill="#404847" d="M 675.5,485.5 C 676.558,486.6 677.392,487.934 678,489.5C 678.704,494.569 679.704,499.569 681,504.5C 681.5,519.163 681.667,533.83 681.5,548.5C 681.167,548.5 680.833,548.5 680.5,548.5C 680.814,535.421 680.48,522.421 679.5,509.5C 677.783,501.577 676.449,493.577 675.5,485.5 Z"/></g>
<g><path style="opacity:1" fill="#84898f" d="M 381.5,482.5 C 382.174,487.947 381.008,492.947 378,497.5C 377.667,501.167 377.333,504.833 377,508.5C 376.626,510.491 375.793,512.158 374.5,513.5C 374.5,512.167 374.5,510.833 374.5,509.5C 375.222,509.082 375.722,508.416 376,507.5C 376.333,503.5 376.667,499.5 377,495.5C 378.819,491.167 380.319,486.833 381.5,482.5 Z"/></g>
<g><path style="opacity:1" fill="#809087" d="M 97.5,442.5 C 97.2465,467.515 97.5798,492.515 98.5,517.5C 97.6981,516.048 97.1981,514.382 97,512.5C 96.1703,488.996 96.3369,465.663 97.5,442.5 Z"/></g>
<g><path style="opacity:1" fill="#090f0f" d="M 679.5,509.5 C 680.48,522.421 680.814,535.421 680.5,548.5C 680.5,549.833 680.5,551.167 680.5,552.5C 679.883,552.611 679.383,552.944 679,553.5C 677.678,562.125 676.678,570.792 676,579.5C 675.586,579.957 675.086,580.291 674.5,580.5C 673.034,569.077 673.534,557.744 676,546.5C 676.167,532.821 676.667,519.154 677.5,505.5C 678.172,506.949 678.839,508.282 679.5,509.5 Z"/></g>
<g><path style="opacity:1" fill="#909aa3" d="M 374.5,513.5 C 373.976,528.953 374.642,544.286 376.5,559.5C 375.531,557.337 374.698,555.004 374,552.5C 373.173,539.327 373.34,526.327 374.5,513.5 Z"/></g>
<g><path style="opacity:1" fill="#1c1e1f" d="M 456.5,443.5 C 458.203,445.851 458.703,448.518 458,451.5C 458.145,454.923 456.645,456.923 453.5,457.5C 453.5,459.5 453.5,461.5 453.5,463.5C 454.833,463.5 456.167,463.5 457.5,463.5C 457.5,461.5 457.5,459.5 457.5,457.5C 464.5,457.5 471.5,457.5 478.5,457.5C 478.5,453.167 478.5,448.833 478.5,444.5C 480.833,444.5 483.167,444.5 485.5,444.5C 485.5,446.167 485.5,447.833 485.5,449.5C 487.167,449.5 488.833,449.5 490.5,449.5C 490.5,452.833 490.5,456.167 490.5,459.5C 488.533,459.261 486.699,459.594 485,460.5C 484.501,464.152 484.335,467.818 484.5,471.5C 475.475,471.168 466.475,471.502 457.5,472.5C 456.552,477.435 456.219,482.435 456.5,487.5C 451.12,487.676 445.787,487.342 440.5,486.5C 439.793,494.97 438.293,503.303 436,511.5C 435.5,518.158 435.334,524.825 435.5,531.5C 437.167,531.5 438.833,531.5 440.5,531.5C 440.5,536.5 440.5,541.5 440.5,546.5C 445.453,547.329 450.453,547.663 455.5,547.5C 455.058,552.691 455.558,557.691 457,562.5C 461.288,562.381 465.788,562.381 470.5,562.5C 470.198,567.679 470.865,572.679 472.5,577.5C 476.5,577.5 480.5,577.5 484.5,577.5C 484.2,582.099 484.533,586.599 485.5,591C 495.5,591.667 505.5,591.667 515.5,591C 516.467,586.599 516.8,582.099 516.5,577.5C 520.5,577.5 524.5,577.5 528.5,577.5C 528.5,576.5 528.5,575.5 528.5,574.5C 533.5,574.5 538.5,574.5 543.5,574.5C 543.5,565.167 543.5,555.833 543.5,546.5C 548.5,546.5 553.5,546.5 558.5,546.5C 558.5,541.5 558.5,536.5 558.5,531.5C 562.833,531.5 567.167,531.5 571.5,531.5C 571.5,522.167 571.5,512.833 571.5,503.5C 581.5,503.5 591.5,503.5 601.5,503.5C 601.5,512.5 601.5,521.5 601.5,530.5C 610.839,530.334 620.173,530.5 629.5,531C 630.624,531.249 631.624,531.749 632.5,532.5C 632.015,556.615 631.015,580.615 629.5,604.5C 625.167,604.5 620.833,604.5 616.5,604.5C 616.5,609.833 616.5,615.167 616.5,620.5C 611.5,620.5 606.5,620.5 601.5,620.5C 601.5,625.833 601.5,631.167 601.5,636.5C 591.5,636.5 581.5,636.5 571.5,636.5C 571.5,651.167 571.5,665.833 571.5,680.5C 575.5,680.5 579.5,680.5 583.5,680.5C 583.007,682.806 582.674,685.139 582.5,687.5C 585.907,688.336 589.241,689.336 592.5,690.5C 592.729,688.567 593.562,686.9 595,685.5C 595.667,686.833 596.333,686.833 597,685.5C 597.813,683.564 598.313,681.564 598.5,679.5C 603.456,679.864 608.456,679.364 613.5,678C 616.403,675.914 619.403,674.081 622.5,672.5C 616.663,678.17 610.663,683.67 604.5,689C 600.474,691.93 596.474,694.763 592.5,697.5C 590.303,698.845 587.97,700.011 585.5,701C 584.29,702.039 583.29,703.206 582.5,704.5C 578.826,705.847 575.16,707.18 571.5,708.5C 563.672,711.366 556.338,715.033 549.5,719.5C 547.447,719.402 545.78,720.069 544.5,721.5C 538.951,722.011 533.617,723.011 528.5,724.5C 509.551,726.756 490.551,727.089 471.5,725.5C 466.228,723.631 460.894,721.965 455.5,720.5C 463.97,720.877 472.304,722.043 480.5,724C 503.376,726.318 525.71,724.151 547.5,717.5C 547.709,716.914 548.043,716.414 548.5,716C 535.355,717.91 522.022,719.243 508.5,720C 494.742,720.643 481.075,719.81 467.5,717.5C 463.5,715.5 459.5,713.5 455.5,711.5C 454.228,712.046 452.894,712.379 451.5,712.5C 445.893,711.266 440.226,710.433 434.5,710C 431.091,708.26 427.424,707.26 423.5,707C 419.779,704.473 415.779,702.473 411.5,701C 409.741,700.202 408.074,700.369 406.5,701.5C 407.243,702.182 407.909,702.849 408.5,703.5C 400.815,702.681 394.815,699.181 390.5,693C 387.5,691.333 384.5,689.667 381.5,688C 376.216,682.207 370.55,677.041 364.5,672.5C 363.155,670.303 361.989,667.97 361,665.5C 358.26,661.986 355.093,658.986 351.5,656.5C 348.704,651.434 345.371,646.767 341.5,642.5C 337.457,637.748 334.457,632.414 332.5,626.5C 331.94,624.199 331.44,621.866 331,619.5C 330.329,618.748 329.496,618.414 328.5,618.5C 327.108,616.727 325.941,614.727 325,612.5C 323.136,605.46 321.303,598.46 319.5,591.5C 322.045,598.876 325.212,606.209 329,613.5C 329.333,613.833 329.667,614.167 330,614.5C 330.978,611.331 330.478,608.497 328.5,606C 329.449,605.383 330.282,605.549 331,606.5C 331.495,608.473 331.662,610.473 331.5,612.5C 333.527,612.662 335.527,612.495 337.5,612C 338.653,610.117 340.319,609.284 342.5,609.5C 342.5,610.5 342.5,611.5 342.5,612.5C 346.5,612.5 350.5,612.5 354.5,612.5C 354.5,609.833 354.5,607.167 354.5,604.5C 352.167,604.5 349.833,604.5 347.5,604.5C 347.5,605.5 347.5,606.5 347.5,607.5C 342.458,608.495 340.125,606.495 340.5,601.5C 342.833,601.5 345.167,601.5 347.5,601.5C 347.5,600.5 347.5,599.5 347.5,598.5C 349.833,598.5 352.167,598.5 354.5,598.5C 354.5,596.167 354.5,593.833 354.5,591.5C 358.846,591.666 363.179,591.499 367.5,591C 368.667,590.5 369.5,589.667 370,588.5C 371.045,591.436 371.879,594.436 372.5,597.5C 373.325,598.386 374.325,598.719 375.5,598.5C 375.5,599.5 375.5,600.5 375.5,601.5C 376.5,601.5 377.5,601.5 378.5,601.5C 378.682,603.591 378.348,605.591 377.5,607.5C 379.361,608.528 380.695,610.028 381.5,612C 385.656,611.948 389.49,612.781 393,614.5C 393.333,613.833 393.667,613.167 394,612.5C 394.893,613.711 395.726,613.711 396.5,612.5C 396.921,609.725 396.254,607.058 394.5,604.5C 397.537,608.537 401.203,611.871 405.5,614.5C 408.675,619.025 413.008,621.525 418.5,622C 419.942,622.377 420.942,623.21 421.5,624.5C 426.65,625.651 431.984,625.817 437.5,625C 440.21,623.253 443.21,622.253 446.5,622C 447.19,619.304 448.69,617.137 451,615.5C 454.08,609.447 452.58,605.113 446.5,602.5C 445.247,599.734 443.747,597.067 442,594.5C 440.871,592.859 439.371,591.859 437.5,591.5C 434.857,586.868 431.857,582.535 428.5,578.5C 429.807,579.153 431.14,579.82 432.5,580.5C 432.833,580 433.167,579.5 433.5,579C 430.591,573.776 428.425,568.276 427,562.5C 425.095,546.503 425.095,530.503 427,514.5C 432.184,501.151 435.018,487.484 435.5,473.5C 432.921,477.324 430.921,481.324 429.5,485.5C 429.5,482.833 429.5,480.167 429.5,477.5C 431.521,475.968 433.021,473.968 434,471.5C 434.996,467.184 435.83,462.851 436.5,458.5C 439.43,454.301 442.097,449.968 444.5,445.5C 444.104,448.482 444.771,451.149 446.5,453.5C 448.64,450.193 450.974,447.026 453.5,444C 454.448,443.517 455.448,443.351 456.5,443.5 Z"/></g>
<g><path style="opacity:1" fill="#556069" d="M 374.5,509.5 C 374.5,510.833 374.5,512.167 374.5,513.5C 373.34,526.327 373.173,539.327 374,552.5C 374.698,555.004 375.531,557.337 376.5,559.5C 376.5,559.833 376.5,560.167 376.5,560.5C 376.5,561.5 376.5,562.5 376.5,563.5C 374.18,560.679 373.013,557.346 373,553.5C 372.333,539.5 372.333,525.5 373,511.5C 373.278,510.584 373.778,509.918 374.5,509.5 Z"/></g>
<g><path style="opacity:1" fill="#2a3338" d="M 381.5,480.5 C 381.5,481.167 381.5,481.833 381.5,482.5C 380.319,486.833 378.819,491.167 377,495.5C 376.667,499.5 376.333,503.5 376,507.5C 375.722,508.416 375.222,509.082 374.5,509.5C 373.778,509.918 373.278,510.584 373,511.5C 372.333,525.5 372.333,539.5 373,553.5C 373.013,557.346 374.18,560.679 376.5,563.5C 378.761,575.018 383.094,585.351 389.5,594.5C 389.5,595.167 389.5,595.833 389.5,596.5C 388.504,596.586 387.671,596.252 387,595.5C 386.657,592.807 385.324,590.807 383,589.5C 381.991,587.975 381.491,586.308 381.5,584.5C 380.448,584.351 379.448,584.517 378.5,585C 376.877,588.054 376.21,587.554 376.5,583.5C 377.233,580.884 377.4,577.884 377,574.5C 376.586,574.043 376.086,573.709 375.5,573.5C 374.985,568.324 373.819,563.324 372,558.5C 371.167,541.823 371.334,525.157 372.5,508.5C 373.971,507.619 374.804,506.286 375,504.5C 375.438,496.644 376.772,488.978 379,481.5C 379.671,480.748 380.504,480.414 381.5,480.5 Z"/></g>
<g><path style="opacity:1" fill="#cdd3d8" d="M 386.5,471.5 C 386.664,474.187 386.497,476.854 386,479.5C 383.225,484.792 381.725,490.458 381.5,496.5C 380.914,496.709 380.414,497.043 380,497.5C 375.989,519.07 375.489,540.737 378.5,562.5C 377.833,561.833 377.167,561.167 376.5,560.5C 376.5,560.167 376.5,559.833 376.5,559.5C 374.642,544.286 373.976,528.953 374.5,513.5C 375.793,512.158 376.626,510.491 377,508.5C 377.333,504.833 377.667,501.167 378,497.5C 381.008,492.947 382.174,487.947 381.5,482.5C 383.314,478.938 384.98,475.271 386.5,471.5 Z"/></g>
<g><path style="opacity:1" fill="#383938" d="M 426.5,494.5 C 425.58,502.936 424.08,511.269 422,519.5C 421.5,532.829 421.333,546.163 421.5,559.5C 421.167,559.5 420.833,559.5 420.5,559.5C 419.261,547.506 419.261,535.506 420.5,523.5C 420.5,520.833 420.5,518.167 420.5,515.5C 421.768,508.292 423.768,501.292 426.5,494.5 Z"/></g>
<g><path style="opacity:1" fill="#b7b8ba" d="M 316.5,502.5 C 314.668,524.105 314.001,545.771 314.5,567.5C 313.338,549.338 313.171,531.005 314,512.5C 314.026,508.821 314.86,505.488 316.5,502.5 Z"/></g>
<g><path style="opacity:1" fill="#666666" d="M 420.5,523.5 C 419.261,535.506 419.261,547.506 420.5,559.5C 419.069,559.119 418.236,558.119 418,556.5C 416.758,545.153 417.591,534.153 420.5,523.5 Z"/></g>
<g><path style="opacity:1" fill="#474a4b" d="M 316.5,519.5 C 316.333,538.17 316.5,556.836 317,575.5C 318.079,578.063 318.579,580.729 318.5,583.5C 317.313,581.928 316.313,580.261 315.5,578.5C 315.17,558.66 315.503,538.993 316.5,519.5 Z"/></g>
<g><path style="opacity:1" fill="#0b1116" d="M 386.5,464.5 C 384.201,469.584 382.535,474.917 381.5,480.5C 380.504,480.414 379.671,480.748 379,481.5C 376.772,488.978 375.438,496.644 375,504.5C 374.804,506.286 373.971,507.619 372.5,508.5C 371.334,525.157 371.167,541.823 372,558.5C 373.819,563.324 374.985,568.324 375.5,573.5C 376.086,573.709 376.586,574.043 377,574.5C 377.4,577.884 377.233,580.884 376.5,583.5C 373.51,575.86 370.677,568.194 368,560.5C 366.593,534.2 367.759,508.033 371.5,482C 372.62,479.239 374.12,476.739 376,474.5C 376.92,471.899 377.587,469.232 378,466.5C 379.11,464.963 380.61,464.297 382.5,464.5C 383.155,456.337 384.988,448.337 388,440.5C 388.977,443.241 389.477,446.075 389.5,449C 388.346,454.14 387.346,459.306 386.5,464.5 Z"/></g>
<g><path style="opacity:1" fill="#222a2c" d="M 145.5,285.5 C 143.87,289.48 142.203,293.48 140.5,297.5C 137.939,301.158 135.939,305.158 134.5,309.5C 129.815,316.541 126.482,324.208 124.5,332.5C 121.23,337.607 118.897,343.274 117.5,349.5C 117.5,349.833 117.5,350.167 117.5,350.5C 115.926,352.102 115.259,354.102 115.5,356.5C 113.057,362.606 111.39,368.939 110.5,375.5C 108.926,377.102 108.259,379.102 108.5,381.5C 107.699,383.042 107.366,384.708 107.5,386.5C 106.778,386.918 106.278,387.584 106,388.5C 105.452,392.17 104.952,395.837 104.5,399.5C 103.469,401.961 102.802,404.627 102.5,407.5C 100.405,414.914 99.072,422.58 98.5,430.5C 98.6054,434.548 98.2721,438.548 97.5,442.5C 96.3369,465.663 96.1703,488.996 97,512.5C 97.1981,514.382 97.6981,516.048 98.5,517.5C 98.073,523.114 98.7396,528.447 100.5,533.5C 100.425,537.981 101.092,542.314 102.5,546.5C 102.835,551.874 104.168,556.874 106.5,561.5C 106.87,565.233 107.537,568.899 108.5,572.5C 108.12,574.698 108.787,576.365 110.5,577.5C 112.212,583.39 113.545,589.39 114.5,595.5C 115.405,600.653 116.905,605.653 119,610.5C 119.383,611.056 119.883,611.389 120.5,611.5C 122.02,614.72 123.353,618.053 124.5,621.5C 125.414,625.936 127.081,629.936 129.5,633.5C 130.083,636.947 131.416,639.947 133.5,642.5C 136.122,646.748 138.455,651.081 140.5,655.5C 140.5,656.167 140.5,656.833 140.5,657.5C 139.504,657.586 138.671,657.252 138,656.5C 89.0486,564.863 78.7153,468.863 107,368.5C 115.656,340.189 127.323,313.189 142,287.5C 142.816,286.177 143.983,285.511 145.5,285.5 Z"/></g>
<g><path style="opacity:1" fill="#a5a8a9" d="M 102.5,546.5 C 104.358,551.255 105.691,556.255 106.5,561.5C 104.168,556.874 102.835,551.874 102.5,546.5 Z"/></g>
<g><path style="opacity:1" fill="#bdbcbc" d="M 429.5,472.5 C 429.5,474.167 429.5,475.833 429.5,477.5C 424.666,489.565 421.666,502.232 420.5,515.5C 420.5,518.167 420.5,520.833 420.5,523.5C 417.591,534.153 416.758,545.153 418,556.5C 418.236,558.119 419.069,559.119 420.5,559.5C 420.684,565.977 422.351,571.977 425.5,577.5C 423.292,576.106 421.792,574.106 421,571.5C 420.129,567.016 418.796,562.683 417,558.5C 416.333,547.833 416.333,537.167 417,526.5C 418.176,515.758 419.843,505.092 422,494.5C 423.909,486.834 426.409,479.501 429.5,472.5 Z"/></g>
<g><path style="opacity:1" fill="#babfbe" d="M 681.5,498.5 C 683.117,502.54 683.95,506.873 684,511.5C 685.4,535.71 684.066,559.71 680,583.5C 676.351,587.807 674.684,592.807 675,598.5C 674.059,600.727 672.892,602.727 671.5,604.5C 673.625,597.645 675.292,590.645 676.5,583.5C 676.833,583.5 677.167,583.5 677.5,583.5C 680.491,572.198 681.824,560.531 681.5,548.5C 682.782,531.98 682.782,515.313 681.5,498.5 Z"/></g>
<g><path style="opacity:1" fill="#6c7371" d="M 680.5,548.5 C 680.833,548.5 681.167,548.5 681.5,548.5C 681.824,560.531 680.491,572.198 677.5,583.5C 677.954,573.109 678.954,562.775 680.5,552.5C 680.5,551.167 680.5,549.833 680.5,548.5 Z"/></g>
<g><path style="opacity:1" fill="#8d9496" d="M 108.5,572.5 C 110.213,573.635 110.88,575.302 110.5,577.5C 108.787,576.365 108.12,574.698 108.5,572.5 Z"/></g>
<g><path style="opacity:1" fill="#9aa3a6" d="M 376.5,560.5 C 377.167,561.167 377.833,561.833 378.5,562.5C 379.806,571.923 382.972,580.59 388,588.5C 388.505,590.518 389.005,592.518 389.5,594.5C 383.094,585.351 378.761,575.018 376.5,563.5C 376.5,562.5 376.5,561.5 376.5,560.5 Z"/></g>
<g><path style="opacity:1" fill="#707070" d="M 420.5,559.5 C 420.833,559.5 421.167,559.5 421.5,559.5C 422.072,566.555 424.405,572.888 428.5,578.5C 431.857,582.535 434.857,586.868 437.5,591.5C 431.622,588.3 427.622,583.633 425.5,577.5C 422.351,571.977 420.684,565.977 420.5,559.5 Z"/></g>
<g><path style="opacity:1" fill="#686a6c" d="M 676.5,583.5 C 675.292,590.645 673.625,597.645 671.5,604.5C 670.089,607.675 668.922,611.009 668,614.5C 667.148,615.571 666.315,616.571 665.5,617.5C 665.332,612.744 666.832,608.744 670,605.5C 670.333,602.833 670.667,600.167 671,597.5C 672.728,592.736 674.561,588.07 676.5,583.5 Z"/></g>
<g><path style="opacity:1" fill="#a8aaab" d="M 315.5,578.5 C 316.313,580.261 317.313,581.928 318.5,583.5C 319.473,585.948 319.806,588.615 319.5,591.5C 321.303,598.46 323.136,605.46 325,612.5C 325.941,614.727 327.108,616.727 328.5,618.5C 329.496,618.414 330.329,618.748 331,619.5C 331.44,621.866 331.94,624.199 332.5,626.5C 334.457,632.414 337.457,637.748 341.5,642.5C 341.629,644.216 341.962,645.883 342.5,647.5C 339.197,643.349 336.03,639.015 333,634.5C 330.237,626.969 326.904,619.636 323,612.5C 318.698,601.539 316.198,590.205 315.5,578.5 Z"/></g>
<g><path style="opacity:1" fill="#7c7b7d" d="M 437.5,591.5 C 439.371,591.859 440.871,592.859 442,594.5C 443.747,597.067 445.247,599.734 446.5,602.5C 442.395,599.73 439.395,596.063 437.5,591.5 Z"/></g>
<g><path style="opacity:1" fill="#545e60" d="M 114.5,595.5 C 117.068,600.525 119.068,605.859 120.5,611.5C 119.883,611.389 119.383,611.056 119,610.5C 116.905,605.653 115.405,600.653 114.5,595.5 Z"/></g>
<g><path style="opacity:1" fill="#767a7c" d="M 389.5,594.5 C 394.575,597.773 398.075,602.439 400,608.5C 402.04,610.37 403.873,612.37 405.5,614.5C 401.203,611.871 397.537,608.537 394.5,604.5C 391.889,602.381 390.222,599.714 389.5,596.5C 389.5,595.833 389.5,595.167 389.5,594.5 Z"/></g>
<g><path style="opacity:1" fill="#787b7c" d="M 405.5,614.5 C 409.635,615.209 413.302,616.875 416.5,619.5C 422.962,623.408 429.962,624.408 437.5,622.5C 437.389,623.117 437.056,623.617 436.5,624C 431.511,624.499 426.511,624.666 421.5,624.5C 420.942,623.21 419.942,622.377 418.5,622C 413.008,621.525 408.675,619.025 405.5,614.5 Z"/></g>
<g><path style="opacity:1" fill="#a9aaab" d="M 447.5,616.5 C 445.409,620.415 442.076,622.415 437.5,622.5C 429.962,624.408 422.962,623.408 416.5,619.5C 422.363,621.23 428.363,621.73 434.5,621C 439.107,620.13 443.44,618.63 447.5,616.5 Z"/></g>
<g><path style="opacity:1" fill="#57595c" d="M 328.5,618.5 C 329.496,618.414 330.329,618.748 331,619.5C 331.44,621.866 331.94,624.199 332.5,626.5C 330.245,624.469 328.912,621.802 328.5,618.5 Z"/></g>
<g><path style="opacity:1" fill="#8d9294" d="M 124.5,621.5 C 126.919,625.064 128.586,629.064 129.5,633.5C 127.081,629.936 125.414,625.936 124.5,621.5 Z"/></g>
<g><path style="opacity:1" fill="#444547" d="M 446.5,602.5 C 452.58,605.113 454.08,609.447 451,615.5C 448.69,617.137 447.19,619.304 446.5,622C 443.21,622.253 440.21,623.253 437.5,625C 431.984,625.817 426.65,625.651 421.5,624.5C 426.511,624.666 431.511,624.499 436.5,624C 437.056,623.617 437.389,623.117 437.5,622.5C 442.076,622.415 445.409,620.415 447.5,616.5C 448.458,616.047 449.292,615.381 450,614.5C 450.667,612.167 450.667,609.833 450,607.5C 448.198,606.211 447.031,604.544 446.5,602.5 Z"/></g>
<g><path style="opacity:1" fill="#929292" d="M 665.5,617.5 C 664.645,623.547 661.978,628.547 657.5,632.5C 659.043,630.072 660.043,627.406 660.5,624.5C 662.009,622.071 663.676,619.737 665.5,617.5 Z"/></g>
<g><path style="opacity:1" fill="#4e4f4c" d="M 660.5,624.5 C 660.043,627.406 659.043,630.072 657.5,632.5C 657.167,633.5 656.5,634.167 655.5,634.5C 653.408,637.681 651.075,640.681 648.5,643.5C 651.686,636.648 655.686,630.315 660.5,624.5 Z"/></g>
<g><path style="opacity:1" fill="#8c9192" d="M 129.5,633.5 C 130.931,634.903 132.098,636.569 133,638.5C 133.49,639.793 133.657,641.127 133.5,642.5C 131.416,639.947 130.083,636.947 129.5,633.5 Z"/></g>
<g><path style="opacity:1" fill="#8f908c" d="M 655.5,634.5 C 655.657,635.873 655.49,637.207 655,638.5C 652.9,641.051 651.067,643.717 649.5,646.5C 646.806,648.527 644.473,650.861 642.5,653.5C 644.102,649.905 646.102,646.571 648.5,643.5C 651.075,640.681 653.408,637.681 655.5,634.5 Z"/></g>
<g><path style="opacity:1" fill="#707472" d="M 341.5,642.5 C 345.371,646.767 348.704,651.434 351.5,656.5C 349.053,654.93 347.053,652.93 345.5,650.5C 345.19,648.856 344.19,647.856 342.5,647.5C 341.962,645.883 341.629,644.216 341.5,642.5 Z"/></g>
<g><path style="opacity:1" fill="#cacccb" d="M 345.5,650.5 C 347.053,652.93 349.053,654.93 351.5,656.5C 352.833,659.167 354.167,661.833 355.5,664.5C 351.863,661.694 348.696,658.361 346,654.5C 345.51,653.207 345.343,651.873 345.5,650.5 Z"/></g>
<g><path style="opacity:1" fill="#737a7c" d="M 140.5,655.5 C 142.536,658.579 144.202,661.912 145.5,665.5C 143.103,663.338 141.436,660.671 140.5,657.5C 140.5,656.833 140.5,656.167 140.5,655.5 Z"/></g>
<g><path style="opacity:1" fill="#5e6161" d="M 351.5,656.5 C 355.093,658.986 358.26,661.986 361,665.5C 361.989,667.97 363.155,670.303 364.5,672.5C 361.474,669.805 358.474,667.138 355.5,664.5C 354.167,661.833 352.833,659.167 351.5,656.5 Z"/></g>
<g><path style="opacity:1" fill="#696d5f" d="M 642.5,653.5 C 639.882,657.291 637.049,660.957 634,664.5C 624.238,673.193 614.738,681.859 605.5,690.5C 601.461,693.4 597.127,695.734 592.5,697.5C 596.474,694.763 600.474,691.93 604.5,689C 610.663,683.67 616.663,678.17 622.5,672.5C 624.915,670.911 626.915,668.744 628.5,666C 630.329,665.727 631.829,664.893 633,663.5C 635.5,660.333 638,657.167 640.5,654C 641.094,653.536 641.761,653.369 642.5,653.5 Z"/></g>
<g><path style="opacity:1" fill="#c2c5b9" d="M 649.5,646.5 C 645.241,652.604 640.741,658.604 636,664.5C 627.784,671.718 619.951,679.218 612.5,687C 610.473,688.879 608.14,690.046 605.5,690.5C 614.738,681.859 624.238,673.193 634,664.5C 637.049,660.957 639.882,657.291 642.5,653.5C 644.473,650.861 646.806,648.527 649.5,646.5 Z"/></g>
<g><path style="opacity:1" fill="#7f8080" d="M 364.5,672.5 C 370.55,677.041 376.216,682.207 381.5,688C 384.5,689.667 387.5,691.333 390.5,693C 394.815,699.181 400.815,702.681 408.5,703.5C 409.167,704.5 409.833,705.5 410.5,706.5C 408.883,705.962 407.216,705.629 405.5,705.5C 399.144,703.322 393.811,699.655 389.5,694.5C 387.922,693.702 386.256,693.202 384.5,693C 378.573,686.4 372.073,680.566 365,675.5C 364.517,674.552 364.351,673.552 364.5,672.5 Z"/></g>
<g><path style="opacity:1" fill="#828583" d="M 592.5,697.5 C 590.166,701.276 586.833,703.609 582.5,704.5C 583.29,703.206 584.29,702.039 585.5,701C 587.97,700.011 590.303,698.845 592.5,697.5 Z"/></g>
<g><path style="opacity:1" fill="#4e5050" d="M 410.5,706.5 C 416.578,707.298 421.912,709.631 426.5,713.5C 424.266,713.62 422.099,713.287 420,712.5C 417.185,709.852 414.019,707.852 410.5,706.5 Z"/></g>
<g><path style="opacity:1" fill="#282f30" d="M 150.5,674.5 C 162.319,692.33 175.319,709.33 189.5,725.5C 186.215,725.731 183.715,724.397 182,721.5C 173.235,710.091 164.568,698.757 156,687.5C 154.773,684.269 153.106,681.269 151,678.5C 150.51,677.207 150.343,675.873 150.5,674.5 Z"/></g>
<g><path style="opacity:1" fill="#b3b5b5" d="M 405.5,705.5 C 407.216,705.629 408.883,705.962 410.5,706.5C 414.019,707.852 417.185,709.852 420,712.5C 422.099,713.287 424.266,713.62 426.5,713.5C 429.642,714.79 432.975,715.79 436.5,716.5C 437.833,717.5 439.167,718.5 440.5,719.5C 434.718,717.411 428.718,716.245 422.5,716C 418.731,713.484 414.731,711.484 410.5,710C 408.76,708.483 407.094,706.983 405.5,705.5 Z"/></g>
<g><path style="opacity:1" fill="#5a605e" d="M 571.5,708.5 C 568.681,710.419 566.014,712.585 563.5,715C 558.734,716.218 554.067,717.718 549.5,719.5C 556.338,715.033 563.672,711.366 571.5,708.5 Z"/></g>
<g><path style="opacity:1" fill="#0e100f" d="M 455.5,720.5 C 449.167,719.167 442.833,717.833 436.5,716.5C 432.975,715.79 429.642,714.79 426.5,713.5C 421.912,709.631 416.578,707.298 410.5,706.5C 409.833,705.5 409.167,704.5 408.5,703.5C 407.909,702.849 407.243,702.182 406.5,701.5C 408.074,700.369 409.741,700.202 411.5,701C 415.779,702.473 419.779,704.473 423.5,707C 427.424,707.26 431.091,708.26 434.5,710C 440.226,710.433 445.893,711.266 451.5,712.5C 452.894,712.379 454.228,712.046 455.5,711.5C 459.5,713.5 463.5,715.5 467.5,717.5C 481.075,719.81 494.742,720.643 508.5,720C 522.022,719.243 535.355,717.91 548.5,716C 548.043,716.414 547.709,716.914 547.5,717.5C 525.71,724.151 503.376,726.318 480.5,724C 472.304,722.043 463.97,720.877 455.5,720.5 Z"/></g>
<g><path style="opacity:1" fill="#838584" d="M 436.5,716.5 C 442.833,717.833 449.167,719.167 455.5,720.5C 460.894,721.965 466.228,723.631 471.5,725.5C 468.833,725.5 466.167,725.5 463.5,725.5C 460.373,724.419 457.04,723.753 453.5,723.5C 449.298,721.958 444.965,720.625 440.5,719.5C 439.167,718.5 437.833,717.5 436.5,716.5 Z"/></g>
<g><path style="opacity:1" fill="#c2c5c4" d="M 582.5,704.5 C 573.275,710.81 563.608,716.643 553.5,722C 547.93,723.548 542.264,724.381 536.5,724.5C 539.167,723.5 541.833,722.5 544.5,721.5C 545.78,720.069 547.447,719.402 549.5,719.5C 554.067,717.718 558.734,716.218 563.5,715C 566.014,712.585 568.681,710.419 571.5,708.5C 575.16,707.18 578.826,705.847 582.5,704.5 Z"/></g>
<g><path style="opacity:1" fill="#e2e3e3" d="M 453.5,723.5 C 457.04,723.753 460.373,724.419 463.5,725.5C 466.203,726.963 469.203,727.796 472.5,728C 486.817,729.23 501.151,729.564 515.5,729C 516.056,728.617 516.389,728.117 516.5,727.5C 523.376,727.76 530.042,726.76 536.5,724.5C 533.588,725.956 530.588,727.456 527.5,729C 508.506,730.889 489.506,730.889 470.5,729C 464.335,728.222 458.668,726.388 453.5,723.5 Z"/></g>
<g><path style="opacity:1" fill="#b5b7b6" d="M 463.5,725.5 C 466.167,725.5 468.833,725.5 471.5,725.5C 472.952,726.302 474.618,726.802 476.5,727C 489.829,727.5 503.163,727.667 516.5,727.5C 516.389,728.117 516.056,728.617 515.5,729C 501.151,729.564 486.817,729.23 472.5,728C 469.203,727.796 466.203,726.963 463.5,725.5 Z"/></g>
<g><path style="opacity:1" fill="#686a69" d="M 528.5,724.5 C 524.601,725.932 520.601,726.932 516.5,727.5C 503.163,727.667 489.829,727.5 476.5,727C 474.618,726.802 472.952,726.302 471.5,725.5C 490.551,727.089 509.551,726.756 528.5,724.5 Z"/></g>
<g><path style="opacity:1" fill="#959595" d="M 544.5,721.5 C 541.833,722.5 539.167,723.5 536.5,724.5C 530.042,726.76 523.376,727.76 516.5,727.5C 520.601,726.932 524.601,725.932 528.5,724.5C 533.617,723.011 538.951,722.011 544.5,721.5 Z"/></g>
<g><path style="opacity:1" fill="#aeb5b4" d="M 216.5,752.5 C 220.436,754.766 223.769,757.766 226.5,761.5C 222.564,759.234 219.231,756.234 216.5,752.5 Z"/></g>
<g><path style="opacity:1" fill="#212a2b" d="M 189.5,725.5 C 198.14,734.806 207.14,743.806 216.5,752.5C 219.231,756.234 222.564,759.234 226.5,761.5C 243.224,776.83 261.224,790.164 280.5,801.5C 282.566,803.199 284.9,804.532 287.5,805.5C 290.723,808.247 294.389,810.247 298.5,811.5C 303.542,815.021 308.875,818.021 314.5,820.5C 312.473,820.662 310.473,820.495 308.5,820C 264.178,797.995 225.345,768.828 192,732.5C 191.616,729.94 190.783,727.606 189.5,725.5 Z"/></g>
<g><path style="opacity:1" fill="#909a9a" d="M 280.5,801.5 C 283.546,801.725 285.879,803.058 287.5,805.5C 284.9,804.532 282.566,803.199 280.5,801.5 Z"/></g>
<g><path style="opacity:1" fill="#a5afaf" d="M 287.5,805.5 C 291.884,806.192 295.55,808.192 298.5,811.5C 294.389,810.247 290.723,808.247 287.5,805.5 Z"/></g>
<g><path style="opacity:1" fill="#aab9b9" d="M 298.5,811.5 C 304.845,814.007 311.178,816.507 317.5,819C 319.319,819.74 320.652,820.907 321.5,822.5C 319.106,821.985 316.772,821.319 314.5,820.5C 308.875,818.021 303.542,815.021 298.5,811.5 Z"/></g>
<g><path style="opacity:1" fill="#7c8f95" d="M 321.5,822.5 C 324.1,823.468 326.434,824.801 328.5,826.5C 325.454,826.275 323.121,824.942 321.5,822.5 Z"/></g>
<g><path style="opacity:1" fill="#95a4aa" d="M 328.5,826.5 C 335.297,827.569 341.297,830.236 346.5,834.5C 341.511,832.674 336.511,830.841 331.5,829C 330.058,828.623 329.058,827.79 328.5,826.5 Z"/></g>
<g><path style="opacity:1" fill="#909a9d" d="M 347.5,834.5 C 350.855,834.69 353.855,835.69 356.5,837.5C 353.084,837.472 350.084,836.472 347.5,834.5 Z"/></g>
<g><path style="opacity:1" fill="#374545" d="M 356.5,837.5 C 366.687,841.628 377.02,845.295 387.5,848.5C 376.134,847.187 365.801,843.52 356.5,837.5 Z"/></g>
<g><path style="opacity:1" fill="#b0bdbb" d="M 391.5,848.5 C 394.187,848.336 396.854,848.503 399.5,849C 401.32,849.2 402.653,850.034 403.5,851.5C 401.435,851.483 399.435,851.15 397.5,850.5C 395.214,850.405 393.214,849.738 391.5,848.5 Z"/></g>
<g><path style="opacity:1" fill="#6d7a7c" d="M 397.5,850.5 C 399.435,851.15 401.435,851.483 403.5,851.5C 415.706,853.889 427.706,856.555 439.5,859.5C 425.684,857.864 412.017,855.364 398.5,852C 397.944,851.617 397.611,851.117 397.5,850.5 Z"/></g>
<g><path style="opacity:1" fill="#bdc4c3" d="M 450.5,860.5 C 478.834,861.809 507.168,861.809 535.5,860.5C 507.166,864.5 478.833,864.5 450.5,860.5 Z"/></g>
</svg>
