<?xml version="1.0" encoding="UTF-8"?>
<!DOCTYPE svg PUBLIC "-//W3C//DTD SVG 1.1//EN" "http://www.w3.org/Graphics/SVG/1.1/DTD/svg11.dtd">
<svg xmlns="http://www.w3.org/2000/svg" version="1.1" width="992px" height="1291px" style="shape-rendering:geometricPrecision; text-rendering:geometricPrecision; image-rendering:optimizeQuality; fill-rule:evenodd; clip-rule:evenodd" xmlns:xlink="http://www.w3.org/1999/xlink">
<g><path style="opacity:0.995" fill="#000000" d="M 462.5,-0.5 C 484.5,-0.5 506.5,-0.5 528.5,-0.5C 685.444,12.4792 810.944,81.4792 905,206.5C 955.545,278.963 984.378,359.296 991.5,447.5C 991.5,468.167 991.5,488.833 991.5,509.5C 985.683,585.423 963.183,656.09 924,721.5C 806.752,894.994 689.752,1068.66 573,1242.5C 559.996,1269.26 538.829,1285.26 509.5,1290.5C 499.833,1290.5 490.167,1290.5 480.5,1290.5C 454.782,1285.56 434.615,1272.22 420,1250.5C 363.411,1158.98 305.078,1068.64 245,979.5C 203,916.833 161,854.167 119,791.5C 48.213,710.892 8.37971,616.892 -0.5,509.5C -0.5,488.833 -0.5,468.167 -0.5,447.5C 15.0179,290.232 88.0179,167.732 218.5,80C 293.059,32.6469 374.393,5.81357 462.5,-0.5 Z"/></g>
<g><path style="opacity:1" fill="#2f3b39" d="M 477.5,89.5 C 469.335,90.4202 461.002,91.0868 452.5,91.5C 453.952,90.6981 455.618,90.1981 457.5,90C 464.158,89.5004 470.825,89.3337 477.5,89.5 Z"/></g>
<g><path style="opacity:1" fill="#b3bcbb" d="M 477.5,89.5 C 491.837,89.3334 506.171,89.5001 520.5,90C 528.71,90.2418 536.71,91.0751 544.5,92.5C 513.834,91.1868 483.168,91.1868 452.5,92.5C 452.5,92.1667 452.5,91.8333 452.5,91.5C 461.002,91.0868 469.335,90.4202 477.5,89.5 Z"/></g>
<g><path style="opacity:0.999" fill="#fefefe" d="M 544.5,92.5 C 660.35,107.325 753.517,160.992 824,253.5C 899.348,361.965 916.015,478.965 874,604.5C 824.15,729.348 734.65,810.515 605.5,848C 582.557,854.422 559.223,858.589 535.5,860.5C 507.168,861.809 478.834,861.809 450.5,860.5C 446.881,859.756 443.215,859.423 439.5,859.5C 427.706,856.555 415.706,853.889 403.5,851.5C 402.653,850.034 401.32,849.2 399.5,849C 396.854,848.503 394.187,848.336 391.5,848.5C 390.167,848.5 388.833,848.5 387.5,848.5C 377.02,845.295 366.687,841.628 356.5,837.5C 353.855,835.69 350.855,834.69 347.5,834.5C 347.167,834.5 346.833,834.5 346.5,834.5C 341.297,830.236 335.297,827.569 328.5,826.5C 326.434,824.801 324.1,823.468 321.5,822.5C 320.652,820.907 319.319,819.74 317.5,819C 311.178,816.507 304.845,814.007 298.5,811.5C 295.55,808.192 291.884,806.192 287.5,805.5C 285.879,803.058 283.546,801.725 280.5,801.5C 261.224,790.164 243.224,776.83 226.5,761.5C 223.769,757.766 220.436,754.766 216.5,752.5C 207.14,743.806 198.14,734.806 189.5,725.5C 175.319,709.33 162.319,692.33 150.5,674.5C 149.389,671.144 147.723,668.144 145.5,665.5C 144.202,661.912 142.536,658.579 140.5,655.5C 138.455,651.081 136.122,646.748 133.5,642.5C 133.657,641.127 133.49,639.793 133,638.5C 132.098,636.569 130.931,634.903 129.5,633.5C 128.586,629.064 126.919,625.064 124.5,621.5C 121.351,612.713 118.018,604.046 114.5,595.5C 113.545,589.39 112.212,583.39 110.5,577.5C 110.88,575.302 110.213,573.635 108.5,572.5C 107.537,568.899 106.87,565.233 106.5,561.5C 105.691,556.255 104.358,551.255 102.5,546.5C 101.092,542.314 100.425,537.981 100.5,533.5C 98.2449,499.191 97.9115,464.857 99.5,430.5C 100.721,422.847 101.721,415.18 102.5,407.5C 102.802,404.627 103.469,401.961 104.5,399.5C 106.237,395.458 107.237,391.124 107.5,386.5C 107.366,384.708 107.699,383.042 108.5,381.5C 110.074,379.898 110.741,377.898 110.5,375.5C 111.39,368.939 113.057,362.606 115.5,356.5C 117.074,354.898 117.741,352.898 117.5,350.5C 117.5,350.167 117.5,349.833 117.5,349.5C 118.117,349.389 118.617,349.056 119,348.5C 120.953,343.17 122.787,337.837 124.5,332.5C 128.585,325.313 131.919,317.646 134.5,309.5C 137.548,306.07 139.548,302.07 140.5,297.5C 141.376,297.631 142.043,297.298 142.5,296.5C 144.306,293.359 145.639,290.026 146.5,286.5C 148.245,284.967 149.245,282.967 149.5,280.5C 151.241,278.605 152.241,276.272 152.5,273.5C 156.511,268.132 160.511,262.798 164.5,257.5C 166.822,256.198 168.155,254.198 168.5,251.5C 168.328,250.508 168.662,249.842 169.5,249.5C 176.405,241.358 183.071,233.025 189.5,224.5C 197.202,217.799 204.202,210.466 210.5,202.5C 223.125,188.705 237.125,176.539 252.5,166C 272.246,151.79 293.246,139.623 315.5,129.5C 321.175,128.494 326.175,126.161 330.5,122.5C 335.232,122.373 339.232,120.707 342.5,117.5C 350.384,115.041 358.384,112.874 366.5,111C 367.381,110.292 368.047,109.458 368.5,108.5C 369.391,107.89 370.391,107.557 371.5,107.5C 380.986,106.552 389.986,104.218 398.5,100.5C 407.109,98.889 415.776,97.5557 424.5,96.5C 433.076,95.9133 441.41,94.58 449.5,92.5C 450.5,92.5 451.5,92.5 452.5,92.5C 483.168,91.1868 513.834,91.1868 544.5,92.5 Z"/></g>
<g><path style="opacity:1" fill="#c3c8c9" d="M 449.5,92.5 C 441.41,94.58 433.076,95.9133 424.5,96.5C 432.555,94.2139 440.888,92.8805 449.5,92.5 Z"/></g>
<g><path style="opacity:1" fill="#636c6c" d="M 452.5,91.5 C 452.5,91.8333 452.5,92.1667 452.5,92.5C 451.5,92.5 450.5,92.5 449.5,92.5C 440.888,92.8805 432.555,94.2139 424.5,96.5C 415.776,97.5557 407.109,98.889 398.5,100.5C 416.017,95.3582 434.017,92.3582 452.5,91.5 Z"/></g>
<g><path style="opacity:1" fill="#9faead" d="M 398.5,100.5 C 389.986,104.218 380.986,106.552 371.5,107.5C 380.185,104.291 389.185,101.958 398.5,100.5 Z"/></g>
<g><path style="opacity:1" fill="#a9b5b3" d="M 368.5,108.5 C 368.047,109.458 367.381,110.292 366.5,111C 358.384,112.874 350.384,115.041 342.5,117.5C 350.702,113.411 359.368,110.411 368.5,108.5 Z"/></g>
<g><path style="opacity:1" fill="#aebbb9" d="M 342.5,117.5 C 339.232,120.707 335.232,122.373 330.5,122.5C 334.203,120.321 338.203,118.655 342.5,117.5 Z"/></g>
<g><path style="opacity:1" fill="#b2bebc" d="M 330.5,122.5 C 326.175,126.161 321.175,128.494 315.5,129.5C 320.07,126.384 325.07,124.05 330.5,122.5 Z"/></g>
<g><path style="opacity:1" fill="#989999" d="M 210.5,202.5 C 204.202,210.466 197.202,217.799 189.5,224.5C 193.098,219.726 196.931,215.06 201,210.5C 203.766,207.223 206.933,204.557 210.5,202.5 Z"/></g>
<g><path style="opacity:1" fill="#414849" d="M 498.5,215.5 C 495.214,214.793 491.881,214.46 488.5,214.5C 492.023,211.869 495.356,212.202 498.5,215.5 Z"/></g>
<g><path style="opacity:1" fill="#0f1417" d="M 488.5,214.5 C 491.881,214.46 495.214,214.793 498.5,215.5C 502.132,216.984 505.466,218.984 508.5,221.5C 509.53,224.192 511.53,225.692 514.5,226C 512.285,227.044 509.952,227.71 507.5,228C 512.658,231.88 512.325,234.047 506.5,234.5C 506.333,257.836 506.5,281.169 507,304.5C 512.072,303.529 517.238,303.195 522.5,303.5C 522.335,306.518 522.502,309.518 523,312.5C 525.381,313.435 527.881,313.768 530.5,313.5C 530.5,314.833 530.5,316.167 530.5,317.5C 533.5,317.5 536.5,317.5 539.5,317.5C 539.664,314.813 539.497,312.146 539,309.5C 538.29,308.027 537.124,307.36 535.5,307.5C 535.664,304.813 535.497,302.146 535,299.5C 532.959,298.577 530.792,298.244 528.5,298.5C 528.5,292.5 528.5,286.5 528.5,280.5C 526.5,280.5 524.5,280.5 522.5,280.5C 522.5,283.5 522.5,286.5 522.5,289.5C 521.5,289.5 520.5,289.5 519.5,289.5C 519.5,286.5 519.5,283.5 519.5,280.5C 517.167,280.5 514.833,280.5 512.5,280.5C 512.5,274.5 512.5,268.5 512.5,262.5C 521.309,263.643 530.309,263.643 539.5,262.5C 539.5,268.5 539.5,274.5 539.5,280.5C 541.833,280.5 544.167,280.5 546.5,280.5C 546.5,290.167 546.5,299.833 546.5,309.5C 549.5,309.5 552.5,309.5 555.5,309.5C 555.5,312.167 555.5,314.833 555.5,317.5C 557.833,317.5 560.167,317.5 562.5,317.5C 562.5,323.5 562.5,329.5 562.5,335.5C 560.167,335.5 557.833,335.5 555.5,335.5C 555.5,365.833 555.5,396.167 555.5,426.5C 560.833,426.5 566.167,426.5 571.5,426.5C 571.5,429.833 571.5,433.167 571.5,436.5C 573.833,436.5 576.167,436.5 578.5,436.5C 578.5,433.167 578.5,429.833 578.5,426.5C 581.167,426.5 583.833,426.5 586.5,426.5C 586.692,441.851 586.359,457.184 585.5,472.5C 584.325,472.281 583.325,472.614 582.5,473.5C 583.5,474.333 584.5,475.167 585.5,476C 588.882,476.176 592.215,476.676 595.5,477.5C 591.441,479.201 587.441,480.868 583.5,482.5C 579.828,484.753 575.828,486.086 571.5,486.5C 565.32,488.587 558.987,490.087 552.5,491C 552.833,491.333 553.167,491.667 553.5,492C 551.574,492.422 550.574,493.589 550.5,495.5C 545.459,498.351 540.125,500.684 534.5,502.5C 531.353,502.737 528.353,503.57 525.5,505C 524.619,505.708 523.953,506.542 523.5,507.5C 521.703,508.73 519.703,509.396 517.5,509.5C 513.045,510.707 508.712,512.207 504.5,514C 502.569,514.902 500.903,516.069 499.5,517.5C 495.752,519.966 491.752,520.133 487.5,518C 470.83,510.957 454.497,503.457 438.5,495.5C 435.232,492.293 431.232,490.627 426.5,490.5C 425.426,489.115 424.093,487.949 422.5,487C 424.167,486.667 425.833,486.333 427.5,486C 423.863,485.232 420.363,484.066 417,482.5C 413.879,483.536 410.713,483.703 407.5,483C 405.365,481.619 403.032,480.619 400.5,480C 405.498,479.572 405.665,478.739 401,477.5C 397.545,478.791 394.045,478.791 390.5,477.5C 388.631,476.376 386.631,475.543 384.5,475C 385.902,473.658 385.569,472.824 383.5,472.5C 378.215,473.029 372.882,473.029 367.5,472.5C 358.697,471.009 350.363,468.342 342.5,464.5C 339.766,463.295 337.099,461.795 334.5,460C 335.833,459.667 337.167,459.333 338.5,459C 333.587,456.978 328.587,456.478 323.5,457.5C 322.18,435.168 322.18,412.835 323.5,390.5C 323.5,389.833 323.5,389.167 323.5,388.5C 324.167,388.167 324.833,387.833 325.5,387.5C 330.481,386.911 335.481,386.411 340.5,386C 342.137,383.69 344.304,382.19 347,381.5C 347.483,380.552 347.649,379.552 347.5,378.5C 336.918,376.598 326.251,376.098 315.5,377C 314.29,378.039 313.29,379.206 312.5,380.5C 309.049,383.463 306.549,387.13 305,391.5C 303.957,396.664 302.79,401.664 301.5,406.5C 299.436,406.313 297.436,405.813 295.5,405C 292.623,403.661 290.956,401.827 290.5,399.5C 289.833,399.833 289.167,400.167 288.5,400.5C 286.231,399.185 283.898,398.018 281.5,397C 284.028,396.331 284.028,395.498 281.5,394.5C 280.784,395.311 279.95,395.978 279,396.5C 276.681,395.129 274.181,394.462 271.5,394.5C 254.295,388.233 237.295,381.4 220.5,374C 216.944,372.392 213.611,370.559 210.5,368.5C 204.152,364.037 197.152,360.704 189.5,358.5C 185.366,355.386 186.033,353.386 191.5,352.5C 192.873,352.657 194.207,352.49 195.5,352C 199.581,349.298 203.914,346.964 208.5,345C 209.381,344.292 210.047,343.458 210.5,342.5C 210.833,342.5 211.167,342.5 211.5,342.5C 217.871,341.146 223.538,338.479 228.5,334.5C 229.873,334.657 231.207,334.49 232.5,334C 235.193,331.435 238.193,329.602 241.5,328.5C 245.857,325.655 250.523,323.322 255.5,321.5C 262.718,318.197 270.052,315.197 277.5,312.5C 278.167,312.5 278.5,312.167 278.5,311.5C 282.358,311.23 285.691,309.897 288.5,307.5C 295.602,303.615 302.935,300.282 310.5,297.5C 310.5,296.5 310.5,295.5 310.5,294.5C 314.36,294.946 317.36,293.613 319.5,290.5C 326.137,288.677 332.47,286.177 338.5,283C 339.381,282.292 340.047,281.458 340.5,280.5C 345.603,279.472 350.603,277.972 355.5,276C 359.59,272.633 363.924,269.8 368.5,267.5C 377.229,264.644 385.896,261.478 394.5,258C 407.001,251.745 419.668,246.078 432.5,241C 437.735,238.023 442.902,234.856 448,231.5C 461.761,226.306 475.261,220.64 488.5,214.5 Z"/></g>
<g><path style="opacity:1" fill="#111719" d="M 508.5,221.5 C 516.942,226.055 525.608,230.055 534.5,233.5C 534.414,234.496 534.748,235.329 535.5,236C 543.58,238.91 551.247,242.576 558.5,247C 562.756,248.807 567.089,250.307 571.5,251.5C 578.757,252.364 585.424,254.697 591.5,258.5C 594.539,261.538 598.206,263.205 602.5,263.5C 602.833,263.5 603.167,263.5 603.5,263.5C 604.588,265 605.921,266.333 607.5,267.5C 614.181,269.861 620.847,272.194 627.5,274.5C 643.965,280.652 660.298,286.985 676.5,293.5C 680.374,296.267 684.707,298.267 689.5,299.5C 693.163,301.944 697.163,303.611 701.5,304.5C 705.278,306.892 709.278,309.059 713.5,311C 716.096,312.136 718.763,312.969 721.5,313.5C 721.833,313.5 722.167,313.5 722.5,313.5C 722.5,314.5 722.5,315.5 722.5,316.5C 725.582,317.13 728.582,318.13 731.5,319.5C 730.975,320.192 730.308,320.692 729.5,321C 732.511,321.768 735.011,323.268 737,325.5C 737.839,324.376 739.006,323.709 740.5,323.5C 742.512,323.84 744.512,324.173 746.5,324.5C 765.093,333.417 784.093,341.25 803.5,348C 806.646,350.312 809.646,352.812 812.5,355.5C 806.814,360.013 800.48,363.513 793.5,366C 790.108,368.285 788.441,371.452 788.5,375.5C 788.827,385.015 788.494,394.348 787.5,403.5C 787.667,392.162 787.5,380.828 787,369.5C 786.346,370.696 785.846,370.696 785.5,369.5C 786.025,368.808 786.692,368.308 787.5,368C 785.247,366.251 782.914,364.751 780.5,363.5C 780.5,361.833 780.5,360.167 780.5,358.5C 781.833,358.5 783.167,358.5 784.5,358.5C 784.5,356.833 784.5,355.167 784.5,353.5C 778.131,353.425 771.798,353.258 765.5,353C 764.726,355.405 764.226,357.905 764,360.5C 761.824,360.988 759.991,361.988 758.5,363.5C 758.833,363.833 759.167,364.167 759.5,364.5C 761.494,362.083 763.327,362.083 765,364.5C 765.333,419.167 765.667,473.833 766,528.5C 766.977,527.226 767.811,527.226 768.5,528.5C 765.707,529.062 763.374,530.395 761.5,532.5C 759.862,531.295 759.529,529.962 760.5,528.5C 759.675,527.614 758.675,527.281 757.5,527.5C 759.265,526.539 761.265,526.205 763.5,526.5C 763.5,472.833 763.5,419.167 763.5,365.5C 762.127,365.343 760.793,365.51 759.5,366C 755.131,371.551 749.798,375.718 743.5,378.5C 744.941,376.228 745.274,373.895 744.5,371.5C 746.047,369.455 747.381,367.289 748.5,365C 747.781,362.352 746.114,360.852 743.5,360.5C 743.5,361.5 743.5,362.5 743.5,363.5C 736.167,363.5 728.833,363.5 721.5,363.5C 721.5,357.5 721.5,351.5 721.5,345.5C 716.167,345.5 710.833,345.5 705.5,345.5C 705.5,343.833 705.5,342.167 705.5,340.5C 702.833,340.5 700.167,340.5 697.5,340.5C 697.5,338.833 697.5,337.167 697.5,335.5C 692.167,335.5 686.833,335.5 681.5,335.5C 681.5,333.833 681.5,332.167 681.5,330.5C 679.167,330.5 676.833,330.5 674.5,330.5C 674.5,329.5 674.5,328.5 674.5,327.5C 666.5,327.5 658.5,327.5 650.5,327.5C 650.5,324.167 650.5,320.833 650.5,317.5C 645.167,317.5 639.833,317.5 634.5,317.5C 634.5,314.833 634.5,312.167 634.5,309.5C 623.833,309.5 613.167,309.5 602.5,309.5C 602.5,321.5 602.5,333.5 602.5,345.5C 604.167,345.5 605.833,345.5 607.5,345.5C 607.223,348.448 607.556,351.281 608.5,354C 607.167,354.667 605.833,355.333 604.5,356C 609.729,358.359 615.062,360.193 620.5,361.5C 619.5,361.5 618.5,361.5 617.5,361.5C 617.167,361.5 616.833,361.5 616.5,361.5C 605.58,358.738 603.914,361.405 611.5,369.5C 610.5,369.5 609.5,369.5 608.5,369.5C 608.5,370.5 608.5,371.5 608.5,372.5C 603.848,372.998 599.181,373.331 594.5,373.5C 594.5,379.167 594.5,384.833 594.5,390.5C 589.167,390.5 583.833,390.5 578.5,390.5C 578.5,396.5 578.5,402.5 578.5,408.5C 581.167,408.5 583.833,408.5 586.5,408.5C 586.5,411.833 586.5,415.167 586.5,418.5C 606.167,418.5 625.833,418.5 645.5,418.5C 645.5,417.167 645.5,415.833 645.5,414.5C 646.822,414.67 647.989,414.337 649,413.5C 649.421,409.128 650.088,404.795 651,400.5C 651.497,403.146 651.664,405.813 651.5,408.5C 652.833,408.5 654.167,408.5 655.5,408.5C 654.824,423.89 654.158,439.224 653.5,454.5C 651.271,458.055 648.604,458.388 645.5,455.5C 643.983,456.911 642.649,456.744 641.5,455C 639.19,454.503 636.857,454.337 634.5,454.5C 634.665,451.15 634.498,447.817 634,444.5C 633.25,445.126 632.416,445.626 631.5,446C 627.179,446.499 622.846,446.666 618.5,446.5C 618.705,452.878 618.372,459.211 617.5,465.5C 619.6,465.523 621.433,464.856 623,463.5C 624.462,463.994 625.962,464.327 627.5,464.5C 631.343,462.998 635.343,462.331 639.5,462.5C 639.631,463.376 639.298,464.043 638.5,464.5C 634.908,465.93 631.242,467.097 627.5,468C 626.944,468.383 626.611,468.883 626.5,469.5C 612.416,474.415 598.082,478.748 583.5,482.5C 587.441,480.868 591.441,479.201 595.5,477.5C 592.215,476.676 588.882,476.176 585.5,476C 584.5,475.167 583.5,474.333 582.5,473.5C 583.325,472.614 584.325,472.281 585.5,472.5C 586.359,457.184 586.692,441.851 586.5,426.5C 583.833,426.5 581.167,426.5 578.5,426.5C 578.5,429.833 578.5,433.167 578.5,436.5C 576.167,436.5 573.833,436.5 571.5,436.5C 571.5,433.167 571.5,429.833 571.5,426.5C 566.167,426.5 560.833,426.5 555.5,426.5C 555.5,396.167 555.5,365.833 555.5,335.5C 557.833,335.5 560.167,335.5 562.5,335.5C 562.5,329.5 562.5,323.5 562.5,317.5C 560.167,317.5 557.833,317.5 555.5,317.5C 555.5,314.833 555.5,312.167 555.5,309.5C 552.5,309.5 549.5,309.5 546.5,309.5C 546.5,299.833 546.5,290.167 546.5,280.5C 544.167,280.5 541.833,280.5 539.5,280.5C 539.5,274.5 539.5,268.5 539.5,262.5C 530.309,263.643 521.309,263.643 512.5,262.5C 512.5,268.5 512.5,274.5 512.5,280.5C 514.833,280.5 517.167,280.5 519.5,280.5C 519.5,283.5 519.5,286.5 519.5,289.5C 520.5,289.5 521.5,289.5 522.5,289.5C 522.5,286.5 522.5,283.5 522.5,280.5C 524.5,280.5 526.5,280.5 528.5,280.5C 528.5,286.5 528.5,292.5 528.5,298.5C 530.792,298.244 532.959,298.577 535,299.5C 535.497,302.146 535.664,304.813 535.5,307.5C 537.124,307.36 538.29,308.027 539,309.5C 539.497,312.146 539.664,314.813 539.5,317.5C 536.5,317.5 533.5,317.5 530.5,317.5C 530.5,316.167 530.5,314.833 530.5,313.5C 527.881,313.768 525.381,313.435 523,312.5C 522.502,309.518 522.335,306.518 522.5,303.5C 517.238,303.195 512.072,303.529 507,304.5C 506.5,281.169 506.333,257.836 506.5,234.5C 512.325,234.047 512.658,231.88 507.5,228C 509.952,227.71 512.285,227.044 514.5,226C 511.53,225.692 509.53,224.192 508.5,221.5 Z"/></g>
<g><path style="opacity:1" fill="#6d736e" d="M 189.5,224.5 C 183.071,233.025 176.405,241.358 169.5,249.5C 174.968,240.245 181.634,231.912 189.5,224.5 Z"/></g>
<g><path style="opacity:1" fill="#4b4d54" d="M 534.5,233.5 C 546.835,239.503 559.169,245.503 571.5,251.5C 567.089,250.307 562.756,248.807 558.5,247C 551.247,242.576 543.58,238.91 535.5,236C 534.748,235.329 534.414,234.496 534.5,233.5 Z"/></g>
<g><path style="opacity:1" fill="#8b8e89" d="M 168.5,251.5 C 168.155,254.198 166.822,256.198 164.5,257.5C 165.34,255.147 166.674,253.147 168.5,251.5 Z"/></g>
<g><path style="opacity:1" fill="#494d52" d="M 591.5,258.5 C 595.354,259.93 599.021,261.597 602.5,263.5C 598.206,263.205 594.539,261.538 591.5,258.5 Z"/></g>
<g><path style="opacity:1" fill="#474a50" d="M 603.5,263.5 C 611.549,267.178 619.549,270.844 627.5,274.5C 620.847,272.194 614.181,269.861 607.5,267.5C 605.921,266.333 604.588,265 603.5,263.5 Z"/></g>
<g><path style="opacity:1" fill="#d1d4d4" d="M 368.5,267.5 C 363.924,269.8 359.59,272.633 355.5,276C 350.603,277.972 345.603,279.472 340.5,280.5C 339.167,280.833 337.833,281.167 336.5,281.5C 335.342,280.05 335.842,279.05 338,278.5C 340.041,279.423 342.208,279.756 344.5,279.5C 344.5,278.5 344.5,277.5 344.5,276.5C 352.328,273.621 359.995,270.287 367.5,266.5C 368.107,266.624 368.44,266.957 368.5,267.5 Z"/></g>
<g><path style="opacity:1" fill="#929690" d="M 149.5,280.5 C 149.245,282.967 148.245,284.967 146.5,286.5C 146.755,284.033 147.755,282.033 149.5,280.5 Z"/></g>
<g><path style="opacity:1" fill="#939797" d="M 340.5,280.5 C 340.047,281.458 339.381,282.292 338.5,283C 332.47,286.177 326.137,288.677 319.5,290.5C 325.283,287.774 330.95,284.774 336.5,281.5C 337.833,281.167 339.167,280.833 340.5,280.5 Z"/></g>
<g><path style="opacity:1" fill="#56575a" d="M 676.5,293.5 C 681.293,294.733 685.626,296.733 689.5,299.5C 684.707,298.267 680.374,296.267 676.5,293.5 Z"/></g>
<g><path style="opacity:1" fill="#b8bcb7" d="M 146.5,286.5 C 145.639,290.026 144.306,293.359 142.5,296.5C 142.043,297.298 141.376,297.631 140.5,297.5C 141.756,293.313 143.756,289.646 146.5,286.5 Z"/></g>
<g><path style="opacity:1" fill="#4e5253" d="M 689.5,299.5 C 693.889,300.403 697.889,302.069 701.5,304.5C 697.163,303.611 693.163,301.944 689.5,299.5 Z"/></g>
<g><path style="opacity:1" fill="#9da29f" d="M 140.5,297.5 C 139.548,302.07 137.548,306.07 134.5,309.5C 135.939,305.158 137.939,301.158 140.5,297.5 Z"/></g>
<g><path style="opacity:1" fill="#646969" d="M 288.5,307.5 C 285.691,309.897 282.358,311.23 278.5,311.5C 279.694,310.728 280.694,309.728 281.5,308.5C 283.806,308.007 286.139,307.674 288.5,307.5 Z"/></g>
<g><path style="opacity:1" fill="#4d4d56" d="M 701.5,304.5 C 708.567,306.739 715.234,309.739 721.5,313.5C 718.763,312.969 716.096,312.136 713.5,311C 709.278,309.059 705.278,306.892 701.5,304.5 Z"/></g>
<g><path style="opacity:1" fill="#eaebeb" d="M 281.5,308.5 C 280.694,309.728 279.694,310.728 278.5,311.5C 278.5,312.167 278.167,312.5 277.5,312.5C 271.729,313.526 266.062,315.026 260.5,317C 258.233,317.894 256.566,319.394 255.5,321.5C 252.552,321.777 249.719,321.444 247,320.5C 246.25,321.126 245.416,321.626 244.5,322C 245.711,322.893 245.711,323.726 244.5,324.5C 242.338,326.02 240.005,327.02 237.5,327.5C 237.5,323.167 237.5,318.833 237.5,314.5C 239.805,313.011 242.138,311.511 244.5,310C 256.839,309.551 269.173,309.051 281.5,308.5 Z"/></g>
<g><path style="opacity:1" fill="#0f1317" d="M 743.5,378.5 C 740.23,380.911 736.563,382.577 732.5,383.5C 729.432,384.022 726.432,384.855 723.5,386C 719.715,388.082 716.048,390.249 712.5,392.5C 711.791,393.404 710.791,393.737 709.5,393.5C 704.234,393.833 699.9,395.833 696.5,399.5C 694.287,400.773 691.954,401.773 689.5,402.5C 686.261,402.413 683.261,403.08 680.5,404.5C 680.66,402.801 680.494,401.134 680,399.5C 679.583,398.244 678.75,397.577 677.5,397.5C 677.397,394.364 676.397,391.698 674.5,389.5C 672.359,386.528 669.692,384.028 666.5,382C 662.958,380.725 659.625,379.225 656.5,377.5C 654.898,375.926 652.898,375.259 650.5,375.5C 640.575,370.873 630.575,366.207 620.5,361.5C 615.062,360.193 609.729,358.359 604.5,356C 605.833,355.333 607.167,354.667 608.5,354C 607.556,351.281 607.223,348.448 607.5,345.5C 605.833,345.5 604.167,345.5 602.5,345.5C 602.5,333.5 602.5,321.5 602.5,309.5C 613.167,309.5 623.833,309.5 634.5,309.5C 634.5,312.167 634.5,314.833 634.5,317.5C 639.833,317.5 645.167,317.5 650.5,317.5C 650.5,320.833 650.5,324.167 650.5,327.5C 658.5,327.5 666.5,327.5 674.5,327.5C 674.5,328.5 674.5,329.5 674.5,330.5C 676.833,330.5 679.167,330.5 681.5,330.5C 681.5,332.167 681.5,333.833 681.5,335.5C 686.833,335.5 692.167,335.5 697.5,335.5C 697.5,337.167 697.5,338.833 697.5,340.5C 700.167,340.5 702.833,340.5 705.5,340.5C 705.5,342.167 705.5,343.833 705.5,345.5C 710.833,345.5 716.167,345.5 721.5,345.5C 721.5,351.5 721.5,357.5 721.5,363.5C 728.833,363.5 736.167,363.5 743.5,363.5C 743.5,362.5 743.5,361.5 743.5,360.5C 746.114,360.852 747.781,362.352 748.5,365C 747.381,367.289 746.047,369.455 744.5,371.5C 745.274,373.895 744.941,376.228 743.5,378.5 Z"/></g>
<g><path style="opacity:1" fill="#9fa1a1" d="M 277.5,312.5 C 270.052,315.197 262.718,318.197 255.5,321.5C 256.566,319.394 258.233,317.894 260.5,317C 266.062,315.026 271.729,313.526 277.5,312.5 Z"/></g>
<g><path style="opacity:1" fill="#d3d3d2" d="M 237.5,314.5 C 237.5,318.833 237.5,323.167 237.5,327.5C 240.005,327.02 242.338,326.02 244.5,324.5C 245.711,323.726 245.711,322.893 244.5,322C 245.416,321.626 246.25,321.126 247,320.5C 249.719,321.444 252.552,321.777 255.5,321.5C 250.523,323.322 245.857,325.655 241.5,328.5C 238.261,328.413 235.261,329.08 232.5,330.5C 232.389,329.883 232.056,329.383 231.5,329C 227.442,328.233 223.442,328.4 219.5,329.5C 218.5,329 217.5,328.5 216.5,328C 223.189,322.991 230.189,318.491 237.5,314.5 Z"/></g>
<g><path style="opacity:1" fill="#2a2e32" d="M 722.5,313.5 C 730.543,317.176 738.543,320.843 746.5,324.5C 744.512,324.173 742.512,323.84 740.5,323.5C 739.006,323.709 737.839,324.376 737,325.5C 735.011,323.268 732.511,321.768 729.5,321C 730.308,320.692 730.975,320.192 731.5,319.5C 728.582,318.13 725.582,317.13 722.5,316.5C 722.5,315.5 722.5,314.5 722.5,313.5 Z"/></g>
<g><path style="opacity:1" fill="#858989" d="M 134.5,309.5 C 131.919,317.646 128.585,325.313 124.5,332.5C 126.482,324.208 129.815,316.541 134.5,309.5 Z"/></g>
<g><path style="opacity:1" fill="#535453" d="M 241.5,328.5 C 238.193,329.602 235.193,331.435 232.5,334C 231.207,334.49 229.873,334.657 228.5,334.5C 230.297,333.607 231.63,332.274 232.5,330.5C 235.261,329.08 238.261,328.413 241.5,328.5 Z"/></g>
<g><path style="opacity:1" fill="#4a4c4b" d="M 228.5,334.5 C 223.538,338.479 217.871,341.146 211.5,342.5C 216.704,339.067 222.371,336.4 228.5,334.5 Z"/></g>
<g><path style="opacity:1" fill="#747a79" d="M 124.5,332.5 C 122.787,337.837 120.953,343.17 119,348.5C 118.617,349.056 118.117,349.389 117.5,349.5C 118.897,343.274 121.23,337.607 124.5,332.5 Z"/></g>
<g><path style="opacity:1" fill="#3d3d3e" d="M 210.5,342.5 C 210.047,343.458 209.381,344.292 208.5,345C 203.914,346.964 199.581,349.298 195.5,352C 194.207,352.49 192.873,352.657 191.5,352.5C 197.351,348.406 203.685,345.073 210.5,342.5 Z"/></g>
<g><path style="opacity:1" fill="#808788" d="M 117.5,350.5 C 117.741,352.898 117.074,354.898 115.5,356.5C 115.259,354.102 115.926,352.102 117.5,350.5 Z"/></g>
<g><path style="opacity:1" fill="#636670" d="M 617.5,361.5 C 618.5,361.5 619.5,361.5 620.5,361.5C 630.575,366.207 640.575,370.873 650.5,375.5C 638.85,372.17 627.85,367.503 617.5,361.5 Z"/></g>
<g><path style="opacity:1" fill="#444649" d="M 189.5,358.5 C 197.152,360.704 204.152,364.037 210.5,368.5C 205.612,366.371 200.612,364.537 195.5,363C 193.253,361.723 191.253,360.223 189.5,358.5 Z"/></g>
<g><path style="opacity:1" fill="#666a70" d="M 616.5,361.5 C 613.833,361.5 611.167,361.5 608.5,361.5C 608.351,362.552 608.517,363.552 609,364.5C 612.4,367.414 615.9,370.08 619.5,372.5C 616.594,372.043 613.928,371.043 611.5,369.5C 603.914,361.405 605.58,358.738 616.5,361.5 Z"/></g>
<g><path style="opacity:1" fill="#0f1417" d="M 611.5,369.5 C 613.928,371.043 616.594,372.043 619.5,372.5C 619.833,372.5 620.167,372.5 620.5,372.5C 620.539,373.583 620.873,374.583 621.5,375.5C 627.016,376.612 632.016,378.778 636.5,382C 638.134,382.494 639.801,382.66 641.5,382.5C 644.388,385.78 648.055,387.78 652.5,388.5C 655.849,389.684 658.015,392.017 659,395.5C 659.499,400.823 659.666,406.156 659.5,411.5C 660.139,427.862 661.139,444.195 662.5,460.5C 654.462,460.48 646.795,461.146 639.5,462.5C 635.343,462.331 631.343,462.998 627.5,464.5C 625.962,464.327 624.462,463.994 623,463.5C 621.433,464.856 619.6,465.523 617.5,465.5C 618.372,459.211 618.705,452.878 618.5,446.5C 622.846,446.666 627.179,446.499 631.5,446C 632.416,445.626 633.25,445.126 634,444.5C 634.498,447.817 634.665,451.15 634.5,454.5C 636.857,454.337 639.19,454.503 641.5,455C 642.649,456.744 643.983,456.911 645.5,455.5C 648.604,458.388 651.271,458.055 653.5,454.5C 654.158,439.224 654.824,423.89 655.5,408.5C 654.167,408.5 652.833,408.5 651.5,408.5C 651.664,405.813 651.497,403.146 651,400.5C 650.088,404.795 649.421,409.128 649,413.5C 647.989,414.337 646.822,414.67 645.5,414.5C 645.5,415.833 645.5,417.167 645.5,418.5C 625.833,418.5 606.167,418.5 586.5,418.5C 586.5,415.167 586.5,411.833 586.5,408.5C 583.833,408.5 581.167,408.5 578.5,408.5C 578.5,402.5 578.5,396.5 578.5,390.5C 583.833,390.5 589.167,390.5 594.5,390.5C 594.5,384.833 594.5,379.167 594.5,373.5C 599.181,373.331 603.848,372.998 608.5,372.5C 608.5,371.5 608.5,370.5 608.5,369.5C 609.5,369.5 610.5,369.5 611.5,369.5 Z"/></g>
<g><path style="opacity:1" fill="#6b6f75" d="M 650.5,375.5 C 652.898,375.259 654.898,375.926 656.5,377.5C 654.102,377.741 652.102,377.074 650.5,375.5 Z"/></g>
<g><path style="opacity:1" fill="#53585e" d="M 620.5,372.5 C 627.691,375.597 634.691,378.93 641.5,382.5C 639.801,382.66 638.134,382.494 636.5,382C 632.016,378.778 627.016,376.612 621.5,375.5C 620.873,374.583 620.539,373.583 620.5,372.5 Z"/></g>
<g><path style="opacity:1" fill="#959899" d="M 110.5,375.5 C 110.741,377.898 110.074,379.898 108.5,381.5C 108.259,379.102 108.926,377.102 110.5,375.5 Z"/></g>
<g><path style="opacity:1" fill="#a6a6aa" d="M 316.5,378.5 C 320.881,378.372 325.215,378.705 329.5,379.5C 330.244,382.95 328.91,384.616 325.5,384.5C 325.67,383.178 325.337,382.011 324.5,381C 321.183,380.502 317.85,380.335 314.5,380.5C 314.833,379.5 315.5,378.833 316.5,378.5 Z"/></g>
<g><path style="opacity:1" fill="#6a6c6f" d="M 316.5,378.5 C 321.101,377.1 325.768,377.267 330.5,379C 331.674,383.357 330.008,386.19 325.5,387.5C 324.833,387.833 324.167,388.167 323.5,388.5C 323.733,386.938 324.4,385.605 325.5,384.5C 328.91,384.616 330.244,382.95 329.5,379.5C 325.215,378.705 320.881,378.372 316.5,378.5 Z"/></g>
<g><path style="opacity:1" fill="#2e3135" d="M 325.5,387.5 C 330.008,386.19 331.674,383.357 330.5,379C 325.768,377.267 321.101,377.1 316.5,378.5C 315.5,378.833 314.833,379.5 314.5,380.5C 313.833,380.5 313.167,380.5 312.5,380.5C 313.29,379.206 314.29,378.039 315.5,377C 326.251,376.098 336.918,376.598 347.5,378.5C 347.649,379.552 347.483,380.552 347,381.5C 344.304,382.19 342.137,383.69 340.5,386C 335.481,386.411 330.481,386.911 325.5,387.5 Z"/></g>
<g><path style="opacity:1" fill="#4b5153" d="M 641.5,382.5 C 645.687,383.756 649.354,385.756 652.5,388.5C 648.055,387.78 644.388,385.78 641.5,382.5 Z"/></g>
<g><path style="opacity:1" fill="#575a5c" d="M 732.5,383.5 C 726.078,386.87 719.412,389.87 712.5,392.5C 716.048,390.249 719.715,388.082 723.5,386C 726.432,384.855 729.432,384.022 732.5,383.5 Z"/></g>
<g><path style="opacity:1" fill="#0a0e10" d="M 787.5,403.5 C 787.5,443.5 787.5,483.5 787.5,523.5C 786.752,525.735 785.919,525.402 785,522.5C 782.922,524.681 783.089,526.681 785.5,528.5C 784.593,531.421 784.26,534.421 784.5,537.5C 783.5,537.5 782.5,537.5 781.5,537.5C 781.5,535.833 781.5,534.167 781.5,532.5C 780.167,532.5 778.833,532.5 777.5,532.5C 777.67,531.178 777.337,530.011 776.5,529C 773.777,529.518 771.111,529.351 768.5,528.5C 767.811,527.226 766.977,527.226 766,528.5C 765.667,473.833 765.333,419.167 765,364.5C 763.327,362.083 761.494,362.083 759.5,364.5C 759.167,364.167 758.833,363.833 758.5,363.5C 759.991,361.988 761.824,360.988 764,360.5C 764.226,357.905 764.726,355.405 765.5,353C 771.798,353.258 778.131,353.425 784.5,353.5C 784.5,355.167 784.5,356.833 784.5,358.5C 783.167,358.5 781.833,358.5 780.5,358.5C 780.5,360.167 780.5,361.833 780.5,363.5C 782.914,364.751 785.247,366.251 787.5,368C 786.692,368.308 786.025,368.808 785.5,369.5C 785.846,370.696 786.346,370.696 787,369.5C 787.5,380.828 787.667,392.162 787.5,403.5 Z"/></g>
<g><path style="opacity:1" fill="#808286" d="M 674.5,389.5 C 676.397,391.698 677.397,394.364 677.5,397.5C 675.733,395.208 674.733,392.542 674.5,389.5 Z"/></g>
<g><path style="opacity:1" fill="#5b5c59" d="M 709.5,393.5 C 705.414,395.87 701.081,397.87 696.5,399.5C 699.9,395.833 704.234,393.833 709.5,393.5 Z"/></g>
<g><path style="opacity:1" fill="#aeb0b3" d="M 107.5,386.5 C 107.237,391.124 106.237,395.458 104.5,399.5C 104.952,395.837 105.452,392.17 106,388.5C 106.278,387.584 106.778,386.918 107.5,386.5 Z"/></g>
<g><path style="opacity:1" fill="#282b30" d="M 271.5,394.5 C 274.181,394.462 276.681,395.129 279,396.5C 279.95,395.978 280.784,395.311 281.5,394.5C 284.028,395.498 284.028,396.331 281.5,397C 283.898,398.018 286.231,399.185 288.5,400.5C 289.167,400.167 289.833,399.833 290.5,399.5C 290.956,401.827 292.623,403.661 295.5,405C 297.436,405.813 299.436,406.313 301.5,406.5C 301.157,408.225 300.157,408.725 298.5,408C 289.749,402.958 280.749,398.458 271.5,394.5 Z"/></g>
<g><path style="opacity:1" fill="#636467" d="M 677.5,397.5 C 678.75,397.577 679.583,398.244 680,399.5C 680.494,401.134 680.66,402.801 680.5,404.5C 683.261,403.08 686.261,402.413 689.5,402.5C 686.763,404.199 683.763,405.533 680.5,406.5C 679.353,406.182 678.519,405.516 678,404.5C 677.503,402.19 677.337,399.857 677.5,397.5 Z"/></g>
<g><path style="opacity:1" fill="#8f9897" d="M 102.5,407.5 C 101.721,415.18 100.721,422.847 99.5,430.5C 99.1667,430.5 98.8333,430.5 98.5,430.5C 99.072,422.58 100.405,414.914 102.5,407.5 Z"/></g>
<g><path style="opacity:1" fill="#384040" d="M 788.5,375.5 C 788.733,424.662 788.733,473.995 788.5,523.5C 788.167,523.5 787.833,523.5 787.5,523.5C 787.5,483.5 787.5,443.5 787.5,403.5C 788.494,394.348 788.827,385.015 788.5,375.5 Z"/></g>
<g><path style="opacity:1" fill="#394144" d="M 659.5,411.5 C 662.55,427.879 663.884,444.546 663.5,461.5C 659.103,461.425 654.77,461.925 650.5,463C 642.528,465.359 634.528,467.526 626.5,469.5C 626.611,468.883 626.944,468.383 627.5,468C 631.242,467.097 634.908,465.93 638.5,464.5C 639.298,464.043 639.631,463.376 639.5,462.5C 646.795,461.146 654.462,460.48 662.5,460.5C 661.139,444.195 660.139,427.862 659.5,411.5 Z"/></g>
<g><path style="opacity:1" fill="#2e2f31" d="M 323.5,390.5 C 322.18,412.835 322.18,435.168 323.5,457.5C 328.587,456.478 333.587,456.978 338.5,459C 337.167,459.333 335.833,459.667 334.5,460C 337.099,461.795 339.766,463.295 342.5,464.5C 335.862,462.939 329.362,460.939 323,458.5C 319.54,435.651 319.707,412.984 323.5,390.5 Z"/></g>
<g><path style="opacity:1" fill="#d5e0db" d="M 98.5,430.5 C 98.8333,430.5 99.1667,430.5 99.5,430.5C 97.9115,464.857 98.2449,499.191 100.5,533.5C 98.7396,528.447 98.073,523.114 98.5,517.5C 97.5798,492.515 97.2465,467.515 97.5,442.5C 98.2721,438.548 98.6054,434.548 98.5,430.5 Z"/></g>
<g><path style="opacity:1" fill="#232528" d="M 367.5,472.5 C 372.882,473.029 378.215,473.029 383.5,472.5C 385.569,472.824 385.902,473.658 384.5,475C 386.631,475.543 388.631,476.376 390.5,477.5C 394.045,478.791 397.545,478.791 401,477.5C 405.665,478.739 405.498,479.572 400.5,480C 403.032,480.619 405.365,481.619 407.5,483C 410.713,483.703 413.879,483.536 417,482.5C 420.363,484.066 423.863,485.232 427.5,486C 425.833,486.333 424.167,486.667 422.5,487C 424.093,487.949 425.426,489.115 426.5,490.5C 406.775,484.479 387.109,478.479 367.5,472.5 Z"/></g>
<g><path style="opacity:1" fill="#55575b" d="M 426.5,490.5 C 431.232,490.627 435.232,492.293 438.5,495.5C 434.203,494.345 430.203,492.679 426.5,490.5 Z"/></g>
<g><path style="opacity:1" fill="#353a3d" d="M 571.5,486.5 C 564.903,490.046 557.903,493.046 550.5,495.5C 550.574,493.589 551.574,492.422 553.5,492C 553.167,491.667 552.833,491.333 552.5,491C 558.987,490.087 565.32,488.587 571.5,486.5 Z"/></g>
<g><path style="opacity:1" fill="#52575a" d="M 534.5,502.5 C 531.07,504.613 527.403,506.28 523.5,507.5C 523.953,506.542 524.619,505.708 525.5,505C 528.353,503.57 531.353,502.737 534.5,502.5 Z"/></g>
<g><path style="opacity:1" fill="#4d5153" d="M 517.5,509.5 C 511.961,513.062 505.961,515.728 499.5,517.5C 500.903,516.069 502.569,514.902 504.5,514C 508.712,512.207 513.045,510.707 517.5,509.5 Z"/></g>
<g><path style="opacity:1" fill="#809087" d="M 97.5,442.5 C 97.2465,467.515 97.5798,492.515 98.5,517.5C 97.6981,516.048 97.1981,514.382 97,512.5C 96.1703,488.996 96.3369,465.663 97.5,442.5 Z"/></g>
<g><path style="opacity:1" fill="#0e1316" d="M 787.5,523.5 C 787.833,523.5 788.167,523.5 788.5,523.5C 788.953,524.458 789.619,525.292 790.5,526C 797.882,527.049 802.382,531.216 804,538.5C 805.558,551.479 805.558,564.479 804,577.5C 801.293,582.393 797.126,585.06 791.5,585.5C 791.917,590.91 793.417,595.91 796,600.5C 798.651,615.148 801.317,629.814 804,644.5C 805.159,652.476 805.992,660.476 806.5,668.5C 807.346,680.063 808.68,691.396 810.5,702.5C 810.5,703.833 810.5,705.167 810.5,706.5C 794.166,706.807 777.833,707.14 761.5,707.5C 753.016,706.507 744.349,706.174 735.5,706.5C 737.601,696.639 738.935,686.639 739.5,676.5C 739.5,674.833 739.5,673.167 739.5,671.5C 740.222,671.082 740.722,670.416 741,669.5C 741.333,664.167 741.667,658.833 742,653.5C 744.807,642.691 746.64,631.691 747.5,620.5C 748.407,608.775 752.074,598.108 758.5,588.5C 761.5,588.833 762.833,587.5 762.5,584.5C 756.691,584.687 751.025,584.02 745.5,582.5C 745.5,570.5 745.5,558.5 745.5,546.5C 745.308,539.383 747.974,533.55 753.5,529C 754.745,528.209 756.078,527.709 757.5,527.5C 758.675,527.281 759.675,527.614 760.5,528.5C 759.529,529.962 759.862,531.295 761.5,532.5C 763.374,530.395 765.707,529.062 768.5,528.5C 771.111,529.351 773.777,529.518 776.5,529C 777.337,530.011 777.67,531.178 777.5,532.5C 778.833,532.5 780.167,532.5 781.5,532.5C 781.5,534.167 781.5,535.833 781.5,537.5C 782.5,537.5 783.5,537.5 784.5,537.5C 784.26,534.421 784.593,531.421 785.5,528.5C 783.089,526.681 782.922,524.681 785,522.5C 785.919,525.402 786.752,525.735 787.5,523.5 Z"/></g>
<g><path style="opacity:1" fill="#22292b" d="M 152.5,273.5 C 152.241,276.272 151.241,278.605 149.5,280.5C 147.755,282.033 146.755,284.033 146.5,286.5C 143.756,289.646 141.756,293.313 140.5,297.5C 137.939,301.158 135.939,305.158 134.5,309.5C 129.815,316.541 126.482,324.208 124.5,332.5C 121.23,337.607 118.897,343.274 117.5,349.5C 117.5,349.833 117.5,350.167 117.5,350.5C 115.926,352.102 115.259,354.102 115.5,356.5C 113.057,362.606 111.39,368.939 110.5,375.5C 108.926,377.102 108.259,379.102 108.5,381.5C 107.699,383.042 107.366,384.708 107.5,386.5C 106.778,386.918 106.278,387.584 106,388.5C 105.452,392.17 104.952,395.837 104.5,399.5C 103.469,401.961 102.802,404.627 102.5,407.5C 100.405,414.914 99.072,422.58 98.5,430.5C 98.6054,434.548 98.2721,438.548 97.5,442.5C 96.3369,465.663 96.1703,488.996 97,512.5C 97.1981,514.382 97.6981,516.048 98.5,517.5C 98.073,523.114 98.7396,528.447 100.5,533.5C 100.425,537.981 101.092,542.314 102.5,546.5C 102.835,551.874 104.168,556.874 106.5,561.5C 106.87,565.233 107.537,568.899 108.5,572.5C 108.12,574.698 108.787,576.365 110.5,577.5C 112.212,583.39 113.545,589.39 114.5,595.5C 112.908,594.398 112.075,595.065 112,597.5C 75.4945,483.885 88.1612,376.219 150,274.5C 150.671,273.748 151.504,273.414 152.5,273.5 Z"/></g>
<g><path style="opacity:1" fill="#a5a8a9" d="M 102.5,546.5 C 104.358,551.255 105.691,556.255 106.5,561.5C 104.168,556.874 102.835,551.874 102.5,546.5 Z"/></g>
<g><path style="opacity:1" fill="#616365" d="M 745.5,546.5 C 745.5,558.5 745.5,570.5 745.5,582.5C 744.046,579.282 743.379,575.782 743.5,572C 743.944,563.328 744.61,554.828 745.5,546.5 Z"/></g>
<g><path style="opacity:1" fill="#8d9496" d="M 108.5,572.5 C 110.213,573.635 110.88,575.302 110.5,577.5C 108.787,576.365 108.12,574.698 108.5,572.5 Z"/></g>
<g><path style="opacity:1" fill="#3c3f49" d="M 745.5,582.5 C 751.025,584.02 756.691,584.687 762.5,584.5C 762.833,587.5 761.5,588.833 758.5,588.5C 758.5,587.5 758.5,586.5 758.5,585.5C 753.739,585.876 749.405,584.876 745.5,582.5 Z"/></g>
<g><path style="opacity:1" fill="#8d9294" d="M 124.5,621.5 C 126.919,625.064 128.586,629.064 129.5,633.5C 127.081,629.936 125.414,625.936 124.5,621.5 Z"/></g>
<g><path style="opacity:1" fill="#646669" d="M 747.5,620.5 C 746.64,631.691 744.807,642.691 742,653.5C 741.667,658.833 741.333,664.167 741,669.5C 740.722,670.416 740.222,671.082 739.5,671.5C 740.625,654.132 743.292,637.132 747.5,620.5 Z"/></g>
<g><path style="opacity:1" fill="#293031" d="M 114.5,595.5 C 118.018,604.046 121.351,612.713 124.5,621.5C 125.414,625.936 127.081,629.936 129.5,633.5C 130.083,636.947 131.416,639.947 133.5,642.5C 136.122,646.748 138.455,651.081 140.5,655.5C 140.5,656.167 140.5,656.833 140.5,657.5C 139.504,657.586 138.671,657.252 138,656.5C 129.066,641.125 121.566,624.958 115.5,608C 115.911,606.856 116.244,605.689 116.5,604.5C 115.414,601.58 114.748,598.58 114.5,595.5 Z"/></g>
<g><path style="opacity:1" fill="#8c9192" d="M 129.5,633.5 C 130.931,634.903 132.098,636.569 133,638.5C 133.49,639.793 133.657,641.127 133.5,642.5C 131.416,639.947 130.083,636.947 129.5,633.5 Z"/></g>
<g><path style="opacity:1" fill="#737a7c" d="M 140.5,655.5 C 142.536,658.579 144.202,661.912 145.5,665.5C 143.103,663.338 141.436,660.671 140.5,657.5C 140.5,656.833 140.5,656.167 140.5,655.5 Z"/></g>
<g><path style="opacity:1" fill="#393f41" d="M 806.5,668.5 C 807.998,674.299 809.165,680.299 810,686.5C 810.499,690.486 810.666,694.486 810.5,698.5C 810.5,699.833 810.5,701.167 810.5,702.5C 808.68,691.396 807.346,680.063 806.5,668.5 Z"/></g>
<g><path style="opacity:1" fill="#44464b" d="M 739.5,676.5 C 738.935,686.639 737.601,696.639 735.5,706.5C 744.349,706.174 753.016,706.507 761.5,707.5C 753.167,707.5 744.833,707.5 736.5,707.5C 735.275,706.848 734.608,705.681 734.5,704C 736.197,694.689 737.864,685.522 739.5,676.5 Z"/></g>
<g><path style="opacity:1" fill="#686c71" d="M 810.5,698.5 C 811.638,701.304 811.805,704.304 811,707.5C 810.586,707.957 810.086,708.291 809.5,708.5C 798.995,707.323 788.495,707.656 778,709.5C 764.007,708.913 750.173,708.247 736.5,707.5C 744.833,707.5 753.167,707.5 761.5,707.5C 777.833,707.14 794.166,706.807 810.5,706.5C 810.5,705.167 810.5,703.833 810.5,702.5C 810.5,701.167 810.5,699.833 810.5,698.5 Z"/></g>
<g><path style="opacity:1" fill="#282f30" d="M 150.5,674.5 C 162.319,692.33 175.319,709.33 189.5,725.5C 186.215,725.731 183.715,724.397 182,721.5C 173.235,710.091 164.568,698.757 156,687.5C 154.773,684.269 153.106,681.269 151,678.5C 150.51,677.207 150.343,675.873 150.5,674.5 Z"/></g>
<g><path style="opacity:1" fill="#aeb5b4" d="M 216.5,752.5 C 220.436,754.766 223.769,757.766 226.5,761.5C 222.564,759.234 219.231,756.234 216.5,752.5 Z"/></g>
<g><path style="opacity:1" fill="#212a2b" d="M 189.5,725.5 C 198.14,734.806 207.14,743.806 216.5,752.5C 219.231,756.234 222.564,759.234 226.5,761.5C 243.224,776.83 261.224,790.164 280.5,801.5C 282.566,803.199 284.9,804.532 287.5,805.5C 290.723,808.247 294.389,810.247 298.5,811.5C 303.542,815.021 308.875,818.021 314.5,820.5C 312.473,820.662 310.473,820.495 308.5,820C 264.178,797.995 225.345,768.828 192,732.5C 191.616,729.94 190.783,727.606 189.5,725.5 Z"/></g>
<g><path style="opacity:1" fill="#909a9a" d="M 280.5,801.5 C 283.546,801.725 285.879,803.058 287.5,805.5C 284.9,804.532 282.566,803.199 280.5,801.5 Z"/></g>
<g><path style="opacity:1" fill="#a5afaf" d="M 287.5,805.5 C 291.884,806.192 295.55,808.192 298.5,811.5C 294.389,810.247 290.723,808.247 287.5,805.5 Z"/></g>
<g><path style="opacity:1" fill="#aab9b9" d="M 298.5,811.5 C 304.845,814.007 311.178,816.507 317.5,819C 319.319,819.74 320.652,820.907 321.5,822.5C 319.106,821.985 316.772,821.319 314.5,820.5C 308.875,818.021 303.542,815.021 298.5,811.5 Z"/></g>
<g><path style="opacity:1" fill="#7c8f95" d="M 321.5,822.5 C 324.1,823.468 326.434,824.801 328.5,826.5C 325.454,826.275 323.121,824.942 321.5,822.5 Z"/></g>
<g><path style="opacity:1" fill="#95a4aa" d="M 328.5,826.5 C 335.297,827.569 341.297,830.236 346.5,834.5C 341.511,832.674 336.511,830.841 331.5,829C 330.058,828.623 329.058,827.79 328.5,826.5 Z"/></g>
<g><path style="opacity:1" fill="#909a9d" d="M 347.5,834.5 C 350.855,834.69 353.855,835.69 356.5,837.5C 353.084,837.472 350.084,836.472 347.5,834.5 Z"/></g>
<g><path style="opacity:1" fill="#374545" d="M 356.5,837.5 C 366.687,841.628 377.02,845.295 387.5,848.5C 376.134,847.187 365.801,843.52 356.5,837.5 Z"/></g>
<g><path style="opacity:1" fill="#b0bdbb" d="M 391.5,848.5 C 394.187,848.336 396.854,848.503 399.5,849C 401.32,849.2 402.653,850.034 403.5,851.5C 401.435,851.483 399.435,851.15 397.5,850.5C 395.214,850.405 393.214,849.738 391.5,848.5 Z"/></g>
<g><path style="opacity:1" fill="#6d7a7c" d="M 397.5,850.5 C 399.435,851.15 401.435,851.483 403.5,851.5C 415.706,853.889 427.706,856.555 439.5,859.5C 425.684,857.864 412.017,855.364 398.5,852C 397.944,851.617 397.611,851.117 397.5,850.5 Z"/></g>
<g><path style="opacity:1" fill="#bdc4c3" d="M 450.5,860.5 C 478.834,861.809 507.168,861.809 535.5,860.5C 507.166,864.5 478.833,864.5 450.5,860.5 Z"/></g>
</svg>
