<?xml version="1.0" encoding="UTF-8"?>
<!DOCTYPE svg PUBLIC "-//W3C//DTD SVG 1.1//EN" "http://www.w3.org/Graphics/SVG/1.1/DTD/svg11.dtd">
<svg xmlns="http://www.w3.org/2000/svg" version="1.1" width="992px" height="1291px" style="shape-rendering:geometricPrecision; text-rendering:geometricPrecision; image-rendering:optimizeQuality; fill-rule:evenodd; clip-rule:evenodd" xmlns:xlink="http://www.w3.org/1999/xlink">
<g><path style="opacity:0.995" fill="#000000" d="M 462.5,-0.5 C 484.5,-0.5 506.5,-0.5 528.5,-0.5C 685.444,12.4792 810.944,81.4792 905,206.5C 955.545,278.963 984.378,359.296 991.5,447.5C 991.5,468.167 991.5,488.833 991.5,509.5C 985.683,585.423 963.183,656.09 924,721.5C 806.752,894.994 689.752,1068.66 573,1242.5C 559.996,1269.26 538.829,1285.26 509.5,1290.5C 499.833,1290.5 490.167,1290.5 480.5,1290.5C 454.782,1285.56 434.615,1272.22 420,1250.5C 363.411,1158.98 305.078,1068.64 245,979.5C 203,916.833 161,854.167 119,791.5C 48.213,710.892 8.37971,616.892 -0.5,509.5C -0.5,488.833 -0.5,468.167 -0.5,447.5C 15.0179,290.232 88.0179,167.732 218.5,80C 293.059,32.6469 374.393,5.81357 462.5,-0.5 Z"/></g>
<g><path style="opacity:0.999" fill="#fefefe" d="M 468.5,88.5 C 598.707,83.5565 708.541,127.89 798,221.5C 882.947,319.272 912.614,431.939 887,559.5C 855.514,681.648 783.014,770.148 669.5,825C 564.574,871.467 457.907,875.8 349.5,838C 244.62,797.787 168.787,726.62 122,624.5C 80.4342,522.734 81.4342,421.4 125,320.5C 180.534,207.119 269.367,133.952 391.5,101C 416.996,94.8612 442.662,90.6945 468.5,88.5 Z"/></g>
<g><path style="opacity:1" fill="#111b27" d="M 372.5,253.5 C 381.409,259.073 387.743,266.739 391.5,276.5C 390.883,276.389 390.383,276.056 390,275.5C 386.646,277.605 385.813,280.438 387.5,284C 389.167,284.333 390.833,284.667 392.5,285C 390.008,286.604 387.341,287.938 384.5,289C 386.001,290.252 387.668,291.252 389.5,292C 388.391,292.638 387.225,293.138 386,293.5C 384.3,292.073 382.467,291.24 380.5,291C 382.926,293.635 384.259,296.801 384.5,300.5C 383.975,301.192 383.308,301.692 382.5,302C 383.451,302.718 383.617,303.551 383,304.5C 381.601,304.501 380.101,304.835 378.5,305.5C 377.614,306.325 377.281,307.325 377.5,308.5C 375.473,308.662 373.473,308.495 371.5,308C 370.33,306.245 368.663,305.245 366.5,305C 365.643,304.311 364.977,303.478 364.5,302.5C 364.806,299.244 364.973,295.911 365,292.5C 365.5,292 366,291.5 366.5,291C 364.19,290.503 361.857,290.337 359.5,290.5C 360.08,286.19 360.414,281.857 360.5,277.5C 361.5,277.5 362.5,277.5 363.5,277.5C 363.665,274.15 363.498,270.817 363,267.5C 360.984,266.045 360.151,264.045 360.5,261.5C 364.544,261.733 367.377,260.066 369,256.5C 369.692,257.025 370.192,257.692 370.5,258.5C 368.401,263.023 369.734,264.857 374.5,264C 375.26,262.559 375.926,261.059 376.5,259.5C 375.167,257.5 373.5,255.833 371.5,254.5C 371.624,253.893 371.957,253.56 372.5,253.5 Z"/></g>
<g><path style="opacity:1" fill="#121e23" d="M 372.5,253.5 C 371.957,253.56 371.624,253.893 371.5,254.5C 373.5,255.833 375.167,257.5 376.5,259.5C 375.926,261.059 375.26,262.559 374.5,264C 369.734,264.857 368.401,263.023 370.5,258.5C 370.192,257.692 369.692,257.025 369,256.5C 367.377,260.066 364.544,261.733 360.5,261.5C 360.151,264.045 360.984,266.045 363,267.5C 363.498,270.817 363.665,274.15 363.5,277.5C 362.5,277.5 361.5,277.5 360.5,277.5C 360.414,281.857 360.08,286.19 359.5,290.5C 357.5,290.5 355.5,290.5 353.5,290.5C 353.5,292.5 353.5,294.5 353.5,296.5C 347.833,296.5 342.167,296.5 336.5,296.5C 336.5,299.5 336.5,302.5 336.5,305.5C 332.5,305.5 328.5,305.5 324.5,305.5C 324.5,306.5 324.5,307.5 324.5,308.5C 312.833,308.5 301.167,308.5 289.5,308.5C 289.5,310.167 289.5,311.833 289.5,313.5C 285.833,313.5 282.167,313.5 278.5,313.5C 277.27,305.887 276.603,298.22 276.5,290.5C 278.176,289.817 278.843,288.483 278.5,286.5C 279.5,286.5 280.5,286.5 281.5,286.5C 280.647,284.403 280.647,282.403 281.5,280.5C 280.811,278.647 279.478,277.481 277.5,277C 279.473,276.505 281.473,276.338 283.5,276.5C 286.625,277.479 289.958,277.813 293.5,277.5C 291.68,279.448 289.346,280.448 286.5,280.5C 286.372,282.655 286.872,284.655 288,286.5C 291.113,288.733 294.113,291.733 297,295.5C 299.758,294.883 302.591,294.716 305.5,295C 307.307,293.398 309.307,292.064 311.5,291C 312.763,288.614 314.597,286.781 317,285.5C 317.236,283.236 317.736,281.069 318.5,279C 316.841,276.07 316.508,273.07 317.5,270C 313.377,264.814 308.711,264.314 303.5,268.5C 304.833,269.167 306.167,269.833 307.5,270.5C 306.38,272.596 304.88,272.93 303,271.5C 301.815,273.559 300.648,273.726 299.5,272C 299.903,270.527 300.57,269.194 301.5,268C 300.906,267.536 300.239,267.369 299.5,267.5C 299.5,267.167 299.5,266.833 299.5,266.5C 314.325,248.851 333.325,242.351 356.5,247C 362.72,247.368 368.053,249.535 372.5,253.5 Z"/></g>
<g><path style="opacity:1" fill="#091015" d="M 293.5,277.5 C 295.25,276.341 296.25,274.674 296.5,272.5C 298.047,271.232 299.047,269.565 299.5,267.5C 300.239,267.369 300.906,267.536 301.5,268C 300.57,269.194 299.903,270.527 299.5,272C 300.648,273.726 301.815,273.559 303,271.5C 304.88,272.93 306.38,272.596 307.5,270.5C 306.167,269.833 304.833,269.167 303.5,268.5C 308.711,264.314 313.377,264.814 317.5,270C 316.508,273.07 316.841,276.07 318.5,279C 317.736,281.069 317.236,283.236 317,285.5C 314.597,286.781 312.763,288.614 311.5,291C 309.307,292.064 307.307,293.398 305.5,295C 302.591,294.716 299.758,294.883 297,295.5C 294.113,291.733 291.113,288.733 288,286.5C 286.872,284.655 286.372,282.655 286.5,280.5C 289.346,280.448 291.68,279.448 293.5,277.5 Z"/></g>
<g><path style="opacity:1" fill="#61696c" d="M 299.5,266.5 C 299.5,266.833 299.5,267.167 299.5,267.5C 299.047,269.565 298.047,271.232 296.5,272.5C 296.755,270.033 297.755,268.033 299.5,266.5 Z"/></g>
<g><path style="opacity:1" fill="#727c7f" d="M 296.5,272.5 C 296.25,274.674 295.25,276.341 293.5,277.5C 289.958,277.813 286.625,277.479 283.5,276.5C 288.647,277.337 292.98,276.004 296.5,272.5 Z"/></g>
<g><path style="opacity:1" fill="#151f25" d="M 457.5,337.5 C 453.084,338.912 451.084,341.912 451.5,346.5C 452.5,346.5 453.5,346.5 454.5,346.5C 479.042,350.205 495.208,363.872 503,387.5C 506.414,401.435 504.581,414.435 497.5,426.5C 497.19,425.262 496.69,425.262 496,426.5C 493.664,431.175 490.831,435.508 487.5,439.5C 486.094,438.332 484.928,438.665 484,440.5C 481.993,439.331 479.827,438.665 477.5,438.5C 477.5,436.5 477.5,434.5 477.5,432.5C 475.833,432.5 474.167,432.5 472.5,432.5C 472.5,430.5 472.5,428.5 472.5,426.5C 470.167,426.5 467.833,426.5 465.5,426.5C 465.666,416.494 465.5,406.494 465,396.5C 457.587,397.481 450.087,397.814 442.5,397.5C 442.5,393.5 442.5,389.5 442.5,385.5C 438.167,385.5 433.833,385.5 429.5,385.5C 429.5,381.5 429.5,377.5 429.5,373.5C 425.51,374.19 421.51,374.357 417.5,374C 418.833,370 418.833,366 417.5,362C 418,361.5 418.5,361 419,360.5C 419.498,357.518 419.665,354.518 419.5,351.5C 415.348,349.938 411.015,349.272 406.5,349.5C 406.442,341.479 406.776,333.479 407.5,325.5C 410.833,325.5 414.167,325.5 417.5,325.5C 417.5,321.833 417.5,318.167 417.5,314.5C 409.833,314.5 402.167,314.5 394.5,314.5C 394.533,310.131 394.2,305.798 393.5,301.5C 392.5,301.5 391.5,301.5 390.5,301.5C 388.781,309.387 388.114,317.387 388.5,325.5C 382.811,325.532 377.145,325.866 371.5,326.5C 371.777,321.767 371.443,317.1 370.5,312.5C 366.893,311.511 363.226,311.177 359.5,311.5C 359.5,310.167 359.5,308.833 359.5,307.5C 357.833,307.5 356.167,307.5 354.5,307.5C 354.5,305.5 354.5,303.5 354.5,301.5C 356.167,301.5 357.833,301.5 359.5,301.5C 359.5,297.833 359.5,294.167 359.5,290.5C 361.857,290.337 364.19,290.503 366.5,291C 366,291.5 365.5,292 365,292.5C 364.973,295.911 364.806,299.244 364.5,302.5C 364.977,303.478 365.643,304.311 366.5,305C 368.663,305.245 370.33,306.245 371.5,308C 373.473,308.495 375.473,308.662 377.5,308.5C 377.281,307.325 377.614,306.325 378.5,305.5C 380.101,304.835 381.601,304.501 383,304.5C 383.617,303.551 383.451,302.718 382.5,302C 383.308,301.692 383.975,301.192 384.5,300.5C 384.259,296.801 382.926,293.635 380.5,291C 382.467,291.24 384.3,292.073 386,293.5C 387.225,293.138 388.391,292.638 389.5,292C 387.668,291.252 386.001,290.252 384.5,289C 387.341,287.938 390.008,286.604 392.5,285C 390.833,284.667 389.167,284.333 387.5,284C 385.813,280.438 386.646,277.605 390,275.5C 390.383,276.056 390.883,276.389 391.5,276.5C 392.265,276.923 393.098,277.257 394,277.5C 420.072,268.264 441.739,274.264 459,295.5C 463.261,305.056 464.595,315.056 463,325.5C 461.943,329.942 460.11,333.942 457.5,337.5 Z"/></g>
<g><path style="opacity:1" fill="#172124" d="M 276.5,290.5 C 276.603,298.22 277.27,305.887 278.5,313.5C 282.167,313.5 285.833,313.5 289.5,313.5C 289.5,311.833 289.5,310.167 289.5,308.5C 301.167,308.5 312.833,308.5 324.5,308.5C 324.5,307.5 324.5,306.5 324.5,305.5C 328.5,305.5 332.5,305.5 336.5,305.5C 336.5,302.5 336.5,299.5 336.5,296.5C 342.167,296.5 347.833,296.5 353.5,296.5C 353.5,294.5 353.5,292.5 353.5,290.5C 355.5,290.5 357.5,290.5 359.5,290.5C 359.5,294.167 359.5,297.833 359.5,301.5C 357.833,301.5 356.167,301.5 354.5,301.5C 354.5,303.5 354.5,305.5 354.5,307.5C 356.167,307.5 357.833,307.5 359.5,307.5C 359.5,308.833 359.5,310.167 359.5,311.5C 363.226,311.177 366.893,311.511 370.5,312.5C 371.443,317.1 371.777,321.767 371.5,326.5C 377.145,325.866 382.811,325.532 388.5,325.5C 388.114,317.387 388.781,309.387 390.5,301.5C 391.5,301.5 392.5,301.5 393.5,301.5C 394.2,305.798 394.533,310.131 394.5,314.5C 402.167,314.5 409.833,314.5 417.5,314.5C 417.5,318.167 417.5,321.833 417.5,325.5C 414.167,325.5 410.833,325.5 407.5,325.5C 406.776,333.479 406.442,341.479 406.5,349.5C 411.015,349.272 415.348,349.938 419.5,351.5C 419.665,354.518 419.498,357.518 419,360.5C 418.5,361 418,361.5 417.5,362C 418.833,366 418.833,370 417.5,374C 421.51,374.357 425.51,374.19 429.5,373.5C 429.5,377.5 429.5,381.5 429.5,385.5C 433.833,385.5 438.167,385.5 442.5,385.5C 442.5,389.5 442.5,393.5 442.5,397.5C 450.087,397.814 457.587,397.481 465,396.5C 465.5,406.494 465.666,416.494 465.5,426.5C 465.5,428.833 465.5,431.167 465.5,433.5C 461.833,433.5 458.167,433.5 454.5,433.5C 454.5,431.167 454.5,428.833 454.5,426.5C 450.833,426.5 447.167,426.5 443.5,426.5C 443.5,428.833 443.5,431.167 443.5,433.5C 444.833,433.5 446.167,433.5 447.5,433.5C 447.5,434.833 447.5,436.167 447.5,437.5C 444.833,437.833 442.167,438.167 439.5,438.5C 440.117,444.975 439.117,451.142 436.5,457C 441.829,462.144 445.162,468.31 446.5,475.5C 445.5,475.5 444.5,475.5 443.5,475.5C 445.852,481.098 447.352,487.098 448,493.5C 449.049,492.483 450.216,492.316 451.5,493C 450.594,494.699 450.261,496.533 450.5,498.5C 453.079,498.083 455.246,498.75 457,500.5C 458.418,497.999 459.418,498.332 460,501.5C 460.383,500.944 460.883,500.611 461.5,500.5C 456.515,509.332 450.515,517.499 443.5,525C 439.696,526.736 436.029,528.736 432.5,531C 426.522,532.501 420.522,533.668 414.5,534.5C 403.544,535.449 396.377,530.783 393,520.5C 390.532,514.927 388.365,509.26 386.5,503.5C 386.5,502.5 386.5,501.5 386.5,500.5C 381.207,501.446 375.874,502.113 370.5,502.5C 370.67,501.178 370.337,500.011 369.5,499C 367.893,499.019 366.226,499.185 364.5,499.5C 364.5,498.167 364.5,496.833 364.5,495.5C 362.833,495.5 361.167,495.5 359.5,495.5C 359.5,494.5 359.5,493.5 359.5,492.5C 357.5,492.5 355.5,492.5 353.5,492.5C 353.5,494.833 353.5,497.167 353.5,499.5C 351.833,499.5 350.167,499.5 348.5,499.5C 348.5,501.167 348.5,502.833 348.5,504.5C 351.206,504.575 353.873,504.908 356.5,505.5C 356.338,507.527 356.505,509.527 357,511.5C 357.414,511.043 357.914,510.709 358.5,510.5C 359.466,512.396 359.799,514.396 359.5,516.5C 358.5,516.5 357.5,516.5 356.5,516.5C 356.588,520.306 355.921,523.973 354.5,527.5C 352.591,528.348 350.591,528.682 348.5,528.5C 348.03,539.831 347.53,551.165 347,562.5C 345.951,564.107 344.451,564.773 342.5,564.5C 342.5,552.167 342.5,539.833 342.5,527.5C 344.167,527.5 345.833,527.5 347.5,527.5C 347.5,522.167 347.5,516.833 347.5,511.5C 345.833,511.5 344.167,511.5 342.5,511.5C 342.666,503.493 342.5,495.493 342,487.5C 340.301,486.594 338.467,486.261 336.5,486.5C 336.5,484.833 336.5,483.167 336.5,481.5C 334.5,481.5 332.5,481.5 330.5,481.5C 331.906,476.069 329.906,473.735 324.5,474.5C 324.5,476.833 324.5,479.167 324.5,481.5C 320.563,481.793 316.73,481.46 313,480.5C 312.762,484.222 312.262,487.889 311.5,491.5C 310.833,492.167 310.167,492.833 309.5,493.5C 305.29,494.178 301.29,495.178 297.5,496.5C 296.957,496.44 296.624,496.107 296.5,495.5C 297.665,494.416 298.998,493.583 300.5,493C 300.167,492.667 299.833,492.333 299.5,492C 300.316,484.579 300.816,477.079 301,469.5C 302.699,468.594 304.533,468.261 306.5,468.5C 306.207,464.563 306.54,460.73 307.5,457C 313.157,456.501 318.824,456.334 324.5,456.5C 323.425,452.062 325.092,450.062 329.5,450.5C 328.579,445.255 330.746,443.255 336,444.5C 341.254,443.255 343.421,445.255 342.5,450.5C 350.167,450.5 357.833,450.5 365.5,450.5C 364.425,446.062 366.092,444.062 370.5,444.5C 370.5,436.833 370.5,429.167 370.5,421.5C 367.167,421.5 363.833,421.5 360.5,421.5C 360.739,423.467 360.406,425.301 359.5,427C 351.841,427.5 344.174,427.666 336.5,427.5C 336.5,425.5 336.5,423.5 336.5,421.5C 332.5,421.5 328.5,421.5 324.5,421.5C 324.5,419.5 324.5,417.5 324.5,415.5C 322.5,415.5 320.5,415.5 318.5,415.5C 318.5,409.5 318.5,403.5 318.5,397.5C 320.5,397.5 322.5,397.5 324.5,397.5C 324.335,393.818 324.501,390.152 325,386.5C 328.73,385.54 332.563,385.207 336.5,385.5C 336.5,379.833 336.5,374.167 336.5,368.5C 334.167,368.5 331.833,368.5 329.5,368.5C 329.5,364.5 329.5,360.5 329.5,356.5C 327.833,356.5 326.167,356.5 324.5,356.5C 324.5,354.5 324.5,352.5 324.5,350.5C 320.818,350.665 317.152,350.499 313.5,350C 312.54,346.27 312.207,342.437 312.5,338.5C 307.5,339.5 305.5,337.5 306.5,332.5C 298.833,332.5 291.167,332.5 283.5,332.5C 283.5,330.5 283.5,328.5 283.5,326.5C 277.833,326.5 272.167,326.5 266.5,326.5C 266.5,322.5 266.5,318.5 266.5,314.5C 262.167,314.5 257.833,314.5 253.5,314.5C 253.5,310.5 253.5,306.5 253.5,302.5C 257.5,302.5 261.5,302.5 265.5,302.5C 265.5,298.5 265.5,294.5 265.5,290.5C 269.167,290.5 272.833,290.5 276.5,290.5 Z"/></g>
<g><path style="opacity:1" fill="#182327" d="M 283.5,276.5 C 281.473,276.338 279.473,276.505 277.5,277C 279.478,277.481 280.811,278.647 281.5,280.5C 280.647,282.403 280.647,284.403 281.5,286.5C 280.5,286.5 279.5,286.5 278.5,286.5C 278.843,288.483 278.176,289.817 276.5,290.5C 272.833,290.5 269.167,290.5 265.5,290.5C 265.5,294.5 265.5,298.5 265.5,302.5C 261.5,302.5 257.5,302.5 253.5,302.5C 253.5,306.5 253.5,310.5 253.5,314.5C 257.833,314.5 262.167,314.5 266.5,314.5C 266.5,318.5 266.5,322.5 266.5,326.5C 272.167,326.5 277.833,326.5 283.5,326.5C 283.5,328.5 283.5,330.5 283.5,332.5C 291.167,332.5 298.833,332.5 306.5,332.5C 305.5,337.5 307.5,339.5 312.5,338.5C 312.207,342.437 312.54,346.27 313.5,350C 317.152,350.499 320.818,350.665 324.5,350.5C 324.5,352.5 324.5,354.5 324.5,356.5C 326.167,356.5 327.833,356.5 329.5,356.5C 329.5,360.5 329.5,364.5 329.5,368.5C 331.833,368.5 334.167,368.5 336.5,368.5C 336.5,374.167 336.5,379.833 336.5,385.5C 332.563,385.207 328.73,385.54 325,386.5C 324.501,390.152 324.335,393.818 324.5,397.5C 322.5,397.5 320.5,397.5 318.5,397.5C 318.5,403.5 318.5,409.5 318.5,415.5C 320.5,415.5 322.5,415.5 324.5,415.5C 324.5,417.5 324.5,419.5 324.5,421.5C 328.5,421.5 332.5,421.5 336.5,421.5C 336.5,423.5 336.5,425.5 336.5,427.5C 344.174,427.666 351.841,427.5 359.5,427C 360.406,425.301 360.739,423.467 360.5,421.5C 363.833,421.5 367.167,421.5 370.5,421.5C 370.5,429.167 370.5,436.833 370.5,444.5C 366.092,444.062 364.425,446.062 365.5,450.5C 357.833,450.5 350.167,450.5 342.5,450.5C 343.421,445.255 341.254,443.255 336,444.5C 330.746,443.255 328.579,445.255 329.5,450.5C 325.092,450.062 323.425,452.062 324.5,456.5C 318.824,456.334 313.157,456.501 307.5,457C 306.54,460.73 306.207,464.563 306.5,468.5C 304.533,468.261 302.699,468.594 301,469.5C 300.816,477.079 300.316,484.579 299.5,492C 299.833,492.333 300.167,492.667 300.5,493C 298.998,493.583 297.665,494.416 296.5,495.5C 296.624,496.107 296.957,496.44 297.5,496.5C 303.69,496.177 309.69,496.51 315.5,497.5C 308.978,497.177 302.645,497.51 296.5,498.5C 295.542,504.744 295.209,511.077 295.5,517.5C 294.219,522.062 292.386,526.396 290,530.5C 287.993,531.669 285.827,532.335 283.5,532.5C 284.85,531.176 284.683,530.176 283,529.5C 274.202,530.625 265.369,530.792 256.5,530C 256.043,529.586 255.709,529.086 255.5,528.5C 261.813,526.081 261.813,523.414 255.5,520.5C 254.322,515.228 253.655,509.895 253.5,504.5C 251.833,504.5 250.167,504.5 248.5,504.5C 248.5,502.833 248.5,501.167 248.5,499.5C 246.5,499.5 244.5,499.5 242.5,499.5C 242.666,493.491 242.499,487.491 242,481.5C 238.606,480.544 235.106,480.211 231.5,480.5C 231.751,477.091 231.417,473.758 230.5,470.5C 231.325,469.614 232.325,469.281 233.5,469.5C 233.5,468.5 233.5,467.5 233.5,466.5C 234.822,466.67 235.989,466.337 237,465.5C 237.192,463.423 237.692,461.423 238.5,459.5C 239.736,460.246 241.07,460.579 242.5,460.5C 242.5,463.5 242.5,466.5 242.5,469.5C 244.5,469.5 246.5,469.5 248.5,469.5C 248.5,465.5 248.5,461.5 248.5,457.5C 246.396,457.799 244.396,457.466 242.5,456.5C 243.242,455.713 244.075,455.047 245,454.5C 245.497,451.854 245.664,449.187 245.5,446.5C 244.5,446.5 243.5,446.5 242.5,446.5C 242.5,443.833 242.5,441.167 242.5,438.5C 232.474,438.538 222.474,438.705 212.5,439C 210.757,437.89 209.424,436.39 208.5,434.5C 206.291,433.894 204.124,433.227 202,432.5C 199.659,427.139 198.326,421.473 198,415.5C 196.933,414.809 195.766,414.309 194.5,414C 196.235,410.641 197.568,407.141 198.5,403.5C 197.779,397.854 197.446,392.187 197.5,386.5C 198.5,386.5 199.5,386.5 200.5,386.5C 199.167,380.5 201.5,378.167 207.5,379.5C 207.48,377.857 208.147,376.524 209.5,375.5C 207.321,373.717 207.321,371.717 209.5,369.5C 210.628,368.738 211.795,368.071 213,367.5C 213.273,365.899 213.773,364.399 214.5,363C 214.167,362.667 213.833,362.333 213.5,362C 216.217,361.957 216.884,360.957 215.5,359C 216,357.5 216.5,356 217,354.5C 217.219,355.938 217.719,357.271 218.5,358.5C 220.171,356.022 222.504,354.522 225.5,354C 229.793,349.949 228.793,348.449 222.5,349.5C 223.568,348.566 224.901,348.232 226.5,348.5C 227.725,347.848 228.392,346.681 228.5,345C 228.486,343.615 228.152,342.449 227.5,341.5C 214.832,318.766 218.832,299.266 239.5,283C 253.398,274.932 268.064,272.765 283.5,276.5 Z"/></g>
<g><path style="opacity:1" fill="#6f8380" d="M 457.5,337.5 C 455.132,339.965 454.132,342.965 454.5,346.5C 453.5,346.5 452.5,346.5 451.5,346.5C 451.084,341.912 453.084,338.912 457.5,337.5 Z"/></g>
<g><path style="opacity:1" fill="#878f92" d="M 227.5,341.5 C 228.152,342.449 228.486,343.615 228.5,345C 228.392,346.681 227.725,347.848 226.5,348.5C 227.369,346.283 227.702,343.95 227.5,341.5 Z"/></g>
<g><path style="opacity:1" fill="#161e23" d="M 222.5,349.5 C 228.793,348.449 229.793,349.949 225.5,354C 222.504,354.522 220.171,356.022 218.5,358.5C 217.719,357.271 217.219,355.938 217,354.5C 216.5,356 216,357.5 215.5,359C 216.884,360.957 216.217,361.957 213.5,362C 213.833,362.333 214.167,362.667 214.5,363C 213.773,364.399 213.273,365.899 213,367.5C 211.795,368.071 210.628,368.738 209.5,369.5C 207.321,371.717 207.321,373.717 209.5,375.5C 208.147,376.524 207.48,377.857 207.5,379.5C 201.5,378.167 199.167,380.5 200.5,386.5C 199.5,386.5 198.5,386.5 197.5,386.5C 197.446,392.187 197.779,397.854 198.5,403.5C 197.568,407.141 196.235,410.641 194.5,414C 195.766,414.309 196.933,414.809 198,415.5C 198.326,421.473 199.659,427.139 202,432.5C 204.124,433.227 206.291,433.894 208.5,434.5C 209.424,436.39 210.757,437.89 212.5,439C 222.474,438.705 232.474,438.538 242.5,438.5C 242.5,441.167 242.5,443.833 242.5,446.5C 243.5,446.5 244.5,446.5 245.5,446.5C 245.664,449.187 245.497,451.854 245,454.5C 244.075,455.047 243.242,455.713 242.5,456.5C 244.396,457.466 246.396,457.799 248.5,457.5C 248.5,461.5 248.5,465.5 248.5,469.5C 246.5,469.5 244.5,469.5 242.5,469.5C 242.5,466.5 242.5,463.5 242.5,460.5C 241.07,460.579 239.736,460.246 238.5,459.5C 237.692,461.423 237.192,463.423 237,465.5C 235.989,466.337 234.822,466.67 233.5,466.5C 233.5,467.5 233.5,468.5 233.5,469.5C 232.325,469.281 231.325,469.614 230.5,470.5C 231.417,473.758 231.751,477.091 231.5,480.5C 235.106,480.211 238.606,480.544 242,481.5C 242.499,487.491 242.666,493.491 242.5,499.5C 244.5,499.5 246.5,499.5 248.5,499.5C 248.5,501.167 248.5,502.833 248.5,504.5C 250.167,504.5 251.833,504.5 253.5,504.5C 253.655,509.895 254.322,515.228 255.5,520.5C 261.813,523.414 261.813,526.081 255.5,528.5C 255.709,529.086 256.043,529.586 256.5,530C 265.369,530.792 274.202,530.625 283,529.5C 284.683,530.176 284.85,531.176 283.5,532.5C 249.518,539.941 228.351,526.941 220,493.5C 218.941,482.33 219.774,471.33 222.5,460.5C 211.228,456.105 201.061,449.772 192,441.5C 190.295,439.423 189.128,437.09 188.5,434.5C 190.648,434.611 190.981,433.944 189.5,432.5C 190.025,431.808 190.692,431.308 191.5,431C 190.495,429.493 189.162,428.327 187.5,427.5C 188.025,426.808 188.692,426.308 189.5,426C 189.107,418.665 188.773,411.332 188.5,404C 190.119,401.429 191.452,398.762 192.5,396C 192.557,391.876 192.391,387.71 192,383.5C 192.333,383.167 192.667,382.833 193,382.5C 193.333,383.5 193.667,384.5 194,385.5C 195.15,383.246 195.484,380.913 195,378.5C 194.667,379.167 194.333,379.833 194,380.5C 193.333,378.5 193.333,376.5 194,374.5C 196.499,371.734 198.999,368.9 201.5,366C 204.667,365.5 206.5,363.667 207,360.5C 209.823,359.671 211.657,357.838 212.5,355C 214.246,354.529 215.913,353.862 217.5,353C 214.78,352.955 212.114,353.455 209.5,354.5C 213.206,351.491 217.539,349.824 222.5,349.5 Z"/></g>
<g><path style="opacity:1" fill="#191a1b" d="M 188.5,434.5 C 185.095,430.145 182.928,425.145 182,419.5C 178.013,394.999 185.179,374.499 203.5,358C 205.388,356.606 207.388,355.44 209.5,354.5C 212.114,353.455 214.78,352.955 217.5,353C 215.913,353.862 214.246,354.529 212.5,355C 211.657,357.838 209.823,359.671 207,360.5C 206.5,363.667 204.667,365.5 201.5,366C 198.999,368.9 196.499,371.734 194,374.5C 193.333,376.5 193.333,378.5 194,380.5C 194.333,379.833 194.667,379.167 195,378.5C 195.484,380.913 195.15,383.246 194,385.5C 193.667,384.5 193.333,383.5 193,382.5C 192.667,382.833 192.333,383.167 192,383.5C 192.391,387.71 192.557,391.876 192.5,396C 191.452,398.762 190.119,401.429 188.5,404C 188.773,411.332 189.107,418.665 189.5,426C 188.692,426.308 188.025,426.808 187.5,427.5C 189.162,428.327 190.495,429.493 191.5,431C 190.692,431.308 190.025,431.808 189.5,432.5C 190.981,433.944 190.648,434.611 188.5,434.5 Z"/></g>
<g><path style="opacity:1" fill="#121b20" d="M 497.5,426.5 C 494.304,433.717 489.97,440.217 484.5,446C 476.073,450.547 467.406,454.547 458.5,458C 457.643,458.689 456.977,459.522 456.5,460.5C 467.778,472.606 469.444,485.939 461.5,500.5C 460.883,500.611 460.383,500.944 460,501.5C 459.418,498.332 458.418,497.999 457,500.5C 455.246,498.75 453.079,498.083 450.5,498.5C 450.261,496.533 450.594,494.699 451.5,493C 450.216,492.316 449.049,492.483 448,493.5C 447.352,487.098 445.852,481.098 443.5,475.5C 444.5,475.5 445.5,475.5 446.5,475.5C 445.162,468.31 441.829,462.144 436.5,457C 439.117,451.142 440.117,444.975 439.5,438.5C 442.167,438.167 444.833,437.833 447.5,437.5C 447.5,436.167 447.5,434.833 447.5,433.5C 446.167,433.5 444.833,433.5 443.5,433.5C 443.5,431.167 443.5,428.833 443.5,426.5C 447.167,426.5 450.833,426.5 454.5,426.5C 454.5,428.833 454.5,431.167 454.5,433.5C 458.167,433.5 461.833,433.5 465.5,433.5C 465.5,431.167 465.5,428.833 465.5,426.5C 467.833,426.5 470.167,426.5 472.5,426.5C 472.5,428.5 472.5,430.5 472.5,432.5C 474.167,432.5 475.833,432.5 477.5,432.5C 477.5,434.5 477.5,436.5 477.5,438.5C 479.827,438.665 481.993,439.331 484,440.5C 484.928,438.665 486.094,438.332 487.5,439.5C 490.831,435.508 493.664,431.175 496,426.5C 496.69,425.262 497.19,425.262 497.5,426.5 Z"/></g>
<g><path style="opacity:1" fill="#050505" d="M 852.5,506.5 C 839.163,506.333 825.829,506.5 812.5,507C 811.533,511.401 811.2,515.901 811.5,520.5C 803.5,520.5 795.5,520.5 787.5,520.5C 787.5,520.167 787.5,519.833 787.5,519.5C 787.5,515.5 787.5,511.5 787.5,507.5C 711.998,507.167 636.665,507.501 561.5,508.5C 561.817,512.702 561.483,516.702 560.5,520.5C 559.833,520.5 559.167,520.5 558.5,520.5C 550.833,520.5 543.167,520.5 535.5,520.5C 535.5,515.833 535.5,511.167 535.5,506.5C 533.585,506.216 531.919,506.549 530.5,507.5C 519.833,507.5 509.167,507.5 498.5,507.5C 498.5,505.833 498.5,504.167 498.5,502.5C 498.731,494.791 498.398,487.124 497.5,479.5C 510.167,479.5 522.833,479.5 535.5,479.5C 535.5,472.833 535.5,466.167 535.5,459.5C 544.167,459.5 552.833,459.5 561.5,459.5C 561.189,466.09 561.522,472.59 562.5,479C 636.83,478.817 711.163,478.484 785.5,478C 786.083,471.917 786.083,465.75 785.5,459.5C 794.833,459.5 804.167,459.5 813.5,459.5C 813.5,465.833 813.5,472.167 813.5,478.5C 826.478,479.378 839.478,479.711 852.5,479.5C 852.5,488.5 852.5,497.5 852.5,506.5 Z"/></g>
<g><path style="opacity:1" fill="#4f5453" d="M 296.5,498.5 C 302.645,497.51 308.978,497.177 315.5,497.5C 316.833,501.167 316.833,504.833 315.5,508.5C 315.5,505.167 315.5,501.833 315.5,498.5C 309.167,498.5 302.833,498.5 296.5,498.5 Z"/></g>
<g><path style="opacity:1" fill="#8e928f" d="M 296.5,498.5 C 302.833,498.5 309.167,498.5 315.5,498.5C 315.5,501.833 315.5,505.167 315.5,508.5C 315.83,526.008 315.497,543.341 314.5,560.5C 314.5,541.833 314.5,523.167 314.5,504.5C 314.5,502.833 314.5,501.167 314.5,499.5C 308.794,499.171 303.128,499.505 297.5,500.5C 296.652,502.409 296.318,504.409 296.5,506.5C 296.815,510.371 296.482,514.038 295.5,517.5C 295.209,511.077 295.542,504.744 296.5,498.5 Z"/></g>
<g><path style="opacity:1" fill="#c8cabf" d="M 314.5,504.5 C 312.641,504.461 311.308,505.294 310.5,507C 306.627,506.849 303.294,508.016 300.5,510.5C 299.571,509.311 299.238,507.978 299.5,506.5C 298.5,506.5 297.5,506.5 296.5,506.5C 296.318,504.409 296.652,502.409 297.5,500.5C 303.128,499.505 308.794,499.171 314.5,499.5C 314.5,501.167 314.5,502.833 314.5,504.5 Z"/></g>
<g><path style="opacity:1" fill="#838987" d="M 378.5,503.5 C 375.689,504.475 372.689,505.142 369.5,505.5C 372.123,503.735 375.123,503.068 378.5,503.5 Z"/></g>
<g><path style="opacity:1" fill="#343739" d="M 852.5,506.5 C 839.673,507.331 826.673,507.831 813.5,508C 812.86,512.268 812.193,516.435 811.5,520.5C 811.2,515.901 811.533,511.401 812.5,507C 825.829,506.5 839.163,506.333 852.5,506.5 Z"/></g>
<g><path style="opacity:1" fill="#adb0af" d="M 498.5,502.5 C 498.5,504.167 498.5,505.833 498.5,507.5C 509.167,507.5 519.833,507.5 530.5,507.5C 519.679,508.495 508.679,508.828 497.5,508.5C 497.205,506.265 497.539,504.265 498.5,502.5 Z"/></g>
<g><path style="opacity:1" fill="#a0a7a8" d="M 561.5,508.5 C 636.665,507.501 711.998,507.167 787.5,507.5C 787.5,511.5 787.5,515.5 787.5,519.5C 786.518,516.038 786.185,512.371 786.5,508.5C 711.5,508.5 636.5,508.5 561.5,508.5 Z"/></g>
<g><path style="opacity:1" fill="#eff2f5" d="M 561.5,508.5 C 636.5,508.5 711.5,508.5 786.5,508.5C 786.185,512.371 786.518,516.038 787.5,519.5C 787.5,519.833 787.5,520.167 787.5,520.5C 712.002,521.499 636.335,521.833 560.5,521.5C 560.5,521.167 560.5,520.833 560.5,520.5C 561.483,516.702 561.817,512.702 561.5,508.5 Z"/></g>
<g><path style="opacity:1" fill="#878c8e" d="M 535.5,520.5 C 543.167,520.5 550.833,520.5 558.5,520.5C 551.576,522.463 544.243,523.13 536.5,522.5C 531.833,522.5 527.167,522.5 522.5,522.5C 526.833,521.833 531.167,521.167 535.5,520.5 Z"/></g>
<g><path style="opacity:1" fill="#92979b" d="M 787.5,520.5 C 795.5,520.5 803.5,520.5 811.5,520.5C 824.5,521.167 837.5,521.833 850.5,522.5C 753.665,522.833 656.999,522.499 560.5,521.5C 636.335,521.833 712.002,521.499 787.5,520.5 Z"/></g>
<g><path style="opacity:1" fill="#25272a" d="M 558.5,520.5 C 559.167,520.5 559.833,520.5 560.5,520.5C 560.5,520.833 560.5,521.167 560.5,521.5C 656.999,522.499 753.665,522.833 850.5,522.5C 852.468,530.433 853.135,538.766 852.5,547.5C 851.508,539.684 851.174,531.684 851.5,523.5C 746.332,523.833 641.332,523.499 536.5,522.5C 544.243,523.13 551.576,522.463 558.5,520.5 Z"/></g>
<g><path style="opacity:1" fill="#020202" d="M 522.5,522.5 C 527.167,522.5 531.833,522.5 536.5,522.5C 641.332,523.499 746.332,523.833 851.5,523.5C 851.174,531.684 851.508,539.684 852.5,547.5C 852.5,549.167 852.5,550.833 852.5,552.5C 734.482,552.176 616.482,552.51 498.5,553.5C 498.5,543.167 498.5,532.833 498.5,522.5C 506.5,522.5 514.5,522.5 522.5,522.5 Z"/></g>
<g><path style="opacity:1" fill="#152128" d="M 386.5,503.5 C 383.728,502.233 381.061,502.233 378.5,503.5C 375.123,503.068 372.123,503.735 369.5,505.5C 368.883,505.611 368.383,505.944 368,506.5C 368.056,516.507 368.556,526.507 369.5,536.5C 368.698,535.048 368.198,533.382 368,531.5C 367.5,558.831 367.333,586.165 367.5,613.5C 367.66,615.199 367.494,616.866 367,618.5C 366.667,618.167 366.333,617.833 366,617.5C 364.505,619.11 364.339,620.776 365.5,622.5C 363.955,623.452 362.288,623.785 360.5,623.5C 360.167,619.5 359.833,619.5 359.5,623.5C 355.833,623.5 352.167,623.5 348.5,623.5C 348.333,608.158 347.833,592.824 347,577.5C 345.951,575.893 344.451,575.227 342.5,575.5C 342.5,571.833 342.5,568.167 342.5,564.5C 344.451,564.773 345.951,564.107 347,562.5C 347.53,551.165 348.03,539.831 348.5,528.5C 350.591,528.682 352.591,528.348 354.5,527.5C 355.921,523.973 356.588,520.306 356.5,516.5C 357.5,516.5 358.5,516.5 359.5,516.5C 359.799,514.396 359.466,512.396 358.5,510.5C 357.914,510.709 357.414,511.043 357,511.5C 356.505,509.527 356.338,507.527 356.5,505.5C 353.873,504.908 351.206,504.575 348.5,504.5C 348.5,502.833 348.5,501.167 348.5,499.5C 350.167,499.5 351.833,499.5 353.5,499.5C 353.5,497.167 353.5,494.833 353.5,492.5C 355.5,492.5 357.5,492.5 359.5,492.5C 359.5,493.5 359.5,494.5 359.5,495.5C 361.167,495.5 362.833,495.5 364.5,495.5C 364.5,496.833 364.5,498.167 364.5,499.5C 366.226,499.185 367.893,499.019 369.5,499C 370.337,500.011 370.67,501.178 370.5,502.5C 375.874,502.113 381.207,501.446 386.5,500.5C 386.5,501.5 386.5,502.5 386.5,503.5 Z"/></g>
<g><path style="opacity:1" fill="#040404" d="M 821.5,571.5 C 831.5,571.5 841.5,571.5 851.5,571.5C 851.5,580.167 851.5,588.833 851.5,597.5C 733.49,597.184 615.49,597.517 497.5,598.5C 497.182,589.249 497.515,580.083 498.5,571C 510.829,570.5 523.162,570.333 535.5,570.5C 535.2,565.901 535.533,561.401 536.5,557C 544.848,556.622 553.181,556.122 561.5,555.5C 561.916,560.493 562.249,565.493 562.5,570.5C 637.167,570.5 711.833,570.5 786.5,570.5C 786.197,565.57 786.531,560.737 787.5,556C 795.793,556.601 804.126,556.434 812.5,555.5C 812.334,560.511 812.501,565.511 813,570.5C 815.719,571.444 818.552,571.777 821.5,571.5 Z"/></g>
<g><path style="opacity:1" fill="#3f4243" d="M 821.5,571.5 C 831.653,570.506 841.986,570.172 852.5,570.5C 852.666,579.839 852.5,589.173 852,598.5C 850.769,599.108 849.436,599.441 848,599.5C 731.012,598.676 614.179,598.343 497.5,598.5C 615.49,597.517 733.49,597.184 851.5,597.5C 851.5,588.833 851.5,580.167 851.5,571.5C 841.5,571.5 831.5,571.5 821.5,571.5 Z"/></g>
<g><path style="opacity:1" fill="#0f1619" d="M 369.5,536.5 C 369.081,567.538 369.914,598.538 372,629.5C 372.383,630.056 372.883,630.389 373.5,630.5C 380.226,630.963 386.893,632.13 393.5,634C 387.167,634.667 380.833,634.667 374.5,634C 371.943,633.315 370.109,631.815 369,629.5C 368.827,623.984 368.327,618.651 367.5,613.5C 367.333,586.165 367.5,558.831 368,531.5C 368.198,533.382 368.698,535.048 369.5,536.5 Z"/></g>
<g><path style="opacity:1" fill="#000000" d="M 535.5,607.5 C 544.5,607.5 553.5,607.5 562.5,607.5C 562.5,628.167 562.5,648.833 562.5,669.5C 562.826,673.884 562.492,678.217 561.5,682.5C 560.817,682.137 560.15,681.804 559.5,681.5C 551.684,680.508 543.684,680.174 535.5,680.5C 535.5,656.167 535.5,631.833 535.5,607.5 Z"/></g>
<g><path style="opacity:1" fill="#010202" d="M 787.5,681.5 C 785.836,657.684 784.836,633.684 784.5,609.5C 794.111,607.526 804.111,606.859 814.5,607.5C 813.695,632.47 813.195,657.47 813,682.5C 804.585,681.517 796.085,681.183 787.5,681.5 Z"/></g>
<g><path style="opacity:1" fill="#151b1e" d="M 288.5,629.5 C 288.657,630.873 288.49,632.207 288,633.5C 287.308,632.975 286.808,632.308 286.5,631.5C 263.535,629.606 240.535,629.106 217.5,630C 222.594,631.458 222.261,632.291 216.5,632.5C 216.5,633.5 216.5,634.5 216.5,635.5C 215.5,635.5 214.5,635.5 213.5,635.5C 213.5,634.5 213.5,633.5 213.5,632.5C 212.167,632.5 210.833,632.5 209.5,632.5C 209.719,633.675 209.386,634.675 208.5,635.5C 205.339,636.662 202.673,638.495 200.5,641C 198.866,641.494 197.199,641.66 195.5,641.5C 195.167,643.5 194.833,645.5 194.5,647.5C 190.167,647.5 185.833,647.5 181.5,647.5C 181.577,651.215 181.244,654.881 180.5,658.5C 182.143,658.48 183.476,659.147 184.5,660.5C 186.071,659.691 187.738,659.357 189.5,659.5C 190.735,661.773 190.402,663.606 188.5,665C 191.21,666.46 191.876,668.46 190.5,671C 192.5,671.167 194.5,671.333 196.5,671.5C 268.494,671.584 340.494,671.251 412.5,670.5C 412.343,669.127 412.51,667.793 413,666.5C 415.757,668.027 418.757,668.693 422,668.5C 429.192,666.524 436.526,665.524 444,665.5C 455.183,665.903 466.35,666.57 477.5,667.5C 478.376,668.251 479.376,668.751 480.5,669C 486.167,669.333 491.833,669.667 497.5,670C 496.263,670.232 495.263,670.732 494.5,671.5C 448.336,672.499 402.003,672.832 355.5,672.5C 327.848,673.429 300.182,673.762 272.5,673.5C 244.831,673.667 217.165,673.5 189.5,673C 183.98,668.144 179.147,662.644 175,656.5C 170.638,643.401 174.471,633.568 186.5,627C 219.833,626.925 253.166,627.258 286.5,628C 287.416,628.278 288.082,628.778 288.5,629.5 Z"/></g>
<g><path style="opacity:1" fill="#121c21" d="M 342.5,564.5 C 342.5,568.167 342.5,571.833 342.5,575.5C 344.451,575.227 345.951,575.893 347,577.5C 347.833,592.824 348.333,608.158 348.5,623.5C 352.167,623.5 355.833,623.5 359.5,623.5C 359.833,619.5 360.167,619.5 360.5,623.5C 362.288,623.785 363.955,623.452 365.5,622.5C 364.339,620.776 364.505,619.11 366,617.5C 366.333,617.833 366.667,618.167 367,618.5C 367.494,616.866 367.66,615.199 367.5,613.5C 368.327,618.651 368.827,623.984 369,629.5C 370.109,631.815 371.943,633.315 374.5,634C 380.833,634.667 387.167,634.667 393.5,634C 386.893,632.13 380.226,630.963 373.5,630.5C 414.427,628.176 455.427,627.343 496.5,628C 507.219,633.609 511.386,642.442 509,654.5C 507.148,661.034 503.648,666.534 498.5,671C 497.207,671.49 495.873,671.657 494.5,671.5C 495.263,670.732 496.263,670.232 497.5,670C 491.833,669.667 486.167,669.333 480.5,669C 479.376,668.751 478.376,668.251 477.5,667.5C 466.35,666.57 455.183,665.903 444,665.5C 436.526,665.524 429.192,666.524 422,668.5C 418.757,668.693 415.757,668.027 413,666.5C 412.51,667.793 412.343,669.127 412.5,670.5C 340.494,671.251 268.494,671.584 196.5,671.5C 194.5,671.333 192.5,671.167 190.5,671C 191.876,668.46 191.21,666.46 188.5,665C 190.402,663.606 190.735,661.773 189.5,659.5C 187.738,659.357 186.071,659.691 184.5,660.5C 183.476,659.147 182.143,658.48 180.5,658.5C 181.244,654.881 181.577,651.215 181.5,647.5C 185.833,647.5 190.167,647.5 194.5,647.5C 194.833,645.5 195.167,643.5 195.5,641.5C 197.199,641.66 198.866,641.494 200.5,641C 202.673,638.495 205.339,636.662 208.5,635.5C 209.386,634.675 209.719,633.675 209.5,632.5C 210.833,632.5 212.167,632.5 213.5,632.5C 213.5,633.5 213.5,634.5 213.5,635.5C 214.5,635.5 215.5,635.5 216.5,635.5C 216.5,634.5 216.5,633.5 216.5,632.5C 222.261,632.291 222.594,631.458 217.5,630C 240.535,629.106 263.535,629.606 286.5,631.5C 286.808,632.308 287.308,632.975 288,633.5C 288.49,632.207 288.657,630.873 288.5,629.5C 289.478,629.811 290.145,630.478 290.5,631.5C 298.138,632.497 305.804,632.831 313.5,632.5C 313.314,608.489 313.647,584.489 314.5,560.5C 315.497,543.341 315.83,526.008 315.5,508.5C 316.833,504.833 316.833,501.167 315.5,497.5C 309.69,496.51 303.69,496.177 297.5,496.5C 301.29,495.178 305.29,494.178 309.5,493.5C 310.167,492.833 310.833,492.167 311.5,491.5C 312.262,487.889 312.762,484.222 313,480.5C 316.73,481.46 320.563,481.793 324.5,481.5C 324.5,479.167 324.5,476.833 324.5,474.5C 329.906,473.735 331.906,476.069 330.5,481.5C 332.5,481.5 334.5,481.5 336.5,481.5C 336.5,483.167 336.5,484.833 336.5,486.5C 338.467,486.261 340.301,486.594 342,487.5C 342.5,495.493 342.666,503.493 342.5,511.5C 344.167,511.5 345.833,511.5 347.5,511.5C 347.5,516.833 347.5,522.167 347.5,527.5C 345.833,527.5 344.167,527.5 342.5,527.5C 342.5,539.833 342.5,552.167 342.5,564.5 Z"/></g>
<g><path style="opacity:1" fill="#595e5f" d="M 535.5,607.5 C 544.652,606.506 553.985,606.173 563.5,606.5C 563.831,627.673 563.497,648.673 562.5,669.5C 562.5,648.833 562.5,628.167 562.5,607.5C 553.5,607.5 544.5,607.5 535.5,607.5 Z"/></g>
<g><path style="opacity:0.816" fill="#707473" d="M 784.5,609.5 C 784.836,633.684 785.836,657.684 787.5,681.5C 786.791,682.404 785.791,682.737 784.5,682.5C 784.5,658.167 784.5,633.833 784.5,609.5 Z"/></g>
<g><path style="opacity:1" fill="#707b77" d="M 355.5,672.5 C 354.048,673.302 352.382,673.802 350.5,674C 324.33,674.83 298.33,674.663 272.5,673.5C 300.182,673.762 327.848,673.429 355.5,672.5 Z"/></g>
<g><path style="opacity:1" fill="#2e3232" d="M 535.5,607.5 C 535.5,631.833 535.5,656.167 535.5,680.5C 543.684,680.174 551.684,680.508 559.5,681.5C 551.167,681.5 542.833,681.5 534.5,681.5C 534.169,656.661 534.502,631.994 535.5,607.5 Z"/></g>
</svg>
