<?xml version="1.0" encoding="UTF-8"?>
<!DOCTYPE svg PUBLIC "-//W3C//DTD SVG 1.1//EN" "http://www.w3.org/Graphics/SVG/1.1/DTD/svg11.dtd">
<svg xmlns="http://www.w3.org/2000/svg" version="1.1" width="992px" height="1291px" style="shape-rendering:geometricPrecision; text-rendering:geometricPrecision; image-rendering:optimizeQuality; fill-rule:evenodd; clip-rule:evenodd" xmlns:xlink="http://www.w3.org/1999/xlink">
<g><path style="opacity:0.995" fill="#000000" d="M 462.5,-0.5 C 484.5,-0.5 506.5,-0.5 528.5,-0.5C 685.444,12.4792 810.944,81.4792 905,206.5C 955.545,278.963 984.378,359.296 991.5,447.5C 991.5,468.167 991.5,488.833 991.5,509.5C 985.683,585.423 963.183,656.09 924,721.5C 806.752,894.994 689.752,1068.66 573,1242.5C 559.996,1269.26 538.829,1285.26 509.5,1290.5C 499.833,1290.5 490.167,1290.5 480.5,1290.5C 454.782,1285.56 434.615,1272.22 420,1250.5C 363.411,1158.98 305.078,1068.64 245,979.5C 203,916.833 161,854.167 119,791.5C 48.213,710.892 8.37971,616.892 -0.5,509.5C -0.5,488.833 -0.5,468.167 -0.5,447.5C 15.0179,290.232 88.0179,167.732 218.5,80C 293.059,32.6469 374.393,5.81357 462.5,-0.5 Z"/></g>
<g><path style="opacity:1" fill="#2f3b39" d="M 477.5,89.5 C 469.335,90.4202 461.002,91.0868 452.5,91.5C 453.952,90.6981 455.618,90.1981 457.5,90C 464.158,89.5004 470.825,89.3337 477.5,89.5 Z"/></g>
<g><path style="opacity:1" fill="#b3bcbb" d="M 477.5,89.5 C 491.837,89.3334 506.171,89.5001 520.5,90C 528.71,90.2418 536.71,91.0751 544.5,92.5C 513.834,91.1868 483.168,91.1868 452.5,92.5C 452.5,92.1667 452.5,91.8333 452.5,91.5C 461.002,91.0868 469.335,90.4202 477.5,89.5 Z"/></g>
<g><path style="opacity:0.999" fill="#fefefe" d="M 544.5,92.5 C 660.35,107.325 753.517,160.992 824,253.5C 899.348,361.965 916.015,478.965 874,604.5C 824.15,729.348 734.65,810.515 605.5,848C 582.557,854.422 559.223,858.589 535.5,860.5C 507.168,861.809 478.834,861.809 450.5,860.5C 446.881,859.756 443.215,859.423 439.5,859.5C 427.706,856.555 415.706,853.889 403.5,851.5C 402.653,850.034 401.32,849.2 399.5,849C 396.854,848.503 394.187,848.336 391.5,848.5C 390.167,848.5 388.833,848.5 387.5,848.5C 377.02,845.295 366.687,841.628 356.5,837.5C 353.855,835.69 350.855,834.69 347.5,834.5C 347.167,834.5 346.833,834.5 346.5,834.5C 341.297,830.236 335.297,827.569 328.5,826.5C 326.434,824.801 324.1,823.468 321.5,822.5C 320.652,820.907 319.319,819.74 317.5,819C 311.178,816.507 304.845,814.007 298.5,811.5C 295.55,808.192 291.884,806.192 287.5,805.5C 285.879,803.058 283.546,801.725 280.5,801.5C 261.224,790.164 243.224,776.83 226.5,761.5C 223.769,757.766 220.436,754.766 216.5,752.5C 207.14,743.806 198.14,734.806 189.5,725.5C 175.319,709.33 162.319,692.33 150.5,674.5C 149.389,671.144 147.723,668.144 145.5,665.5C 144.202,661.912 142.536,658.579 140.5,655.5C 138.455,651.081 136.122,646.748 133.5,642.5C 133.657,641.127 133.49,639.793 133,638.5C 132.098,636.569 130.931,634.903 129.5,633.5C 128.586,629.064 126.919,625.064 124.5,621.5C 121.351,612.713 118.018,604.046 114.5,595.5C 113.545,589.39 112.212,583.39 110.5,577.5C 110.88,575.302 110.213,573.635 108.5,572.5C 107.537,568.899 106.87,565.233 106.5,561.5C 105.691,556.255 104.358,551.255 102.5,546.5C 101.092,542.314 100.425,537.981 100.5,533.5C 98.2449,499.191 97.9116,464.858 99.5,430.5C 100.721,422.847 101.721,415.18 102.5,407.5C 102.802,404.627 103.469,401.961 104.5,399.5C 106.237,395.458 107.237,391.124 107.5,386.5C 107.366,384.708 107.699,383.042 108.5,381.5C 110.074,379.898 110.741,377.898 110.5,375.5C 111.39,368.939 113.057,362.606 115.5,356.5C 117.074,354.898 117.741,352.898 117.5,350.5C 117.5,350.167 117.5,349.833 117.5,349.5C 118.117,349.389 118.617,349.056 119,348.5C 120.953,343.17 122.787,337.837 124.5,332.5C 128.585,325.313 131.919,317.646 134.5,309.5C 137.548,306.07 139.548,302.07 140.5,297.5C 141.376,297.631 142.043,297.298 142.5,296.5C 144.306,293.359 145.639,290.026 146.5,286.5C 148.245,284.967 149.245,282.967 149.5,280.5C 151.241,278.605 152.241,276.272 152.5,273.5C 156.511,268.132 160.511,262.798 164.5,257.5C 166.822,256.198 168.155,254.198 168.5,251.5C 168.328,250.508 168.662,249.842 169.5,249.5C 176.405,241.358 183.071,233.025 189.5,224.5C 197.202,217.799 204.202,210.466 210.5,202.5C 223.125,188.705 237.125,176.539 252.5,166C 272.246,151.79 293.246,139.623 315.5,129.5C 321.175,128.494 326.175,126.161 330.5,122.5C 335.232,122.373 339.232,120.707 342.5,117.5C 350.384,115.041 358.384,112.874 366.5,111C 367.381,110.292 368.047,109.458 368.5,108.5C 369.391,107.89 370.391,107.557 371.5,107.5C 380.986,106.552 389.986,104.218 398.5,100.5C 407.109,98.889 415.776,97.5557 424.5,96.5C 433.076,95.9133 441.41,94.58 449.5,92.5C 450.5,92.5 451.5,92.5 452.5,92.5C 483.168,91.1868 513.834,91.1868 544.5,92.5 Z"/></g>
<g><path style="opacity:1" fill="#c3c8c9" d="M 449.5,92.5 C 441.41,94.58 433.076,95.9133 424.5,96.5C 432.555,94.2139 440.888,92.8805 449.5,92.5 Z"/></g>
<g><path style="opacity:1" fill="#636c6c" d="M 452.5,91.5 C 452.5,91.8333 452.5,92.1667 452.5,92.5C 451.5,92.5 450.5,92.5 449.5,92.5C 440.888,92.8805 432.555,94.2139 424.5,96.5C 415.776,97.5557 407.109,98.889 398.5,100.5C 416.017,95.3582 434.017,92.3582 452.5,91.5 Z"/></g>
<g><path style="opacity:1" fill="#9faead" d="M 398.5,100.5 C 389.986,104.218 380.986,106.552 371.5,107.5C 380.185,104.291 389.185,101.958 398.5,100.5 Z"/></g>
<g><path style="opacity:1" fill="#a9b5b3" d="M 368.5,108.5 C 368.047,109.458 367.381,110.292 366.5,111C 358.384,112.874 350.384,115.041 342.5,117.5C 350.702,113.411 359.368,110.411 368.5,108.5 Z"/></g>
<g><path style="opacity:1" fill="#aebbb9" d="M 342.5,117.5 C 339.232,120.707 335.232,122.373 330.5,122.5C 334.203,120.321 338.203,118.655 342.5,117.5 Z"/></g>
<g><path style="opacity:1" fill="#b2bebc" d="M 330.5,122.5 C 326.175,126.161 321.175,128.494 315.5,129.5C 320.07,126.384 325.07,124.05 330.5,122.5 Z"/></g>
<g><path style="opacity:1" fill="#989999" d="M 210.5,202.5 C 204.202,210.466 197.202,217.799 189.5,224.5C 193.098,219.726 196.931,215.06 201,210.5C 203.766,207.223 206.933,204.557 210.5,202.5 Z"/></g>
<g><path style="opacity:1" fill="#6d736e" d="M 189.5,224.5 C 183.071,233.025 176.405,241.358 169.5,249.5C 174.968,240.245 181.634,231.912 189.5,224.5 Z"/></g>
<g><path style="opacity:1" fill="#0b1115" d="M 726.5,285.5 C 750.852,305.509 766.019,331.175 772,362.5C 773.09,365.579 772.257,367.912 769.5,369.5C 742.321,361.162 714.655,354.662 686.5,350C 673.481,346.795 660.481,343.462 647.5,340C 639.601,338.238 631.601,337.238 623.5,337C 615.317,322.741 603.651,312.407 588.5,306C 576.903,301.434 564.903,298.434 552.5,297C 532.516,295.219 512.516,293.719 492.5,292.5C 480.674,291.34 468.674,291.174 456.5,292C 454.618,292.198 452.952,292.698 451.5,293.5C 444.173,293.944 436.84,294.277 429.5,294.5C 426.482,294.665 423.482,294.498 420.5,294C 424.265,292.623 423.932,291.623 419.5,291C 421.134,290.506 422.801,290.34 424.5,290.5C 424.5,289.167 424.5,287.833 424.5,286.5C 423.167,286.5 421.833,286.5 420.5,286.5C 420.5,284.5 420.5,282.5 420.5,280.5C 423.86,280.384 427.193,280.051 430.5,279.5C 430.5,277.833 430.5,276.167 430.5,274.5C 415.167,274.5 399.833,274.5 384.5,274.5C 384.5,272.5 384.5,270.5 384.5,268.5C 388.833,268.5 393.167,268.5 397.5,268.5C 397.5,266.167 397.5,263.833 397.5,261.5C 406.5,261.5 415.5,261.5 424.5,261.5C 424.5,257.5 424.5,253.5 424.5,249.5C 429.214,249.647 433.881,249.314 438.5,248.5C 438.5,247.167 438.5,245.833 438.5,244.5C 440.167,244.5 441.833,244.5 443.5,244.5C 443.5,245.833 443.5,247.167 443.5,248.5C 450.5,248.5 457.5,248.5 464.5,248.5C 464.5,244.5 464.5,240.5 464.5,236.5C 477.833,236.5 491.167,236.5 504.5,236.5C 504.5,240.5 504.5,244.5 504.5,248.5C 508.833,248.5 513.167,248.5 517.5,248.5C 517.5,250.833 517.5,253.167 517.5,255.5C 528.833,255.5 540.167,255.5 551.5,255.5C 551.5,257.5 551.5,259.5 551.5,261.5C 562.5,261.5 573.5,261.5 584.5,261.5C 584.5,263.833 584.5,266.167 584.5,268.5C 589.167,268.5 593.833,268.5 598.5,268.5C 598.5,270.5 598.5,272.5 598.5,274.5C 600.5,274.5 602.5,274.5 604.5,274.5C 604.5,276.5 604.5,278.5 604.5,280.5C 606.833,280.5 609.167,280.5 611.5,280.5C 611.5,282.5 611.5,284.5 611.5,286.5C 615.833,286.5 620.167,286.5 624.5,286.5C 624.5,288.833 624.5,291.167 624.5,293.5C 626.5,293.5 628.5,293.5 630.5,293.5C 630.5,297.5 630.5,301.5 630.5,305.5C 632.833,305.5 635.167,305.5 637.5,305.5C 637.5,303.833 637.5,302.167 637.5,300.5C 666.5,300.5 695.5,300.5 724.5,300.5C 724.337,298.143 724.503,295.81 725,293.5C 728.86,292.186 729.193,290.519 726,288.5C 725.26,287.251 725.427,286.251 726.5,285.5 Z"/></g>
<g><path style="opacity:1" fill="#0d1317" d="M 726.5,285.5 C 725.427,286.251 725.26,287.251 726,288.5C 729.193,290.519 728.86,292.186 725,293.5C 724.503,295.81 724.337,298.143 724.5,300.5C 695.5,300.5 666.5,300.5 637.5,300.5C 637.5,302.167 637.5,303.833 637.5,305.5C 635.167,305.5 632.833,305.5 630.5,305.5C 630.5,301.5 630.5,297.5 630.5,293.5C 628.5,293.5 626.5,293.5 624.5,293.5C 624.5,291.167 624.5,288.833 624.5,286.5C 620.167,286.5 615.833,286.5 611.5,286.5C 611.5,284.5 611.5,282.5 611.5,280.5C 609.167,280.5 606.833,280.5 604.5,280.5C 604.5,278.5 604.5,276.5 604.5,274.5C 602.5,274.5 600.5,274.5 598.5,274.5C 598.5,272.5 598.5,270.5 598.5,268.5C 593.833,268.5 589.167,268.5 584.5,268.5C 584.5,266.167 584.5,263.833 584.5,261.5C 573.5,261.5 562.5,261.5 551.5,261.5C 551.5,259.5 551.5,257.5 551.5,255.5C 540.167,255.5 528.833,255.5 517.5,255.5C 517.5,253.167 517.5,250.833 517.5,248.5C 513.167,248.5 508.833,248.5 504.5,248.5C 504.5,244.5 504.5,240.5 504.5,236.5C 491.167,236.5 477.833,236.5 464.5,236.5C 464.5,240.5 464.5,244.5 464.5,248.5C 457.5,248.5 450.5,248.5 443.5,248.5C 443.5,247.167 443.5,245.833 443.5,244.5C 441.833,244.5 440.167,244.5 438.5,244.5C 438.5,245.833 438.5,247.167 438.5,248.5C 433.881,249.314 429.214,249.647 424.5,249.5C 424.5,253.5 424.5,257.5 424.5,261.5C 415.5,261.5 406.5,261.5 397.5,261.5C 397.5,263.833 397.5,266.167 397.5,268.5C 393.167,268.5 388.833,268.5 384.5,268.5C 384.5,270.5 384.5,272.5 384.5,274.5C 399.833,274.5 415.167,274.5 430.5,274.5C 430.5,276.167 430.5,277.833 430.5,279.5C 427.193,280.051 423.86,280.384 420.5,280.5C 420.5,282.5 420.5,284.5 420.5,286.5C 421.833,286.5 423.167,286.5 424.5,286.5C 424.5,287.833 424.5,289.167 424.5,290.5C 422.801,290.34 421.134,290.506 419.5,291C 423.932,291.623 424.265,292.623 420.5,294C 423.482,294.498 426.482,294.665 429.5,294.5C 418.579,295.943 407.579,297.776 396.5,300C 376.93,306.41 362.93,318.91 354.5,337.5C 354.649,336.448 354.483,335.448 354,334.5C 346.577,335.685 339.077,336.185 331.5,336C 333.623,335.185 335.623,334.185 337.5,333C 336.5,332.667 335.5,332.333 334.5,332C 337.224,331.73 339.891,331.23 342.5,330.5C 343.495,324.872 343.829,319.206 343.5,313.5C 330.5,313.5 317.5,313.5 304.5,313.5C 304.5,304.5 304.5,295.5 304.5,286.5C 302.167,286.5 299.833,286.5 297.5,286.5C 297.5,282.5 297.5,278.5 297.5,274.5C 298.5,274.5 299.5,274.5 300.5,274.5C 300.5,273.5 300.5,272.5 300.5,271.5C 301.833,271.5 303.167,271.5 304.5,271.5C 304.5,270.5 304.5,269.5 304.5,268.5C 306.833,268.5 309.167,268.5 311.5,268.5C 311.5,266.167 311.5,263.833 311.5,261.5C 308.751,261.274 306.084,261.607 303.5,262.5C 300.078,259.724 300.078,257.224 303.5,255C 302.906,254.536 302.239,254.369 301.5,254.5C 395.245,219.705 491.245,212.205 589.5,232C 623.302,239.033 656.302,248.699 688.5,261C 702.422,267.446 715.089,275.613 726.5,285.5 Z"/></g>
<g><path style="opacity:1" fill="#8b8e89" d="M 168.5,251.5 C 168.155,254.198 166.822,256.198 164.5,257.5C 165.34,255.147 166.674,253.147 168.5,251.5 Z"/></g>
<g><path style="opacity:1" fill="#0c1214" d="M 301.5,254.5 C 302.239,254.369 302.906,254.536 303.5,255C 300.078,257.224 300.078,259.724 303.5,262.5C 306.084,261.607 308.751,261.274 311.5,261.5C 311.5,263.833 311.5,266.167 311.5,268.5C 309.167,268.5 306.833,268.5 304.5,268.5C 304.5,269.5 304.5,270.5 304.5,271.5C 303.167,271.5 301.833,271.5 300.5,271.5C 300.5,272.5 300.5,273.5 300.5,274.5C 299.5,274.5 298.5,274.5 297.5,274.5C 297.5,278.5 297.5,282.5 297.5,286.5C 299.833,286.5 302.167,286.5 304.5,286.5C 304.5,295.5 304.5,304.5 304.5,313.5C 317.5,313.5 330.5,313.5 343.5,313.5C 343.829,319.206 343.495,324.872 342.5,330.5C 339.891,331.23 337.224,331.73 334.5,332C 335.5,332.333 336.5,332.667 337.5,333C 335.623,334.185 333.623,335.185 331.5,336C 339.077,336.185 346.577,335.685 354,334.5C 354.483,335.448 354.649,336.448 354.5,337.5C 341.425,338.725 328.425,340.558 315.5,343C 277.989,352.202 240.322,360.702 202.5,368.5C 201.914,368.291 201.414,367.957 201,367.5C 203.467,341.765 213.134,319.098 230,299.5C 249.601,277.725 273.434,262.725 301.5,254.5 Z"/></g>
<g><path style="opacity:1" fill="#929690" d="M 149.5,280.5 C 149.245,282.967 148.245,284.967 146.5,286.5C 146.755,284.033 147.755,282.033 149.5,280.5 Z"/></g>
<g><path style="opacity:1" fill="#515559" d="M 492.5,292.5 C 478.817,292.355 465.15,292.688 451.5,293.5C 452.952,292.698 454.618,292.198 456.5,292C 468.674,291.174 480.674,291.34 492.5,292.5 Z"/></g>
<g><path style="opacity:1" fill="#b8bcb7" d="M 146.5,286.5 C 145.639,290.026 144.306,293.359 142.5,296.5C 142.043,297.298 141.376,297.631 140.5,297.5C 141.756,293.313 143.756,289.646 146.5,286.5 Z"/></g>
<g><path style="opacity:1" fill="#9da29f" d="M 140.5,297.5 C 139.548,302.07 137.548,306.07 134.5,309.5C 135.939,305.158 137.939,301.158 140.5,297.5 Z"/></g>
<g><path style="opacity:1" fill="#858989" d="M 134.5,309.5 C 131.919,317.646 128.585,325.313 124.5,332.5C 126.482,324.208 129.815,316.541 134.5,309.5 Z"/></g>
<g><path style="opacity:1" fill="#747a79" d="M 124.5,332.5 C 122.787,337.837 120.953,343.17 119,348.5C 118.617,349.056 118.117,349.389 117.5,349.5C 118.897,343.274 121.23,337.607 124.5,332.5 Z"/></g>
<g><path style="opacity:1" fill="#808788" d="M 117.5,350.5 C 117.741,352.898 117.074,354.898 115.5,356.5C 115.259,354.102 115.926,352.102 117.5,350.5 Z"/></g>
<g><path style="opacity:1" fill="#0d1114" d="M 347.5,362.5 C 350.167,362.5 352.833,362.5 355.5,362.5C 361.085,386.403 352.419,401.903 329.5,409C 311.599,413.225 293.932,418.225 276.5,424C 262.565,427.487 248.565,430.653 234.5,433.5C 219.285,431.128 209.452,422.462 205,407.5C 204.67,404.511 203.836,401.678 202.5,399C 202.645,398.228 202.978,397.561 203.5,397C 251.528,385.159 299.528,373.659 347.5,362.5 Z"/></g>
<g><path style="opacity:1" fill="#393a3c" d="M 620.5,362.5 C 621.44,370.779 621.773,379.112 621.5,387.5C 620.579,381.177 619.913,374.677 619.5,368C 619.506,365.967 619.839,364.134 620.5,362.5 Z"/></g>
<g><path style="opacity:1" fill="#0b1014" d="M 621.5,387.5 C 621.773,379.112 621.44,370.779 620.5,362.5C 621.097,361.861 621.93,361.528 623,361.5C 671.771,373.054 720.604,384.22 769.5,395C 770.304,412.716 762.637,425.383 746.5,433C 742.167,433.667 737.833,433.667 733.5,433C 705.868,425.842 678.202,418.842 650.5,412C 642.761,409.426 635.428,406.093 628.5,402C 624.144,398.122 621.811,393.289 621.5,387.5 Z"/></g>
<g><path style="opacity:1" fill="#959899" d="M 110.5,375.5 C 110.741,377.898 110.074,379.898 108.5,381.5C 108.259,379.102 108.926,377.102 110.5,375.5 Z"/></g>
<g><path style="opacity:1" fill="#0e1317" d="M 668.5,536.5 C 667.883,536.389 667.383,536.056 667,535.5C 666.667,550.5 666.333,565.5 666,580.5C 663.609,571.133 663.443,561.633 665.5,552C 665.259,550.016 664.592,548.183 663.5,546.5C 664.757,543.177 664.757,539.844 663.5,536.5C 662.833,536.167 662.167,535.833 661.5,535.5C 660.501,546.146 660.168,556.813 660.5,567.5C 657.5,567.5 654.5,567.5 651.5,567.5C 651.5,569.833 651.5,572.167 651.5,574.5C 646.833,574.5 642.167,574.5 637.5,574.5C 637.5,576.167 637.5,577.833 637.5,579.5C 635.167,579.5 632.833,579.5 630.5,579.5C 630.5,588.167 630.5,596.833 630.5,605.5C 628.5,605.5 626.5,605.5 624.5,605.5C 624.5,607.833 624.5,610.167 624.5,612.5C 613.167,612.5 601.833,612.5 590.5,612.5C 590.5,611.167 590.5,609.833 590.5,608.5C 592.604,608.799 594.604,608.466 596.5,607.5C 596.038,605.709 594.871,604.709 593,604.5C 591.203,605.266 589.369,605.932 587.5,606.5C 581.866,605.645 576.199,605.312 570.5,605.5C 570.5,607.833 570.5,610.167 570.5,612.5C 564.471,612.425 558.471,612.759 552.5,613.5C 552.5,614.833 552.5,616.167 552.5,617.5C 554.167,617.5 555.833,617.5 557.5,617.5C 557.5,621.833 557.5,626.167 557.5,630.5C 555.5,630.5 553.5,630.5 551.5,630.5C 551.5,632.833 551.5,635.167 551.5,637.5C 542.5,637.5 533.5,637.5 524.5,637.5C 524.448,633.802 524.114,630.135 523.5,626.5C 521.116,626.557 518.782,626.223 516.5,625.5C 514.399,625.632 512.899,626.632 512,628.5C 511.667,628.167 511.333,627.833 511,627.5C 509.43,628.358 507.763,629.025 506,629.5C 500.012,626.887 494.012,626.887 488,629.5C 484.875,628.744 481.709,628.411 478.5,628.5C 478.286,626.856 478.62,625.356 479.5,624C 489.19,623.648 498.856,622.981 508.5,622C 510.952,621.71 513.285,621.044 515.5,620C 512.151,619.612 508.817,619.779 505.5,620.5C 509.873,619.248 514.207,617.914 518.5,616.5C 535.453,610.853 550.453,601.853 563.5,589.5C 565.587,588.415 566.92,586.749 567.5,584.5C 570.818,578.545 574.651,572.878 579,567.5C 580.144,564.92 580.978,562.253 581.5,559.5C 585.155,554.183 586.822,548.183 586.5,541.5C 586.5,539.5 586.5,537.5 586.5,535.5C 587.656,528.011 587.822,520.345 587,512.5C 586.796,509.203 585.963,506.203 584.5,503.5C 583.361,500.996 582.694,498.33 582.5,495.5C 580.551,488.934 577.551,482.934 573.5,477.5C 567.821,467.98 560.488,459.814 551.5,453C 539.861,445.681 527.528,439.681 514.5,435C 511.243,433.957 507.91,433.457 504.5,433.5C 503.737,432.732 502.737,432.232 501.5,432C 491.167,431.333 480.833,431.333 470.5,432C 469.944,432.383 469.611,432.883 469.5,433.5C 468.167,433.5 466.833,433.5 465.5,433.5C 457.631,434.229 450.631,436.895 444.5,441.5C 442.181,441.992 440.181,442.992 438.5,444.5C 435.802,444.845 433.802,446.178 432.5,448.5C 416.429,457.897 405.096,471.23 398.5,488.5C 397.883,488.611 397.383,488.944 397,489.5C 396.261,492.546 395.428,495.546 394.5,498.5C 393.5,502.503 392.5,506.503 391.5,510.5C 390.089,516.441 389.423,522.608 389.5,529C 389.326,534.421 389.993,539.587 391.5,544.5C 392.349,548.101 393.016,551.768 393.5,555.5C 394.798,559.088 396.464,562.421 398.5,565.5C 405.986,579.51 415.986,591.676 428.5,602C 431.727,604.112 435.06,605.945 438.5,607.5C 438.5,607.833 438.5,608.167 438.5,608.5C 433.897,609.244 432.731,611.577 435,615.5C 436.666,614.66 436.833,615.16 435.5,617C 437.291,619.106 437.958,621.606 437.5,624.5C 433.133,624.013 428.799,623.347 424.5,622.5C 424.5,620.833 424.5,619.167 424.5,617.5C 422.167,617.5 419.833,617.5 417.5,617.5C 417.5,619.833 417.5,622.167 417.5,624.5C 390.833,624.5 364.167,624.5 337.5,624.5C 337.5,622.5 337.5,620.5 337.5,618.5C 333.158,618.261 328.824,617.927 324.5,617.5C 324.168,604.816 324.501,592.149 325.5,579.5C 327.071,580.309 328.738,580.643 330.5,580.5C 330.5,571.833 330.5,563.167 330.5,554.5C 326.5,554.5 322.5,554.5 318.5,554.5C 318.466,564.845 318.133,575.179 317.5,585.5C 316.167,585.5 314.833,585.5 313.5,585.5C 312.326,571.175 312.326,556.842 313.5,542.5C 315.144,542.714 316.644,542.38 318,541.5C 318.175,538.843 318.008,536.176 317.5,533.5C 316.167,533.5 314.833,533.5 313.5,533.5C 313.5,532.167 313.5,530.833 313.5,529.5C 315.849,529.542 317.182,528.375 317.5,526C 316.167,524.333 314.833,522.667 313.5,521C 314.079,519.086 315.079,517.419 316.5,516C 316.167,515.5 315.833,515 315.5,514.5C 314.52,515.981 313.353,517.315 312,518.5C 311.833,518.167 311.667,517.833 311.5,517.5C 313.788,512.594 315.788,507.594 317.5,502.5C 320.987,503.522 322.32,505.855 321.5,509.5C 322.5,509.5 323.5,509.5 324.5,509.5C 324.5,507.833 324.5,506.167 324.5,504.5C 325.833,504.5 327.167,504.5 328.5,504.5C 329.876,501.342 330.542,498.009 330.5,494.5C 325.328,495.435 323.161,493.435 324,488.5C 325.892,486.946 327.392,485.112 328.5,483C 328.164,481.97 327.497,481.47 326.5,481.5C 332.216,473.276 338.883,465.776 346.5,459C 358.829,450.5 371.496,442.5 384.5,435C 388.897,431.391 392.73,427.224 396,422.5C 397.536,401.899 398.536,381.232 399,360.5C 405.33,347.25 415.83,341.75 430.5,344C 437.725,346.193 443.892,350.026 449,355.5C 450.743,358.957 451.743,362.623 452,366.5C 452.183,374.745 452.683,382.912 453.5,391C 477.174,391.833 500.84,391.666 524.5,390.5C 524.888,380.212 525.055,369.879 525,359.5C 531.113,347.361 540.947,342.527 554.5,345C 564.305,347.474 571.805,352.974 577,361.5C 577.955,365.777 578.455,370.111 578.5,374.5C 577.09,389.144 576.59,403.811 577,418.5C 579.18,427.349 584.347,433.849 592.5,438C 612.059,447.198 629.225,459.698 644,475.5C 656.577,493.998 664.744,514.331 668.5,536.5 Z"/></g>
<g><path style="opacity:1" fill="#aeb0b3" d="M 107.5,386.5 C 107.237,391.124 106.237,395.458 104.5,399.5C 104.952,395.837 105.452,392.17 106,388.5C 106.278,387.584 106.778,386.918 107.5,386.5 Z"/></g>
<g><path style="opacity:1" fill="#8f9897" d="M 102.5,407.5 C 101.721,415.18 100.721,422.847 99.5,430.5C 99.1667,430.5 98.8333,430.5 98.5,430.5C 99.072,422.58 100.405,414.914 102.5,407.5 Z"/></g>
<g><path style="opacity:1" fill="#798282" d="M 504.5,433.5 C 492.833,432.167 481.167,432.167 469.5,433.5C 469.611,432.883 469.944,432.383 470.5,432C 480.833,431.333 491.167,431.333 501.5,432C 502.737,432.232 503.737,432.732 504.5,433.5 Z"/></g>
<g><path style="opacity:1" fill="#f5f6f6" d="M 504.5,433.5 C 507.91,433.457 511.243,433.957 514.5,435C 527.528,439.681 539.861,445.681 551.5,453C 560.488,459.814 567.821,467.98 573.5,477.5C 573.5,477.833 573.5,478.167 573.5,478.5C 570.708,478.548 568.875,477.215 568,474.5C 565.741,476.851 564.241,476.185 563.5,472.5C 562.675,471.614 561.675,471.281 560.5,471.5C 560.662,469.473 560.495,467.473 560,465.5C 557.943,464.315 555.943,463.315 554,462.5C 554.152,465.447 554.319,468.447 554.5,471.5C 555.5,471.5 556.5,471.5 557.5,471.5C 557.5,473.833 557.5,476.167 557.5,478.5C 556.5,478.5 555.5,478.5 554.5,478.5C 554.5,479.5 554.5,480.5 554.5,481.5C 553.5,481.5 552.5,481.5 551.5,481.5C 551.714,483.144 551.38,484.644 550.5,486C 552.694,488.695 554.694,491.528 556.5,494.5C 557.325,495.386 558.325,495.719 559.5,495.5C 557.849,499.218 558.182,502.718 560.5,506C 561.793,506.49 563.127,506.657 564.5,506.5C 563.793,511.635 563.46,516.801 563.5,522C 564.538,528.468 565.204,534.968 565.5,541.5C 566.5,541.5 567.5,541.5 568.5,541.5C 567.092,545.686 566.425,550.019 566.5,554.5C 565.5,554.5 564.5,554.5 563.5,554.5C 563.5,556.5 563.5,558.5 563.5,560.5C 562.5,560.5 561.5,560.5 560.5,560.5C 561.082,553.877 559.416,553.043 555.5,558C 556.5,558.333 557.5,558.667 558.5,559C 555.584,560.795 552.584,562.295 549.5,563.5C 550.758,561.313 551.758,558.98 552.5,556.5C 553.117,553.645 554.117,550.978 555.5,548.5C 556.804,544.933 557.971,541.266 559,537.5C 559.667,529.167 559.667,520.833 559,512.5C 558.768,511.263 558.268,510.263 557.5,509.5C 557.371,507.784 557.038,506.117 556.5,504.5C 555.61,500.393 553.943,496.726 551.5,493.5C 551.288,491.616 550.288,490.283 548.5,489.5C 545.415,492.756 541.915,495.423 538,497.5C 533.488,498.798 528.988,498.798 524.5,497.5C 523.211,496.363 522.211,495.03 521.5,493.5C 519.748,489.773 519.081,485.773 519.5,481.5C 522.545,477.801 526.212,474.801 530.5,472.5C 527.134,467.591 522.467,464.924 516.5,464.5C 511.854,462.081 506.854,460.414 501.5,459.5C 497.681,458.834 493.681,458.501 489.5,458.5C 484.065,458.729 478.732,459.395 473.5,460.5C 470.273,460.676 467.273,461.343 464.5,462.5C 461.098,463.635 457.765,464.968 454.5,466.5C 447.987,467.423 442.654,470.423 438.5,475.5C 436.771,476.117 435.271,477.117 434,478.5C 431.193,483.776 428.693,489.109 426.5,494.5C 424.399,497.248 422.566,500.248 421,503.5C 420.51,504.793 420.343,506.127 420.5,507.5C 420.5,508.167 420.167,508.5 419.5,508.5C 418.343,511.273 417.676,514.273 417.5,517.5C 416.345,524.655 416.178,531.988 417,539.5C 418.531,545.207 420.031,550.873 421.5,556.5C 424.285,557.084 425.952,556.084 426.5,553.5C 427.922,552.075 429.589,551.075 431.5,550.5C 436.463,549.746 441.463,549.413 446.5,549.5C 455.488,552.599 457.988,558.599 454,567.5C 451.679,570.314 448.846,572.314 445.5,573.5C 443.08,573.292 440.747,573.626 438.5,574.5C 437.224,575.614 437.224,576.614 438.5,577.5C 444.738,583.286 452.072,586.953 460.5,588.5C 461.568,589.434 462.901,589.768 464.5,589.5C 468.159,591.342 472.159,592.342 476.5,592.5C 477.5,592.5 478.5,592.5 479.5,592.5C 487.65,593.493 495.983,593.826 504.5,593.5C 507.176,592.992 509.843,592.825 512.5,593C 504.307,595.365 495.974,596.865 487.5,597.5C 479.33,595.748 471.164,594.082 463,592.5C 460.267,595.343 459.767,598.677 461.5,602.5C 461.514,604.593 460.848,606.426 459.5,608C 463.076,609.016 466.409,610.516 469.5,612.5C 472.115,611.731 474.781,611.397 477.5,611.5C 477.5,613.167 477.5,614.833 477.5,616.5C 488.554,617.724 499.554,617.224 510.5,615C 512.594,611.418 515.594,610.585 519.5,612.5C 522.07,611.366 524.736,610.532 527.5,610C 526.833,609.333 526.167,608.667 525.5,608C 530.304,607.527 532.638,604.861 532.5,600C 536.551,599.529 540.384,598.363 544,596.5C 545.107,596.585 546.107,596.919 547,597.5C 550.216,595.807 553.383,593.973 556.5,592C 557.893,590.829 558.727,589.329 559,587.5C 560.205,586.929 561.372,586.262 562.5,585.5C 568.688,577.716 573.855,569.383 578,560.5C 578.099,557.26 577.599,554.094 576.5,551C 578.201,548.449 579.867,545.949 581.5,543.5C 580.508,540.594 580.841,537.761 582.5,535C 583.727,526.499 583.727,517.999 582.5,509.5C 580.775,506.072 579.608,502.405 579,498.5C 578.346,499.696 577.846,499.696 577.5,498.5C 578.417,495.242 578.751,491.909 578.5,488.5C 579.461,491.055 580.794,493.388 582.5,495.5C 582.694,498.33 583.361,500.996 584.5,503.5C 586.147,514.092 586.814,524.759 586.5,535.5C 586.5,537.5 586.5,539.5 586.5,541.5C 584.84,547.384 583.174,553.384 581.5,559.5C 580.978,562.253 580.144,564.92 579,567.5C 574.651,572.878 570.818,578.545 567.5,584.5C 565.413,585.585 564.08,587.251 563.5,589.5C 550.453,601.853 535.453,610.853 518.5,616.5C 502.293,619.614 485.959,620.281 469.5,618.5C 468.833,618.5 468.167,618.5 467.5,618.5C 465.898,616.926 463.898,616.259 461.5,616.5C 458.183,615.512 454.849,614.512 451.5,613.5C 447.824,610.372 443.491,608.372 438.5,607.5C 435.06,605.945 431.727,604.112 428.5,602C 415.986,591.676 405.986,579.51 398.5,565.5C 397.958,561.502 396.291,558.168 393.5,555.5C 393.016,551.768 392.349,548.101 391.5,544.5C 391.5,533.167 391.5,521.833 391.5,510.5C 392.5,506.503 393.5,502.503 394.5,498.5C 396.729,495.646 398.062,492.313 398.5,488.5C 405.096,471.23 416.429,457.897 432.5,448.5C 434.853,447.66 436.853,446.326 438.5,444.5C 440.181,442.992 442.181,441.992 444.5,441.5C 451.381,438.561 458.381,435.895 465.5,433.5C 466.833,433.5 468.167,433.5 469.5,433.5C 481.167,432.167 492.833,432.167 504.5,433.5 Z"/></g>
<g><path style="opacity:1" fill="#878f8e" d="M 465.5,433.5 C 458.381,435.895 451.381,438.561 444.5,441.5C 450.631,436.895 457.631,434.229 465.5,433.5 Z"/></g>
<g><path style="opacity:1" fill="#888b8d" d="M 438.5,444.5 C 436.853,446.326 434.853,447.66 432.5,448.5C 433.802,446.178 435.802,444.845 438.5,444.5 Z"/></g>
<g><path style="opacity:1" fill="#909897" d="M 473.5,460.5 C 470.877,462.265 467.877,462.932 464.5,462.5C 467.273,461.343 470.273,460.676 473.5,460.5 Z"/></g>
<g><path style="opacity:1" fill="#3c494f" d="M 501.5,459.5 C 506.854,460.414 511.854,462.081 516.5,464.5C 510.845,464.393 505.845,462.726 501.5,459.5 Z"/></g>
<g><path style="opacity:1" fill="#d4e0da" d="M 98.5,430.5 C 98.8333,430.5 99.1667,430.5 99.5,430.5C 97.9116,464.858 98.2449,499.191 100.5,533.5C 98.7396,528.447 98.073,523.114 98.5,517.5C 97.5798,492.515 97.2465,467.515 97.5,442.5C 98.2721,438.548 98.6054,434.548 98.5,430.5 Z"/></g>
<g><path style="opacity:1" fill="#3d403e" d="M 454.5,466.5 C 450.805,468.442 447.472,470.942 444.5,474C 446.382,474.198 448.048,474.698 449.5,475.5C 446.098,475.342 442.764,475.676 439.5,476.5C 438.833,476.5 438.5,476.167 438.5,475.5C 442.654,470.423 447.987,467.423 454.5,466.5 Z"/></g>
<g><path style="opacity:1" fill="#111418" d="M 501.5,459.5 C 505.845,462.726 510.845,464.393 516.5,464.5C 522.467,464.924 527.134,467.591 530.5,472.5C 526.212,474.801 522.545,477.801 519.5,481.5C 518.359,484.64 518.192,487.973 519,491.5C 519.708,492.381 520.542,493.047 521.5,493.5C 522.211,495.03 523.211,496.363 524.5,497.5C 524.611,498.117 524.944,498.617 525.5,499C 529.833,499.667 534.167,499.667 538.5,499C 542.278,496.888 545.778,494.388 549,491.5C 549.708,492.381 550.542,493.047 551.5,493.5C 553.943,496.726 555.61,500.393 556.5,504.5C 553.234,500.019 551.734,500.685 552,506.5C 551.092,508.439 549.592,509.439 547.5,509.5C 547.5,510.833 547.5,512.167 547.5,513.5C 545.5,513.5 543.5,513.5 541.5,513.5C 541.5,514.5 541.5,515.5 541.5,516.5C 540.167,516.5 538.833,516.5 537.5,516.5C 537.5,522.833 537.5,529.167 537.5,535.5C 535.167,535.5 532.833,535.5 530.5,535.5C 529.833,531.5 529.167,531.5 528.5,535.5C 525.833,535.5 523.167,535.5 520.5,535.5C 520.5,537.5 520.5,539.5 520.5,541.5C 519.5,541.5 518.5,541.5 517.5,541.5C 517.5,542.833 517.5,544.167 517.5,545.5C 516.022,545.238 514.689,545.571 513.5,546.5C 514.393,549.084 514.726,551.751 514.5,554.5C 512.167,554.5 509.833,554.5 507.5,554.5C 508.026,549.588 507.359,544.922 505.5,540.5C 508.503,539.392 509.003,537.725 507,535.5C 505.734,539.562 503.568,540.228 500.5,537.5C 502.193,535.973 504.027,534.64 506,533.5C 506.667,532.833 506.667,532.167 506,531.5C 504.259,532.758 502.426,533.758 500.5,534.5C 501.5,532.833 502.833,531.5 504.5,530.5C 505.79,529.942 506.623,528.942 507,527.5C 507.667,522.5 507.667,517.5 507,512.5C 506.004,510.34 504.504,508.673 502.5,507.5C 500.853,505.674 498.853,504.34 496.5,503.5C 496.389,502.883 496.056,502.383 495.5,502C 493.667,501.833 491.833,501.667 490,501.5C 487.134,501.3 484.634,501.967 482.5,503.5C 478.167,505.167 475.167,508.167 473.5,512.5C 472.517,516.298 472.183,520.298 472.5,524.5C 471.676,520.688 471.176,516.688 471,512.5C 470.667,512.167 470.333,511.833 470,511.5C 469.751,512.624 469.251,513.624 468.5,514.5C 467.264,513.754 465.93,513.421 464.5,513.5C 464.5,512.167 464.5,510.833 464.5,509.5C 455.5,509.5 446.5,509.5 437.5,509.5C 437.657,508.127 437.49,506.793 437,505.5C 435.294,506.308 434.461,507.641 434.5,509.5C 432.833,509.5 431.167,509.5 429.5,509.5C 428.617,511.91 427.45,514.243 426,516.5C 425.333,515.833 424.667,515.167 424,514.5C 423.667,516.5 423.333,518.5 423,520.5C 422.854,515.157 422.854,509.824 423,504.5C 422.148,505.571 421.315,506.571 420.5,507.5C 420.343,506.127 420.51,504.793 421,503.5C 422.566,500.248 424.399,497.248 426.5,494.5C 427.451,492.882 428.784,491.549 430.5,490.5C 432.264,492.278 434.264,493.611 436.5,494.5C 436.611,495.117 436.944,495.617 437.5,496C 443.724,497.061 449.724,496.394 455.5,494C 456.822,489.733 456.822,485.566 455.5,481.5C 453.833,479.167 451.833,477.167 449.5,475.5C 448.048,474.698 446.382,474.198 444.5,474C 447.472,470.942 450.805,468.442 454.5,466.5C 457.765,464.968 461.098,463.635 464.5,462.5C 467.877,462.932 470.877,462.265 473.5,460.5C 478.732,459.395 484.065,458.729 489.5,458.5C 493.681,458.501 497.681,458.834 501.5,459.5 Z"/></g>
<g><path style="opacity:1" fill="#949797" d="M 573.5,477.5 C 577.551,482.934 580.551,488.934 582.5,495.5C 580.794,493.388 579.461,491.055 578.5,488.5C 576.458,485.388 574.792,482.055 573.5,478.5C 573.5,478.167 573.5,477.833 573.5,477.5 Z"/></g>
<g><path style="opacity:1" fill="#9b9794" d="M 438.5,475.5 C 438.5,476.167 438.833,476.5 439.5,476.5C 436.403,479.763 434.403,483.596 433.5,488C 433.527,491.517 435.193,493.684 438.5,494.5C 437.833,494.5 437.167,494.5 436.5,494.5C 434.264,493.611 432.264,492.278 430.5,490.5C 428.784,491.549 427.451,492.882 426.5,494.5C 428.693,489.109 431.193,483.776 434,478.5C 435.271,477.117 436.771,476.117 438.5,475.5 Z"/></g>
<g><path style="opacity:1" fill="#cecac9" d="M 449.5,475.5 C 451.833,477.167 453.833,479.167 455.5,481.5C 457.137,487.889 455.137,492.389 449.5,495C 445.642,495.81 441.976,495.643 438.5,494.5C 435.193,493.684 433.527,491.517 433.5,488C 434.403,483.596 436.403,479.763 439.5,476.5C 442.764,475.676 446.098,475.342 449.5,475.5 Z"/></g>
<g><path style="opacity:1" fill="#646668" d="M 519.5,481.5 C 519.081,485.773 519.748,489.773 521.5,493.5C 520.542,493.047 519.708,492.381 519,491.5C 518.192,487.973 518.359,484.64 519.5,481.5 Z"/></g>
<g><path style="opacity:1" fill="#f9faf6" d="M 573.5,478.5 C 574.792,482.055 576.458,485.388 578.5,488.5C 578.751,491.909 578.417,495.242 577.5,498.5C 577.846,499.696 578.346,499.696 579,498.5C 579.608,502.405 580.775,506.072 582.5,509.5C 583.727,517.999 583.727,526.499 582.5,535C 580.841,537.761 580.508,540.594 581.5,543.5C 579.867,545.949 578.201,548.449 576.5,551C 577.599,554.094 578.099,557.26 578,560.5C 573.855,569.383 568.688,577.716 562.5,585.5C 561.372,586.262 560.205,586.929 559,587.5C 558.727,589.329 557.893,590.829 556.5,592C 553.383,593.973 550.216,595.807 547,597.5C 546.107,596.919 545.107,596.585 544,596.5C 540.384,598.363 536.551,599.529 532.5,600C 532.638,604.861 530.304,607.527 525.5,608C 526.167,608.667 526.833,609.333 527.5,610C 524.736,610.532 522.07,611.366 519.5,612.5C 515.594,610.585 512.594,611.418 510.5,615C 499.554,617.224 488.554,617.724 477.5,616.5C 477.5,614.833 477.5,613.167 477.5,611.5C 474.781,611.397 472.115,611.731 469.5,612.5C 466.409,610.516 463.076,609.016 459.5,608C 460.848,606.426 461.514,604.593 461.5,602.5C 459.767,598.677 460.267,595.343 463,592.5C 471.164,594.082 479.33,595.748 487.5,597.5C 495.974,596.865 504.307,595.365 512.5,593C 509.843,592.825 507.176,592.992 504.5,593.5C 505.5,592.833 506.5,592.167 507.5,591.5C 516.482,592.128 524.482,589.795 531.5,584.5C 533.451,585.256 535.284,585.589 537,585.5C 538.487,584.747 538.654,583.914 537.5,583C 541.408,580.968 544.575,578.134 547,574.5C 546.598,570.693 547.431,567.026 549.5,563.5C 552.584,562.295 555.584,560.795 558.5,559C 557.5,558.667 556.5,558.333 555.5,558C 559.416,553.043 561.082,553.877 560.5,560.5C 561.5,560.5 562.5,560.5 563.5,560.5C 563.5,558.5 563.5,556.5 563.5,554.5C 564.5,554.5 565.5,554.5 566.5,554.5C 566.425,550.019 567.092,545.686 568.5,541.5C 567.5,541.5 566.5,541.5 565.5,541.5C 565.204,534.968 564.538,528.468 563.5,522C 563.46,516.801 563.793,511.635 564.5,506.5C 563.127,506.657 561.793,506.49 560.5,506C 558.182,502.718 557.849,499.218 559.5,495.5C 558.325,495.719 557.325,495.386 556.5,494.5C 554.694,491.528 552.694,488.695 550.5,486C 551.38,484.644 551.714,483.144 551.5,481.5C 552.5,481.5 553.5,481.5 554.5,481.5C 554.5,480.5 554.5,479.5 554.5,478.5C 555.5,478.5 556.5,478.5 557.5,478.5C 557.5,476.167 557.5,473.833 557.5,471.5C 556.5,471.5 555.5,471.5 554.5,471.5C 554.319,468.447 554.152,465.447 554,462.5C 555.943,463.315 557.943,464.315 560,465.5C 560.495,467.473 560.662,469.473 560.5,471.5C 561.675,471.281 562.675,471.614 563.5,472.5C 564.241,476.185 565.741,476.851 568,474.5C 568.875,477.215 570.708,478.548 573.5,478.5 Z"/></g>
<g><path style="opacity:1" fill="#6b6e74" d="M 398.5,488.5 C 398.062,492.313 396.729,495.646 394.5,498.5C 395.428,495.546 396.261,492.546 397,489.5C 397.383,488.944 397.883,488.611 398.5,488.5 Z"/></g>
<g><path style="opacity:1" fill="#515052" d="M 455.5,481.5 C 456.822,485.566 456.822,489.733 455.5,494C 449.724,496.394 443.724,497.061 437.5,496C 436.944,495.617 436.611,495.117 436.5,494.5C 437.167,494.5 437.833,494.5 438.5,494.5C 441.976,495.643 445.642,495.81 449.5,495C 455.137,492.389 457.137,487.889 455.5,481.5 Z"/></g>
<g><path style="opacity:1" fill="#3d4344" d="M 551.5,493.5 C 550.542,493.047 549.708,492.381 549,491.5C 545.778,494.388 542.278,496.888 538.5,499C 534.167,499.667 529.833,499.667 525.5,499C 524.944,498.617 524.611,498.117 524.5,497.5C 528.988,498.798 533.488,498.798 538,497.5C 541.915,495.423 545.415,492.756 548.5,489.5C 550.288,490.283 551.288,491.616 551.5,493.5 Z"/></g>
<g><path style="opacity:1" fill="#7a7f80" d="M 496.5,503.5 C 491.858,502.327 487.191,502.327 482.5,503.5C 484.634,501.967 487.134,501.3 490,501.5C 491.833,501.667 493.667,501.833 495.5,502C 496.056,502.383 496.389,502.883 496.5,503.5 Z"/></g>
<g><path style="opacity:1" fill="#f3f5f6" d="M 496.5,503.5 C 498.853,504.34 500.853,505.674 502.5,507.5C 506.966,514.749 507.632,522.416 504.5,530.5C 502.833,531.5 501.5,532.833 500.5,534.5C 494.885,535.573 489.218,535.74 483.5,535C 479.431,533.763 476.431,531.263 474.5,527.5C 473.608,522.562 473.274,517.562 473.5,512.5C 475.167,508.167 478.167,505.167 482.5,503.5C 487.191,502.327 491.858,502.327 496.5,503.5 Z"/></g>
<g><path style="opacity:1" fill="#0c1013" d="M 472.5,524.5 C 472.557,525.609 472.89,526.609 473.5,527.5C 473.539,528.583 473.873,529.583 474.5,530.5C 472.627,529.911 470.96,530.578 469.5,532.5C 470.325,533.386 471.325,533.719 472.5,533.5C 472.5,534.833 472.5,536.167 472.5,537.5C 471.07,537.579 469.736,537.246 468.5,536.5C 467.548,538.045 467.215,539.712 467.5,541.5C 468.5,541.5 469.5,541.5 470.5,541.5C 470.5,545.833 470.5,550.167 470.5,554.5C 475.167,554.5 479.833,554.5 484.5,554.5C 484.5,555.833 484.5,557.167 484.5,558.5C 482.076,558.192 479.743,558.526 477.5,559.5C 478.833,560.167 480.167,560.833 481.5,561.5C 480.965,563.271 480.131,563.604 479,562.5C 478.219,563.944 478.386,565.277 479.5,566.5C 480.086,566.291 480.586,565.957 481,565.5C 480.655,572.265 482.155,578.431 485.5,584C 485.043,584.414 484.709,584.914 484.5,585.5C 487.447,586.321 490.447,586.821 493.5,587C 493.957,587.414 494.291,587.914 494.5,588.5C 483.131,588.825 471.798,588.825 460.5,588.5C 452.072,586.953 444.738,583.286 438.5,577.5C 440.361,575.438 442.695,574.105 445.5,573.5C 448.846,572.314 451.679,570.314 454,567.5C 457.988,558.599 455.488,552.599 446.5,549.5C 442.354,548.353 438.02,548.186 433.5,549C 432.584,549.278 431.918,549.778 431.5,550.5C 429.589,551.075 427.922,552.075 426.5,553.5C 425.312,554.684 424.145,554.684 423,553.5C 421.338,547.188 419.838,540.854 418.5,534.5C 418.464,525.815 418.797,517.149 419.5,508.5C 420.167,508.5 420.5,508.167 420.5,507.5C 421.315,506.571 422.148,505.571 423,504.5C 422.854,509.824 422.854,515.157 423,520.5C 423.333,518.5 423.667,516.5 424,514.5C 424.667,515.167 425.333,515.833 426,516.5C 427.45,514.243 428.617,511.91 429.5,509.5C 431.167,509.5 432.833,509.5 434.5,509.5C 434.461,507.641 435.294,506.308 437,505.5C 437.49,506.793 437.657,508.127 437.5,509.5C 446.5,509.5 455.5,509.5 464.5,509.5C 464.5,510.833 464.5,512.167 464.5,513.5C 465.93,513.421 467.264,513.754 468.5,514.5C 469.251,513.624 469.751,512.624 470,511.5C 470.333,511.833 470.667,512.167 471,512.5C 471.176,516.688 471.676,520.688 472.5,524.5 Z"/></g>
<g><path style="opacity:1" fill="#809087" d="M 97.5,442.5 C 97.2465,467.515 97.5798,492.515 98.5,517.5C 97.6981,516.048 97.1981,514.382 97,512.5C 96.1703,488.996 96.3369,465.663 97.5,442.5 Z"/></g>
<g><path style="opacity:1" fill="#a5adad" d="M 473.5,512.5 C 473.274,517.562 473.608,522.562 474.5,527.5C 474.167,527.5 473.833,527.5 473.5,527.5C 472.89,526.609 472.557,525.609 472.5,524.5C 472.183,520.298 472.517,516.298 473.5,512.5 Z"/></g>
<g><path style="opacity:1" fill="#a7aaab" d="M 502.5,507.5 C 504.504,508.673 506.004,510.34 507,512.5C 507.667,517.5 507.667,522.5 507,527.5C 506.623,528.942 505.79,529.942 504.5,530.5C 507.632,522.416 506.966,514.749 502.5,507.5 Z"/></g>
<g><path style="opacity:1" fill="#4b4b4b" d="M 419.5,508.5 C 418.797,517.149 418.464,525.815 418.5,534.5C 417.511,529.025 417.178,523.358 417.5,517.5C 417.676,514.273 418.343,511.273 419.5,508.5 Z"/></g>
<g><path style="opacity:1" fill="#696e6f" d="M 557.5,509.5 C 558.268,510.263 558.768,511.263 559,512.5C 559.667,520.833 559.667,529.167 559,537.5C 557.971,541.266 556.804,544.933 555.5,548.5C 555.846,543.727 556.679,539.06 558,534.5C 558.705,526.139 558.538,517.806 557.5,509.5 Z"/></g>
<g><path style="opacity:1" fill="#9fa0a4" d="M 584.5,503.5 C 585.963,506.203 586.796,509.203 587,512.5C 587.822,520.345 587.656,528.011 586.5,535.5C 586.814,524.759 586.147,514.092 584.5,503.5 Z"/></g>
<g><path style="opacity:1" fill="#767c80" d="M 391.5,510.5 C 391.5,521.833 391.5,533.167 391.5,544.5C 389.993,539.587 389.326,534.421 389.5,529C 389.423,522.608 390.089,516.441 391.5,510.5 Z"/></g>
<g><path style="opacity:1" fill="#121719" d="M 556.5,504.5 C 557.038,506.117 557.371,507.784 557.5,509.5C 558.538,517.806 558.705,526.139 558,534.5C 556.679,539.06 555.846,543.727 555.5,548.5C 554.117,550.978 553.117,553.645 552.5,556.5C 551.735,556.923 550.902,557.257 550,557.5C 546.6,556.044 543.1,555.044 539.5,554.5C 535.019,553.352 530.352,553.185 525.5,554C 522.572,557.257 521.738,561.091 523,565.5C 524.039,566.71 525.206,567.71 526.5,568.5C 527.306,569.728 528.306,570.728 529.5,571.5C 533.316,572.482 537.316,573.149 541.5,573.5C 541.5,574.5 541.5,575.5 541.5,576.5C 537.521,579.493 533.188,581.993 528.5,584C 521.376,586.357 514.376,588.857 507.5,591.5C 498.199,592.387 488.866,592.721 479.5,592.5C 478.5,592.5 477.5,592.5 476.5,592.5C 472.841,590.658 468.841,589.658 464.5,589.5C 462.901,589.768 461.568,589.434 460.5,588.5C 471.798,588.825 483.131,588.825 494.5,588.5C 494.291,587.914 493.957,587.414 493.5,587C 490.447,586.821 487.447,586.321 484.5,585.5C 484.709,584.914 485.043,584.414 485.5,584C 482.155,578.431 480.655,572.265 481,565.5C 480.586,565.957 480.086,566.291 479.5,566.5C 478.386,565.277 478.219,563.944 479,562.5C 480.131,563.604 480.965,563.271 481.5,561.5C 480.167,560.833 478.833,560.167 477.5,559.5C 479.743,558.526 482.076,558.192 484.5,558.5C 484.5,557.167 484.5,555.833 484.5,554.5C 479.833,554.5 475.167,554.5 470.5,554.5C 470.5,550.167 470.5,545.833 470.5,541.5C 469.5,541.5 468.5,541.5 467.5,541.5C 467.215,539.712 467.548,538.045 468.5,536.5C 469.736,537.246 471.07,537.579 472.5,537.5C 472.5,536.167 472.5,534.833 472.5,533.5C 471.325,533.719 470.325,533.386 469.5,532.5C 470.96,530.578 472.627,529.911 474.5,530.5C 473.873,529.583 473.539,528.583 473.5,527.5C 473.833,527.5 474.167,527.5 474.5,527.5C 476.431,531.263 479.431,533.763 483.5,535C 489.218,535.74 494.885,535.573 500.5,534.5C 502.426,533.758 504.259,532.758 506,531.5C 506.667,532.167 506.667,532.833 506,533.5C 504.027,534.64 502.193,535.973 500.5,537.5C 503.568,540.228 505.734,539.562 507,535.5C 509.003,537.725 508.503,539.392 505.5,540.5C 507.359,544.922 508.026,549.588 507.5,554.5C 509.833,554.5 512.167,554.5 514.5,554.5C 514.726,551.751 514.393,549.084 513.5,546.5C 514.689,545.571 516.022,545.238 517.5,545.5C 517.5,544.167 517.5,542.833 517.5,541.5C 518.5,541.5 519.5,541.5 520.5,541.5C 520.5,539.5 520.5,537.5 520.5,535.5C 523.167,535.5 525.833,535.5 528.5,535.5C 529.167,531.5 529.833,531.5 530.5,535.5C 532.833,535.5 535.167,535.5 537.5,535.5C 537.5,529.167 537.5,522.833 537.5,516.5C 538.833,516.5 540.167,516.5 541.5,516.5C 541.5,515.5 541.5,514.5 541.5,513.5C 543.5,513.5 545.5,513.5 547.5,513.5C 547.5,512.167 547.5,510.833 547.5,509.5C 549.592,509.439 551.092,508.439 552,506.5C 551.734,500.685 553.234,500.019 556.5,504.5 Z"/></g>
<g><path style="opacity:1" fill="#b5b7b6" d="M 417.5,517.5 C 417.178,523.358 417.511,529.025 418.5,534.5C 419.838,540.854 421.338,547.188 423,553.5C 424.145,554.684 425.312,554.684 426.5,553.5C 425.952,556.084 424.285,557.084 421.5,556.5C 420.031,550.873 418.531,545.207 417,539.5C 416.178,531.988 416.345,524.655 417.5,517.5 Z"/></g>
<g><path style="opacity:1" fill="#22292b" d="M 152.5,273.5 C 152.241,276.272 151.241,278.605 149.5,280.5C 147.755,282.033 146.755,284.033 146.5,286.5C 143.756,289.646 141.756,293.313 140.5,297.5C 137.939,301.158 135.939,305.158 134.5,309.5C 129.815,316.541 126.482,324.208 124.5,332.5C 121.23,337.607 118.897,343.274 117.5,349.5C 117.5,349.833 117.5,350.167 117.5,350.5C 115.926,352.102 115.259,354.102 115.5,356.5C 113.057,362.606 111.39,368.939 110.5,375.5C 108.926,377.102 108.259,379.102 108.5,381.5C 107.699,383.042 107.366,384.708 107.5,386.5C 106.778,386.918 106.278,387.584 106,388.5C 105.452,392.17 104.952,395.837 104.5,399.5C 103.469,401.961 102.802,404.627 102.5,407.5C 100.405,414.914 99.072,422.58 98.5,430.5C 98.6054,434.548 98.2721,438.548 97.5,442.5C 96.3369,465.663 96.1703,488.996 97,512.5C 97.1981,514.382 97.6981,516.048 98.5,517.5C 98.073,523.114 98.7396,528.447 100.5,533.5C 100.425,537.981 101.092,542.314 102.5,546.5C 102.835,551.874 104.168,556.874 106.5,561.5C 106.87,565.233 107.537,568.899 108.5,572.5C 108.12,574.698 108.787,576.365 110.5,577.5C 112.212,583.39 113.545,589.39 114.5,595.5C 112.908,594.398 112.075,595.065 112,597.5C 75.4945,483.885 88.1612,376.219 150,274.5C 150.671,273.748 151.504,273.414 152.5,273.5 Z"/></g>
<g><path style="opacity:1" fill="#a5a8a9" d="M 102.5,546.5 C 104.358,551.255 105.691,556.255 106.5,561.5C 104.168,556.874 102.835,551.874 102.5,546.5 Z"/></g>
<g><path style="opacity:1" fill="#0b1014" d="M 326.5,481.5 C 327.497,481.47 328.164,481.97 328.5,483C 327.392,485.112 325.892,486.946 324,488.5C 323.161,493.435 325.328,495.435 330.5,494.5C 330.542,498.009 329.876,501.342 328.5,504.5C 327.167,504.5 325.833,504.5 324.5,504.5C 324.5,506.167 324.5,507.833 324.5,509.5C 323.5,509.5 322.5,509.5 321.5,509.5C 322.32,505.855 320.987,503.522 317.5,502.5C 315.788,507.594 313.788,512.594 311.5,517.5C 311.667,517.833 311.833,518.167 312,518.5C 313.353,517.315 314.52,515.981 315.5,514.5C 315.833,515 316.167,515.5 316.5,516C 315.079,517.419 314.079,519.086 313.5,521C 314.833,522.667 316.167,524.333 317.5,526C 317.182,528.375 315.849,529.542 313.5,529.5C 313.5,530.833 313.5,532.167 313.5,533.5C 314.833,533.5 316.167,533.5 317.5,533.5C 318.008,536.176 318.175,538.843 318,541.5C 316.644,542.38 315.144,542.714 313.5,542.5C 312.326,556.842 312.326,571.175 313.5,585.5C 314.833,585.5 316.167,585.5 317.5,585.5C 318.133,575.179 318.466,564.845 318.5,554.5C 322.5,554.5 326.5,554.5 330.5,554.5C 330.5,563.167 330.5,571.833 330.5,580.5C 328.738,580.643 327.071,580.309 325.5,579.5C 324.501,592.149 324.168,604.816 324.5,617.5C 328.824,617.927 333.158,618.261 337.5,618.5C 337.5,620.5 337.5,622.5 337.5,624.5C 364.167,624.5 390.833,624.5 417.5,624.5C 417.5,622.167 417.5,619.833 417.5,617.5C 419.833,617.5 422.167,617.5 424.5,617.5C 424.5,619.167 424.5,620.833 424.5,622.5C 428.799,623.347 433.133,624.013 437.5,624.5C 437.958,621.606 437.291,619.106 435.5,617C 436.833,615.16 436.666,614.66 435,615.5C 432.731,611.577 433.897,609.244 438.5,608.5C 442.94,609.979 447.274,611.645 451.5,613.5C 454.849,614.512 458.183,615.512 461.5,616.5C 463.102,618.074 465.102,618.741 467.5,618.5C 468.167,618.5 468.833,618.5 469.5,618.5C 472.488,620.14 475.821,620.974 479.5,621C 488.18,621.536 496.846,621.37 505.5,620.5C 508.817,619.779 512.151,619.612 515.5,620C 513.285,621.044 510.952,621.71 508.5,622C 498.856,622.981 489.19,623.648 479.5,624C 478.62,625.356 478.286,626.856 478.5,628.5C 481.709,628.411 484.875,628.744 488,629.5C 494.012,626.887 500.012,626.887 506,629.5C 507.763,629.025 509.43,628.358 511,627.5C 511.333,627.833 511.667,628.167 512,628.5C 512.899,626.632 514.399,625.632 516.5,625.5C 518.782,626.223 521.116,626.557 523.5,626.5C 524.114,630.135 524.448,633.802 524.5,637.5C 533.5,637.5 542.5,637.5 551.5,637.5C 551.5,635.167 551.5,632.833 551.5,630.5C 553.5,630.5 555.5,630.5 557.5,630.5C 557.5,626.167 557.5,621.833 557.5,617.5C 555.833,617.5 554.167,617.5 552.5,617.5C 552.5,616.167 552.5,614.833 552.5,613.5C 558.471,612.759 564.471,612.425 570.5,612.5C 570.5,610.167 570.5,607.833 570.5,605.5C 576.199,605.312 581.866,605.645 587.5,606.5C 589.369,605.932 591.203,605.266 593,604.5C 594.871,604.709 596.038,605.709 596.5,607.5C 594.604,608.466 592.604,608.799 590.5,608.5C 590.5,609.833 590.5,611.167 590.5,612.5C 601.833,612.5 613.167,612.5 624.5,612.5C 624.5,610.167 624.5,607.833 624.5,605.5C 626.5,605.5 628.5,605.5 630.5,605.5C 630.5,596.833 630.5,588.167 630.5,579.5C 632.833,579.5 635.167,579.5 637.5,579.5C 637.5,577.833 637.5,576.167 637.5,574.5C 642.167,574.5 646.833,574.5 651.5,574.5C 651.5,572.167 651.5,569.833 651.5,567.5C 654.5,567.5 657.5,567.5 660.5,567.5C 660.168,556.813 660.501,546.146 661.5,535.5C 662.167,535.833 662.833,536.167 663.5,536.5C 664.757,539.844 664.757,543.177 663.5,546.5C 664.592,548.183 665.259,550.016 665.5,552C 663.443,561.633 663.609,571.133 666,580.5C 666.333,565.5 666.667,550.5 667,535.5C 667.383,536.056 667.883,536.389 668.5,536.5C 668.5,537.833 668.5,539.167 668.5,540.5C 668.281,576.842 668.615,613.175 669.5,649.5C 669.5,653.5 667.5,655.5 663.5,655.5C 652.495,655.333 641.495,655.5 630.5,656C 628.942,656.21 627.609,656.71 626.5,657.5C 521.789,660.833 417.122,660 312.5,655C 307.562,654.728 304.396,652.228 303,647.5C 303.447,638.187 303.947,628.853 304.5,619.5C 305.242,590.325 305.909,560.992 306.5,531.5C 308.766,512.983 315.433,496.316 326.5,481.5 Z"/></g>
<g><path style="opacity:1" fill="#626466" d="M 586.5,541.5 C 586.822,548.183 585.155,554.183 581.5,559.5C 583.174,553.384 584.84,547.384 586.5,541.5 Z"/></g>
<g><path style="opacity:1" fill="#8e9293" d="M 446.5,549.5 C 441.463,549.413 436.463,549.746 431.5,550.5C 431.918,549.778 432.584,549.278 433.5,549C 438.02,548.186 442.354,548.353 446.5,549.5 Z"/></g>
<g><path style="opacity:1" fill="#5d6465" d="M 539.5,554.5 C 535.154,554.334 530.821,554.501 526.5,555C 524.167,556.333 523.167,558.333 523.5,561C 524.298,563.614 525.298,566.114 526.5,568.5C 525.206,567.71 524.039,566.71 523,565.5C 521.738,561.091 522.572,557.257 525.5,554C 530.352,553.185 535.019,553.352 539.5,554.5 Z"/></g>
<g><path style="opacity:1" fill="#cfd4d4" d="M 539.5,554.5 C 543.1,555.044 546.6,556.044 550,557.5C 550.902,557.257 551.735,556.923 552.5,556.5C 551.758,558.98 550.758,561.313 549.5,563.5C 547.431,567.026 546.598,570.693 547,574.5C 544.575,578.134 541.408,580.968 537.5,583C 538.654,583.914 538.487,584.747 537,585.5C 535.284,585.589 533.451,585.256 531.5,584.5C 524.482,589.795 516.482,592.128 507.5,591.5C 514.376,588.857 521.376,586.357 528.5,584C 533.188,581.993 537.521,579.493 541.5,576.5C 543.727,575.599 544.727,573.933 544.5,571.5C 539.5,571.5 534.5,571.5 529.5,571.5C 528.306,570.728 527.306,569.728 526.5,568.5C 525.298,566.114 524.298,563.614 523.5,561C 523.167,558.333 524.167,556.333 526.5,555C 530.821,554.501 535.154,554.334 539.5,554.5 Z"/></g>
<g><path style="opacity:1" fill="#82868a" d="M 393.5,555.5 C 396.291,558.168 397.958,561.502 398.5,565.5C 396.464,562.421 394.798,559.088 393.5,555.5 Z"/></g>
<g><path style="opacity:1" fill="#838a88" d="M 529.5,571.5 C 534.5,571.5 539.5,571.5 544.5,571.5C 544.727,573.933 543.727,575.599 541.5,576.5C 541.5,575.5 541.5,574.5 541.5,573.5C 537.316,573.149 533.316,572.482 529.5,571.5 Z"/></g>
<g><path style="opacity:1" fill="#69706b" d="M 445.5,573.5 C 442.695,574.105 440.361,575.438 438.5,577.5C 437.224,576.614 437.224,575.614 438.5,574.5C 440.747,573.626 443.08,573.292 445.5,573.5 Z"/></g>
<g><path style="opacity:1" fill="#8d9496" d="M 108.5,572.5 C 110.213,573.635 110.88,575.302 110.5,577.5C 108.787,576.365 108.12,574.698 108.5,572.5 Z"/></g>
<g><path style="opacity:1" fill="#455454" d="M 668.5,540.5 C 669.246,573.17 669.912,606.003 670.5,639C 670.499,642.683 670.165,646.183 669.5,649.5C 668.615,613.175 668.281,576.842 668.5,540.5 Z"/></g>
<g><path style="opacity:1" fill="#5d6062" d="M 567.5,584.5 C 566.92,586.749 565.587,588.415 563.5,589.5C 564.08,587.251 565.413,585.585 567.5,584.5 Z"/></g>
<g><path style="opacity:1" fill="#858a8a" d="M 464.5,589.5 C 468.841,589.658 472.841,590.658 476.5,592.5C 472.159,592.342 468.159,591.342 464.5,589.5 Z"/></g>
<g><path style="opacity:1" fill="#424344" d="M 306.5,531.5 C 305.909,560.992 305.242,590.325 304.5,619.5C 304.333,592.498 304.5,565.498 305,538.5C 305.186,535.964 305.686,533.631 306.5,531.5 Z"/></g>
<g><path style="opacity:1" fill="#727574" d="M 507.5,591.5 C 506.5,592.167 505.5,592.833 504.5,593.5C 495.983,593.826 487.65,593.493 479.5,592.5C 488.866,592.721 498.199,592.387 507.5,591.5 Z"/></g>
<g><path style="opacity:1" fill="#83898a" d="M 438.5,608.5 C 438.5,608.167 438.5,607.833 438.5,607.5C 443.491,608.372 447.824,610.372 451.5,613.5C 447.274,611.645 442.94,609.979 438.5,608.5 Z"/></g>
<g><path style="opacity:1" fill="#7c8485" d="M 461.5,616.5 C 463.898,616.259 465.898,616.926 467.5,618.5C 465.102,618.741 463.102,618.074 461.5,616.5 Z"/></g>
<g><path style="opacity:1" fill="#838987" d="M 518.5,616.5 C 514.207,617.914 509.873,619.248 505.5,620.5C 496.846,621.37 488.18,621.536 479.5,621C 475.821,620.974 472.488,620.14 469.5,618.5C 485.959,620.281 502.293,619.614 518.5,616.5 Z"/></g>
<g><path style="opacity:1" fill="#8d9294" d="M 124.5,621.5 C 126.919,625.064 128.586,629.064 129.5,633.5C 127.081,629.936 125.414,625.936 124.5,621.5 Z"/></g>
<g><path style="opacity:1" fill="#293031" d="M 114.5,595.5 C 118.018,604.046 121.351,612.713 124.5,621.5C 125.414,625.936 127.081,629.936 129.5,633.5C 130.083,636.947 131.416,639.947 133.5,642.5C 136.122,646.748 138.455,651.081 140.5,655.5C 140.5,656.167 140.5,656.833 140.5,657.5C 139.504,657.586 138.671,657.252 138,656.5C 129.066,641.125 121.566,624.958 115.5,608C 115.911,606.856 116.244,605.689 116.5,604.5C 115.414,601.58 114.748,598.58 114.5,595.5 Z"/></g>
<g><path style="opacity:1" fill="#8c9192" d="M 129.5,633.5 C 130.931,634.903 132.098,636.569 133,638.5C 133.49,639.793 133.657,641.127 133.5,642.5C 131.416,639.947 130.083,636.947 129.5,633.5 Z"/></g>
<g><path style="opacity:1" fill="#373a3c" d="M 663.5,655.5 C 651.336,656.445 639.003,657.111 626.5,657.5C 627.609,656.71 628.942,656.21 630.5,656C 641.495,655.5 652.495,655.333 663.5,655.5 Z"/></g>
<g><path style="opacity:1" fill="#737a7c" d="M 140.5,655.5 C 142.536,658.579 144.202,661.912 145.5,665.5C 143.103,663.338 141.436,660.671 140.5,657.5C 140.5,656.833 140.5,656.167 140.5,655.5 Z"/></g>
<g><path style="opacity:1" fill="#0b0f13" d="M 393.5,679.5 C 393.5,685.833 393.5,692.167 393.5,698.5C 391.757,702.389 388.757,704.889 384.5,706C 364.864,707.561 345.197,707.895 325.5,707C 311.047,702.385 304.714,692.718 306.5,678C 332.818,676.545 359.152,676.211 385.5,677C 388.675,676.947 391.342,677.78 393.5,679.5 Z"/></g>
<g><path style="opacity:1" fill="#0c1014" d="M 585.5,675.5 C 612.514,675.281 639.514,675.781 666.5,677C 670.065,690.866 665.065,700.533 651.5,706C 633.211,707.599 614.878,707.932 596.5,707C 586.719,703.703 582.385,696.869 583.5,686.5C 583.667,683.5 583.833,680.5 584,677.5C 584.717,676.956 585.217,676.289 585.5,675.5 Z"/></g>
<g><path style="opacity:1" fill="#343d3d" d="M 393.5,679.5 C 394.88,682.905 395.546,686.572 395.5,690.5C 395.713,693.527 395.047,696.193 393.5,698.5C 393.5,692.167 393.5,685.833 393.5,679.5 Z"/></g>
<g><path style="opacity:1" fill="#282f30" d="M 150.5,674.5 C 162.319,692.33 175.319,709.33 189.5,725.5C 186.215,725.731 183.715,724.397 182,721.5C 173.235,710.091 164.568,698.757 156,687.5C 154.773,684.269 153.106,681.269 151,678.5C 150.51,677.207 150.343,675.873 150.5,674.5 Z"/></g>
<g><path style="opacity:1" fill="#d0d3d1" d="M 392.5,706.5 C 394.646,706.696 394.812,707.696 393,709.5C 391.457,711.378 389.624,712.878 387.5,714C 377.035,716.23 366.702,715.897 356.5,713C 352.465,712.303 348.465,712.47 344.5,713.5C 341.855,712.892 339.188,712.392 336.5,712C 353.197,711.872 369.864,711.206 386.5,710C 388.727,709.059 390.727,707.892 392.5,706.5 Z"/></g>
<g><path style="opacity:1" fill="#ced0cf" d="M 662.5,704.5 C 663.376,704.369 664.043,704.702 664.5,705.5C 662.167,707.167 660.167,709.167 658.5,711.5C 656.922,712.298 655.256,712.798 653.5,713C 643.144,713.578 632.81,713.245 622.5,712C 633.209,711.845 643.875,711.178 654.5,710C 657.567,708.611 660.233,706.778 662.5,704.5 Z"/></g>
<g><path style="opacity:1" fill="#aeb5b4" d="M 216.5,752.5 C 220.436,754.766 223.769,757.766 226.5,761.5C 222.564,759.234 219.231,756.234 216.5,752.5 Z"/></g>
<g><path style="opacity:1" fill="#212a2b" d="M 189.5,725.5 C 198.14,734.806 207.14,743.806 216.5,752.5C 219.231,756.234 222.564,759.234 226.5,761.5C 243.224,776.83 261.224,790.164 280.5,801.5C 282.566,803.199 284.9,804.532 287.5,805.5C 290.723,808.247 294.389,810.247 298.5,811.5C 303.542,815.021 308.875,818.021 314.5,820.5C 312.473,820.662 310.473,820.495 308.5,820C 264.178,797.995 225.345,768.828 192,732.5C 191.616,729.94 190.783,727.606 189.5,725.5 Z"/></g>
<g><path style="opacity:1" fill="#909a9a" d="M 280.5,801.5 C 283.546,801.725 285.879,803.058 287.5,805.5C 284.9,804.532 282.566,803.199 280.5,801.5 Z"/></g>
<g><path style="opacity:1" fill="#a5afaf" d="M 287.5,805.5 C 291.884,806.192 295.55,808.192 298.5,811.5C 294.389,810.247 290.723,808.247 287.5,805.5 Z"/></g>
<g><path style="opacity:1" fill="#aab9b9" d="M 298.5,811.5 C 304.845,814.007 311.178,816.507 317.5,819C 319.319,819.74 320.652,820.907 321.5,822.5C 319.106,821.985 316.772,821.319 314.5,820.5C 308.875,818.021 303.542,815.021 298.5,811.5 Z"/></g>
<g><path style="opacity:1" fill="#7c8f95" d="M 321.5,822.5 C 324.1,823.468 326.434,824.801 328.5,826.5C 325.454,826.275 323.121,824.942 321.5,822.5 Z"/></g>
<g><path style="opacity:1" fill="#95a4aa" d="M 328.5,826.5 C 335.297,827.569 341.297,830.236 346.5,834.5C 341.511,832.674 336.511,830.841 331.5,829C 330.058,828.623 329.058,827.79 328.5,826.5 Z"/></g>
<g><path style="opacity:1" fill="#909a9d" d="M 347.5,834.5 C 350.855,834.69 353.855,835.69 356.5,837.5C 353.084,837.472 350.084,836.472 347.5,834.5 Z"/></g>
<g><path style="opacity:1" fill="#374545" d="M 356.5,837.5 C 366.687,841.628 377.02,845.295 387.5,848.5C 376.134,847.187 365.801,843.52 356.5,837.5 Z"/></g>
<g><path style="opacity:1" fill="#b0bdbb" d="M 391.5,848.5 C 394.187,848.336 396.854,848.503 399.5,849C 401.32,849.2 402.653,850.034 403.5,851.5C 401.435,851.483 399.435,851.15 397.5,850.5C 395.214,850.405 393.214,849.738 391.5,848.5 Z"/></g>
<g><path style="opacity:1" fill="#6d7a7c" d="M 397.5,850.5 C 399.435,851.15 401.435,851.483 403.5,851.5C 415.706,853.889 427.706,856.555 439.5,859.5C 425.684,857.864 412.017,855.364 398.5,852C 397.944,851.617 397.611,851.117 397.5,850.5 Z"/></g>
<g><path style="opacity:1" fill="#bdc4c3" d="M 450.5,860.5 C 478.834,861.809 507.168,861.809 535.5,860.5C 507.166,864.5 478.833,864.5 450.5,860.5 Z"/></g>
</svg>
