<?xml version="1.0" encoding="UTF-8"?>
<svg version="1.1" xmlns="http://www.w3.org/2000/svg" width="992" height="1291">
<path d="M0 0 C0.67628637 -0.00282738 1.35257275 -0.00565475 2.04935265 -0.00856781 C5.64594258 -0.02344747 9.24249375 -0.03274108 12.83911133 -0.03710938 C15.73279797 -0.04144184 18.62617763 -0.05514354 21.51977539 -0.078125 C48.497156 -0.28763117 75.11993817 1.27915087 101.73046875 6.015625 C103.24722664 6.27835746 104.76399114 6.54105174 106.28076172 6.80371094 C151.84966017 14.78932154 195.54767795 28.46498613 237.41796875 48.203125 C239.03348633 48.96447754 239.03348633 48.96447754 240.68164062 49.74121094 C263.21399937 60.46607238 284.96311872 72.88718554 305.41796875 87.203125 C306.25545654 87.78489502 306.25545654 87.78489502 307.10986328 88.37841797 C324.54022337 100.50883907 341.1771704 113.59605052 356.87744141 127.89770508 C358.48339524 129.35503951 360.0958783 130.8052394 361.71728516 132.24536133 C367.88246793 137.72630175 373.78659369 143.41991423 379.60546875 149.265625 C380.45560547 150.11189453 381.30574219 150.95816406 382.18164062 151.83007812 C387.13636068 156.79245025 391.86561282 161.87105628 396.41796875 167.203125 C397.36726185 168.28623353 398.31772953 169.36831405 399.26953125 170.44921875 C407.0705461 179.39347379 414.30989366 188.70263029 421.41796875 198.203125 C421.90152832 198.8439502 422.38508789 199.48477539 422.88330078 200.14501953 C430.21185702 209.86326733 436.96544176 219.88352673 443.41796875 230.203125 C443.99345459 231.12230713 443.99345459 231.12230713 444.58056641 232.06005859 C486.78787 299.92314708 514.33493332 381.51887041 514.62109375 461.98046875 C514.62679382 463.26707901 514.6324939 464.55368927 514.6383667 465.87928772 C514.64878448 468.59457785 514.65468379 471.30983928 514.65820312 474.02514648 C514.66253846 476.73850313 514.67625371 479.45153292 514.69921875 482.16479492 C514.8912373 506.72666764 513.42228243 530.95574132 509.16796875 555.203125 C508.95817383 556.42128906 508.74837891 557.63945313 508.53222656 558.89453125 C495.4352306 632.60056916 465.35722229 701.9548575 420.37036133 761.78320312 C417.0478282 766.2282944 413.97886759 770.82314751 410.91430664 775.44897461 C407.85021554 780.06800841 404.7459684 784.65990296 401.64453125 789.25390625 C401.03146622 790.16236801 400.41840118 791.07082977 399.78675842 792.00682068 C397.23266151 795.79124388 394.67791859 799.5752307 392.12304688 803.35913086 C385.80552368 812.71659836 379.49083321 822.07530066 373.23855591 831.47651672 C366.54800725 841.52660925 359.76972219 851.51815201 353.01318359 861.52392578 C346.73132083 870.82781266 340.4524698 880.13302868 334.23580933 889.4806366 C327.59640949 899.45387742 320.86975674 909.36889305 314.1640625 919.29760742 C307.89266773 928.58441056 301.62555635 937.87350974 295.41796875 947.203125 C288.59051196 957.46436482 281.69117509 967.67686964 274.79296875 977.890625 C265.07530325 992.26814727 265.07530325 992.26814727 255.42578125 1006.69140625 C248.34408545 1017.33970893 241.16968926 1027.92583984 234.01318359 1038.52392578 C225.1850427 1051.59303818 225.1850427 1051.59303818 216.41796875 1064.703125 C209.33888837 1075.34752786 202.16706146 1085.92973136 195.01318359 1096.52392578 C186.1850427 1109.59303818 186.1850427 1109.59303818 177.41796875 1122.703125 C170.33888837 1133.34752786 163.16706146 1143.92973136 156.01318359 1154.52392578 C147.18418417 1167.59442009 147.18418417 1167.59442009 138.41796875 1180.70703125 C134.45866236 1186.66252227 130.45865157 1192.58987367 126.44921875 1198.51171875 C125.20572798 1200.34960857 123.96223841 1202.18749921 122.71875 1204.02539062 C120.81826654 1206.83402424 118.91697322 1209.64209251 117.01318359 1212.44848633 C103.31744009 1232.52777586 103.31744009 1232.52777586 90.98046875 1253.453125 C80.1539954 1272.05245101 61.48656867 1283.43722051 41.29296875 1289.640625 C17.64769425 1295.5338662 -7.87023341 1291.7083536 -28.765625 1279.59375 C-45.10359851 1269.6231683 -55.14060064 1254.82488538 -65.14453125 1238.953125 C-66.37232066 1237.01427531 -67.60018748 1235.07547464 -68.828125 1233.13671875 C-69.44929199 1232.15429199 -70.07045898 1231.17186523 -70.71044922 1230.15966797 C-73.11585954 1226.35983508 -75.53210665 1222.56696579 -77.94897461 1218.77441406 C-83.3339112 1210.32422888 -88.69808743 1201.86124575 -94.04345703 1193.38598633 C-97.87433817 1187.31524994 -101.72540057 1181.25752994 -105.58203125 1175.203125 C-110.41974755 1167.60854418 -115.23946196 1160.00297417 -120.04296875 1152.38671875 C-123.87405484 1146.31576487 -127.72524294 1140.25777739 -131.58203125 1134.203125 C-135.43753485 1128.15048943 -139.28797479 1122.09485498 -143.11694336 1116.02539062 C-144.1038709 1114.46104222 -145.09168187 1112.89725085 -146.08032227 1111.33398438 C-148.54028724 1107.44399273 -150.99091016 1103.54881085 -153.421875 1099.640625 C-161.96543464 1085.98146863 -170.98187749 1072.65444917 -180.01480103 1059.3164978 C-191.07035163 1042.98950217 -201.96674274 1026.56300373 -212.77563477 1010.07177734 C-218.68037071 1001.06991692 -224.65239314 992.12667563 -230.77587891 983.2722168 C-236.23305482 975.37593839 -241.58829286 967.40965172 -246.95703125 959.453125 C-247.57908447 958.53160645 -248.2011377 957.61008789 -248.84204102 956.66064453 C-258.96197504 941.66065628 -268.95331021 926.57965988 -278.88656616 911.45559692 C-289.10200825 895.90682332 -299.45904888 880.45854533 -309.8828125 865.04882812 C-319.20939497 851.25868186 -328.46230796 837.42087711 -337.6706543 823.55151367 C-342.89704327 815.68474577 -348.15289306 807.83802392 -353.45703125 800.0234375 C-354.24219116 798.85784302 -354.24219116 798.85784302 -355.04321289 797.66870117 C-359.14828484 791.64561602 -363.71282726 786.18415116 -368.5390625 780.734375 C-373.73578863 774.80106501 -378.39763801 768.43038867 -383.13037109 762.12646484 C-384.38792673 760.4602988 -385.66489877 758.8088212 -386.9453125 757.16015625 C-442.66986043 684.9321773 -477.46007397 587.83129073 -477.78515625 496.42578125 C-477.79085632 495.13917099 -477.7965564 493.85256073 -477.8024292 492.52696228 C-477.81284698 489.81167215 -477.81874629 487.09641072 -477.82226562 484.38110352 C-477.82660096 481.66774687 -477.84031621 478.95471708 -477.86328125 476.24145508 C-478.0552998 451.67958236 -476.58634493 427.45050868 -472.33203125 403.203125 C-472.12223633 401.98496094 -471.91244141 400.76679688 -471.69628906 399.51171875 C-458.0431768 322.67602206 -425.97328974 250.43701276 -377.58203125 189.203125 C-377.03514648 188.51057617 -376.48826172 187.81802734 -375.92480469 187.10449219 C-369.62239215 179.15893745 -363.15481697 171.44371166 -356.21484375 164.046875 C-354.22929596 161.90224771 -352.31560106 159.73617392 -350.4140625 157.51953125 C-345.89136157 152.32884333 -341.0211004 147.49639855 -336.14453125 142.640625 C-334.79004883 141.2803418 -334.79004883 141.2803418 -333.40820312 139.89257812 C-328.29427695 134.78605807 -323.08214207 129.88917486 -317.58203125 125.203125 C-316.49882501 124.25394339 -315.4167438 123.30347596 -314.3359375 122.3515625 C-305.39224782 114.55104075 -296.08691314 107.30455021 -286.58203125 100.203125 C-285.93057129 99.71424805 -285.27911133 99.22537109 -284.60791016 98.72167969 C-259.49232687 79.90903701 -232.64511974 64.21880927 -204.58203125 50.203125 C-203.7297998 49.77306152 -202.87756836 49.34299805 -201.99951172 48.89990234 C-141.13381299 18.32216464 -68.35729666 0.22763919 0 0 Z " fill="#FEFEFE" transform="translate(477.58203125,-0.203125)"/>
<path d="M0 0 C0.67628637 -0.00282738 1.35257275 -0.00565475 2.04935265 -0.00856781 C5.64594258 -0.02344747 9.24249375 -0.03274108 12.83911133 -0.03710938 C15.73279797 -0.04144184 18.62617763 -0.05514354 21.51977539 -0.078125 C48.497156 -0.28763117 75.11993817 1.27915087 101.73046875 6.015625 C103.24722664 6.27835746 104.76399114 6.54105174 106.28076172 6.80371094 C151.84966017 14.78932154 195.54767795 28.46498613 237.41796875 48.203125 C239.03348633 48.96447754 239.03348633 48.96447754 240.68164062 49.74121094 C263.21399937 60.46607238 284.96311872 72.88718554 305.41796875 87.203125 C306.25545654 87.78489502 306.25545654 87.78489502 307.10986328 88.37841797 C324.54022337 100.50883907 341.1771704 113.59605052 356.87744141 127.89770508 C358.48339524 129.35503951 360.0958783 130.8052394 361.71728516 132.24536133 C367.88246793 137.72630175 373.78659369 143.41991423 379.60546875 149.265625 C380.45560547 150.11189453 381.30574219 150.95816406 382.18164062 151.83007812 C387.13636068 156.79245025 391.86561282 161.87105628 396.41796875 167.203125 C397.36726185 168.28623353 398.31772953 169.36831405 399.26953125 170.44921875 C407.0705461 179.39347379 414.30989366 188.70263029 421.41796875 198.203125 C421.90152832 198.8439502 422.38508789 199.48477539 422.88330078 200.14501953 C430.21185702 209.86326733 436.96544176 219.88352673 443.41796875 230.203125 C443.99345459 231.12230713 443.99345459 231.12230713 444.58056641 232.06005859 C486.78787 299.92314708 514.33493332 381.51887041 514.62109375 461.98046875 C514.62679382 463.26707901 514.6324939 464.55368927 514.6383667 465.87928772 C514.64878448 468.59457785 514.65468379 471.30983928 514.65820312 474.02514648 C514.66253846 476.73850313 514.67625371 479.45153292 514.69921875 482.16479492 C514.8912373 506.72666764 513.42228243 530.95574132 509.16796875 555.203125 C508.95817383 556.42128906 508.74837891 557.63945313 508.53222656 558.89453125 C495.4352306 632.60056916 465.35722229 701.9548575 420.37036133 761.78320312 C417.0478282 766.2282944 413.97886759 770.82314751 410.91430664 775.44897461 C407.85021554 780.06800841 404.7459684 784.65990296 401.64453125 789.25390625 C401.03146622 790.16236801 400.41840118 791.07082977 399.78675842 792.00682068 C397.23266151 795.79124388 394.67791859 799.5752307 392.12304688 803.35913086 C385.80552368 812.71659836 379.49083321 822.07530066 373.23855591 831.47651672 C366.54800725 841.52660925 359.76972219 851.51815201 353.01318359 861.52392578 C346.73132083 870.82781266 340.4524698 880.13302868 334.23580933 889.4806366 C327.59640949 899.45387742 320.86975674 909.36889305 314.1640625 919.29760742 C307.89266773 928.58441056 301.62555635 937.87350974 295.41796875 947.203125 C288.59051196 957.46436482 281.69117509 967.67686964 274.79296875 977.890625 C265.07530325 992.26814727 265.07530325 992.26814727 255.42578125 1006.69140625 C248.34408545 1017.33970893 241.16968926 1027.92583984 234.01318359 1038.52392578 C225.1850427 1051.59303818 225.1850427 1051.59303818 216.41796875 1064.703125 C209.33888837 1075.34752786 202.16706146 1085.92973136 195.01318359 1096.52392578 C186.1850427 1109.59303818 186.1850427 1109.59303818 177.41796875 1122.703125 C170.33888837 1133.34752786 163.16706146 1143.92973136 156.01318359 1154.52392578 C147.18418417 1167.59442009 147.18418417 1167.59442009 138.41796875 1180.70703125 C134.45866236 1186.66252227 130.45865157 1192.58987367 126.44921875 1198.51171875 C125.20572798 1200.34960857 123.96223841 1202.18749921 122.71875 1204.02539062 C120.81826654 1206.83402424 118.91697322 1209.64209251 117.01318359 1212.44848633 C103.31744009 1232.52777586 103.31744009 1232.52777586 90.98046875 1253.453125 C80.1539954 1272.05245101 61.48656867 1283.43722051 41.29296875 1289.640625 C17.64769425 1295.5338662 -7.87023341 1291.7083536 -28.765625 1279.59375 C-45.10359851 1269.6231683 -55.14060064 1254.82488538 -65.14453125 1238.953125 C-66.37232066 1237.01427531 -67.60018748 1235.07547464 -68.828125 1233.13671875 C-69.44929199 1232.15429199 -70.07045898 1231.17186523 -70.71044922 1230.15966797 C-73.11585954 1226.35983508 -75.53210665 1222.56696579 -77.94897461 1218.77441406 C-83.3339112 1210.32422888 -88.69808743 1201.86124575 -94.04345703 1193.38598633 C-97.87433817 1187.31524994 -101.72540057 1181.25752994 -105.58203125 1175.203125 C-110.41974755 1167.60854418 -115.23946196 1160.00297417 -120.04296875 1152.38671875 C-123.87405484 1146.31576487 -127.72524294 1140.25777739 -131.58203125 1134.203125 C-135.43753485 1128.15048943 -139.28797479 1122.09485498 -143.11694336 1116.02539062 C-144.1038709 1114.46104222 -145.09168187 1112.89725085 -146.08032227 1111.33398438 C-148.54028724 1107.44399273 -150.99091016 1103.54881085 -153.421875 1099.640625 C-161.96543464 1085.98146863 -170.98187749 1072.65444917 -180.01480103 1059.3164978 C-191.07035163 1042.98950217 -201.96674274 1026.56300373 -212.77563477 1010.07177734 C-218.68037071 1001.06991692 -224.65239314 992.12667563 -230.77587891 983.2722168 C-236.23305482 975.37593839 -241.58829286 967.40965172 -246.95703125 959.453125 C-247.57908447 958.53160645 -248.2011377 957.61008789 -248.84204102 956.66064453 C-258.96197504 941.66065628 -268.95331021 926.57965988 -278.88656616 911.45559692 C-289.10200825 895.90682332 -299.45904888 880.45854533 -309.8828125 865.04882812 C-319.20939497 851.25868186 -328.46230796 837.42087711 -337.6706543 823.55151367 C-342.89704327 815.68474577 -348.15289306 807.83802392 -353.45703125 800.0234375 C-354.24219116 798.85784302 -354.24219116 798.85784302 -355.04321289 797.66870117 C-359.14828484 791.64561602 -363.71282726 786.18415116 -368.5390625 780.734375 C-373.73578863 774.80106501 -378.39763801 768.43038867 -383.13037109 762.12646484 C-384.38792673 760.4602988 -385.66489877 758.8088212 -386.9453125 757.16015625 C-442.66986043 684.9321773 -477.46007397 587.83129073 -477.78515625 496.42578125 C-477.79085632 495.13917099 -477.7965564 493.85256073 -477.8024292 492.52696228 C-477.81284698 489.81167215 -477.81874629 487.09641072 -477.82226562 484.38110352 C-477.82660096 481.66774687 -477.84031621 478.95471708 -477.86328125 476.24145508 C-478.0552998 451.67958236 -476.58634493 427.45050868 -472.33203125 403.203125 C-472.12223633 401.98496094 -471.91244141 400.76679688 -471.69628906 399.51171875 C-458.0431768 322.67602206 -425.97328974 250.43701276 -377.58203125 189.203125 C-377.03514648 188.51057617 -376.48826172 187.81802734 -375.92480469 187.10449219 C-369.62239215 179.15893745 -363.15481697 171.44371166 -356.21484375 164.046875 C-354.22929596 161.90224771 -352.31560106 159.73617392 -350.4140625 157.51953125 C-345.89136157 152.32884333 -341.0211004 147.49639855 -336.14453125 142.640625 C-334.79004883 141.2803418 -334.79004883 141.2803418 -333.40820312 139.89257812 C-328.29427695 134.78605807 -323.08214207 129.88917486 -317.58203125 125.203125 C-316.49882501 124.25394339 -315.4167438 123.30347596 -314.3359375 122.3515625 C-305.39224782 114.55104075 -296.08691314 107.30455021 -286.58203125 100.203125 C-285.93057129 99.71424805 -285.27911133 99.22537109 -284.60791016 98.72167969 C-259.49232687 79.90903701 -232.64511974 64.21880927 -204.58203125 50.203125 C-203.7297998 49.77306152 -202.87756836 49.34299805 -201.99951172 48.89990234 C-141.13381299 18.32216464 -68.35729666 0.22763919 0 0 Z M-10.58203125 92.203125 C-12.16671876 92.28161403 -13.75324838 92.33325433 -15.33984375 92.34375 C-28.13170369 92.58395017 -40.45766909 94.09721953 -53.02587891 96.38769531 C-58.55529051 97.39169069 -63.96118879 98.29240277 -69.57421875 98.6328125 C-76.62476348 99.14081224 -83.22647416 100.94516187 -90.01953125 102.828125 C-91.34078741 103.18794636 -92.66207691 103.54764533 -93.98339844 103.90722656 C-107.64799692 107.66043126 -121.10123736 111.93389284 -134.23828125 117.25683594 C-136.24328998 118.06635821 -138.25931397 118.84850651 -140.27734375 119.625 C-148.86660837 122.95113892 -157.07213183 126.76210991 -165.24755859 130.99902344 C-167.83723406 132.33475648 -170.43799243 133.64753929 -173.0390625 134.9609375 C-207.09495469 152.28303788 -239.76418597 174.67907423 -266.51171875 202.1328125 C-268.20608162 203.82717537 -269.89394711 205.34533335 -271.76953125 206.828125 C-274.81456792 209.3994893 -277.27257093 212.18578489 -279.84375 215.21875 C-281.4499756 217.05237383 -283.12335934 218.71856976 -284.89453125 220.390625 C-287.64570773 222.91323977 -287.64570773 222.91323977 -288.53125 225.62890625 C-289.6831303 228.45079889 -290.98794282 230.00604861 -293.08203125 232.203125 C-296.51784186 235.95242198 -299.72401987 239.80762741 -302.83203125 243.828125 C-303.24388672 244.3540625 -303.65574219 244.88 -304.08007812 245.421875 C-306.19058519 248.17203332 -308.06549528 250.9581088 -309.7578125 253.9765625 C-311.47976206 257.02223774 -313.10142227 258.79768599 -315.58203125 261.203125 C-319.5772001 266.1288456 -323.58203125 271.65848823 -323.58203125 278.203125 C-324.24203125 278.203125 -324.90203125 278.203125 -325.58203125 278.203125 C-329.00004852 281.09315586 -330.85948458 284.21818223 -332.83203125 288.203125 C-333.3528125 289.234375 -333.87359375 290.265625 -334.41015625 291.328125 C-335.83366908 294.30303308 -335.83366908 294.30303308 -335.58203125 298.203125 C-336.24203125 298.203125 -336.90203125 298.203125 -337.58203125 298.203125 C-340.94764716 304.2637175 -343.19533666 309.24262247 -343.58203125 316.203125 C-344.24203125 316.203125 -344.90203125 316.203125 -345.58203125 316.203125 C-345.84757812 316.91339844 -346.113125 317.62367188 -346.38671875 318.35546875 C-346.73992187 319.27457031 -347.093125 320.19367188 -347.45703125 321.140625 C-347.80507813 322.05714844 -348.153125 322.97367188 -348.51171875 323.91796875 C-349.58203125 326.203125 -349.58203125 326.203125 -351.58203125 327.203125 C-352.45408437 329.1719935 -352.45408437 329.1719935 -353.16796875 331.578125 C-353.45929688 332.48175781 -353.750625 333.38539063 -354.05078125 334.31640625 C-354.34984375 335.26902344 -354.64890625 336.22164062 -354.95703125 337.203125 C-356.90461927 343.36474197 -358.93447054 349.32003512 -361.72460938 355.15722656 C-362.95753213 358.09910945 -363.5404807 361.09826377 -364.1484375 364.21875 C-364.58203125 366.203125 -364.58203125 366.203125 -365.64453125 368.703125 C-366.54764932 371.11143986 -366.80049296 372.91228082 -367.01953125 375.453125 C-367.31870759 378.69598286 -367.90886921 381.45575107 -369.01953125 384.515625 C-370.65555627 389.05837408 -371.38995226 393.57984144 -372.109375 398.34375 C-372.51517043 400.79864467 -373.04348275 403.12128217 -373.70703125 405.515625 C-374.61222166 409.33035603 -374.74390677 412.31811242 -374.58203125 416.203125 C-375.24203125 416.203125 -375.90203125 416.203125 -376.58203125 416.203125 C-380.58434218 437.01332098 -381.12192446 457.15013081 -380.91497803 478.25866699 C-380.88728007 481.57002015 -380.87909212 484.88130542 -380.87141132 488.19275665 C-380.86148283 492.1650021 -380.84167277 496.1371769 -380.8203125 500.109375 C-380.81691675 500.8577211 -380.813521 501.6060672 -380.81002235 502.37709045 C-380.79847486 504.47869467 -380.7799782 506.5801116 -380.7590332 508.68164062 C-380.749189 509.87261353 -380.73934479 511.06358643 -380.72920227 512.29064941 C-380.70912967 515.26840931 -380.70912967 515.26840931 -379.58203125 518.203125 C-378.92203125 518.203125 -378.26203125 518.203125 -377.58203125 518.203125 C-377.56744873 518.78690918 -377.55286621 519.37069336 -377.5378418 519.97216797 C-377.4623404 522.67474459 -377.36602787 525.37621964 -377.26953125 528.078125 C-377.24697266 528.9959375 -377.22441406 529.91375 -377.20117188 530.859375 C-376.97872597 536.60252383 -376.11503319 541.59211351 -374.26904297 547.04052734 C-373.31533438 550.042642 -373.00142053 553.08766175 -372.58203125 556.203125 C-371.95947097 558.21729062 -371.30636472 560.22328019 -370.58203125 562.203125 C-369.92203125 562.203125 -369.26203125 562.203125 -368.58203125 562.203125 C-368.66453125 563.37875 -368.74703125 564.554375 -368.83203125 565.765625 C-368.86567787 572.77533736 -366.68887542 579.56952729 -364.58203125 586.203125 C-364.25203125 586.533125 -363.92203125 586.863125 -363.58203125 587.203125 C-363.25618923 588.6960739 -362.97179648 590.19814367 -362.70703125 591.703125 C-361.7383417 596.72464069 -360.31693533 601.40001092 -358.58203125 606.203125 C-358.28296875 607.05648437 -357.98390625 607.90984375 -357.67578125 608.7890625 C-353.93424319 619.31968171 -349.56312223 629.38109167 -344.46728516 639.31738281 C-342.00699795 644.17683207 -340.02855357 649.06473024 -338.37109375 654.26171875 C-337.75410644 656.39217673 -337.75410644 656.39217673 -335.58203125 657.203125 C-334.6875 658.98828125 -334.6875 658.98828125 -333.76953125 661.265625 C-332.10158714 665.18436358 -330.13649183 668.64312682 -327.8203125 672.20703125 C-325.82596347 675.42189673 -324.22421136 678.79712182 -322.58203125 682.203125 C-321.92203125 682.203125 -321.26203125 682.203125 -320.58203125 682.203125 C-320.33453125 682.739375 -320.08703125 683.275625 -319.83203125 683.828125 C-318.28250287 686.77222892 -316.48327042 689.47972836 -314.58203125 692.203125 C-314.05996094 692.95207031 -313.53789062 693.70101562 -313 694.47265625 C-305.10294464 705.56178451 -296.47656293 716.19303812 -287.328125 726.2734375 C-285.60425223 728.17856759 -283.93731129 730.12387921 -282.26953125 732.078125 C-277.64537269 737.38261953 -272.58806121 742.26354676 -267.58203125 747.203125 C-265.23396945 749.53702052 -262.89622387 751.87206717 -260.6171875 754.2734375 C-254.69453482 760.44237871 -248.20082066 765.59496569 -241.43017578 770.77832031 C-239.58118281 772.2037791 -237.74922538 773.64848871 -235.921875 775.1015625 C-230.0698738 779.75418846 -224.19796895 784.29452854 -218.01953125 788.51171875 C-215.2597301 790.42677307 -212.58351422 792.44004128 -209.89453125 794.453125 C-206.96874128 796.59815641 -204.2831639 798.51888057 -200.89453125 799.828125 C-197.30328149 801.31883245 -194.81718247 803.21345892 -191.8671875 805.703125 C-189.29181923 807.39362314 -186.63870286 808.34896514 -183.74682617 809.37744141 C-180.09639914 810.76976623 -176.67136814 812.59345962 -173.20703125 814.390625 C-168.61617078 817.09427602 -168.61617078 817.09427602 -163.58203125 818.203125 C-163.58203125 818.863125 -163.58203125 819.523125 -163.58203125 820.203125 C-158.35471733 823.20201485 -153.17295795 825.92534005 -147.58203125 828.203125 C-146.38578125 828.71875 -145.18953125 829.234375 -143.95703125 829.765625 C-142.0491519 830.57824028 -140.13592004 831.37922153 -138.20703125 832.140625 C-135.95020655 833.05410167 -133.74985194 834.03359202 -131.53515625 835.04296875 C-126.66984928 837.20821157 -121.73181945 839.06901287 -116.70703125 840.828125 C-115.82934082 841.13661377 -114.95165039 841.44510254 -114.04736328 841.76293945 C-108.70405511 843.59664093 -103.53939659 844.95096979 -97.9375 845.75 C-94.5156011 846.40827574 -91.51497294 847.81859419 -88.328125 849.1953125 C-83.96065135 850.79816912 -79.44668804 851.56261624 -74.87890625 852.39453125 C-71.58203125 853.203125 -71.58203125 853.203125 -68.79907227 854.67138672 C-65.39196813 856.29362026 -62.53231038 856.93856135 -58.8125 857.51953125 C-57.51989258 857.72545898 -56.22728516 857.93138672 -54.89550781 858.14355469 C-53.52027786 858.35154435 -52.14495022 858.55888901 -50.76953125 858.765625 C-49.3563842 858.98430594 -47.94329843 859.20338328 -46.53027344 859.42285156 C-30.58189765 861.87884195 -14.72742701 863.77987455 1.41796875 864.203125 C2.69720215 864.23712402 3.97643555 864.27112305 5.29443359 864.30615234 C28.62299502 864.86148151 51.32263486 863.50941448 74.41796875 860.203125 C75.69607422 860.02120605 76.97417969 859.83928711 78.29101562 859.65185547 C104.36004726 855.80746348 132.63734573 850.41205197 157.01953125 840.19116211 C159.48291691 839.17636959 161.96772059 838.27951097 164.48046875 837.39453125 C170.50691844 835.21416286 176.3703701 832.73141036 182.23046875 830.140625 C183.31070313 829.66310791 184.3909375 829.18559082 185.50390625 828.69360352 C220.67795774 812.99641168 252.89747886 792.98000676 282.41796875 768.203125 C283.38863281 767.41808594 284.35929688 766.63304687 285.359375 765.82421875 C293.60132171 759.06605072 301.18287036 751.65330952 308.73046875 744.140625 C309.24225677 743.63401337 309.7540448 743.12740173 310.28134155 742.60543823 C317.13276678 735.80868485 323.41380525 728.77397795 329.41796875 721.203125 C330.50286766 719.88631323 331.59104755 718.57219259 332.68359375 717.26171875 C351.95136055 693.95873469 367.28626017 669.03753855 380.9140625 642.10839844 C382.26521821 639.49821128 383.67872295 636.94211765 385.13671875 634.390625 C387.31036079 630.5261774 388.94503455 626.62837154 390.41796875 622.453125 C390.93033113 621.04142751 391.44335954 619.62997159 391.95703125 618.21875 C392.32876465 617.18911133 392.32876465 617.18911133 392.70800781 616.13867188 C393.68571931 613.47316404 394.74222115 610.84057199 395.79296875 608.203125 C402.58677194 590.44311858 407.88200492 572.56264511 411.82910156 553.95996094 C412.31318026 551.69370196 412.82054987 549.4361766 413.34765625 547.1796875 C418.64717578 523.30453248 419.63472657 498.34025477 419.60546875 473.953125 C419.60519684 473.09461945 419.60492493 472.23611389 419.60464478 471.35159302 C419.58763057 459.65330549 419.38165383 448.09782505 417.73876953 436.49609375 C417.38018181 433.93303752 417.06813803 431.3662078 416.7578125 428.796875 C415.26674364 416.77981792 413.1815874 404.99053008 410.41796875 393.203125 C410.19737793 392.25646973 409.97678711 391.30981445 409.74951172 390.33447266 C404.70997948 368.92598551 398.6321227 347.00227783 388.47045898 327.37280273 C387.38398255 325.13306344 386.47649199 322.87350899 385.58203125 320.55078125 C383.55937423 315.44931527 381.26009042 310.54050732 378.79296875 305.640625 C378.35839355 304.77711426 377.92381836 303.91360352 377.47607422 303.02392578 C363.57542948 275.72856968 345.82923673 250.025059 325.41796875 227.203125 C324.6084375 226.28273437 323.79890625 225.36234375 322.96484375 224.4140625 C316.83397879 217.56985791 310.38618178 211.03952501 303.91796875 204.515625 C303.05179932 203.63640381 302.18562988 202.75718262 301.29321289 201.85131836 C295.31497511 195.86520337 289.03255432 190.47034191 282.41796875 185.203125 C281.10138875 184.11794484 279.78727473 183.02976019 278.4765625 181.9375 C257.18457246 164.33438699 234.49696758 149.59178554 210.11376953 136.63916016 C207.48766078 135.24024948 204.87195886 133.82345687 202.2578125 132.40234375 C193.47001035 127.6562911 184.83997575 123.55058702 175.41796875 120.203125 C173.7062722 119.52404182 171.9977298 118.83693585 170.29296875 118.140625 C166.07700562 116.44749421 161.833361 114.85579643 157.5546875 113.328125 C155.28009169 112.51232974 153.01270665 111.67633878 150.75 110.828125 C139.71759801 106.74175029 128.50820721 103.68870889 117.09228516 100.8671875 C114.75246787 100.28618485 112.41880251 99.68626738 110.0859375 99.078125 C88.1267164 93.47134469 66.0292404 91.38562589 43.41796875 91.203125 C42.52835449 91.19559204 41.63874023 91.18805908 40.72216797 91.18029785 C33.53746354 91.12317564 26.35287552 91.09354025 19.16796875 91.078125 C17.63976501 91.07383484 17.63976501 91.07383484 16.08068848 91.06945801 C13.14620224 91.06365559 10.21183007 91.06559824 7.27734375 91.0703125 C5.96328552 91.06736679 5.96328552 91.06736679 4.62268066 91.06436157 C-0.54005889 91.0835695 -5.46753542 91.5077598 -10.58203125 92.203125 Z " fill="#000000" transform="translate(477.58203125,-0.203125)"/>
<path d="M0 0 C1.35139147 0.62925616 2.6911974 1.28637686 4 2 C4 2.66 4 3.32 4 4 C4.680625 4.226875 5.36125 4.45375 6.0625 4.6875 C10.55209096 6.69348745 14.45908362 9.37781165 17.8515625 12.94921875 C20.31907527 15.30457185 22.83349612 16.78164803 25.8125 18.4375 C29.28955913 20.41050925 32.66138891 22.37034615 35.875 24.75 C40.87710999 28.35151919 46.34888938 30.62653354 52 33 C52 33.66 52 34.32 52 35 C55.3 35.66 58.6 36.32 62 37 C62 37.66 62 38.32 62 39 C62.66862061 39.17378174 63.33724121 39.34756348 64.02612305 39.52661133 C69.75810829 41.04850567 75.37177127 42.75435981 80.97265625 44.70141602 C101.6122028 51.86812239 122.7416934 57.18912567 144.0625 61.875 C145.05080811 62.09314865 145.05080811 62.09314865 146.05908203 62.31570435 C159.58890401 65.2843759 172.86126664 67.22077589 186.6875 68.0625 C189.17081441 68.21619874 191.6539062 68.37355307 194.13671875 68.53515625 C195.21655029 68.600979 196.29638184 68.66680176 197.40893555 68.73461914 C200 69 200 69 202 70 C203.37339734 70.10426908 204.75161328 70.14862873 206.12890625 70.16113281 C207.41580353 70.17530243 207.41580353 70.17530243 208.72869873 70.1897583 C209.66385315 70.19416931 210.59900757 70.19858032 211.5625 70.203125 C212.53197571 70.21027527 213.50145142 70.21742554 214.50030518 70.22479248 C244.87283746 70.40458895 244.87283746 70.40458895 275 67 C276.61942441 66.72826679 278.23889407 66.45680313 279.85839844 66.18554688 C302.34196146 62.38693048 324.90738857 58.5693952 346.28515625 50.375 C349.31774399 49.25252799 352.09819978 48.45542857 355.25 47.8125 C370.23371429 44.18008442 384.4363808 37.19690184 398 30 C398.8751123 29.54044922 399.75022461 29.08089844 400.65185547 28.60742188 C418.43397059 20.73256965 418.43397059 20.73256965 432 8 C433.98077953 6.96244882 435.98529902 5.97004121 438 5 C439.16872304 4.2741339 440.33537343 3.54492071 441.5 2.8125 C445.21712314 0.88756123 446.90766114 0.30343168 451 1 C455.42653168 3.34345795 457.85557991 5.49671781 460 10 C460.39613388 12.81829597 460.61031588 15.41980272 460.6875 18.25 C460.71486237 19.10833939 460.74222473 19.96667877 460.77041626 20.85102844 C461.02719607 30.28525238 461.07293507 39.71529889 461.07421875 49.15234375 C461.0744743 50.02900381 461.07472984 50.90566387 461.07499313 51.80888939 C461.06912737 75.31490074 460.59971207 98.81213774 460.125 122.3125 C460.10207382 123.45131371 460.07914764 124.59012741 460.05552673 125.76345062 C459.98469543 129.28159253 459.91374043 132.79973192 459.84277344 136.31787109 C459.80730785 138.07822126 459.80730785 138.07822126 459.77112579 139.87413406 C459.74739647 141.05181728 459.72366714 142.2295005 459.69921875 143.44287109 C459.67543152 144.62386383 459.65164429 145.80485657 459.62713623 147.02163696 C459.5788349 149.41096561 459.53025089 151.80028856 459.48138428 154.18960571 C459.17555496 169.15649442 458.91527187 184.12292551 458.71932983 199.09165955 C458.62268154 206.45278413 458.50742778 213.81358084 458.38701057 221.17435169 C458.30784399 226.08491081 458.23838177 230.9951579 458.19342041 235.90615845 C457.93863401 262.90900154 455.5597476 286.0303773 444.87890625 311.16796875 C442.56297904 316.84874088 441.17974022 322.67174339 439.79052734 328.63305664 C437.75612047 337.29418216 434.97492149 345.62254481 432 354 C431.75636719 354.70141113 431.51273438 355.40282227 431.26171875 356.12548828 C427.96050144 365.60324787 424.03239269 374.30497831 419 383 C418.34 383 417.68 383 417 383 C416.93683594 383.78632812 416.87367188 384.57265625 416.80859375 385.3828125 C415.6988489 390.34717836 413.45895468 394.41375188 411.0625 398.875 C410.57031982 399.80103027 410.07813965 400.72706055 409.57104492 401.68115234 C400.90378711 417.79950301 390.77171391 432.52150875 379.21142578 446.69946289 C377.00718815 449.41559372 374.93689023 452.09565462 373.0078125 455.01953125 C370.62658171 458.55431548 367.93489096 461.67864461 365.125 464.875 C360.27553764 470.45771692 355.67845938 476.12274167 351.47265625 482.2109375 C350.74369141 483.09652344 350.74369141 483.09652344 350 484 C349.34 484 348.68 484 348 484 C347.80792969 484.54011719 347.61585938 485.08023437 347.41796875 485.63671875 C345.34217453 489.09637578 342.40911536 491.27323543 339.3125 493.8125 C333.72206247 498.45515067 333.72206247 498.45515067 328.5625 503.5625 C323.62131052 508.70537069 317.50782581 512.61480957 311.72949219 516.74902344 C309.51446052 518.3512005 307.35037237 520.01582941 305.1875 521.6875 C302 524 302 524 300 524 C299.67 524.99 299.34 525.98 299 527 C296.45788803 528.51451324 293.9546332 529.87084692 291.3125 531.1875 C289.75657333 531.98064671 288.20190287 532.7762621 286.6484375 533.57421875 C285.86694336 533.97560059 285.08544922 534.37698242 284.28027344 534.79052734 C282.1599737 535.91514885 280.09637939 537.09669691 278.0390625 538.33203125 C277.42893311 538.69723877 276.81880371 539.06244629 276.19018555 539.4387207 C274.53676982 540.43989053 272.89116186 541.45392218 271.24609375 542.46875 C267.33804041 544.31226012 264.28743128 544.66482622 260 545 C260 545.66 260 546.32 260 547 C236.90827579 552.72507707 218.01383752 556.653885 194.640625 549.5859375 C191.98591099 548.87949329 191.98591099 548.87949329 189.14697266 549.11035156 C185.69907573 548.98944781 183.99864822 548.30727458 181.0078125 546.6484375 C179.59701416 545.87632935 179.59701416 545.87632935 178.15771484 545.08862305 C176.656521 544.24037964 176.656521 544.24037964 175.125 543.375 C174.07650879 542.79468018 173.02801758 542.21436035 171.94775391 541.61645508 C162.350614 536.27429991 152.86017551 530.7456295 143.3984375 525.16796875 C139.54400428 522.89682223 135.66880443 520.67151004 131.76391602 518.48852539 C122.00074173 513.01709388 114.21350248 506.47752524 106.0859375 498.87109375 C103.80556013 496.73931754 101.49436798 494.65810396 99.125 492.625 C97.74723453 491.41982086 96.37277628 490.21085908 95 489 C94.45585449 488.52369141 93.91170898 488.04738281 93.35107422 487.55664062 C85.57953995 480.70770756 78.94106825 474.14904157 73.3046875 465.41796875 C70.65305622 461.36190204 67.5828341 457.67004778 64.5 453.9375 C63.37463716 452.56409932 62.24963032 451.19040683 61.125 449.81640625 C60.58875 449.16172363 60.0525 448.50704102 59.5 447.83251953 C52.32144192 439.06262094 46.47842074 429.99551478 40.80566406 420.19897461 C37.78060907 414.97609741 34.65478067 409.91967032 31.25 404.9375 C25.57486217 396.19778773 21.84428695 386.65199729 18 377 C17.52675293 375.81180664 17.05350586 374.62361328 16.56591797 373.39941406 C13.71093109 366.21320829 10.89082833 359.01374403 8.09399414 351.8046875 C6.80059633 348.48878613 5.48943188 345.18167536 4.12744141 341.89331055 C1.16794267 334.68544737 -1.39771405 327.3491859 -3.89160156 319.97045898 C-4.37818147 318.53874134 -4.87064554 317.1090092 -5.36914062 315.68139648 C-8.45148629 306.85015083 -10.56267323 298.61092363 -11.58740234 289.28588867 C-12.01723405 285.86274968 -12.77955579 282.77300069 -13.82056618 279.49639225 C-16.66625915 270.08776048 -17.62767358 260.7395854 -18.13525391 250.95532227 C-18.17583459 250.21638957 -18.21641528 249.47745688 -18.25822568 248.71613228 C-19.41765667 227.14983658 -19.32955965 205.55271652 -19.33451414 183.96191478 C-19.33595453 180.42299914 -19.34025796 176.88409816 -19.34550858 173.34518623 C-19.36385032 160.96229214 -19.37219587 148.57944044 -19.37060547 136.1965332 C-19.36939546 124.70055505 -19.39070539 113.20476197 -19.4220928 101.70883077 C-19.44824723 91.77173647 -19.45897372 81.83470294 -19.45769465 71.89757448 C-19.45718651 65.98999303 -19.46279341 60.08257838 -19.48405075 54.17503166 C-19.50342907 48.64322327 -19.50356037 43.11174173 -19.48901749 37.57992172 C-19.48693065 35.55710305 -19.49162275 33.5342638 -19.5037384 31.51148033 C-19.63338056 8.36571901 -19.63338056 8.36571901 -12.3125 0.8125 C-7.91251627 -1.59503827 -4.75771858 -1.30621001 0 0 Z " fill="#161A1D" transform="translate(280,214)"/>
<path d="M0 0 C0.68449219 0.56332031 1.36898437 1.12664062 2.07421875 1.70703125 C3.06421875 2.36703125 4.05421875 3.02703125 5.07421875 3.70703125 C-5.74639044 27.85818476 -37.92109404 53.44152778 -61.92578125 62.70703125 C-69.75391469 65.3617473 -76.9946364 66.22585584 -85.23828125 66.14453125 C-86.33841553 66.13550781 -87.4385498 66.12648438 -88.57202148 66.1171875 C-109.90078395 65.66368557 -128.38131976 54.91459433 -144.92578125 42.08203125 C-150.28257911 37.98401095 -155.68956229 35.21045965 -161.92578125 32.70703125 C-162.58578125 32.37703125 -163.24578125 32.04703125 -163.92578125 31.70703125 C-161.97835102 18.25205875 -151.28858354 2.99727308 -140.92578125 -5.29296875 C-140.36890625 -6.07671875 -139.81203125 -6.86046875 -139.23828125 -7.66796875 C-105.08483174 -46.43674927 -33.79276341 -27.22615766 0 0 Z " fill="#FEFEFE" transform="translate(693.92578125,388.29296875)"/>
<path d="M0 0 C1.03253906 0.350625 2.06507813 0.70125 3.12890625 1.0625 C12.49858504 4.58071055 23.3825994 10.32835665 30 18 C30 18.66 30 19.32 30 20 C30.55042969 20.21914063 31.10085938 20.43828125 31.66796875 20.6640625 C40.53398112 25.74308466 47.96966546 36.94763977 52 46 C52.7148763 48.80751419 52.94397937 51.08692732 53 54 C52.48953125 54.30550781 51.9790625 54.61101562 51.453125 54.92578125 C45.86872839 58.44078266 41.12902755 62.44502736 36.42675781 67.0402832 C32.84851942 70.466891 29.31236437 72.65050493 25 75 C23.5725043 75.98447979 22.1543025 76.98271 20.75 78 C15.27079891 81.70928733 8.72131109 85 2 85 C2 85.66 2 86.32 2 87 C-18.47363992 91.38720855 -35.78977712 88.99251622 -55.09375 81.15625 C-57.68778145 80.12421598 -60.27027659 79.25544851 -62.9375 78.4375 C-73.40182249 74.96834961 -81.89689305 66.3291579 -87.578125 57.12109375 C-89.475534 54.29061823 -91.75774589 52.08588084 -94.21484375 49.7421875 C-96.70862395 47.30843264 -98.95991482 44.6944364 -101.22265625 42.046875 C-102.44951061 40.63397019 -103.70993901 39.24977091 -104.99609375 37.890625 C-105.63675781 37.20484375 -106.27742188 36.5190625 -106.9375 35.8125 C-107.52402344 35.20019531 -108.11054688 34.58789062 -108.71484375 33.95703125 C-110 32 -110 32 -110.6484375 29.61328125 C-109.58139634 25.31297682 -106.25582258 23.73360937 -102.6875 21.375 C-101.92493896 20.8579248 -101.16237793 20.34084961 -100.37670898 19.80810547 C-97.93575542 18.17583726 -95.47383601 16.58193515 -93 15 C-91.82195801 14.24299805 -91.82195801 14.24299805 -90.62011719 13.47070312 C-64.15730295 -3.29018046 -30.35328765 -10.97193751 0 0 Z " fill="#FEFEFE" transform="translate(415,364)"/>
<path d="M0 0 C5.08131003 0.83440459 8.35248606 4.55828483 11.875 8.0625 C11.05356675 14.50846926 6.9868869 18.28172739 2.875 23.0625 C2.2253125 23.82433594 1.575625 24.58617187 0.90625 25.37109375 C-10.23139985 38.07229829 -21.85029394 49.94020264 -36.125 59.0625 C-37.14207031 59.71734375 -38.15914062 60.3721875 -39.20703125 61.046875 C-54.11653434 70.19189131 -68.4792464 73.42957143 -85.80273438 73.32324219 C-87.85837795 73.31258617 -89.91313389 73.32316359 -91.96875 73.3359375 C-104.55058204 73.35220695 -117.12861662 72.65185614 -128.875 67.75 C-129.70644531 67.40952637 -130.53789062 67.06905273 -131.39453125 66.71826172 C-148.56726303 59.28775278 -165.27566596 46.51290736 -177.125 32.0625 C-179.02437712 29.94540771 -180.92973745 27.83397648 -182.83984375 25.7265625 C-184.125 24.0625 -184.125 24.0625 -184.125 22.0625 C-184.785 22.0625 -185.445 22.0625 -186.125 22.0625 C-191.48113389 12.24707324 -191.48113389 12.24707324 -191.125 8.0625 C-188.83232394 5.17073271 -186.38267619 2.81448049 -183.125 1.0625 C-178.39956696 1.10036405 -176.09748993 3.58380486 -172.75 6.6875 C-156.3283059 20.97673761 -131.25753126 27.03906781 -110.125 30.0625 C-110.125 30.7225 -110.125 31.3825 -110.125 32.0625 C-83.49379368 32.40275128 -58.0484353 31.78375429 -33.125 21.0625 C-32.52623047 20.80662109 -31.92746094 20.55074219 -31.31054688 20.28710938 C-20.89708809 15.74212194 -13.03550375 10.19197963 -5.125 2.0625 C-3.125 0.0625 -3.125 0.0625 0 0 Z " fill="#FCFDFD" transform="translate(593.125,602.9375)"/>
<path d="M0 0 C4.34483084 2.30020456 7.11153506 4.42792698 9 9 C10.10634276 15.97149387 10.14723694 23.00963956 10.1328125 30.05078125 C10.13479141 31.6115464 10.13479141 31.6115464 10.1368103 33.20384216 C10.1387173 36.57342562 10.13240225 39.94292505 10.125 43.3125 C10.12367065 45.04034729 10.12367065 45.04034729 10.12231445 46.80310059 C10.10687351 63.92888732 9.86552896 81.03421701 9.28567505 98.14997864 C9.0823883 104.2915465 8.91553219 110.4336055 8.84375 116.578125 C8.82505859 117.8352832 8.80636719 119.09244141 8.78710938 120.38769531 C9.01958774 124.33236269 9.66587718 127.29319464 11 131 C14.71204487 132.85602244 18.9487305 132.44875601 23 132 C28.09370067 129.45314966 31.55053295 125.96872326 34.0546875 120.83984375 C35.45962608 116.61922247 35.7014941 112.29366342 36.03515625 107.8828125 C36.51050175 103.12935746 37.434156 100.24972308 41 97 C44.76997014 96.21858801 48.50407102 97.17138818 51.84765625 99.0234375 C55.95645651 102.19337186 57.67523384 105.5076085 58.3359375 110.578125 C58.43483876 117.34297123 57.36622655 122.13794193 54 128 C53.57589844 128.75152344 53.15179687 129.50304687 52.71484375 130.27734375 C44.86162212 143.07437621 32.737358 150.10188691 18.46875 153.625 C-1.38477125 157.6403189 -23.19588617 156.30642568 -40.52734375 145.390625 C-50.21954611 138.90320709 -57.25335014 129.54302871 -60.59375 118.2890625 C-61.61992642 112.50695303 -60.86879094 107.09643335 -58.0625 101.9375 C-56 99 -56 99 -54 98 C-50.08175134 97.6303539 -47.75818129 97.55329377 -44.328125 99.57421875 C-41.26232777 102.76861486 -41.31831997 104.75362021 -41.0625 109.125 C-40.29684916 117.65905405 -37.53815862 123.70307947 -31.25 129.5625 C-27.25384735 132.11559753 -23.70340093 132.71186609 -19 132 C-16.21052176 131.3415256 -16.21052176 131.3415256 -14 129 C-13.25945124 125.20243569 -13.45411558 121.4256807 -13.55932617 117.57128906 C-13.57144638 116.39215942 -13.58356659 115.21302979 -13.59605408 113.99816895 C-13.63278157 110.76189398 -13.69116615 107.52678497 -13.75648284 104.29098988 C-13.81753621 100.90186401 -13.84392475 97.51251917 -13.87190247 94.12298584 C-13.96762808 83.30508714 -14.11769088 72.48806253 -14.29344302 61.6711843 C-14.40864507 54.56708506 -14.50067294 47.46352242 -14.54935628 40.35862899 C-14.57404463 36.9856612 -14.61473273 33.61450066 -14.69301414 30.2423172 C-14.77466494 26.47640038 -14.80706267 22.71295993 -14.82885742 18.94628906 C-14.86547485 17.83537903 -14.90209229 16.72446899 -14.93981934 15.57989502 C-14.91283876 8.19852832 -14.91283876 8.19852832 -12.27269936 4.73210907 C-8.39216011 1.20406233 -5.44659662 -1.30244702 0 0 Z " fill="#FAFAFA" transform="translate(503,432)"/>
<path d="M0 0 C0.99 0.33 1.98 0.66 3 1 C1.68 4.3 0.36 7.6 -1 11 C-1.66 11 -2.32 11 -3 11 C-3.33 11.99 -3.66 12.98 -4 14 C-4.66 14.33 -5.32 14.66 -6 15 C-7.08498371 16.90231892 -8.09548618 18.84758494 -9.0625 20.8125 C-9.58972656 21.87082031 -10.11695313 22.92914063 -10.66015625 24.01953125 C-11.72736146 26.39351834 -12.50231085 28.46239975 -13 31 C-13.66 31 -14.32 31 -15 31 C-15.18175781 31.54527344 -15.36351562 32.09054687 -15.55078125 32.65234375 C-18.27539062 40.82617188 -18.27539062 40.82617188 -21 49 C-21.66 49 -22.32 49 -23 49 C-23.28875 50.0725 -23.5775 51.145 -23.875 52.25 C-24.72820109 55.09400364 -25.5636503 57.43508983 -27 60 C-27.66 60 -28.32 60 -29 60 C-29.2475 61.2375 -29.495 62.475 -29.75 63.75 C-31.4387351 71.31363046 -33.84063486 78.66533126 -37.125 85.6875 C-38.85312683 89.40702297 -39.78399814 92.99972496 -40.56640625 97.015625 C-41 99 -41 99 -42.0625 101.5 C-42.96561807 103.90831486 -43.21846171 105.70915582 -43.4375 108.25 C-43.73667634 111.49285786 -44.32683796 114.25262607 -45.4375 117.3125 C-47.00906936 121.70833893 -47.75865563 126.04194455 -48.4609375 130.6484375 C-49.45055424 136.80127201 -50.74912462 142.89572814 -52 149 C-52.66 149 -53.32 149 -54 149 C-54.04898438 149.85980469 -54.09796875 150.71960938 -54.1484375 151.60546875 C-54.22320312 152.78753906 -54.29796875 153.96960938 -54.375 155.1875 C-54.44460937 156.33605469 -54.51421875 157.48460937 -54.5859375 158.66796875 C-54.84755458 162.05270335 -55.41366152 165.32580049 -56.01367188 168.66601562 C-57.30836322 177.01812625 -57.25174044 185.24844223 -57.1953125 193.67578125 C-57.19157247 195.33871794 -57.18873019 197.00165686 -57.18673706 198.66459656 C-57.17917839 202.99639194 -57.15959872 207.32804865 -57.1373291 211.65979004 C-57.11670126 216.09804408 -57.10769949 220.536321 -57.09765625 224.97460938 C-57.07634377 233.64980252 -57.0423043 242.32488391 -57 251 C-56.34 251 -55.68 251 -55 251 C-54.95512451 251.58378418 -54.91024902 252.16756836 -54.86401367 252.76904297 C-54.64974755 255.47205142 -54.41870251 258.17338952 -54.1875 260.875 C-54.11724609 261.7928125 -54.04699219 262.710625 -53.97460938 263.65625 C-53.47688686 269.31037775 -52.47329449 274.41917326 -50.67553711 279.80688477 C-50.02816622 281.90855902 -49.65081178 283.88438602 -49.375 286.0625 C-49.31914978 288.88480761 -49.31914978 288.88480761 -48 290 C-47.95936168 291.66617115 -47.957279 293.33388095 -48 295 C-47.34 295 -46.68 295 -46 295 C-45.89042969 295.89460938 -45.78085938 296.78921875 -45.66796875 297.7109375 C-44.81841235 309.58533241 -44.81841235 309.58533241 -40 320 C-39.67415798 321.4929489 -39.38976523 322.99501867 -39.125 324.5 C-38.15631045 329.52151569 -36.73490408 334.19688592 -35 339 C-34.7009375 339.85335938 -34.401875 340.70671875 -34.09375 341.5859375 C-30.3342638 352.16707204 -25.92589417 362.26277433 -20.81933594 372.25268555 C-18.3888676 377.06508304 -16.48456153 381.80403464 -15 387 C-18.02684569 384.41588696 -19.38168909 381.44296178 -21.0625 377.875 C-22.73486574 373.68869655 -22.73486574 373.68869655 -26 371 C-26.59505999 368.95475679 -26.95466781 366.90666043 -27.33984375 364.8125 C-27.55769531 364.214375 -27.77554688 363.61625 -28 363 C-28.99 362.67 -29.98 362.34 -31 362 C-32.25255622 359.67079135 -33.30447195 357.43367178 -34.3125 355 C-34.61518799 354.28739014 -34.91787598 353.57478027 -35.22973633 352.84057617 C-38.50070903 345.01571202 -41.32306691 337.0444571 -44 329 C-44.32774414 328.02861084 -44.32774414 328.02861084 -44.66210938 327.03759766 C-48.1810306 316.54309181 -48.1810306 316.54309181 -47 313 C-46.67 312.67 -46.34 312.34 -46 312 C-46.226112 310.19028237 -46.226112 310.19028237 -46.7421875 308.0625 C-46.92136719 307.24910156 -47.10054687 306.43570312 -47.28515625 305.59765625 C-47.47980469 304.74042969 -47.67445312 303.88320313 -47.875 303 C-49.30809448 296.66473408 -50.38684742 290.47071656 -51 284 C-51.66 284 -52.32 284 -53 284 C-53.33 283.34 -53.66 282.68 -54 282 C-54 283.65 -54 285.3 -54 287 C-74.99381441 255.50927838 -64.77212418 180.02018422 -58 145 C-57.7360248 143.48759596 -57.47538888 141.9746037 -57.21875 140.4609375 C-56.97930515 139.09893398 -56.73972502 137.73695424 -56.5 136.375 C-56.38269531 135.66988281 -56.26539062 134.96476563 -56.14453125 134.23828125 C-55.82928716 132.47901585 -55.42253584 130.73662231 -55 129 C-54.34 128.67 -53.68 128.34 -53 128 C-52.505 130.475 -52.505 130.475 -52 133 C-50.55790808 128.49346274 -49.65776852 124.79124078 -50 120 C-50.33 119.67 -50.66 119.34 -51 119 C-51.25306018 110.86592282 -48.30234353 103.40305229 -45.63769531 95.86083984 C-44.69143296 93.09957963 -43.88246305 90.30096622 -43.0625 87.5 C-41.54885235 82.54065038 -39.82638907 77.70106213 -37.9375 72.875 C-37.69201416 72.23498047 -37.44652832 71.59496094 -37.19360352 70.93554688 C-35.3415379 66.31437946 -35.3415379 66.31437946 -33.37890625 64.5078125 C-31.18323583 62.1068811 -31.44118633 59.16732274 -31 56 C-29.95153409 53.52741463 -28.87784432 51.23568352 -27.625 48.875 C-27.27630859 48.19977295 -26.92761719 47.5245459 -26.56835938 46.82885742 C-25.80178205 45.34852994 -25.03040741 43.87067933 -24.25488281 42.39501953 C-22.92296844 39.85298061 -21.61285664 37.30042686 -20.3046875 34.74609375 C-8.38200735 11.57052349 -8.38200735 11.57052349 -4 6 C-3.01 6 -2.02 6 -1 6 C-0.67 4.02 -0.34 2.04 0 0 Z " fill="#232C2E" transform="translate(155,267)"/>
<path d="M0 0 C0.66 0 1.32 0 2 0 C3.18352554 3.73053011 3.12302852 7.26795628 3.12025452 11.16265869 C3.12153615 12.24584306 3.12153615 12.24584306 3.12284368 13.35090995 C3.12449088 15.77074905 3.11898955 18.19051884 3.11352539 20.61035156 C3.11324333 22.34490965 3.11340162 24.07946786 3.1139679 25.81402588 C3.11425513 30.52439303 3.10837031 35.23473478 3.10139394 39.94509602 C3.09514812 44.86718429 3.09455563 49.78927312 3.09336853 54.71136475 C3.09025885 64.03271975 3.08205033 73.35406305 3.07201904 82.67541289 C3.06084666 93.28715222 3.05534461 103.89889211 3.05032361 114.51063585 C3.03986743 136.34043044 3.02227498 158.17021448 3 180 C0.65250607 176.29414285 0.56369979 172.54363717 0.38209534 168.28285217 C0.34445275 167.53056967 0.30681016 166.77828716 0.26802689 166.00320822 C-0.09432151 158.16143435 -0.1338224 150.32308569 -0.11352539 142.47436523 C-0.11324229 140.90537518 -0.11340364 139.336385 -0.1139679 137.76739502 C-0.11425109 133.56811041 -0.10843281 129.36885522 -0.10139394 125.16957736 C-0.0950797 120.75872881 -0.09455029 116.34787935 -0.09336853 111.93702698 C-0.09027875 103.61129281 -0.08209756 95.28557201 -0.07201904 86.9598437 C-0.06078422 77.46990998 -0.055329 67.97997557 -0.05032361 58.49003685 C-0.03991259 38.99335036 -0.02235942 19.49667626 0 0 Z " fill="#1E1F21" transform="translate(261,286)"/>
<path d="M0 0 C-0.33 3.96 -0.66 7.92 -1 12 C-4.85391488 13.28463829 -8.51724931 13.18202956 -12.53515625 13.203125 C-13.78684853 13.21167511 -13.78684853 13.21167511 -15.06382751 13.22039795 C-16.82647435 13.22983726 -18.58913875 13.23637769 -20.35180664 13.24023438 C-23.05580997 13.2499759 -25.7590645 13.28102299 -28.46289062 13.3125 C-30.17447465 13.31902669 -31.88606411 13.32427847 -33.59765625 13.328125 C-34.40912613 13.3404718 -35.22059601 13.3528186 -36.05665588 13.36553955 C-38.33227539 13.35644531 -38.33227539 13.35644531 -42 13 C-44 10 -44 10 -43.625 6.8125 C-43.41875 5.884375 -43.2125 4.95625 -43 4 C-44.65 3.67 -46.3 3.34 -48 3 C-48 2.67 -48 2.34 -48 2 C-47.21052979 2.01047363 -46.42105957 2.02094727 -45.60766602 2.03173828 C-30.31240766 2.20766103 -15.11116429 0 0 0 Z " fill="#EEEFF0" transform="translate(532,633)"/>
<path d="M0 0 C1.48834832 0.00234782 2.97671395 0.01735768 4.46484375 0.04296875 C5.23546143 0.05086426 6.0060791 0.05875977 6.80004883 0.06689453 C14.29301663 0.1791902 21.31395686 0.5041661 28.40234375 3.23046875 C20.56033827 11.5635022 9.04376522 18.02666754 -1.59765625 22.23046875 C-3.59765625 21.23046875 -3.59765625 21.23046875 -4.70703125 19.1171875 C-5.77747412 15.64763801 -5.86294575 12.67040373 -5.84765625 9.04296875 C-5.8528125 7.81191406 -5.85796875 6.58085938 -5.86328125 5.3125 C-5.4689822 0.73747128 -4.542834 0.2910176 0 0 Z " fill="#EDEEEE" transform="translate(539.59765625,649.76953125)"/>
<path d="M0 0 C3.1371334 1.37677688 5.06626682 2.92505507 7.375 5.4375 C12.52185524 10.71779223 18.30096938 15.07820905 24.13574219 19.55908203 C25.99030875 20.99250946 27.82939732 22.443554 29.6640625 23.90234375 C35.51515074 28.55310718 41.38560684 33.09245779 47.5625 37.30859375 C50.32230115 39.22364807 52.99851703 41.23691628 55.6875 43.25 C58.61328997 45.39503141 61.29886735 47.31575557 64.6875 48.625 C68.27874976 50.11570745 70.76484878 52.01033392 73.71484375 54.5 C76.29017461 56.19047359 78.94343519 57.14960178 81.83520508 58.17871094 C85.47900589 59.56111152 88.90978278 61.35013264 92.375 63.125 C93.08527344 63.48464844 93.79554688 63.84429688 94.52734375 64.21484375 C96.35324293 65.13991981 98.17679591 66.06962354 100 67 C100.66 67.33 101.32 67.66 102 68 C102 68.66 102 69.32 102 70 C104.50471129 71.0081575 107.01168827 72.00444839 109.53515625 72.96484375 C110.36917969 73.28582031 111.20320313 73.60679687 112.0625 73.9375 C112.89910156 74.25589844 113.73570312 74.57429687 114.59765625 74.90234375 C117.04068161 76.01858786 118.87976054 77.36609313 121 79 C122.31836295 79.69580267 123.64791086 80.37224433 125 81 C115.96868712 80.84155591 108.88262119 76.96911853 101 73 C99.51599613 72.26357456 98.03161513 71.52790865 96.546875 70.79296875 C92.68960989 68.87820511 88.84316061 66.94290487 85 65 C84.34 64.67 83.68 64.34 83 64 C83 63.01 83 62.02 83 61 C82.34 61 81.68 61 81 61 C81 60.34 81 59.68 81 59 C78.69 58.67 76.38 58.34 74 58 C74 57.34 74 56.68 74 56 C72.35 55.67 70.7 55.34 69 55 C69 54.34 69 53.68 69 53 C68.01 53 67.02 53 66 53 C66 52.34 66 51.68 66 51 C65.26394531 51.05800781 64.52789062 51.11601563 63.76953125 51.17578125 C60.46596289 50.96610484 59.30346266 50.17154273 56.6875 48.1875 C53.62457795 45.92202511 50.56382768 43.68582416 47.390625 41.578125 C34.13412608 32.7510052 21.87157091 22.75220168 10.16015625 11.96484375 C7.32042068 9.38186546 4.36917669 6.93841729 1.3984375 4.5078125 C0 3 0 3 0 0 Z " fill="#232D2C" transform="translate(212,750)"/>
<path d="M0 0 C0.33 0 0.66 0 1 0 C1.04487549 0.58378418 1.08975098 1.16756836 1.13598633 1.76904297 C1.35025245 4.47205142 1.58129749 7.17338952 1.8125 9.875 C1.88275391 10.7928125 1.95300781 11.710625 2.02539062 12.65625 C2.52311314 18.31037775 3.52670551 23.41917326 5.32446289 28.80688477 C5.97183378 30.90855902 6.34918822 32.88438602 6.625 35.0625 C6.68085022 37.88480761 6.68085022 37.88480761 8 39 C8.04063832 40.66617115 8.042721 42.33388095 8 44 C8.66 44 9.32 44 10 44 C10.10957031 44.89460937 10.21914062 45.78921875 10.33203125 46.7109375 C11.18158765 58.58533241 11.18158765 58.58533241 16 69 C16.32584202 70.4929489 16.61023477 71.99501867 16.875 73.5 C17.84368955 78.52151569 19.26509592 83.19688592 21 88 C21.2990625 88.85335937 21.598125 89.70671875 21.90625 90.5859375 C25.6657362 101.16707204 30.07410583 111.26277433 35.18066406 121.25268555 C37.6111324 126.06508304 39.51543847 130.80403464 41 136 C37.97315431 133.41588696 36.61831091 130.44296178 34.9375 126.875 C33.26513426 122.68869655 33.26513426 122.68869655 30 120 C29.40494001 117.95475679 29.04533219 115.90666043 28.66015625 113.8125 C28.44230469 113.214375 28.22445312 112.61625 28 112 C26.515 111.505 26.515 111.505 25 111 C23.74744378 108.67079135 22.69552805 106.43367178 21.6875 104 C21.38481201 103.28739014 21.08212402 102.57478027 20.77026367 101.84057617 C17.49929097 94.01571202 14.67693309 86.0444571 12 78 C11.78150391 77.35240723 11.56300781 76.70481445 11.33789062 76.03759766 C7.8189694 65.54309181 7.8189694 65.54309181 9 62 C9.495 61.505 9.495 61.505 10 61 C9.773888 59.19028237 9.773888 59.19028237 9.2578125 57.0625 C8.98904297 55.84240234 8.98904297 55.84240234 8.71484375 54.59765625 C8.52019531 53.74042969 8.32554688 52.88320313 8.125 52 C6.69190552 45.66473408 5.61315258 39.47071656 5 33 C4.34 33 3.68 33 3 33 C2.67 32.34 2.34 31.68 2 31 C2 32.65 2 34.3 2 36 C-1.26566506 31.10150241 -1.09311493 27.68001091 -1 22 C-0.67 22 -0.34 22 0 22 C0 14.74 0 7.48 0 0 Z " fill="#1A2224" transform="translate(99,518)"/>
<path d="M0 0 C1.65 1.65 3.3 3.3 5 5 C7.70908122 7.60464038 10.44927803 10.17603505 13.1875 12.75 C13.9412793 13.45938721 14.69505859 14.16877441 15.47167969 14.8996582 C20.27227545 19.40704454 25.12201979 23.8465347 30.0390625 28.2265625 C32.44860257 30.4057083 34.74118258 32.66588866 37 35 C36.01 35.495 36.01 35.495 35 36 C32.3137207 34.70825195 32.3137207 34.70825195 28.92578125 32.73828125 C28.02269478 32.21768379 28.02269478 32.21768379 27.10136414 31.68656921 C25.1672937 30.56936432 23.2399019 29.4411631 21.3125 28.3125 C20.03232936 27.57022434 18.75173497 26.82867901 17.47070312 26.08789062 C15.08884368 24.7093477 12.71017157 23.32581103 10.33325195 21.9387207 C6.89877522 19.94112459 3.45192311 17.96724855 0 16 C0 10.72 0 5.44 0 0 Z " fill="#E2E2E4" transform="translate(358,686)"/>
<path d="M0 0 C0.99 0 1.98 0 3 0 C2.67370955 6.12075879 2.08282997 11.38860809 -0.3125 17.04296875 C-1.07507142 19.21369762 -1.31016002 21.14755522 -1.5 23.4375 C-1.76679289 26.62812513 -2.34560684 29.30300343 -3.4375 32.3125 C-5.00906936 36.70833893 -5.75865563 41.04194455 -6.4609375 45.6484375 C-7.45055424 51.80127201 -8.74912462 57.89572814 -10 64 C-10.66 64 -11.32 64 -12 64 C-12.33 68.62 -12.66 73.24 -13 78 C-13.33 78 -13.66 78 -14 78 C-13.96447021 77.36497559 -13.92894043 76.72995117 -13.89233398 76.07568359 C-13.73393149 73.17578092 -13.58563116 70.27544474 -13.4375 67.375 C-13.38142578 66.37597656 -13.32535156 65.37695312 -13.26757812 64.34765625 C-13.01965321 59.35610131 -13.0865013 54.93289298 -14 50 C-13.0625 46.125 -13.0625 46.125 -12 43 C-11.67 43 -11.34 43 -11 43 C-10.67 44.65 -10.34 46.3 -10 48 C-8.55790808 43.49346274 -7.65776852 39.79124078 -8 35 C-8.33 34.67 -8.66 34.34 -9 34 C-9.27240978 25.24397139 -5.88615073 17.1024048 -3 9 C-2.39081886 7.1891792 -1.78565319 5.37699342 -1.1875 3.5625 C-0.5996875 1.7990625 -0.5996875 1.7990625 0 0 Z " fill="#272C2D" transform="translate(113,352)"/>
<path d="M0 0 C0.33 0 0.66 0 1 0 C1.01030746 0.57168411 1.02061493 1.14336823 1.03123474 1.7323761 C1.14102071 7.78544718 1.25543552 13.83841924 1.37231445 19.89135742 C1.41512293 22.13808075 1.45682473 24.38482549 1.49731445 26.6315918 C1.69806524 37.73236679 1.92021927 48.82823559 2.47265625 59.91796875 C2.52829994 61.09109367 2.52829994 61.09109367 2.58506775 62.28791809 C2.75518953 65.40261906 3.00827901 68.02483704 4 71 C4.96939238 79.317626 5.13563988 87.63554081 5 96 C4.01 95.67 3.02 95.34 2 95 C-1.41511341 78.06608546 -1.39734479 61.26371676 -1.26428223 44.07806396 C-1.24511845 41.12201091 -1.24112358 38.16602017 -1.2375679 35.20991325 C-1.23238786 31.63731045 -1.21791456 28.06476107 -1.203125 24.4921875 C-1.19887512 23.18474579 -1.19462524 21.87730408 -1.19024658 20.53024292 C-1.13660203 13.62870759 -0.86386429 6.850242 0 0 Z " fill="#1A2425" transform="translate(95,447)"/>
<path d="M0 0 C1.5627962 0.14262412 3.12522696 0.28925511 4.6875 0.4375 C5.99267578 0.55931641 5.99267578 0.55931641 7.32421875 0.68359375 C10 1 10 1 12.41015625 1.5078125 C16.64721638 2.31304565 20.93346289 2.39447618 25.234375 2.62109375 C28.0561399 2.90502652 30.51301842 3.30510658 33.24584961 3.95385742 C51.91389048 8.16988215 71.2752206 7.24571946 90.29040527 7.1373291 C94.32704547 7.11656724 98.36371199 7.10767171 102.40039062 7.09765625 C110.26699772 7.07645039 118.13347914 7.04248971 126 7 C126 7.33 126 7.66 126 8 C91.96986231 12.84291667 56.53894967 10.44136575 22.6875 5.5 C21.9504483 5.3924942 21.21339661 5.2849884 20.45401001 5.17422485 C18.34708254 4.86290737 16.2416917 4.5429984 14.13671875 4.21875 C12.92717529 4.03248047 11.71763184 3.84621094 10.47143555 3.65429688 C6.87905245 2.97720378 3.49604464 2.05756119 0 1 C0 0.67 0 0.34 0 0 Z " fill="#9FA9A9" transform="translate(410,854)"/>
<path d="M0 0 C3.44494263 3.26024874 6.31072125 6.870603 9.1875 10.625 C13.22815555 15.83936011 17.4320802 20.80398134 21.90625 25.65625 C23.95287405 27.94724707 25.81959593 30.3122269 27.6875 32.75 C31.8126677 38.02384244 36.52145681 42.63480653 41.34057617 47.26660156 C41.92814697 47.83733398 42.51571777 48.40806641 43.12109375 48.99609375 C43.6514624 49.50325928 44.18183105 50.0104248 44.72827148 50.53295898 C46 52 46 52 47 55 C46.01 55 45.02 55 44 55 C44 54.34 44 53.68 44 53 C43.443125 52.773125 42.88625 52.54625 42.3125 52.3125 C39.34698625 50.62937057 37.38890463 48.43695731 35 46 C34.06542969 45.08863281 33.13085938 44.17726563 32.16796875 43.23828125 C16.57384232 27.98360822 16.57384232 27.98360822 13.93359375 21.30078125 C13.1871043 18.79600077 13.1871043 18.79600077 10.6875 17.625 C7.14557839 15.48337298 4.8677277 12.69571652 3 9 C3 7.68 3 6.36 3 5 C2.01 4.67 1.02 4.34 0 4 C0 2.68 0 1.36 0 0 Z " fill="#293031" transform="translate(165,695)"/>
<path d="M0 0 C0.33 0 0.66 0 1 0 C1.0867383 4.94972442 0.87454813 9.70645061 0.32040405 14.62240601 C-1.52833353 31.32401243 -1.44593866 48.10486144 -1.60089111 64.88708496 C-1.64157013 69.08495369 -1.69236335 73.28270037 -1.7421875 77.48046875 C-1.83776401 85.65356101 -1.92252857 93.82671611 -2 102 C-4.39871711 98.40192434 -4.26313321 96.75808005 -4.29052734 92.47851562 C-4.29724457 91.81919037 -4.30396179 91.15986511 -4.31088257 90.4805603 C-4.32994169 88.28904717 -4.33379556 86.09784108 -4.3359375 83.90625 C-4.34237736 82.3609607 -4.34910657 80.81567259 -4.35610962 79.27038574 C-4.36811418 76.0119344 -4.37178892 72.75358909 -4.37060547 69.49511719 C-4.3704452 66.20777836 -4.38395004 62.92101025 -4.41162109 59.63378906 C-4.58025965 39.34710012 -3.83466827 19.99327421 0 0 Z " fill="#ABBAB3" transform="translate(101,416)"/>
<path d="M0 0 C0.87414551 -0.0007251 1.74829102 -0.0014502 2.64892578 -0.00219727 C16.00227703 -0.0009751 29.17826703 0.48447925 42.4375 2.1875 C42.4375 2.5175 42.4375 2.8475 42.4375 3.1875 C41.69105225 3.18527939 40.94460449 3.18305878 40.17553711 3.18077087 C33.11428169 3.1606693 26.05303631 3.14547576 18.99176025 3.13568783 C15.36217012 3.13048648 11.73260379 3.12343917 8.10302734 3.11206055 C4.59522266 3.10113346 1.08744076 3.0952025 -2.42037964 3.09262276 C-4.39883171 3.08989702 -6.37727471 3.08210079 -8.35571289 3.07420349 C-14.53567426 3.07382109 -20.45110331 3.28655172 -26.5625 4.1875 C-28.43985036 4.30846852 -30.31906421 4.40474474 -32.19921875 4.46875 C-33.18857422 4.50613281 -34.17792969 4.54351562 -35.19726562 4.58203125 C-37.24412669 4.65274814 -39.29100193 4.72305604 -41.33789062 4.79296875 C-42.32337891 4.83035156 -43.30886719 4.86773437 -44.32421875 4.90625 C-45.21069092 4.93654297 -46.09716309 4.96683594 -47.01049805 4.99804688 C-49.59790811 5.19012859 -52.02674791 5.65181166 -54.5625 6.1875 C-55.99878457 6.25016512 -57.4375555 6.27436347 -58.875 6.25 C-60.7003125 6.2190625 -60.7003125 6.2190625 -62.5625 6.1875 C-62.5625 5.8575 -62.5625 5.5275 -62.5625 5.1875 C-41.91484926 0.99553635 -21.01476783 -0.01784946 0 0 Z " fill="#636D6D" transform="translate(493.5625,88.8125)"/>
<path d="M0 0 C0.495 5.445 0.495 5.445 1 11 C-4.02125926 11.77916092 -7.97703996 12.13016601 -13 11 C-13 11.99 -13 12.98 -13 14 C-15.89444095 14.6732656 -18.79030013 15.33880404 -21.6875 16 C-22.50412109 16.19078125 -23.32074219 16.3815625 -24.16210938 16.578125 C-28.17239326 17.48733916 -31.85717252 18.27000098 -36 18 C-33.65977742 16.78308426 -31.31729012 15.7163208 -28.87890625 14.703125 C-24.62651348 12.88842372 -20.57304247 10.74474726 -16.5 8.5625 C-15.77941406 8.18029297 -15.05882812 7.79808594 -14.31640625 7.40429688 C-10.85507385 5.56096524 -7.42460823 3.68074083 -4.03125 1.71484375 C-1 0 -1 0 0 0 Z " fill="#CBCDD0" transform="translate(576,742)"/>
<path d="M0 0 C1.74630699 3.49261398 1.18463963 7.46530618 1.1875 11.3125 C1.19974609 12.16779297 1.21199219 13.02308594 1.22460938 13.90429688 C1.23501414 18.38181307 1.12119428 21.93367895 -1 26 C-3.97 25.67 -6.94 25.34 -10 25 C-10.33 23.35 -10.66 21.7 -11 20 C-10.34 20 -9.68 20 -9 20 C-8.773125 19.21625 -8.54625 18.4325 -8.3125 17.625 C-6.59238805 12.87421462 -4.30977624 8.48629616 -2 4 C-1.33152726 2.66757123 -0.66420551 1.33456107 0 0 Z " fill="#D2D3E0" transform="translate(708,577)"/>
<path d="M0 0 C0.66 0.33 1.32 0.66 2 1 C1.39450867 7.53196705 -0.67629969 13.34521526 -2.875 19.5 C-3.22691406 20.50675781 -3.57882813 21.51351563 -3.94140625 22.55078125 C-5.78793077 27.78832106 -7.73516924 32.92905817 -10 38 C-10.495 36.515 -10.495 36.515 -11 35 C-11.66 35 -12.32 35 -13 35 C-12.45973086 27.07605264 -9.70410561 18.62261839 -4 13 C-3.64820803 10.6693782 -3.31669821 8.33564933 -3 6 C-1.4375 2.5625 -1.4375 2.5625 0 0 Z " fill="#293030" transform="translate(127,317)"/>
<path d="M0 0 C0.66 1.32 1.32 2.64 2 4 C2.66 4 3.32 4 4 4 C3.85304688 4.87785156 3.70609375 5.75570313 3.5546875 6.66015625 C3.22136837 8.667113 2.89196398 10.67473403 2.5703125 12.68359375 C1.25233033 20.83427298 -0.34275314 28.9126353 -2 37 C-2.66 37 -3.32 37 -4 37 C-4.33 41.62 -4.66 46.24 -5 51 C-5.33 51 -5.66 51 -6 51 C-5.96447021 50.36497559 -5.92894043 49.72995117 -5.89233398 49.07568359 C-5.73393149 46.17578092 -5.58563116 43.27544474 -5.4375 40.375 C-5.38142578 39.37597656 -5.32535156 38.37695312 -5.26757812 37.34765625 C-5.01965321 32.35610131 -5.0865013 27.93289298 -6 23 C-5.0625 19.125 -5.0625 19.125 -4 16 C-3.67 16 -3.34 16 -3 16 C-2.67 17.65 -2.34 19.3 -2 21 C-0.55790808 16.49346274 0.34223148 12.79124078 0 8 C-0.33 7.67 -0.66 7.34 -1 7 C-0.71269945 4.66055264 -0.38063221 2.3260857 0 0 Z " fill="#252D31" transform="translate(105,379)"/>
<path d="M0 0 C0.33 0 0.66 0 1 0 C1.04487549 0.58378418 1.08975098 1.16756836 1.13598633 1.76904297 C1.35025245 4.47205142 1.58129749 7.17338952 1.8125 9.875 C1.88275391 10.7928125 1.95300781 11.710625 2.02539062 12.65625 C2.52311314 18.31037775 3.52670551 23.41917326 5.32446289 28.80688477 C5.97183378 30.90855902 6.34918822 32.88438602 6.625 35.0625 C6.68085022 37.88480761 6.68085022 37.88480761 8 39 C8.04063832 40.66617115 8.042721 42.33388095 8 44 C8.66 44 9.32 44 10 44 C11 51 12 58 13 65 C9.36690751 61.21120354 8.83767307 56.78374374 7.875 51.8125 C7.70613281 50.99974609 7.53726563 50.18699219 7.36328125 49.34960938 C6.26526341 43.91571793 5.54332543 38.51641631 5 33 C4.34 33 3.68 33 3 33 C2.67 32.34 2.34 31.68 2 31 C2 32.65 2 34.3 2 36 C-1.26566506 31.10150241 -1.09311493 27.68001091 -1 22 C-0.67 22 -0.34 22 0 22 C0 14.74 0 7.48 0 0 Z " fill="#73797A" transform="translate(99,518)"/>
<path d="M0 0 C2 3 2 3 2 7 C2.66 7 3.32 7 4 7 C5.81260955 13.78764427 7.39902127 20.60676739 8.75 27.5 C8.88962158 28.18191406 9.02924316 28.86382813 9.1730957 29.56640625 C9.82327982 32.98422582 10.24766281 35.6953796 9 39 C8.34 38.34 7.68 37.68 7 37 C6.67 37 6.34 37 6 37 C4.97645434 33.0891119 3.98569594 29.17058341 3 25.25 C2.71382813 24.15816406 2.42765625 23.06632813 2.1328125 21.94140625 C0.28163884 14.49263606 -0.37449187 7.66668075 0 0 Z " fill="#1A2123" transform="translate(100,544)"/>
<path d="M0 0 C0.66 0.33 1.32 0.66 2 1 C2.30859375 3.51953125 2.30859375 3.51953125 2.4375 6.8125 C2.77767967 12.64048386 3.82362077 17.85325002 5.4765625 23.44140625 C6.01907364 26.0932331 6.02679616 27.51199391 5 30 C4.34 30.33 3.68 30.66 3 31 C-0.80647597 21.29348627 -3.43885939 12.58697591 -2 2 C-1.34 1.34 -0.68 0.68 0 0 Z " fill="#E1E0E3" transform="translate(261,466)"/>
<path d="M0 0 C2.80243462 1.40121731 2.82465052 2.87417325 3.8125 5.8125 C7.26847549 15.6613972 11.43591908 24.97058615 16.18066406 34.25268555 C18.6111324 39.06508304 20.51543847 43.80403464 22 49 C18.97315431 46.41588696 17.61831091 43.44296178 15.9375 39.875 C14.26513426 35.68869655 14.26513426 35.68869655 11 33 C10.40494001 30.95475679 10.04533219 28.90666043 9.66015625 26.8125 C9.44230469 26.214375 9.22445312 25.61625 9 25 C8.01 24.67 7.02 24.34 6 24 C3.06350558 19.4321198 3 16.30525664 3 11 C2.15661581 7.28509343 1.10709127 3.64417544 0 0 Z " fill="#656A6C" transform="translate(118,605)"/>
<path d="M0 0 C5.91029549 0.32237975 9.59204257 1.64559951 14.64453125 4.671875 C17.83806371 6.47254007 21.16938281 7.71963148 24.5859375 9.03125 C27.51948599 10.20846687 30.29775463 11.6040365 33.10546875 13.05078125 C36.01381575 14.50795304 38.99790492 15.74912705 42 17 C42 17.33 42 17.66 42 18 C33.72875465 17.85489043 27.31189407 14.67652482 20.07617188 11.04101562 C17.90749099 9.95361496 15.72841605 8.88946655 13.546875 7.828125 C12.0932728 7.11555598 10.64013543 6.40203781 9.1875 5.6875 C8.49970459 5.35032959 7.81190918 5.01315918 7.10327148 4.66577148 C4.38674234 3.30904903 2.16217045 2.16217045 0 0 Z " fill="#1B2423" transform="translate(295,813)"/>
<path d="M0 0 C0.33 0 0.66 0 1 0 C1.06058594 0.89203125 1.12117188 1.7840625 1.18359375 2.703125 C1.26738281 3.87359375 1.35117187 5.0440625 1.4375 6.25 C1.51871094 7.41015625 1.59992188 8.5703125 1.68359375 9.765625 C1.87871855 12.78520837 1.87871855 12.78520837 2.51367188 14.76757812 C3.186201 17.85472988 3.11103743 20.79516566 3.09765625 23.953125 C3.09553383 24.94345734 3.09553383 24.94345734 3.09336853 25.95379639 C3.08779245 28.05257794 3.07524447 30.15125095 3.0625 32.25 C3.0574819 33.67708179 3.05291954 35.10416525 3.04882812 36.53125 C3.03783088 40.02086832 3.0205828 43.51042356 3 47 C2.01 46.67 1.02 46.34 0 46 C0 30.82 0 15.64 0 0 Z " fill="#1E1F21" transform="translate(261,228)"/>
<path d="M0 0 C3.44487995 3.26018942 6.31119037 6.87028423 9.1875 10.625 C13.31321052 15.96005462 17.59158422 21.00663355 22.22265625 25.9140625 C23.89479383 27.87652727 24.97298601 29.64797832 26 32 C17.22666286 28.08221524 17.22666286 28.08221524 15 24 C14.71125 23.154375 14.4225 22.30875 14.125 21.4375 C13.19667772 18.82154163 13.19667772 18.82154163 10.6875 17.625 C7.14557839 15.48337298 4.8677277 12.69571652 3 9 C3 7.68 3 6.36 3 5 C2.01 4.67 1.02 4.34 0 4 C0 2.68 0 1.36 0 0 Z " fill="#3E4748" transform="translate(165,695)"/>
<path d="M0 0 C0.99 0 1.98 0 3 0 C3 0.66 3 1.32 3 2 C2.34 2 1.68 2 1 2 C0.81824219 2.54527344 0.63648438 3.09054687 0.44921875 3.65234375 C-1.3671875 9.1015625 -3.18359375 14.55078125 -5 20 C-5.66 20 -6.32 20 -7 20 C-7.28875 21.0725 -7.5775 22.145 -7.875 23.25 C-8.72820109 26.09400364 -9.5636503 28.43508983 -11 31 C-12.54343301 27.91313398 -11.55815069 25.34890414 -11 22 C-10.84337891 20.61167969 -10.84337891 20.61167969 -10.68359375 19.1953125 C-9.86632231 15.3751523 -8.34648869 12.52647076 -6.4375 9.125 C-5.79683594 7.97257812 -5.15617188 6.82015625 -4.49609375 5.6328125 C-4.00238281 4.76398438 -3.50867188 3.89515625 -3 3 C-2.01 3 -1.02 3 0 3 C0 2.01 0 1.02 0 0 Z " fill="#2A2E2D" transform="translate(139,296)"/>
<path d="M0 0 C-1.60505593 3.98370394 -4.38782737 6.67716077 -7.3828125 9.6484375 C-7.91591034 10.18344879 -8.44900818 10.71846008 -8.9982605 11.26968384 C-10.12724136 12.40002341 -11.25874274 13.52785034 -12.39257812 14.65332031 C-14.10517402 16.35529695 -15.80695132 18.06755586 -17.5078125 19.78125 C-23.05398715 25.333516 -28.52351864 30.51871828 -35 35 C-33.26998822 31.28324288 -31.15336798 28.97970351 -28.1875 26.125 C-24.09368365 22.13831532 -24.09368365 22.13831532 -20.375 17.8125 C-17.84347689 14.81464368 -15.11350193 12.41043238 -12.12890625 9.87890625 C-9.14326486 7.24387229 -6.40939965 4.38596338 -3.6640625 1.50390625 C-2 0 -2 0 0 0 Z " fill="#CBCDCC" transform="translate(225,190)"/>
<path d="M0 0 C0.33 0 0.66 0 1 0 C2.19388403 41.23980265 2.19388403 41.23980265 2 58 C1.34 58 0.68 58 0 58 C-0.98247617 53.91087983 -1.11755081 50.10601194 -1.09375 45.90625 C-1.09016479 45.21486938 -1.08657959 44.52348877 -1.08288574 43.81115723 C-1.01710662 35.03817104 -0.75674721 26.26903722 -0.5 17.5 C-0.45161732 15.79037039 -0.40343921 14.08073498 -0.35546875 12.37109375 C-0.23932639 8.24732545 -0.1204545 4.1236445 0 0 Z " fill="#23272A" transform="translate(512,503)"/>
<path d="M0 0 C18.99336706 3.66607085 18.99336706 3.66607085 26.5234375 7.05859375 C30.87042985 8.71099936 35.43587673 9.43808896 39.99609375 10.2890625 C43 11 43 11 46 13 C40.555 12.505 40.555 12.505 35 12 C35 11.34 35 10.68 35 10 C34.03578125 9.93941406 33.0715625 9.87882813 32.078125 9.81640625 C30.81484375 9.73261719 29.5515625 9.64882813 28.25 9.5625 C26.37054688 9.44068359 26.37054688 9.44068359 24.453125 9.31640625 C19.30461883 8.84465399 19.30461883 8.84465399 17 8 C16.67 7.34 16.34 6.68 16 6 C13.32890366 5.15665594 13.32890366 5.15665594 10.1875 4.5 C6.50667571 3.67506496 3.29848757 2.85290343 0 1 C0 0.67 0 0.34 0 0 Z " fill="#4B5858" transform="translate(363,841)"/>
<path d="M0 0 C0.7734375 0.09925781 1.546875 0.19851562 2.34375 0.30078125 C4.5 0.6875 4.5 0.6875 7.5 1.6875 C7.5 2.3475 7.5 3.0075 7.5 3.6875 C6.18 3.6875 4.86 3.6875 3.5 3.6875 C3.5 3.0275 3.5 2.3675 3.5 1.6875 C-0.71610318 1.77182206 -3.75651452 2.33393441 -6.875 5.1875 C-10.90992133 10.25783765 -10.23519939 16.84648801 -10.296875 23.01953125 C-10.5 26.6875 -10.5 26.6875 -12.5 28.6875 C-12.63615919 25.68594627 -12.7346398 22.690679 -12.8125 19.6875 C-12.8753418 18.42873047 -12.8753418 18.42873047 -12.93945312 17.14453125 C-13.06217264 10.8122042 -11.67596659 6.52524798 -7.5 1.6875 C-4.19720869 -0.51436088 -3.70802649 -0.51294366 0 0 Z " fill="#09080A" transform="translate(274.5,214.3125)"/>
<path d="M0 0 C4.2906895 1.34084047 7.24552832 3.63113342 10.64453125 6.46484375 C13.29215135 8.1904071 15.8754299 9.12672864 18.83959961 10.1809082 C22.48212033 11.56192945 25.91129888 13.35090918 29.375 15.125 C30.08527344 15.48464844 30.79554688 15.84429688 31.52734375 16.21484375 C33.35324293 17.13991981 35.17679591 18.06962354 37 19 C37.66 19.33 38.32 19.66 39 20 C39 20.66 39 21.32 39 22 C35.44993755 20.93498127 32.21428096 19.64739519 28.9375 17.9375 C25.97010421 16.4053897 23.34904486 15.41863061 20 15 C20 14.34 20 13.68 20 13 C19.34 13 18.68 13 18 13 C18 12.34 18 11.68 18 11 C15.69 10.67 13.38 10.34 11 10 C11 9.34 11 8.68 11 8 C9.35 7.67 7.7 7.34 6 7 C6 6.34 6 5.68 6 5 C5.01 5 4.02 5 3 5 C3 4.34 3 3.68 3 3 C2.01 3 1.02 3 0 3 C0 2.01 0 1.02 0 0 Z " fill="#636F6E" transform="translate(275,798)"/>
<path d="M0 0 C0 0.66 0 1.32 0 2 C-1.33333333 3.33333333 -2.66666667 4.66666667 -4 6 C-4.33 6.99 -4.66 7.98 -5 9 C-6.68652344 9.70776367 -6.68652344 9.70776367 -8.859375 10.16796875 C-10.03886719 10.42416992 -10.03886719 10.42416992 -11.2421875 10.68554688 C-12.06976562 10.85119141 -12.89734375 11.01683594 -13.75 11.1875 C-14.96816406 11.45336914 -14.96816406 11.45336914 -16.2109375 11.72460938 C-20.19118248 12.56409101 -23.90867891 13.24115511 -28 13 C-25.64557296 11.77569794 -23.28996137 10.70546546 -20.8359375 9.6875 C-16.10873503 7.67247524 -11.66105432 5.17713721 -7.16601562 2.69726562 C-2.20685007 0 -2.20685007 0 0 0 Z " fill="#C4C7C8" transform="translate(568,747)"/>
<path d="M0 0 C3.25222629 1.41432357 5.27152932 3.10945162 7.6875 5.6875 C11.80056628 9.92450048 16.26150205 13.49000152 21 17 C19.23046875 17.68359375 19.23046875 17.68359375 17 18 C15.17578125 16.84765625 15.17578125 16.84765625 13.3125 15.0625 C12.62800781 14.41925781 11.94351563 13.77601563 11.23828125 13.11328125 C10.49964844 12.41589844 9.76101562 11.71851563 9 11 C6.5659168 8.92819895 4.12948232 6.85936007 1.6875 4.796875 C0 3 0 3 0 0 Z " fill="#2D3534" transform="translate(212,750)"/>
<path d="M0 0 C0.33 0.99 0.66 1.98 1 3 C1.99 3 2.98 3 4 3 C5.64681249 9.30760257 7.26309887 15.51527007 8 22 C7.34 22 6.68 22 6 22 C4.79613537 19.27704434 3.61184242 16.54815863 2.4375 13.8125 C2.09525391 13.04357422 1.75300781 12.27464844 1.40039062 11.48242188 C-1.61142744 4.39400159 -1.61142744 4.39400159 0 0 Z " fill="#222A2C" transform="translate(114,598)"/>
<path d="M0 0 C0.99 0.33 1.98 0.66 3 1 C-1.5708806 6.55629122 -5.51278818 10.81999421 -12 14 C-12.99 14.66 -13.98 15.32 -15 16 C-15.99 15.67 -16.98 15.34 -18 15 C-17.3709375 14.50371094 -16.741875 14.00742187 -16.09375 13.49609375 C-11.11517077 9.54472138 -6.29177613 5.54142316 -1.69140625 1.15234375 C-1.13324219 0.77207031 -0.57507813 0.39179687 0 0 Z " fill="#111112" transform="translate(552,567)"/>
<path d="M0 0 C14.73723771 7.63952396 14.73723771 7.63952396 19 12 C19 12.99 19 13.98 19 15 C15.2945541 13.22982411 11.77010282 11.17069345 8.25 9.0625 C7.64800781 8.71509766 7.04601562 8.36769531 6.42578125 8.00976562 C4.703125 6.97265625 4.703125 6.97265625 2 5 C2 4.01 2 3.02 2 2 C1.34 2 0.68 2 0 2 C0 1.34 0 0.68 0 0 Z " fill="#293335" transform="translate(256,786)"/>
<path d="M0 0 C2 3 2 3 2 7 C2.66 7 3.32 7 4 7 C4.53251766 8.91345327 5.05059483 10.8309295 5.5625 12.75 C5.85253906 13.81734375 6.14257812 14.8846875 6.44140625 15.984375 C6.97098494 18.84335927 6.98370862 20.31597383 6 23 C5.34 22.01 4.68 21.02 4 20 C3.34 20.66 2.68 21.32 2 22 C0.57374434 14.58856436 -0.30071865 7.55137932 0 0 Z " fill="#272E30" transform="translate(100,544)"/>
<path d="M0 0 C1.03253906 0.00676758 1.03253906 0.00676758 2.0859375 0.01367188 C3.76566335 0.02533664 5.44534375 0.04326729 7.125 0.0625 C3.33545277 2.35015318 -0.76550064 2.95646358 -5.0625 3.6875 C-5.81974365 3.81938721 -6.5769873 3.95127441 -7.35717773 4.0871582 C-12.59637743 4.9567046 -17.55749971 5.35254547 -22.875 5.0625 C-22.875 4.7325 -22.875 4.4025 -22.875 4.0625 C-21.76125 3.876875 -21.76125 3.876875 -20.625 3.6875 C-17.93831633 3.1975369 -17.93831633 3.1975369 -15.9375 2.0625 C-10.96997729 -0.34599586 -5.4072103 -0.06811408 0 0 Z " fill="#373B44" transform="translate(535.875,629.9375)"/>
<path d="M0 0 C2.60852621 1.3042631 2.73552724 2.39069098 3.8125 5.0625 C5.18953775 8.31169019 6.69277406 11.23501316 8.625 14.1875 C10.67977943 17.34237673 11.9949079 20.34511962 13 24 C9.6490795 21.766053 8.82354566 20.11963979 7.0625 16.65625 C5.9484065 14.67612407 5.9484065 14.67612407 3 13 C0.65994832 8.49323379 -0.37136045 5.07525946 0 0 Z " fill="#54595C" transform="translate(141,656)"/>
<path d="M0 0 C4.24812111 1.27443633 8.03964697 2.96114786 11.96484375 4.98046875 C14.9214362 6.4616024 17.94812794 7.72838664 21 9 C21 9.33 21 9.66 21 10 C13.72905136 9.64241236 7.1545386 8.07738182 1 4 C0.1875 1.83203125 0.1875 1.83203125 0 0 Z " fill="#27363C" transform="translate(316,821)"/>
<path d="M0 0 C3.25275457 1.34808039 4.60533508 2.4630901 6.140625 5.625 C6.48867187 6.33140625 6.83671875 7.0378125 7.1953125 7.765625 C7.54335937 8.50296875 7.89140625 9.2403125 8.25 10 C8.61351562 10.73734375 8.97703125 11.4746875 9.3515625 12.234375 C12 17.69055451 12 17.69055451 12 20 C11.34 20 10.68 20 10 20 C10 19.01 10 18.02 10 17 C9.01 16.67 8.02 16.34 7 16 C5.64034337 13.697027 4.45473268 11.46858094 3.3125 9.0625 C2.99216797 8.41603516 2.67183594 7.76957031 2.34179688 7.10351562 C0 2.29509262 0 2.29509262 0 0 Z " fill="#232929" transform="translate(129,638)"/>
<path d="M0 0 C2.93584542 0.34076777 3.9296623 0.92581571 6 3.109375 C6.66 3.98078125 7.32 4.8521875 8 5.75 C8.66 6.61109375 9.32 7.4721875 10 8.359375 C10.66 9.23078125 11.32 10.1021875 12 11 C13.32882702 12.67026174 14.66084226 14.33800959 16 16 C14.35 15.67 12.7 15.34 11 15 C11 14.34 11 13.68 11 13 C10.01 12.67 9.02 12.34 8 12 C5.53916422 9.93289795 4.41955098 7.83910195 3 5 C2.46375 4.46375 1.9275 3.9275 1.375 3.375 C0.92125 2.92125 0.4675 2.4675 0 2 C0 1.34 0 0.68 0 0 Z " fill="#2E3032" transform="translate(405,624)"/>
<path d="M0 0 C0.66 1.32 1.32 2.64 2 4 C2.66 4 3.32 4 4 4 C3.85433594 4.86238281 3.70867187 5.72476562 3.55859375 6.61328125 C3.20206981 8.77486346 2.8594722 10.93882015 2.53515625 13.10546875 C2.37917969 14.12253906 2.22320312 15.13960938 2.0625 16.1875 C1.90910156 17.21230469 1.75570312 18.23710937 1.59765625 19.29296875 C1 22 1 22 -1 25 C-1.09407358 19.82595311 -0.83340241 14.91201979 -0.12109375 9.78515625 C-0.08113281 9.19605469 -0.04117188 8.60695313 0 8 C-0.33 7.67 -0.66 7.34 -1 7 C-0.71269945 4.66055264 -0.38063221 2.3260857 0 0 Z " fill="#45494C" transform="translate(105,379)"/>
<path d="M0 0 C-1.704331 5.112993 -6.45025291 7.18813249 -11.02734375 9.5859375 C-13.12110076 10.62647129 -15.22110257 11.65456583 -17.328125 12.66796875 C-20.12378332 13.99210296 -20.12378332 13.99210296 -23 16 C-23.99 15.67 -24.98 15.34 -26 15 C-25.41508789 14.65219482 -24.83017578 14.30438965 -24.22753906 13.94604492 C-21.56695861 12.36220275 -18.90846541 10.77488947 -16.25 9.1875 C-15.32960938 8.64029297 -14.40921875 8.09308594 -13.4609375 7.52929688 C-12.57148437 6.99755859 -11.68203125 6.46582031 -10.765625 5.91796875 C-9.94868164 5.43094482 -9.13173828 4.9439209 -8.29003906 4.44213867 C-5.96908367 3.03207455 -5.96908367 3.03207455 -3.82714844 1.31762695 C-2 0 -2 0 0 0 Z " fill="#080A0C" transform="translate(712,225)"/>
<path d="M0 0 C1.5625 1.4375 1.5625 1.4375 3 4 C3.1191025 9.23058499 1.86966488 14.13887132 0 19 C-0.33 19 -0.66 19 -1 19 C-1.93838047 12.10163546 -2.13645572 6.66071488 0 0 Z " fill="#181D23" transform="translate(103,383)"/>
<path d="M0 0 C8.25 0.33 16.5 0.66 25 1 C20.65627158 3.17186421 18.41068963 3.26910455 13.625 3.25 C12.33851563 3.25515625 11.05203125 3.2603125 9.7265625 3.265625 C6.13286185 3.00947024 3.34112053 2.30334733 0 1 C0 0.67 0 0.34 0 0 Z " fill="#0E1012" transform="translate(594,454)"/>
<path d="M0 0 C0.33 0.66 0.66 1.32 1 2 C1.66 2 2.32 2 3 2 C10 9.90322581 10 9.90322581 10 15 C7.5 13.6875 7.5 13.6875 5 12 C5 11.01 5 10.02 5 9 C4.34 9 3.68 9 3 9 C0.78252188 6.69723426 0.03239994 5.47519908 -0.1875 2.25 C-0.125625 1.5075 -0.06375 0.765 0 0 Z " fill="#292C2E" transform="translate(154,680)"/>
<path d="M0 0 C3.95334148 1.2821648 5.9818124 2.32526536 8 6 C8.41159685 8.8837901 8.37348384 11.71729069 8.3125 14.625 C8.31572266 15.40101563 8.31894531 16.17703125 8.32226562 16.9765625 C8.26730253 22.73269747 8.26730253 22.73269747 6 25 C6 18.73 6 12.46 6 6 C5.34 6 4.68 6 4 6 C1.875 4.125 1.875 4.125 0 2 C0 1.34 0 0.68 0 0 Z " fill="#06070B" transform="translate(731,216)"/>
<path d="M0 0 C1.65 0 3.3 0 5 0 C5 1.32 5 2.64 5 4 C4.34 4 3.68 4 3 4 C2.71125 5.0725 2.4225 6.145 2.125 7.25 C1.27179891 10.09400364 0.4363497 12.43508983 -1 15 C-2.54343301 11.91313398 -1.55815069 9.34890414 -1 6 C-0.814375 4.865625 -0.62875 3.73125 -0.4375 2.5625 C-0.293125 1.716875 -0.14875 0.87125 0 0 Z " fill="#525656" transform="translate(129,312)"/>
<path d="M0 0 C-2.18529867 2.18529867 -3.21597023 2.50849907 -6.1328125 3.2890625 C-6.93847656 3.50820313 -7.74414062 3.72734375 -8.57421875 3.953125 C-9.41597656 4.17484375 -10.25773438 4.3965625 -11.125 4.625 C-12.39923828 4.96917969 -12.39923828 4.96917969 -13.69921875 5.3203125 C-15.79793577 5.88625866 -17.8981359 6.44587795 -20 7 C-20 6.01 -20 5.02 -20 4 C-17.60612843 3.32550034 -15.21030779 2.66023359 -12.8125 2 C-12.13896484 1.80921875 -11.46542969 1.6184375 -10.77148438 1.421875 C-7.09444844 0.4174164 -3.8149818 -0.23704741 0 0 Z " fill="#0E1011" transform="translate(618,269)"/>
<path d="M0 0 C-8.29241395 5.52827597 -20.3930421 4.23623667 -30 4 C-30 3.67 -30 3.34 -30 3 C-29.42556152 2.9498877 -28.85112305 2.89977539 -28.25927734 2.84814453 C-25.63046114 2.61455437 -23.00278849 2.36987042 -20.375 2.125 C-19.47136719 2.04636719 -18.56773437 1.96773437 -17.63671875 1.88671875 C-11.98006947 1.34995641 -5.25207024 -2.02002702 0 0 Z " fill="#07090B" transform="translate(540,674)"/>
<path d="M0 0 C0.33 0.66 0.66 1.32 1 2 C1.66 2 2.32 2 3 2 C3.97040422 7.93024803 3.89316269 13.06390334 3 19 C2.34 18.67 1.68 18.34 1 18 C0.67 12.06 0.34 6.12 0 0 Z " fill="#0B0B0D" transform="translate(560,535)"/>
<path d="M0 0 C0.66 0 1.32 0 2 0 C2.84888195 5.37625234 3.0024305 9.65370398 2 15 C1.34 15 0.68 15 0 15 C-0.84888195 9.62374766 -1.0024305 5.34629602 0 0 Z " fill="#1B2424" transform="translate(98,405)"/>
<path d="M0 0 C0.33 0.66 0.66 1.32 1 2 C0.07421875 3.9453125 0.07421875 3.9453125 -1.3125 6.125 C-1.98732422 7.21167969 -1.98732422 7.21167969 -2.67578125 8.3203125 C-3.11277344 8.87460937 -3.54976562 9.42890625 -4 10 C-4.66 10 -5.32 10 -6 10 C-6.33 10.99 -6.66 11.98 -7 13 C-7.67578125 11.26171875 -7.67578125 11.26171875 -8 9 C-6.85546875 6.89453125 -6.85546875 6.89453125 -5.1875 4.8125 C-4.64480469 4.11769531 -4.10210937 3.42289063 -3.54296875 2.70703125 C-2 1 -2 1 0 0 Z " fill="#3A3D3C" transform="translate(170,248)"/>
<path d="M0 0 C-2 3 -2 3 -5.3125 3.9375 C-9.14016461 5.04038641 -10.95590593 6.54781311 -14 9 C-14.99 8.67 -15.98 8.34 -17 8 C-15.5665848 6.84906075 -14.12811091 5.70441965 -12.6875 4.5625 C-11.48673828 3.60537109 -11.48673828 3.60537109 -10.26171875 2.62890625 C-6.80501295 0.13936166 -4.14730739 -0.11208939 0 0 Z " fill="#070809" transform="translate(730,215)"/>
<path d="M0 0 C3.21043882 1.38188453 5.04936365 2.92421903 7.25 5.625 C8.03117188 6.57246094 8.03117188 6.57246094 8.828125 7.5390625 C9.40820312 8.26222656 9.40820312 8.26222656 10 9 C9.34 9.66 8.68 10.32 8 11 C7.67 10.01 7.34 9.02 7 8 C5.11683841 6.89163577 5.11683841 6.89163577 3 6 C2.01 5.34 1.02 4.68 0 4 C0 2.68 0 1.36 0 0 Z " fill="#373D3F" transform="translate(202,740)"/>
<path d="M0 0 C0.99 0.33 1.98 0.66 3 1 C1.68 4.3 0.36 7.6 -1 11 C-1.66 11 -2.32 11 -3 11 C-3.33 11.99 -3.66 12.98 -4 14 C-5.43088528 11.13822943 -4.59991697 9.06624227 -4 6 C-3.01 6 -2.02 6 -1 6 C-0.67 4.02 -0.34 2.04 0 0 Z " fill="#4F5452" transform="translate(155,267)"/>
<path d="M0 0 C5.40489519 1.52012677 8.98492628 5.27385218 13 9 C11.234375 9.67578125 11.234375 9.67578125 9 10 C7.078125 8.85546875 7.078125 8.85546875 5.25 7.1875 C4.63640625 6.64480469 4.0228125 6.10210938 3.390625 5.54296875 C2 4 2 4 2 2 C1.34 2 0.68 2 0 2 C0 1.34 0 0.68 0 0 Z " fill="#222527" transform="translate(422,643)"/>
<path d="M0 0 C2.48657163 2.9430108 3.51280611 5.21710094 4.1875 9 C4.34605469 9.845625 4.50460938 10.69125 4.66796875 11.5625 C5 14 5 14 5 18 C3.68 18 2.36 18 1 18 C0.67 17.01 0.34 16.02 0 15 C0.33 14.67 0.66 14.34 1 14 C0.90968426 11.64305046 0.75311872 9.28846418 0.5625 6.9375 C0.46066406 5.64714844 0.35882813 4.35679687 0.25390625 3.02734375 C0.17011719 2.02832031 0.08632812 1.02929688 0 0 Z " fill="#6C7375" transform="translate(112,583)"/>
<path d="M0 0 C-3.53667928 2.35778619 -6.84005552 2.94284357 -10.9375 3.6875 C-12.01161133 3.90116211 -12.01161133 3.90116211 -13.10742188 4.11914062 C-19.58976909 5.32669557 -19.58976909 5.32669557 -23 4 C-7.25512528 -0.59225513 -7.25512528 -0.59225513 0 0 Z " fill="#7C8888" transform="translate(410,99)"/>
<path d="M0 0 C0.66 0.33 1.32 0.66 2 1 C1.53199289 5.05606165 1.12046792 8.46588679 -1 12 C-1.66 12 -2.32 12 -3 12 C-4.21386936 8.35839192 -3.6674695 7.66834531 -2.0625 4.3125 C-1.49208984 3.10013672 -1.49208984 3.10013672 -0.91015625 1.86328125 C-0.60980469 1.24839844 -0.30945313 0.63351562 0 0 Z " fill="#1C2020" transform="translate(127,317)"/>
<path d="M0 0 C1.1700097 3.91736581 0.69584017 6.97959015 0 11 C-0.66 11 -1.32 11 -2 11 C-2.33 15.62 -2.66 20.24 -3 25 C-3.33 25 -3.66 25 -4 25 C-3.40546697 6.95899772 -3.40546697 6.95899772 0 0 Z " fill="#6A7372" transform="translate(103,405)"/>
<path d="M0 0 C0.66 0.33 1.32 0.66 2 1 C-0.07818044 2.9640607 -2.16214565 4.92126906 -4.25 6.875 C-4.83652344 7.43058594 -5.42304687 7.98617187 -6.02734375 8.55859375 C-6.88779297 9.36103516 -6.88779297 9.36103516 -7.765625 10.1796875 C-8.28930664 10.67194824 -8.81298828 11.16420898 -9.35253906 11.67138672 C-11.13389793 13.10798348 -12.92462201 14.04911389 -15 15 C-4.21052632 2.10526316 -4.21052632 2.10526316 0 0 Z " fill="#0D1017" transform="translate(619,705)"/>
<path d="M0 0 C5.32697239 1.45281065 8.36402802 5.08111378 12 9 C10.68 9.33 9.36 9.66 8 10 C7.59007812 9.50628906 7.18015625 9.01257813 6.7578125 8.50390625 C6.21898437 7.86324219 5.68015625 7.22257813 5.125 6.5625 C4.59132813 5.92441406 4.05765625 5.28632812 3.5078125 4.62890625 C2.0777243 2.89194996 2.0777243 2.89194996 0 2 C0 1.34 0 0.68 0 0 Z " fill="#D9D9DC" transform="translate(366,696)"/>
<path d="M0 0 C5.83094895 -0.21203451 11.44413776 0.03052586 17 2 C17.33 2.66 17.66 3.32 18 4 C11.58518742 4.42765417 6.11404596 2.85743168 0 1 C0 0.67 0 0.34 0 0 Z " fill="#111316" transform="translate(403,273)"/>
<path d="M0 0 C6.44585225 0.83172287 12.26516986 4.10007456 18 7 C12.46342706 7.42589023 8.10334017 5.905247 3 4 C3 3.34 3 2.68 3 2 C2.01 2 1.02 2 0 2 C0 1.34 0 0.68 0 0 Z " fill="#3A474A" transform="translate(337,831)"/>
<path d="M0 0 C3.34019306 0.59646305 5.50470633 1.68294159 8 4 C8 4.99 8 5.98 8 7 C8.66 7 9.32 7 10 7 C9.67 7.66 9.34 8.32 9 9 C5.7 6.69 2.4 4.38 -1 2 C-0.67 1.34 -0.34 0.68 0 0 Z " fill="#1B2426" transform="translate(248,781)"/>
<path d="M0 0 C2.06309376 0.11478413 4.12548354 0.24226198 6.1875 0.375 C7.33605469 0.44460938 8.48460937 0.51421875 9.66796875 0.5859375 C12.79959117 0.97509574 15.15285809 1.6809851 18 3 C17.67 3.66 17.34 4.32 17 5 C10.67721029 4.67373505 5.44535609 4.38495108 0 1 C0 0.67 0 0.34 0 0 Z " fill="#414348" transform="translate(460,759)"/>
<path d="M0 0 C0.33 1.32 0.66 2.64 1 4 C1.66 4 2.32 4 3 4 C2.67 9.28 2.34 14.56 2 20 C1.67 20 1.34 20 1 20 C0.63667026 17.41765641 0.28405133 14.83460218 -0.0625 12.25 C-0.16626953 11.52039063 -0.27003906 10.79078125 -0.37695312 10.0390625 C-0.85806208 6.3892704 -1.04532842 3.52327086 0 0 Z " fill="#273132" transform="translate(97,416)"/>
<path d="M0 0 C0.66 0.33 1.32 0.66 2 1 C1.67 1.99 1.34 2.98 1 4 C0.34 4 -0.32 4 -1 4 C-1.33 4.99 -1.66 5.98 -2 7 C-3.65 7.33 -5.3 7.66 -7 8 C-6.875 6.25 -6.875 6.25 -6 4 C-2.9375 1.75 -2.9375 1.75 0 0 Z " fill="#242629" transform="translate(561,658)"/>
<path d="M0 0 C0.97582031 0.00902344 1.95164062 0.01804687 2.95703125 0.02734375 C3.69308594 0.03894531 4.42914063 0.05054688 5.1875 0.0625 C5.1875 0.3925 5.1875 0.7225 5.1875 1.0625 C-2.2375 2.5475 -2.2375 2.5475 -9.8125 4.0625 C-10.1425 3.0725 -10.4725 2.0825 -10.8125 1.0625 C-7.13862505 0.20951624 -3.7677607 -0.04539471 0 0 Z " fill="#E4E4E7" transform="translate(498.8125,767.9375)"/>
<path d="M0 0 C5.21979128 -0.1799928 9.07262981 0.02905192 14 2 C14 2.33 14 2.66 14 3 C4.58997722 3.3690205 4.58997722 3.3690205 0 1 C0 0.67 0 0.34 0 0 Z " fill="#0E1115" transform="translate(634,360)"/>
<path d="M0 0 C0.33 0.66 0.66 1.32 1 2 C1.66 2.33 2.32 2.66 3 3 C1.68 7.29 0.36 11.58 -1 16 C-1.97796553 12.0881379 -2.2226431 9.00757582 -2 5 C-1.34 4.34 -0.68 3.68 0 3 C0 2.01 0 1.02 0 0 Z " fill="#3C4041" transform="translate(123,327)"/>
<path d="M0 0 C9.59453303 0.59453303 9.59453303 0.59453303 13 4 C7.73946963 4.31563182 4.55426184 3.66590937 0 1 C0 0.67 0 0.34 0 0 Z " fill="#0B0D0E" transform="translate(579,450)"/>
<path d="M0 0 C4.13621084 3.3810038 7.81316569 6.66590534 11 11 C10.67 11.66 10.34 12.32 10 13 C8.69901283 11.78070272 7.40957563 10.54907548 6.125 9.3125 C5.40570313 8.62800781 4.68640625 7.94351562 3.9453125 7.23828125 C1.91664113 4.90408709 0.97007267 2.91532366 0 0 Z " fill="#06080C" transform="translate(312,404)"/>
<path d="M0 0 C-3.96 0.99 -7.92 1.98 -12 3 C-12 2.01 -12 1.02 -12 0 C-10.56666979 -0.39063507 -9.12807321 -0.76198474 -7.6875 -1.125 C-6.88699219 -1.33382813 -6.08648438 -1.54265625 -5.26171875 -1.7578125 C-3 -2 -3 -2 0 0 Z " fill="#212329" transform="translate(592,363)"/>
<path d="M0 0 C-1 3 -1 3 -3.43359375 4.421875 C-4.42488281 4.86015625 -5.41617188 5.2984375 -6.4375 5.75 C-7.42621094 6.19859375 -8.41492188 6.6471875 -9.43359375 7.109375 C-10.28050781 7.40328125 -11.12742187 7.6971875 -12 8 C-12.66 7.67 -13.32 7.34 -14 7 C-12.04480616 5.82807953 -10.0857461 4.6626071 -8.125 3.5 C-7.03445313 2.8503125 -5.94390625 2.200625 -4.8203125 1.53125 C-2 0 -2 0 0 0 Z " fill="#0A0C0E" transform="translate(685,241)"/>
<path d="M0 0 C0 2 0 2 -1.4375 3.5 C-5.08271629 5.63378514 -8.87563571 6.25091674 -13 7 C-11.60643954 4.21287908 -9.83494327 3.73536671 -7.0625 2.375 C-6.16660156 1.92898438 -5.27070312 1.48296875 -4.34765625 1.0234375 C-2 0 -2 0 0 0 Z " fill="#9FA2A5" transform="translate(568,747)"/>
<path d="M0 0 C2.70931419 0.15481795 4.46584039 0.48172081 6.4453125 2.40234375 C7.67679642 3.89771708 8.8429837 5.4462924 10 7 C6.433255 7 5.89456323 6.36308045 3.3125 4.0625 C2.68988281 3.51722656 2.06726563 2.97195313 1.42578125 2.41015625 C0.95527344 1.94480469 0.48476563 1.47945312 0 1 C0 0.67 0 0.34 0 0 Z " fill="#2D2E32" transform="translate(414,604)"/>
<path d="M0 0 C0.99 0 1.98 0 3 0 C5 3 5 3 4.75 5.0625 C4 7 4 7 2 9 C1.34 6.03 0.68 3.06 0 0 Z " fill="#262B2E" transform="translate(107,580)"/>
<path d="M0 0 C1.48828125 1.14453125 1.48828125 1.14453125 3 3 C3.29296875 5.69921875 3.29296875 5.69921875 3.1875 8.6875 C3.16042969 9.68136719 3.13335938 10.67523438 3.10546875 11.69921875 C3.07066406 12.45847656 3.03585937 13.21773438 3 14 C1.44962387 11.14128958 0.51021069 8.48629675 -0.1875 5.3125 C-0.36667969 4.52488281 -0.54585938 3.73726563 -0.73046875 2.92578125 C-0.81941406 2.29027344 -0.90835937 1.65476562 -1 1 C-0.67 0.67 -0.34 0.34 0 0 Z " fill="#0F0E11" transform="translate(511,436)"/>
<path d="M0 0 C3.16130459 4.21507278 3.3367697 5.06071112 3 10 C2.34 9.67 1.68 9.34 1 9 C0.34 9.66 -0.32 10.32 -1 11 C-0.67 7.37 -0.34 3.74 0 0 Z " fill="#23282C" transform="translate(103,383)"/>
<path d="M0 0 C1.60379341 -0.05416188 3.20811406 -0.09286638 4.8125 -0.125 C5.70582031 -0.14820313 6.59914063 -0.17140625 7.51953125 -0.1953125 C10 0 10 0 13 2 C13 2.66 13 3.32 13 4 C8.71 3.01 4.42 2.02 0 1 C0 0.67 0 0.34 0 0 Z " fill="#27282D" transform="translate(643,363)"/>
<path d="M0 0 C0.99 0 1.98 0 3 0 C1.55746343 3.36591866 -0.33264727 5.51047079 -3 8 C-3.66 7.67 -4.32 7.34 -5 7 C-1.125 1.125 -1.125 1.125 0 0 Z " fill="#111214" transform="translate(585,637)"/>
<path d="M0 0 C0.33 0 0.66 0 1 0 C1.19392201 5.52677733 0.7479503 9.75614911 -1 15 C-1.33 15 -1.66 15 -2 15 C-2.19392201 9.47322267 -1.7479503 5.24385089 0 0 Z " fill="#8E9194" transform="translate(106,389)"/>
<path d="M0 0 C1.23621824 2.47243647 0.98408601 3.77317939 0.6875 6.5 C0.60886719 7.2940625 0.53023438 8.088125 0.44921875 8.90625 C0 11 0 11 -2 13 C-2.2493357 11.39884424 -2.47378648 9.79379841 -2.6875 8.1875 C-2.81511719 7.29417969 -2.94273438 6.40085937 -3.07421875 5.48046875 C-3 3 -3 3 -1.51953125 1.17578125 C-1.01808594 0.78777344 -0.51664062 0.39976562 0 0 Z " fill="#4F5456" transform="translate(111,369)"/>
<path d="M0 0 C-0.33 0.99 -0.66 1.98 -1 3 C-6.28 2.67 -11.56 2.34 -17 2 C-17 1.67 -17 1.34 -17 1 C-15.10440036 0.83069605 -13.20850769 0.66467136 -11.3125 0.5 C-10.25675781 0.4071875 -9.20101562 0.314375 -8.11328125 0.21875 C-5.39363975 0.0276585 -2.72460144 -0.04043935 0 0 Z " fill="#2E3235" transform="translate(636,359)"/>
<path d="M0 0 C0.66 0.66 1.32 1.32 2 2 C1.96712417 4.72869407 1.43602229 7.2966618 1 10 C0.34 10 -0.32 10 -1 10 C-2.23076923 4.58461538 -2.23076923 4.58461538 -1.0625 1.625 C-0.5365625 0.820625 -0.5365625 0.820625 0 0 Z " fill="#1A1E1F" transform="translate(120,333)"/>
<path d="M0 0 C2.64752004 2.57784846 4.94432065 4.91648098 7 8 C5.68 8.33 4.36 8.66 3 9 C0 2.25 0 2.25 0 0 Z " fill="#CBCCD0" transform="translate(358,686)"/>
<path d="M0 0 C1.485 0.99 1.485 0.99 3 2 C2.67 5.63 2.34 9.26 2 13 C0.12815629 9.25631258 -0.23999767 8.1599209 -0.125 4.25 C-0.10695313 3.45078125 -0.08890625 2.6515625 -0.0703125 1.828125 C-0.04710937 1.22484375 -0.02390625 0.6215625 0 0 Z " fill="#3F3D48" transform="translate(461,536)"/>
<path d="M0 0 C0 1.66666667 0 3.33333333 0 5 C-1.98 5.99 -3.96 6.98 -6 8 C-6.66 7.34 -7.32 6.68 -8 6 C-5.36 4.02 -2.72 2.04 0 0 Z " fill="#2A2D2D" transform="translate(441,437)"/>
<path d="M0 0 C3.40312738 1.05875074 6.01353231 2.00902154 9 4 C9 4.66 9 5.32 9 6 C7.68 6 6.36 6 5 6 C5 5.34 5 4.68 5 4 C4.34 4 3.68 4 3 4 C3 3.34 3 2.68 3 2 C2.01 1.67 1.02 1.34 0 1 C0 0.67 0 0.34 0 0 Z " fill="#646F70" transform="translate(290,807)"/>
<path d="M0 0 C2.31 1.98 4.62 3.96 7 6 C6.67 6.66 6.34 7.32 6 8 C5.34 7.34 4.68 6.68 4 6 C2.35008418 5.29289322 0.68437744 4.62056011 -1 4 C-0.67 2.68 -0.34 1.36 0 0 Z " fill="#565D5D" transform="translate(184,719)"/>
<path d="M0 0 C0.33 0.99 0.66 1.98 1 3 C1.66 3 2.32 3 3 3 C3 4.98 3 6.96 3 9 C2.01 9.495 2.01 9.495 1 10 C-1.125 3.375 -1.125 3.375 0 0 Z " fill="#141C1D" transform="translate(114,598)"/>
<path d="M0 0 C7.50769231 0.61538462 7.50769231 0.61538462 10 2.5625 C10.33 3.036875 10.66 3.51125 11 4 C9.741875 4.04125 8.48375 4.0825 7.1875 4.125 C6.47980469 4.14820313 5.77210938 4.17140625 5.04296875 4.1953125 C3 4 3 4 0 2 C0 1.34 0 0.68 0 0 Z " fill="#2B2C31" transform="translate(473,561)"/>
<path d="M0 0 C0.99 0.33 1.98 0.66 3 1 C-0.465 3.97 -0.465 3.97 -4 7 C-4.33 6.34 -4.66 5.68 -5 5 C-3.35 3.35 -1.7 1.7 0 0 Z " fill="#101213" transform="translate(662,432)"/>
<path d="M0 0 C4 1 4 1 5.8125 2.875 C6.204375 3.57625 6.59625 4.2775 7 5 C6.67 5.99 6.34 6.98 6 8 C4.02 5.36 2.04 2.72 0 0 Z " fill="#1B2121" transform="translate(185,724)"/>
<path d="M0 0 C5.57142857 5.14285714 5.57142857 5.14285714 6 9 C5.01 9.495 5.01 9.495 4 10 C3.32845067 8.71086513 2.66291141 7.41859796 2 6.125 C1.62875 5.40570312 1.2575 4.68640625 0.875 3.9453125 C0 2 0 2 0 0 Z " fill="#3F4646" transform="translate(178,712)"/>
<path d="M0 0 C1.485 0.99 1.485 0.99 3 2 C3 2.99 3 3.98 3 5 C3.66 5 4.32 5 5 5 C5.33 6.65 5.66 8.3 6 10 C5.34 10 4.68 10 4 10 C0 3.375 0 3.375 0 0 Z " fill="#101417" transform="translate(313,618)"/>
<path d="M0 0 C2.02350324 3.03525486 2.32124018 4.19426202 2.625 7.6875 C2.69976562 8.49574219 2.77453125 9.30398438 2.8515625 10.13671875 C2.90054688 10.75160156 2.94953125 11.36648438 3 12 C2.01 12 1.02 12 0 12 C0 8.04 0 4.08 0 0 Z " fill="#131B1D" transform="translate(100,544)"/>
<path d="M0 0 C2.19510603 0.25361783 4.38228739 0.57765908 6.5625 0.9375 C8.35880859 1.22947266 8.35880859 1.22947266 10.19140625 1.52734375 C11.11824219 1.68332031 12.04507812 1.83929688 13 2 C11.02 2.99 11.02 2.99 9 4 C8.67 3.34 8.34 2.68 8 2 C7.071875 2.20625 6.14375 2.4125 5.1875 2.625 C2 3 2 3 -1 1 C-0.67 0.67 -0.34 0.34 0 0 Z " fill="#1D2024" transform="translate(426,277)"/>
<path d="M0 0 C3 1 3 1 4.25 2.875 C5 5 5 5 4 8 C2.35 6.02 0.7 4.04 -1 2 C-0.67 1.34 -0.34 0.68 0 0 Z " fill="#232429" transform="translate(359,684)"/>
<path d="M0 0 C0 0.66 0 1.32 0 2 C2.97 2.495 2.97 2.495 6 3 C2.57056481 4.18771723 0.62215325 3.80226223 -2.75 2.5625 C-3.54921875 2.27503906 -4.3484375 1.98757813 -5.171875 1.69140625 C-5.77515625 1.46324219 -6.3784375 1.23507812 -7 1 C-3.375 -1.125 -3.375 -1.125 0 0 Z " fill="#343639" transform="translate(455,624)"/>
<path d="M0 0 C0.33 0.99 0.66 1.98 1 3 C-0.98 4.32 -2.96 5.64 -5 7 C-5.66 6.67 -6.32 6.34 -7 6 C-7 5.34 -7 4.68 -7 4 C-5.02 3.67 -3.04 3.34 -1 3 C-0.67 2.01 -0.34 1.02 0 0 Z " fill="#262C2E" transform="translate(576,613)"/>
<path d="M0 0 C0.33 0 0.66 0 1 0 C1.14285714 7.42857143 1.14285714 7.42857143 0 11 C-0.66 11 -1.32 11 -2 11 C-2.19622241 6.78121808 -1.80230168 3.82989106 0 0 Z " fill="#060C13" transform="translate(719,534)"/>
<path d="M0 0 C0.66 0 1.32 0 2 0 C2.33 2.64 2.66 5.28 3 8 C2.01 8.33 1.02 8.66 0 9 C0 6.03 0 3.06 0 0 Z " fill="#D6D6DA" transform="translate(264,488)"/>
<path d="M0 0 C0 0.66 0 1.32 0 2 C-4.17737474 3.59138085 -7.53160785 4.21278058 -12 4 C-12 3.67 -12 3.34 -12 3 C-11.05125 2.690625 -10.1025 2.38125 -9.125 2.0625 C-3.05882353 0 -3.05882353 0 0 0 Z " fill="#0E1112" transform="translate(636,450)"/>
<path d="M0 0 C0.99 0 1.98 0 3 0 C3.19622241 4.21878192 2.80230168 7.17010894 1 11 C0.67 11 0.34 11 0 11 C0 7.37 0 3.74 0 0 Z " fill="#161D1F" transform="translate(109,363)"/>
<path d="M0 0 C2.64 0 5.28 0 8 0 C8.33 0.99 8.66 1.98 9 3 C9.66 3.33 10.32 3.66 11 4 C7.0507432 3.44894091 3.65079826 2.61064629 0 1 C0 0.67 0 0.34 0 0 Z " fill="#BEC3C5" transform="translate(342,252)"/>
<path d="M0 0 C2.93200474 2.85276137 5.64315404 5.65079784 8 9 C7.401875 8.690625 6.80375 8.38125 6.1875 8.0625 C3.91043228 6.89790296 3.91043228 6.89790296 1 6 C0.67 4.02 0.34 2.04 0 0 Z " fill="#3E4445" transform="translate(191,727)"/>
<path d="M0 0 C-2.90092502 1.93395001 -3.89674737 2.30131941 -7.1875 2.625 C-8.445625 2.74875 -9.70375 2.8725 -11 3 C-10 1 -10 1 -7.1875 -0.1875 C-4.14038924 -0.96421451 -2.86250637 -1.10096399 0 0 Z " fill="#0D0F12" transform="translate(540,674)"/>
<path d="M0 0 C0.66 0.33 1.32 0.66 2 1 C2.59355614 3.64860427 2.74209269 6.29197322 3 9 C1.68 8.34 0.36 7.68 -1 7 C-0.67 4.69 -0.34 2.38 0 0 Z " fill="#141B1E" transform="translate(107,574)"/>
<path d="M0 0 C4.21912747 0.4794463 6.79663178 1.16625119 10 4 C6.53058454 3.54177532 3.32604951 3.10868317 0 2 C0 1.34 0 0.68 0 0 Z " fill="#0E1112" transform="translate(364,447)"/>
<path d="M0 0 C0 0.66 0 1.32 0 2 C-5.41538462 5.07692308 -5.41538462 5.07692308 -8.375 4.6875 C-8.91125 4.460625 -9.4475 4.23375 -10 4 C-8.35 3.67 -6.7 3.34 -5 3 C-5 2.34 -5 1.68 -5 1 C-3 0 -3 0 0 0 Z " fill="#0D1215" transform="translate(341,367)"/>
<path d="M0 0 C-0.33 0.66 -0.66 1.32 -1 2 C-4.3 1.67 -7.6 1.34 -11 1 C-6.46780033 -1.26609984 -4.82227075 -0.92735976 0 0 Z " fill="#202427" transform="translate(412,361)"/>
<path d="M0 0 C2 1 2 1 2.6328125 2.84765625 C2.79523438 3.57855469 2.95765625 4.30945313 3.125 5.0625 C3.29257813 5.79597656 3.46015625 6.52945313 3.6328125 7.28515625 C3.75398437 7.85105469 3.87515625 8.41695312 4 9 C2 7.875 2 7.875 0 6 C-0.25 2.8125 -0.25 2.8125 0 0 Z " fill="#656C6E" transform="translate(141,656)"/>
<path d="M0 0 C-0.33 0.66 -0.66 1.32 -1 2 C-4.96 1.67 -8.92 1.34 -13 1 C-13 0.67 -13 0.34 -13 0 C-11.58456585 -0.19658808 -10.16755969 -0.38187546 -8.75 -0.5625 C-7.96109375 -0.66691406 -7.1721875 -0.77132812 -6.359375 -0.87890625 C-3.99467126 -1.00027349 -2.2488963 -0.69633257 0 0 Z " fill="#D1D7DD" transform="translate(526,635)"/>
<path d="M0 0 C3.68754757 0.49831724 5.60490662 1.10067643 8 4 C7.01 4.495 7.01 4.495 6 5 C3.96855359 4.06553465 1.96466413 3.06775224 0 2 C0 1.34 0 0.68 0 0 Z " fill="#26282B" transform="translate(429,615)"/>
<path d="M0 0 C0.66 0.33 1.32 0.66 2 1 C2 3.64 2 6.28 2 9 C1.01 8.67 0.02 8.34 -1 8 C-0.67 5.36 -0.34 2.72 0 0 Z " fill="#131A1B" transform="translate(98,534)"/>
<path d="M0 0 C0.99 0 1.98 0 3 0 C1.9024777 2.99324263 1.32317108 3.84610901 -1.625 5.25 C-2.40875 5.4975 -3.1925 5.745 -4 6 C-2.1875 3 -2.1875 3 0 0 Z " fill="#0E1211" transform="translate(444,435)"/>
<path d="M0 0 C2.31 0.33 4.62 0.66 7 1 C7 1.66 7 2.32 7 3 C7.66 3 8.32 3 9 3 C8.67 3.66 8.34 4.32 8 5 C5.36 3.68 2.72 2.36 0 1 C0 0.67 0 0.34 0 0 Z " fill="#141C1D" transform="translate(286,808)"/>
<path d="M0 0 C2.8002232 1.4001116 3.56776098 3.26572551 5 6 C5 6.99 5 7.98 5 9 C4.01 8.67 3.02 8.34 2 8 C1.26953125 6.15234375 1.26953125 6.15234375 0.8125 3.9375 C0.65394531 3.20402344 0.49539062 2.47054687 0.33203125 1.71484375 C0.22246094 1.14894531 0.11289063 0.58304688 0 0 Z " fill="#626767" transform="translate(159,686)"/>
<path d="M0 0 C1.32 0.33 2.64 0.66 4 1 C1.69 2.65 -0.62 4.3 -3 6 C-2 2 -2 2 0 0 Z " fill="#292B31" transform="translate(406,604)"/>
<path d="M0 0 C3.3 0.33 6.6 0.66 10 1 C10 1.33 10 1.66 10 2 C4.06 2.495 4.06 2.495 -2 3 C-1.34 2.01 -0.68 1.02 0 0 Z " fill="#2F3236" transform="translate(596,359)"/>
</svg>
